<?xml version="1.0" encoding="utf-8"?>
<!-- Generator: Adobe Illustrator 22.0.1, SVG Export Plug-In . SVG Version: 6.00 Build 0)  -->
<svg version="1.1" xmlns="http://www.w3.org/2000/svg" xmlns:xlink="http://www.w3.org/1999/xlink" x="0px" y="0px"
	 viewBox="0 0 50 50" style="enable-background:new 0 0 50 50;" xml:space="preserve">
<g id="Originals" style="display:none;">
</g>
<g id="Layer_1">
	<g>
		<path d="M23.19,20.93c-0.26,0.26-0.26,0.69,0,0.95l3.03,3.03l-3.15,3.15c-0.26,0.26-0.26,0.69,0,0.95c0.13,0.13,0.3,0.2,0.48,0.2
			c0.17,0,0.35-0.07,0.48-0.2l4.1-4.1l-3.98-3.98C23.88,20.67,23.45,20.67,23.19,20.93z"/>
		<path d="M25,15c-5.51,0-10,4.49-10,10s4.49,10,10,10s10-4.49,10-10S30.51,15,25,15z M25,33.65c-4.77,0-8.65-3.88-8.65-8.65
			c0-4.77,3.88-8.65,8.65-8.65s8.65,3.88,8.65,8.65C33.65,29.77,29.77,33.65,25,33.65z"/>
	</g>
</g>
</svg>
