<?xml version="1.0" encoding="utf-8"?>
<!-- Generator: Adobe Illustrator 22.0.1, SVG Export Plug-In . SVG Version: 6.00 Build 0)  -->
<svg version="1.1" xmlns="http://www.w3.org/2000/svg" xmlns:xlink="http://www.w3.org/1999/xlink" x="0px" y="0px"
	 viewBox="0 0 50 50" style="enable-background:new 0 0 50 50;" xml:space="preserve">
<g id="Originals" style="display:none;">
</g>
<g id="Layer_1">
	<path d="M34.71,33.32l-6.66-6.66c0.93-1.22,1.49-2.74,1.49-4.39c0-4.01-3.26-7.27-7.27-7.27S15,18.26,15,22.27
		c0,4.01,3.26,7.27,7.27,7.27c1.65,0,3.17-0.56,4.39-1.49l6.66,6.66c0.19,0.19,0.44,0.29,0.7,0.29c0.25,0,0.5-0.1,0.7-0.29
		C35.1,34.33,35.1,33.7,34.71,33.32z M16.97,22.27c0-2.92,2.38-5.3,5.3-5.3c2.92,0,5.3,2.38,5.3,5.3c0,1.4-0.55,2.66-1.44,3.6
		c-0.05,0.03-0.11,0.06-0.15,0.1c-0.05,0.05-0.07,0.1-0.1,0.15c-0.95,0.89-2.21,1.44-3.61,1.44C19.35,27.57,16.97,25.19,16.97,22.27
		z"/>
</g>
</svg>
