<?xml version="1.0" encoding="utf-8"?>
<!-- Generator: Adobe Illustrator 22.0.1, SVG Export Plug-In . SVG Version: 6.00 Build 0)  -->
<svg version="1.1" xmlns="http://www.w3.org/2000/svg" xmlns:xlink="http://www.w3.org/1999/xlink" x="0px" y="0px"
	 viewBox="0 0 50 50" style="enable-background:new 0 0 50 50;" xml:space="preserve">
<g id="Originals" style="display:none;">
</g>
<g id="Layer_1">
	<g>
		<path d="M26.92,20.99c-0.26-0.26-0.69-0.26-0.95,0l-4.09,4.09l3.98,3.98c0.13,0.13,0.3,0.2,0.48,0.2c0.17,0,0.34-0.07,0.48-0.2
			c0.26-0.26,0.26-0.69,0-0.95l-3.02-3.02l3.14-3.14C27.19,21.68,27.19,21.25,26.92,20.99z"/>
		<path d="M25,15c-5.51,0-10,4.49-10,10c0,5.51,4.49,10,10,10s10-4.49,10-10C35,19.49,30.51,15,25,15z M25,33.61
			c-4.75,0-8.61-3.86-8.61-8.61s3.86-8.62,8.61-8.62s8.61,3.86,8.61,8.62S29.75,33.61,25,33.61z"/>
	</g>
</g>
</svg>
