<?xml version="1.0" encoding="utf-8"?>
<!-- Generator: Adobe Illustrator 22.0.1, SVG Export Plug-In . SVG Version: 6.00 Build 0)  -->
<svg version="1.1" xmlns="http://www.w3.org/2000/svg" xmlns:xlink="http://www.w3.org/1999/xlink" x="0px" y="0px"
	 viewBox="0 0 50 50" style="enable-background:new 0 0 50 50;" xml:space="preserve">
<g id="Originals" style="display:none;">
</g>
<g id="Layer_1">
	<g>
		<path d="M32.53,27.78c-0.61,0-1.1,0.49-1.1,1.1v3.92H18.57v-3.92c0-0.61-0.49-1.1-1.1-1.1s-1.1,0.49-1.1,1.1V35h17.26v-6.12
			C33.63,28.27,33.14,27.78,32.53,27.78z"/>
		<path d="M25,29.24l4.65-4.04c0.46-0.4,0.51-1.09,0.11-1.55c-0.4-0.46-1.09-0.51-1.55-0.11l-2.12,1.84V16.1
			c0-0.61-0.49-1.1-1.1-1.1s-1.1,0.49-1.1,1.1v9.28l-2.12-1.84c-0.46-0.4-1.15-0.35-1.55,0.11c-0.4,0.46-0.35,1.15,0.11,1.55
			L25,29.24z"/>
	</g>
</g>
</svg>
