<svg version="1.1" xmlns="http://www.w3.org/2000/svg" xmlns:xlink="http://www.w3.org/1999/xlink" x="0px" y="0px" viewBox="0 0 50 50" style="enable-background:new 0 0 50 50;" xml:space="preserve"> <path fill="#fff" d="M34.64,32.89L26.75,25l7.88-7.88c0.48-0.48,0.48-1.27,0-1.75c-0.48-0.48-1.27-0.48-1.75,0L25,23.25l-7.88-7.88 c-0.48-0.48-1.27-0.48-1.75,0c-0.48,0.48-0.48,1.27,0,1.75L23.25,25l-7.88,7.88c-0.48,0.48-0.48,1.27,0,1.75 C15.6,34.88,15.92,35,16.24,35s0.63-0.12,0.88-0.36L25,26.75l7.89,7.89c0.24,0.24,0.56,0.36,0.88,0.36c0.32,0,0.63-0.12,0.88-0.36 C35.12,34.15,35.12,33.37,34.64,32.89z"/> </svg>
