<?xml version="1.0" standalone="no"?>
<!DOCTYPE svg PUBLIC "-//W3C//DTD SVG 1.1//EN" "http://www.w3.org/Graphics/SVG/1.1/DTD/svg11.dtd" >
<svg xmlns="http://www.w3.org/2000/svg">
<metadata></metadata>
<defs>
<font id="freightsansbook" horiz-adv-x="1452" >
<font-face units-per-em="2048" ascent="1638" descent="-410" />
<missing-glyph horiz-adv-x="284" />
<glyph horiz-adv-x="0" />
<glyph unicode="&#xd;" horiz-adv-x="284" />
<glyph unicode=" "  horiz-adv-x="284" />
<glyph unicode="&#x09;" horiz-adv-x="284" />
<glyph unicode="&#xa0;" horiz-adv-x="284" />
<glyph unicode="!" horiz-adv-x="532" d="M164 80q0 41 28.5 71.5t75.5 30.5q45 0 73 -30.5t28 -71.5t-28 -74t-73 -33q-47 0 -75.5 33t-28.5 74zM190 1331h154l-39 -950h-72z" />
<glyph unicode="&#x22;" horiz-adv-x="620" d="M-6 815l260 508l123 -59l-316 -449h-67zM297 815l260 508l123 -59l-313 -449h-70z" />
<glyph unicode="#" horiz-adv-x="1153" d="M39 340v94h211l88 324h-258v94h282l123 463h101l-125 -463h352l123 463h98l-123 -463h185v-94h-211l-86 -324h256v-94h-283l-131 -492h-98l131 492h-350l-134 -492h-98l133 492h-186zM348 434h352l86 324h-352z" />
<glyph unicode="$" horiz-adv-x="1005" d="M70 92l47 117q57 -39 121.5 -67.5t138.5 -43.5l3 22q3 23 7 58t11.5 81t13.5 93q16 113 34 254q-66 20 -129 46t-112 66t-80 98t-31 142q0 76 30 140.5t84 110.5t129 72t165 26h23.5t23.5 -2q0 2 4 31.5t8 64.5l12 94h89l-27 -201q70 -12 133 -37.5t119 -60.5l-47 -115 q-100 70 -222 95l-63 -467q68 -20 132.5 -48t113.5 -71t79.5 -102.5t30.5 -145.5q0 -80 -31.5 -147.5t-88 -116.5t-136.5 -77t-176 -28h-30l-31 -225h-88l30 236q-78 10 -151.5 38.5t-138.5 69.5zM221 969q0 -96 66.5 -145.5t183.5 -90.5l2 21q2 20 7 52t10.5 72t11.5 83 q14 98 30 227h-30q-143 0 -212 -65.5t-69 -153.5zM463 90h20q68 0 124.5 18.5t96 51.5t61 77t21.5 95q0 100 -66.5 153.5t-191.5 94.5z" />
<glyph unicode="%" horiz-adv-x="1521" d="M31 987q0 70 23.5 132.5t67.5 108.5t107.5 73.5t141.5 27.5q80 0 142 -27.5t106.5 -73.5t68 -108.5t23.5 -132.5q0 -68 -23.5 -129t-68 -107t-106.5 -74t-142 -28q-78 0 -141.5 28t-107.5 74t-67.5 107.5t-23.5 128.5zM125 987q0 -49 16.5 -95t48 -80t77.5 -54.5 t104 -20.5q59 0 104 20.5t78 54.5t49 80t16 95q0 106 -65.5 180t-181.5 74q-117 0 -181.5 -73.5t-64.5 -180.5zM186 -31l1039 1340h110l-1036 -1340h-113zM809 291q0 68 23.5 129t67.5 107t106.5 74t142.5 28q78 0 141.5 -28t107.5 -74t67.5 -107t23.5 -129 q0 -70 -23.5 -132.5t-67.5 -108.5t-107.5 -73.5t-141.5 -27.5q-80 0 -142.5 27.5t-106.5 73.5t-67.5 108.5t-23.5 132.5zM903 291q0 -106 64.5 -180t181.5 -74t182.5 74t65.5 180q0 49 -16.5 95t-49.5 80t-78 54.5t-104 20.5q-57 0 -103.5 -20.5t-78 -54.5t-48 -80 t-16.5 -95z" />
<glyph unicode="&#x26;" horiz-adv-x="1277" d="M61 324q0 68 25 124t68 101t100 79t125 54q-98 51 -157.5 125t-59.5 176q0 59 25.5 117.5t72.5 103.5t114.5 73t149.5 28q78 0 139.5 -25t104.5 -67t66.5 -96t23.5 -116q0 -106 -70.5 -185t-187.5 -126q72 -35 150.5 -101.5t150.5 -152.5l217 344h152l-307 -413l290 -359 l-125 -37l-239 305q-88 -135 -202 -219t-249 -84q-88 0 -158.5 29t-118.5 77t-74 111.5t-26 133.5zM190 330q0 -49 18.5 -93t52.5 -78t83 -53.5t111 -19.5q104 0 198 69.5t178 190.5q-92 111 -186 184.5t-186 108.5q-55 -25 -104.5 -55.5t-85.5 -69.5t-57.5 -85t-21.5 -99z M293 991q0 -96 62.5 -158.5t158.5 -103.5q100 43 159.5 106.5t59.5 155.5q0 86 -61.5 144.5t-157.5 58.5q-104 0 -162.5 -61.5t-58.5 -141.5z" />
<glyph unicode="'" horiz-adv-x="333" d="M-6 815l260 508l123 -59l-316 -449h-67z" />
<glyph unicode="(" horiz-adv-x="716" d="M139 463q0 186 54.5 342t135.5 278.5t178 207.5t183 130l60 -90q-82 -43 -169 -123t-160 -190.5t-120 -250.5t-47 -304q0 -162 47 -302.5t120 -251t160 -190t169 -122.5l-60 -91q-86 45 -183 130t-178 207t-135.5 277.5t-54.5 342.5z" />
<glyph unicode=")" horiz-adv-x="716" d="M-33 -403q82 43 169 122.5t160 190t119 251t46 302.5q0 164 -46 304t-119 250.5t-160 190.5t-169 123l60 90q86 -45 183 -130t178 -207.5t135.5 -278.5t54.5 -342t-54.5 -342t-135.5 -278t-178 -207t-183 -130z" />
<glyph unicode="*" horiz-adv-x="694" d="M27 825l274 146v10l-270 147l78 109l221 -221l8 2l57 303l127 -41l-141 -276l6 -7l297 43v-133l-297 43l-6 -6l137 -278l-125 -39l-57 305l-6 2l-221 -217z" />
<glyph unicode="+" horiz-adv-x="995" d="M84 424l6 113h354v364h113v-364h350l6 -113h-356v-367h-113v367h-360z" />
<glyph unicode="," horiz-adv-x="382" d="M23 -266q98 70 139 130t41 113q0 41 -29.5 65.5t-97.5 51.5q4 39 31.5 70t78.5 31q55 0 100.5 -45.5t45.5 -116.5q0 -104 -75 -194.5t-179 -160.5z" />
<glyph unicode="-" horiz-adv-x="598" d="M70 438v119h462v-119h-462z" />
<glyph unicode="." horiz-adv-x="382" d="M90 80q0 41 28.5 71.5t74.5 30.5q45 0 73.5 -30.5t28.5 -71.5t-28.5 -74t-73.5 -33t-74 33t-29 74z" />
<glyph unicode="/" horiz-adv-x="423" d="M-106 -408l497 1846h103l-500 -1846h-100z" />
<glyph unicode="0" horiz-adv-x="1183" d="M98 483q0 113 37 206t103.5 161t156.5 105.5t195 37.5q106 0 196.5 -37.5t157 -105.5t104 -161t37.5 -206t-37.5 -206t-104 -160.5t-157 -105.5t-196.5 -38q-104 0 -194.5 38t-157 105.5t-103.5 161t-37 205.5zM225 483q0 -82 27 -153.5t75 -123.5t115.5 -82t147.5 -30 q82 0 149.5 30t116.5 82t75.5 123.5t26.5 153.5q0 84 -26.5 155t-75.5 123t-116.5 81.5t-149.5 29.5q-80 0 -147.5 -29.5t-115.5 -81.5t-75 -123t-27 -155z" />
<glyph unicode="1" horiz-adv-x="667" d="M88 858l369 135v-993h-125v831l-238 -90z" />
<glyph unicode="2" horiz-adv-x="901" d="M96 0v117q127 96 229.5 173t174 143.5t110.5 127t39 121.5q0 82 -57 137t-158 55q-78 0 -150.5 -32.5t-140.5 -85.5l-45 108q72 57 158 93t190 36q74 0 136.5 -21.5t106.5 -60.5t68.5 -93t24.5 -120q0 -84 -40 -155.5t-109.5 -139t-160.5 -136t-196 -146.5h553v-121h-733 z" />
<glyph unicode="3" horiz-adv-x="858" d="M39 858q70 55 164 95t198 40q172 0 270.5 -88t98.5 -227q0 -59 -22.5 -110.5t-60.5 -94.5t-89.5 -75.5t-108.5 -55.5q78 -6 138.5 -34.5t102.5 -73t64.5 -100.5t22.5 -118q0 -90 -34.5 -163.5t-96 -125t-142.5 -79t-173 -27.5q-90 0 -180.5 21.5t-149.5 58.5l33 117 q53 -33 131 -56.5t170 -23.5q135 0 222 70.5t87 197.5q0 117 -81 179.5t-206 66.5q-88 0 -186 -19v105q92 23 170 53.5t134 70.5t88 89t32 111q0 104 -66.5 158t-179.5 54q-82 0 -159.5 -34.5t-143.5 -87.5z" />
<glyph unicode="4" horiz-adv-x="1026" d="M31 119l657 880h111v-847h194l6 -121h-200v-408h-123v408h-629zM195 152h481v645z" />
<glyph unicode="5" horiz-adv-x="858" d="M39 -295l24 125q61 -35 141.5 -61.5t166.5 -26.5q68 0 125 21.5t99 62.5t65.5 97.5t23.5 127.5q0 59 -21.5 110.5t-61.5 90.5t-97.5 61.5t-128.5 22.5q-45 0 -78 -3t-60.5 -7t-52 -11.5t-53.5 -17.5l-43 41l82 631h608l6 -123h-510l-59 -420q35 10 74 15t98 5 q96 0 175 -28.5t134.5 -80.5t86 -123t30.5 -157q0 -96 -35 -177t-95 -138t-141 -89t-175 -32q-88 0 -177.5 24.5t-150.5 59.5z" />
<glyph unicode="6" horiz-adv-x="1030" d="M90 487q0 127 43 255t131 240t222.5 197t316.5 128l37 -119q-258 -61 -413 -210t-200 -343l4 -2q68 63 153 103t191 40q74 0 140.5 -24.5t118 -73.5t82 -120t30.5 -163q0 -90 -29.5 -167.5t-84 -134t-132 -88.5t-174.5 -32q-104 0 -185 41t-137.5 111t-85 163t-28.5 199z M223 461q0 -74 20.5 -141.5t60.5 -117.5t96.5 -81t129.5 -31q133 0 210 84t77 215q0 66 -20.5 116t-56 86t-85 54.5t-104.5 18.5q-94 0 -176 -38t-146 -98q-6 -30 -6 -67z" />
<glyph unicode="7" horiz-adv-x="899" d="M37 844l6 125h809v-103l-580 -1243h-129l572 1221h-678z" />
<glyph unicode="8" horiz-adv-x="1003" d="M92 313q0 68 26.5 123.5t66.5 96t88.5 67.5t88.5 41q-51 23 -96 50.5t-78.5 63.5t-54 81t-20.5 104q0 78 28.5 142.5t80.5 111.5t126 72.5t162 25.5t158.5 -25.5t120 -70.5t76 -106.5t26.5 -135.5q0 -61 -22.5 -111t-57.5 -90t-77 -69t-83 -47q53 -25 100.5 -53.5 t82 -65.5t56 -83t21.5 -105q0 -70 -25.5 -134.5t-76.5 -113.5t-128 -79t-179 -30q-104 0 -182 28t-128.5 74t-75 108.5t-24.5 129.5zM221 330q0 -111 75 -177.5t210 -66.5q141 0 208.5 62.5t67.5 162.5q0 59 -27.5 101.5t-72.5 75t-102.5 58t-118.5 52.5q-49 -16 -92 -42 t-76 -59.5t-52.5 -75.5t-19.5 -91zM242 954q0 -53 26.5 -93t70.5 -71.5t100.5 -57t115.5 -50.5q86 35 146.5 98.5t60.5 157.5q0 53 -19.5 98t-53.5 78t-81 50.5t-102 17.5q-63 0 -112.5 -18.5t-83.5 -50.5t-51 -73t-17 -86z" />
<glyph unicode="9" horiz-adv-x="1030" d="M84 571q0 90 29.5 168t85 134.5t133.5 88t174 31.5q104 0 185 -41t136.5 -110.5t84 -163t28.5 -199.5q0 -127 -43 -255t-131 -239.5t-222 -196.5t-317 -128l-37 119q258 61 413 209.5t200 343.5l-4 2q-68 -63 -152 -103.5t-192 -40.5q-74 0 -140.5 25t-118 74t-82 119.5 t-30.5 162.5zM213 578q0 -63 20.5 -114.5t57.5 -87.5t85 -54.5t103 -18.5q96 0 177 38t145 97q6 31 6 68q0 76 -20.5 143.5t-59.5 117.5t-96.5 80t-130.5 30q-133 0 -210 -84t-77 -215z" />
<glyph unicode=":" horiz-adv-x="382" d="M90 80q0 41 28.5 71.5t74.5 30.5q45 0 73.5 -30.5t28.5 -71.5t-28.5 -74t-73.5 -33t-74 33t-29 74zM90 733q0 41 28.5 71t74.5 30q45 0 73.5 -30t28.5 -71q0 -43 -28.5 -74.5t-73.5 -31.5t-74 31.5t-29 74.5z" />
<glyph unicode=";" horiz-adv-x="382" d="M23 -266q98 70 139 130t41 113q0 41 -29.5 65.5t-97.5 51.5q4 39 31.5 70t78.5 31q55 0 100.5 -45.5t45.5 -116.5q0 -104 -75 -194.5t-179 -160.5zM90 733q0 41 28.5 71t74.5 30q45 0 73.5 -30t28.5 -71q0 -43 -28.5 -74.5t-73.5 -31.5t-74 31.5t-29 74.5z" />
<glyph unicode="&#x3c;" horiz-adv-x="933" d="M70 426v111l780 391v-125l-637 -311v-21l639 -311v-123z" />
<glyph unicode="=" horiz-adv-x="913" d="M72 244l8 112h758l8 -112h-774zM72 717h774l-8 -113h-758z" />
<glyph unicode="&#x3e;" horiz-adv-x="933" d="M78 37v123l639 311v21l-637 311v125l780 -391v-111z" />
<glyph unicode="?" horiz-adv-x="714" d="M106 1174v116q29 8 65 13.5t83 5.5q88 0 158.5 -29t120 -76t75 -107.5t25.5 -121.5q0 -63 -18.5 -108.5t-49 -76t-68.5 -52t-79 -38.5q-74 -33 -117 -60.5t-43 -78.5q0 -47 35 -90t88 -84l-68 -22q-59 35 -108 90t-49 123q0 45 15 78.5t43 58t63.5 44t76.5 36.5 q37 14 69 29.5t55.5 36t36.5 48t13 64.5q0 43 -18 83t-54 69.5t-88.5 48t-119.5 18.5q-41 0 -76 -6t-66 -12zM199 80q0 41 28.5 71.5t75.5 30.5q45 0 74 -30.5t29 -71.5t-29 -74t-74 -33q-47 0 -75.5 33t-28.5 74z" />
<glyph unicode="@" horiz-adv-x="1701" d="M88 496q0 166 61.5 312t167 256t250 173t310.5 63q150 0 284.5 -47t237 -134t163 -212t60.5 -280q0 -129 -33 -227.5t-86 -165t-122.5 -101.5t-143.5 -35q-86 0 -146.5 43t-84.5 109q-61 -74 -124 -104.5t-126 -30.5q-66 0 -120 25.5t-92 71.5t-59.5 107.5t-21.5 131.5 q0 96 33.5 182t92 150.5t136.5 102.5t166 38q59 0 110.5 -18.5t92.5 -43.5l118 53l-100 -491q-23 -113 13 -174.5t126 -61.5q55 0 108.5 29t94.5 84t65.5 137t24.5 189q0 139 -56 250.5t-149.5 190.5t-213 122t-248.5 43q-150 0 -279 -59.5t-225.5 -161t-151.5 -234.5 t-55 -280q0 -141 48 -265t134 -216.5t206 -145.5t263 -53q63 0 129 12t123 29l18 -68q-137 -43 -274 -43q-158 0 -291 57.5t-229 159t-150.5 237.5t-54.5 294zM578 459q0 -109 57 -178.5t151 -69.5q104 0 197 104l88 433q-33 35 -83 59t-109 24q-63 0 -118.5 -31.5 t-95.5 -83.5t-63.5 -119t-23.5 -138z" />
<glyph unicode="A" horiz-adv-x="1177" d="M31 0l485 1280h154l477 -1280h-133l-135 367h-580l-135 -367h-133zM344 485h490l-244 666z" />
<glyph unicode="B" horiz-adv-x="1126" d="M164 0v1280h399q115 0 198 -24.5t136 -69.5t77.5 -105.5t24.5 -134.5q0 -94 -58 -176t-187 -115q141 -29 213.5 -107.5t72.5 -191.5q0 -78 -26.5 -143.5t-83 -112.5t-143.5 -73.5t-207 -26.5h-416zM295 119h295q170 0 244.5 63t74.5 174q0 113 -90 169.5t-262 56.5h-262 v-463zM295 700h254q145 0 232 60.5t87 175.5q0 104 -72.5 164.5t-226.5 60.5h-274v-461z" />
<glyph unicode="C" horiz-adv-x="1200" d="M96 637q0 154 46 276.5t129 210.5t196 135.5t248 47.5q117 0 220 -31t175 -74l-41 -117q-78 49 -166 76t-190 27q-104 0 -192.5 -37t-153 -106.5t-101.5 -171t-37 -232.5q0 -127 35 -228.5t99.5 -173t153.5 -109.5t200 -38q104 0 198.5 33t159.5 82l25 -129 q-72 -47 -172.5 -76t-212.5 -29q-139 0 -253 47.5t-196 133.5t-126 208.5t-44 274.5z" />
<glyph unicode="D" horiz-adv-x="1286" d="M164 0v1280h348q158 0 284 -45t213 -128t134 -200t47 -258q0 -152 -46 -271.5t-134 -203.5t-216 -129t-292 -45h-338zM295 121h213q123 0 224.5 31.5t174 96t112.5 162t40 228.5q0 246 -145.5 383t-409.5 137h-209v-1038z" />
<glyph unicode="E" horiz-adv-x="1038" d="M164 0v1280h774v-121h-643v-459h536v-118h-536v-461h643v-121h-774z" />
<glyph unicode="F" horiz-adv-x="980" d="M164 0v1280h754v-123h-623v-477h516v-121h-516v-559h-131z" />
<glyph unicode="G" horiz-adv-x="1280" d="M96 637q0 154 46 276.5t129 210.5t196 135.5t248 47.5q119 0 226.5 -32t178.5 -75l-43 -119q-72 47 -168 77t-196 30q-104 0 -192.5 -37t-153 -106.5t-101.5 -171t-37 -232.5q0 -127 35 -228.5t99.5 -173t153.5 -109.5t200 -38q92 0 169 21.5t138 56.5v348h-371v119h498 v-537q-94 -63 -210 -95t-226 -32q-139 0 -253 47.5t-196 133.5t-126 208.5t-44 274.5z" />
<glyph unicode="H" horiz-adv-x="1339" d="M164 0v1280h131v-578h749v578h132v-1280h-132v584h-749v-584h-131z" />
<glyph unicode="I" horiz-adv-x="466" d="M168 0v1280h129v-1280h-129z" />
<glyph unicode="J" horiz-adv-x="847" d="M29 53l22 127q61 -39 127 -63.5t137 -24.5q254 0 254 305v883h129v-887q0 -94 -22.5 -172t-69.5 -133t-119.5 -85t-173.5 -30q-86 0 -160.5 25t-123.5 55z" />
<glyph unicode="K" horiz-adv-x="1099" d="M164 0v1280h131v-614h2l592 614h168l-633 -635l643 -645h-170l-600 612h-2v-612h-131z" />
<glyph unicode="L" horiz-adv-x="978" d="M164 0v1280h131v-1157h633v-123h-764z" />
<glyph unicode="M" horiz-adv-x="1558" d="M133 0l43 1280h176l432 -1130l426 1130h174l41 -1280h-133l-20 1118l-420 -1110h-143l-424 1112l-23 -1120h-129z" />
<glyph unicode="N" horiz-adv-x="1331" d="M164 0v1280h147l727 -1098v1098h127v-1292h-141l-733 1108v-1096h-127z" />
<glyph unicode="O" d="M96 637q0 147 47 270t131 212t200 138.5t253 49.5q133 0 249 -48.5t200 -135.5t132 -209t48 -269t-47 -270t-131 -212t-200 -139.5t-253 -50.5q-133 0 -248 48.5t-199.5 135.5t-133 209.5t-48.5 270.5zM229 645q0 -123 38 -225.5t104.5 -176t159 -113.5t200.5 -40 q106 0 196.5 40t156 112.5t102.5 173t37 221.5q0 123 -37 225.5t-103.5 175t-159 112.5t-200.5 40q-106 0 -197.5 -40t-157 -111.5t-102.5 -172t-37 -221.5z" />
<glyph unicode="P" horiz-adv-x="1062" d="M164 0v1280h321q127 0 221.5 -29.5t156 -82t92 -126t30.5 -161.5q0 -211 -138 -317.5t-378 -110.5l-174 -2v-451h-131zM295 571l182 4q182 4 277.5 76.5t95.5 222.5q0 137 -94 211t-275 74h-186v-588z" />
<glyph unicode="Q" d="M96 637q0 147 47 270t131 212t200 138.5t253 49.5q133 0 249 -48.5t200 -135.5t132 -208.5t48 -269.5q0 -111 -28 -207t-77 -176t-119.5 -139.5t-156.5 -95.5l420 -213l-58 -113l-524 281q-23 -4 -44 -6.5t-44 -2.5q-133 0 -248 48.5t-199.5 135.5t-133 209.5 t-48.5 270.5zM229 645q0 -123 38 -225.5t104.5 -176t159 -113.5t200.5 -40q106 0 196.5 40t156 112.5t102.5 173t37 221.5q0 123 -37 225.5t-103.5 175t-159 112.5t-200.5 40q-106 0 -197.5 -40t-157 -111.5t-102.5 -172t-37 -221.5z" />
<glyph unicode="R" horiz-adv-x="1083" d="M164 0v1280h344q238 0 351.5 -100.5t113.5 -268.5q0 -72 -23.5 -130t-63.5 -103t-94.5 -77t-115.5 -50l354 -551h-151l-328 528l-256 -16v-512h-131zM295 629l229 8q63 2 120.5 20.5t102 52t70 83t25.5 112.5q0 127 -90 191.5t-258 64.5h-199v-532z" />
<glyph unicode="S" horiz-adv-x="1003" d="M74 92l47 117q78 -53 167.5 -86t200.5 -33q68 0 123.5 18.5t95.5 51.5t62.5 77t22.5 95q0 55 -22.5 96t-64.5 71.5t-101.5 54.5t-135.5 46q-68 20 -134.5 47t-119.5 68t-86 99t-33 144q0 76 31 140.5t85 110.5t130 72t164 26q111 0 207 -29t178 -82l-47 -115 q-72 49 -161 78t-175 29q-72 0 -125 -17.5t-89 -48t-53.5 -70.5t-17.5 -83q0 -53 22.5 -91t65.5 -67t102.5 -52.5t133.5 -45.5q70 -20 136.5 -48t118.5 -71t84 -104.5t32 -147.5q0 -80 -32 -147.5t-88.5 -116.5t-136 -77t-176.5 -28q-117 0 -220 32t-191 87z" />
<glyph unicode="T" horiz-adv-x="1126" d="M47 1157v123h1032v-123h-450v-1157h-131v1157h-451z" />
<glyph unicode="U" horiz-adv-x="1261" d="M150 469v811h126v-795q0 -184 89.5 -287.5t269.5 -103.5q172 0 261 100.5t89 292.5v793h129v-791q0 -119 -30.5 -214t-92 -162.5t-151.5 -103.5t-211 -36q-115 0 -204 35t-150.5 99.5t-93 156.5t-31.5 205z" />
<glyph unicode="V" horiz-adv-x="1136" d="M20 1280h134l415 -1145l414 1145h133l-473 -1280h-154z" />
<glyph unicode="W" horiz-adv-x="1832" d="M84 1280h135l299 -1094l326 1094h155l332 -1094l287 1094h131l-358 -1280h-127l-344 1126l-347 -1126h-124z" />
<glyph unicode="X" horiz-adv-x="1150" d="M27 0l469 651l-445 629h156l368 -535l371 535h154l-449 -623l471 -657h-159l-392 567l-391 -567h-153z" />
<glyph unicode="Y" horiz-adv-x="1073" d="M25 1280h147l369 -637l362 637h146l-447 -766v-514h-131v514z" />
<glyph unicode="Z" horiz-adv-x="1044" d="M49 0v96l760 1065h-737v119h901v-98l-760 -1063h758v-119h-922z" />
<glyph unicode="[" horiz-adv-x="792" d="M201 -455v1837h532v-104h-416v-1628h416v-105h-532z" />
<glyph unicode="\" horiz-adv-x="423" d="M-68 1438h103l497 -1846h-100z" />
<glyph unicode="]" horiz-adv-x="792" d="M61 -350h416v1628h-416v104h531v-1837h-531v105z" />
<glyph unicode="^" horiz-adv-x="772" d="M106 1061l232 373h143l232 -373h-97l-204 276h-2l-207 -276h-97z" />
<glyph unicode="_" horiz-adv-x="911" d="M-23 0h957v-100h-957v100z" />
<glyph unicode="`" horiz-adv-x="811" d="M145 1427h164l242 -366h-94z" />
<glyph unicode="a" horiz-adv-x="899" d="M68 233q0 63 27.5 120t93 102t175 74.5t273.5 37.5v56q0 111 -52.5 167t-168.5 56q-39 0 -80 -9.5t-82 -24.5t-78 -35.5t-67 -43.5l-29 119q31 23 72 43t87 35.5t95 25t94 9.5q164 0 251 -79q85 -77 85 -249v-8v-451q0 -52 16 -74q15 -21 68 -20h10l-8 -104 q-14 -1 -26 -1q-74 -1 -118 29q-52 34 -61 105h-6q-47 -59 -118.5 -99.5t-155.5 -40.5q-63 0 -119 19.5t-94.5 54.5t-61 83t-22.5 103zM201 248q0 -76 54 -120t138 -44q76 0 138.5 37t105.5 86v274q-121 -14 -204 -34.5t-135 -49t-74.5 -65.5t-22.5 -84z" />
<glyph unicode="b" horiz-adv-x="1046" d="M147 -31v1411l127 27v-567q47 45 119 81.5t164 36.5t168 -34.5t130 -98t83 -152t29 -192.5q0 -111 -34 -204t-95.5 -160.5t-146.5 -105.5t-187 -38q-57 0 -119.5 14.5t-110.5 37.5zM274 162q43 -35 105.5 -54.5t130.5 -19.5q76 0 136.5 28.5t102.5 80t64.5 123 t22.5 155.5q0 80 -21.5 147.5t-60.5 115.5t-95.5 76t-126.5 28q-78 0 -142 -29t-116 -76v-575z" />
<glyph unicode="c" horiz-adv-x="923" d="M86 467q0 111 35 202t96.5 156.5t145 102.5t184.5 37q86 0 159.5 -20.5t133.5 -59.5l-33 -115q-53 35 -119.5 55.5t-140.5 20.5q-76 0 -137.5 -27.5t-104.5 -77t-65.5 -118t-22.5 -152.5q0 -86 23.5 -155.5t67.5 -120t105.5 -77t135.5 -26.5q72 0 139.5 21.5t120.5 56.5 l27 -117q-59 -37 -134 -58.5t-157 -21.5q-106 0 -191.5 36t-144.5 101.5t-91 156.5t-32 200z" />
<glyph unicode="d" horiz-adv-x="1052" d="M86 461q0 109 35 201t96.5 157.5t147.5 102t186 36.5q59 0 119.5 -14t107.5 -37v473l127 27v-1407h-127v88q-47 -43 -115.5 -79t-156.5 -36q-94 0 -172 36t-133.5 100.5t-85 154.5t-29.5 197zM217 463q0 -82 21.5 -150.5t62.5 -118t98.5 -77t128.5 -27.5q72 0 136.5 28.5 t113.5 76.5v577q-43 35 -104.5 53.5t-128.5 18.5q-76 0 -136.5 -29t-103.5 -79t-65.5 -119.5t-22.5 -153.5z" />
<glyph unicode="e" horiz-adv-x="962" d="M86 461q0 111 34 203t92 159.5t140 104.5t176 37q156 0 249 -93.5t93 -253.5q0 -37 -5 -77.5t-15 -71.5l-635 -4v-10q2 -80 25.5 -146.5t66.5 -115t102.5 -75t133.5 -26.5q78 0 148.5 21.5t123.5 56.5l25 -117q-59 -37 -136 -58.5t-165 -21.5q-100 0 -184.5 36 t-143.5 100.5t-92 154.5t-33 197zM223 565l520 2q2 8 2 20.5v20.5q0 109 -57 175.5t-168 66.5q-63 0 -114.5 -22.5t-89 -61.5t-61.5 -90t-32 -111z" />
<glyph unicode="f" horiz-adv-x="610" d="M23 827l8 80l141 33l2 147q2 92 23.5 157t58.5 105t88 58t113 18q47 0 93 -12.5t79 -28.5l-5 -18q-6 -18 -11 -39.5t-10 -38.5l-5 -18q-33 16 -68.5 27.5t-74.5 11.5q-78 0 -117 -52.5t-39 -166.5v-156h295l-6 -113h-289v-821h-125v817z" />
<glyph unicode="g" horiz-adv-x="958" d="M16 -233q0 80 55.5 144t147.5 87q-59 23 -93 60.5t-34 88.5q0 59 44 106.5t110 72.5q-68 41 -110 114.5t-42 171.5q0 74 26.5 138.5t75 112.5t117 75t150.5 27q74 0 128 -16.5t93 -39.5l260 21l6 -127l-207 20q35 -35 55.5 -94t20.5 -117q0 -74 -27.5 -137t-76.5 -109.5 t-116 -72t-144 -25.5q-39 0 -72 7.5t-68 19.5q-37 -16 -70.5 -44t-33.5 -69q0 -45 44 -70.5t169 -25.5h121q205 0 297 -64.5t92 -181.5q0 -78 -40 -141.5t-108.5 -109.5t-157.5 -71.5t-188 -25.5q-94 0 -172 19.5t-134 56.5t-87 87t-31 112zM139 -211q0 -84 85 -138t235 -54 q74 0 137 16t111.5 46t76 71t27.5 88q0 84 -71.5 116.5t-213.5 32.5q-47 0 -101 1t-95 5q-86 -23 -138.5 -74t-52.5 -110zM219 610q0 -102 63.5 -170.5t178.5 -68.5q109 0 171 68.5t62 176.5q0 104 -60.5 174t-178.5 70q-111 0 -173.5 -69.5t-62.5 -180.5z" />
<glyph unicode="h" horiz-adv-x="1034" d="M147 0v1380l127 27v-592q74 74 161 112t165 38q137 0 215 -84t78 -238v-643h-127v606q0 123 -49 180.5t-152 57.5q-82 0 -156.5 -37t-134.5 -96v-711h-127z" />
<glyph unicode="i" horiz-adv-x="428" d="M127 1247q0 35 21.5 62.5t64.5 27.5t64.5 -27.5t21.5 -62.5q0 -37 -21.5 -65.5t-64.5 -28.5t-64.5 28.5t-21.5 65.5zM150 0v938l126 27v-965h-126z" />
<glyph unicode="j" horiz-adv-x="423" d="M-31 -422q51 27 85 57.5t55.5 71.5t31 96.5t9.5 130.5v1004l126 27v-1031q0 -90 -12 -159.5t-38.5 -121.5t-68.5 -92t-102 -73zM127 1247q0 35 21.5 62.5t64.5 27.5t64.5 -27.5t21.5 -62.5q0 -37 -21.5 -65.5t-64.5 -28.5t-64.5 28.5t-21.5 65.5z" />
<glyph unicode="k" horiz-adv-x="888" d="M147 0v1380l127 27v-901h5l421 432h160l-450 -446l452 -492h-162l-421 467h-5v-467h-127z" />
<glyph unicode="l" horiz-adv-x="421" d="M147 0v1380l127 27v-1407h-127z" />
<glyph unicode="m" horiz-adv-x="1587" d="M147 0v938l127 27v-129q72 66 149 97.5t148 31.5q88 0 154 -39t100 -117q78 78 164 117t168 39q135 0 212 -84t77 -240v-641h-127v604q0 123 -48 181.5t-151 58.5q-76 0 -143.5 -35t-120.5 -86q2 -10 3 -39t1 -45v-639h-127v604q0 123 -48 181.5t-150 58.5 q-74 0 -140.5 -31t-120.5 -78v-735h-127z" />
<glyph unicode="n" horiz-adv-x="1034" d="M147 0v938l127 27v-154q74 74 160 114t160 40q141 0 220 -84t79 -238v-643h-127v606q0 123 -50 180.5t-157 57.5q-78 0 -151.5 -37t-133.5 -96v-711h-127z" />
<glyph unicode="o" horiz-adv-x="1087" d="M86 467q0 113 36 204t97.5 156.5t146.5 101.5t183 36t181 -35t142.5 -99.5t93 -155.5t33.5 -204t-35.5 -204t-97 -156.5t-145.5 -101.5t-182 -36t-181.5 35t-143.5 99.5t-94 155.5t-34 204zM213 471q0 -86 23.5 -156.5t67.5 -121t105.5 -78t135.5 -27.5t135 27.5t104 79 t66.5 121t23.5 151.5q0 86 -23.5 156.5t-67.5 121t-105.5 78t-134.5 27.5q-74 0 -135.5 -27.5t-104.5 -79t-66.5 -120t-23.5 -152.5z" />
<glyph unicode="p" horiz-adv-x="1054" d="M147 -477v1419l127 27v-125q47 45 117 79.5t156 34.5q96 0 173 -35.5t132 -100t85 -153.5t30 -196q0 -109 -34 -201t-95.5 -158.5t-146.5 -103.5t-187 -37q-55 0 -118.5 13.5t-111.5 36.5v-500h-127zM274 162q43 -35 105.5 -54.5t130.5 -19.5q76 0 136.5 28.5t102.5 80 t64.5 122t22.5 152.5t-21.5 149.5t-61.5 116.5t-97.5 77t-129.5 28t-136 -29t-116 -76v-575z" />
<glyph unicode="q" horiz-adv-x="1052" d="M86 461q0 109 35 201t96.5 157.5t147.5 102t186 36.5q70 0 135.5 -15t112.5 -38l106 60v-1442h-127v565q-47 -43 -115.5 -79t-156.5 -36q-94 0 -172 36t-133.5 100.5t-85 154.5t-29.5 197zM217 463q0 -82 21.5 -150.5t62.5 -119t98.5 -78t128.5 -27.5q72 0 136.5 29.5 t113.5 77.5v577q-43 35 -104.5 54.5t-128.5 19.5q-76 0 -136.5 -29t-103.5 -80t-65.5 -120.5t-22.5 -153.5z" />
<glyph unicode="r" horiz-adv-x="729" d="M147 0v938l127 27v-201q47 92 116 146.5t161 54.5q47 0 89 -12.5t75 -30.5l-33 -119q-31 18 -66.5 29.5t-76.5 11.5q-74 0 -141.5 -57.5t-123.5 -184.5v-602h-127z" />
<glyph unicode="s" horiz-adv-x="792" d="M68 57l34 117q59 -41 132 -63.5t145 -22.5q43 0 81 10.5t66.5 31t46 49t17.5 67.5q0 43 -20.5 71.5t-53.5 48t-76 34t-86 28.5q-49 14 -97 34.5t-87 51.5t-63.5 75t-24.5 105q0 63 24.5 113.5t67.5 85.5t101.5 53.5t123.5 18.5q78 0 152 -19.5t133 -50.5l-37 -115 q-59 33 -126.5 51.5t-129.5 18.5q-86 0 -137 -38t-51 -105q0 -39 19.5 -67t51 -47.5t73.5 -33.5l87 -29q49 -14 99.5 -34.5t89.5 -52t63.5 -76.5t24.5 -111q0 -63 -26 -115.5t-72 -89.5t-106.5 -57.5t-131.5 -20.5q-84 0 -166 22.5t-141 61.5z" />
<glyph unicode="t" horiz-adv-x="673" d="M25 827l6 80l141 33l6 213h121l-6 -219h313l-6 -113h-311l-15 -561v-14q0 -162 138 -162q47 0 92 13.5t88 31.5l22 -111q-49 -23 -103 -36t-105 -13q-136 0 -196 74q-57 69 -56 203v18l14 555z" />
<glyph unicode="u" horiz-adv-x="1032" d="M139 295v643h127v-606q0 -123 49.5 -180.5t153.5 -57.5q82 0 156.5 37t132.5 96v711h127v-938l-127 -27v152q-72 -74 -159 -113t-165 -39q-137 0 -216 84t-79 238z" />
<glyph unicode="v" horiz-adv-x="868" d="M6 938h137l297 -774l287 774h133l-368 -940h-115z" />
<glyph unicode="w" horiz-adv-x="1355" d="M31 938h135l217 -748l244 746h114l256 -750l195 752h139l-278 -942h-113l-256 758l-256 -758h-111z" />
<glyph unicode="x" horiz-adv-x="806" d="M8 0l324 481l-303 457h141l233 -365l230 365h141l-299 -453l324 -485h-142l-254 395l-251 -395h-144z" />
<glyph unicode="y" horiz-adv-x="868" d="M-66 -444l39 116q35 -18 70 -29.5t74 -11.5q27 0 51.5 9.5t47 33t46 65.5t47.5 109l64 166l-367 924h137l295 -774l289 774h133l-364 -928l-76 -203q-33 -86 -65.5 -143t-69.5 -91t-79 -47t-89 -13q-53 0 -96.5 12t-86.5 31z" />
<glyph unicode="z" horiz-adv-x="802" d="M43 0v100l559 725h-541v113h693v-98l-559 -727h559v-113h-711z" />
<glyph unicode="{" horiz-adv-x="679" d="M39 473l6 70q141 10 200.5 50t59.5 136q0 49 -16.5 98.5t-34.5 101.5t-34.5 107.5t-16.5 118.5q0 133 115.5 192.5t328.5 69.5v-94q-180 -14 -252.5 -51t-72.5 -107q0 -49 16 -100t35.5 -103.5t36 -105.5t16.5 -106q0 -106 -67.5 -183.5t-215.5 -87.5v-12 q147 -10 215 -87t68 -185q0 -51 -16.5 -104.5t-36 -106t-35.5 -102.5t-16 -95q0 -74 72.5 -111.5t252.5 -52.5v-92q-213 10 -328.5 68.5t-115.5 191.5q0 63 16.5 119.5t34.5 109t34.5 101.5t16.5 98q0 94 -59.5 134t-200.5 53z" />
<glyph unicode="|" horiz-adv-x="505" d="M197 -408v1846h112v-1846h-112z" />
<glyph unicode="}" horiz-adv-x="679" d="M33 -377q178 12 251.5 50t73.5 110q0 47 -16 98t-35.5 103.5t-36 105.5t-16.5 105q0 106 67.5 184t215.5 88v12q-147 8 -215 85t-68 186q0 53 16.5 106t36 105.5t35.5 103.5t16 98q0 72 -73.5 109t-251.5 51v94q213 -12 328.5 -70.5t115.5 -191.5q0 -63 -16.5 -119.5 t-35.5 -109t-35.5 -101.5t-16.5 -98q0 -96 60.5 -136t201.5 -50l6 -68l-6 -70q-141 -10 -201.5 -50t-60.5 -136q0 -49 16.5 -98t35.5 -101.5t35.5 -107.5t16.5 -119q0 -133 -115.5 -192.5t-328.5 -67.5v92z" />
<glyph unicode="~" horiz-adv-x="772" d="M76 375q16 121 60 178t122 57q45 0 88 -22.5t83 -50t76 -51t62 -23.5q29 0 50.5 27.5t39.5 107.5h84q-16 -121 -60 -178.5t-122 -57.5q-45 0 -88 23t-82 50.5t-73.5 50t-63.5 22.5q-31 0 -51.5 -27.5t-40.5 -105.5h-84z" />
<glyph unicode="&#xa1;" horiz-adv-x="532" d="M164 1198q0 41 27.5 74t74.5 33q45 0 74 -33t29 -74t-29 -70.5t-74 -29.5q-47 0 -74.5 29.5t-27.5 70.5zM188 -51l41 950h72l41 -950h-154z" />
<glyph unicode="&#xa2;" horiz-adv-x="911" d="M86 467q0 111 34 202t95 156.5t145 102.5t185 37h22l25 186h88l-12 -98q-4 -37 -9.5 -67t-5.5 -32q102 -18 187 -69l-33 -115q-74 49 -170 68l-100 -746h12q72 0 139.5 21.5t120.5 56.5l27 -117q-59 -37 -133 -58.5t-156 -21.5h-27l-28 -225h-89l33 238q-80 18 -144.5 60 t-110.5 104.5t-70.5 142.5t-24.5 174zM217 471q0 -143 62.5 -239.5t171.5 -127.5l5 33t12 85t16.5 118t17.5 135q23 162 49 371h-6q-154 0 -241 -103.5t-87 -271.5z" />
<glyph unicode="&#xa3;" horiz-adv-x="1013" d="M39 70q70 20 115 45.5t70.5 58.5t35.5 76t10 100q0 104 -6 217h-192l-6 95h194q-6 121 -6 217q0 211 102.5 321.5t282.5 110.5q80 0 150.5 -20.5t130.5 -55.5l-33 -113q-53 31 -113.5 52.5t-138.5 21.5q-68 0 -117 -22.5t-79.5 -62.5t-45 -94t-14.5 -120q0 -47 2 -106.5 t6 -128.5h401l-6 -95h-391q2 -51 3 -101t1 -104q0 -82 -14 -139q35 -31 76 -56.5t82 -44t78.5 -28.5t66.5 -10q74 0 131 46t86 175l94 -20q-16 -154 -100 -235t-197 -81q-92 0 -184 46t-170 118q-35 -55 -100.5 -97t-175.5 -71q-6 31 -15 53q-6 20 -10 37t-4 15z" />
<glyph unicode="&#xa4;" horiz-adv-x="1032" d="M68 430l6 92h141q-2 29 -3 56.5t-1 56.5q0 33 1 64.5t3 62.5h-141l-6 92h161q41 229 162 343t303 114q178 0 295 -70l-28 -113q-117 70 -267 70q-279 0 -340 -344h482l-7 -92h-485q-2 -29 -3 -57.5t-1 -57.5q0 -33 1 -64.5t3 -60.5h424l6 -92h-418q63 -348 332 -348 q82 0 150.5 17.5t126.5 50.5l20 -113q-59 -33 -133 -50.5t-168 -17.5q-186 0 -305 113t-154 348h-157z" />
<glyph unicode="&#xa5;" horiz-adv-x="1116" d="M27 1280h145l369 -612l364 612h142l-404 -645h320l-7 -94h-356v-181h356l7 -92h-363v-268h-127v268h-362l6 92h358v181h-358l-6 94h321z" />
<glyph unicode="&#xa6;" horiz-adv-x="763" d="M33 41l20 127q53 -35 111.5 -55.5t111.5 -20.5q223 0 224 277v911h131v-915q0 -391 -355 -392q-70 0 -135 20.5t-108 47.5z" />
<glyph unicode="&#xa7;" horiz-adv-x="962" d="M49 600q0 98 70.5 164.5t169.5 95.5q-53 31 -87 75t-34 109q0 66 25.5 116t69.5 85t102.5 53.5t123.5 18.5q78 0 152 -19.5t133 -50.5l-37 -112q-59 31 -126.5 49t-129.5 18q-86 0 -139 -38t-53 -105q0 -37 23.5 -63.5t63.5 -46t90 -35t105 -31.5q63 -18 127 -41 t114 -55.5t81 -79.5t31 -115q0 -98 -64.5 -162.5t-163.5 -95.5q47 -33 77 -77t30 -110q0 -63 -26.5 -116.5t-73 -90t-107.5 -56t-133 -19.5q-84 0 -166 23.5t-141 60.5l37 114q59 -39 130.5 -61t143.5 -22q86 0 150.5 40.5t64.5 114.5q0 41 -24.5 69.5t-64.5 50t-92 38 t-108 33.5q-63 18 -124.5 39.5t-110.5 52.5t-79 75t-30 107zM166 627q0 -55 45 -90t113.5 -60.5t149.5 -48t151 -55.5q33 14 64.5 33.5t57 43t42 53t16.5 64.5q0 59 -43 95t-107.5 63t-142.5 48.5t-147 49.5q-33 -14 -68 -33.5t-64.5 -44t-48 -54t-18.5 -64.5z" />
<glyph unicode="&#xa8;" horiz-adv-x="813" d="M115 1214q0 41 26.5 71t69.5 30q45 0 71.5 -30t26.5 -71t-26.5 -71.5t-71.5 -30.5q-43 0 -69.5 31t-26.5 71zM508 1214q0 41 27.5 71t72.5 30q43 0 70 -30t27 -71t-27 -71.5t-70 -30.5q-45 0 -72.5 31t-27.5 71z" />
<glyph unicode="&#xa9;" horiz-adv-x="1492" d="M78 637q0 139 52 261t143.5 213t213 144.5t261.5 53.5q139 0 260.5 -53.5t213 -144.5t143.5 -213t52 -261q0 -137 -52 -260t-143.5 -213t-213 -143.5t-260.5 -53.5t-261 53.5t-213.5 143.5t-143.5 213t-52 260zM137 637q0 -125 48 -236.5t131 -195.5t194 -132t238 -48 t237.5 48t193.5 132t131 195.5t48 236.5q0 127 -48 238.5t-131 195.5t-194 133t-237 49q-127 0 -238 -49t-194 -133t-131 -195.5t-48 -238.5zM412 635q0 86 26.5 156.5t74.5 121t115.5 77t147.5 26.5q63 0 125 -15.5t105 -44.5l-35 -92q-88 57 -195 58q-117 0 -187.5 -74 t-70.5 -209q0 -131 70.5 -209t189.5 -78q57 0 109.5 18.5t91.5 47.5l20 -101q-43 -29 -102 -44t-123 -15q-80 0 -147.5 26.5t-114.5 76t-73.5 119t-26.5 155.5z" />
<glyph unicode="&#xaa;" horiz-adv-x="696" d="M47 721q0 55 23.5 102t76 82t135.5 56.5t199 27.5v49q0 80 -36.5 123t-118.5 43q-66 0 -124.5 -25.5t-107.5 -64.5l-43 88q59 43 130 74t153 31q53 0 99 -13.5t80 -44t53.5 -81t19.5 -124.5v-311q0 -68 24.5 -116t53.5 -80l-111 -25q-39 41 -61 111h-3q-37 -41 -97 -76 t-132 -35q-98 0 -155.5 60.5t-57.5 148.5zM150 733q0 -63 40.5 -94t94.5 -31q53 0 107 24.5t89 61.5v213q-94 -6 -158.5 -22.5t-102.5 -40t-54 -52t-16 -59.5z" />
<glyph unicode="&#xab;" horiz-adv-x="1173" d="M51 416v127l479 340l17 -95l-383 -307v-4l383 -307l-17 -94zM586 412v135l504 358l14 -98l-402 -326v-4l402 -325l-14 -99z" />
<glyph unicode="&#xac;" horiz-adv-x="1052" d="M86 461q0 109 35 201t96.5 157.5t147.5 102t186 36.5q70 0 135.5 -15t112.5 -38l106 60v-787q0 -51 16.5 -73.5t77.5 -20.5l-8 -104q-100 -6 -147 31.5t-60 90.5q-53 -55 -121.5 -92t-156.5 -37q-94 0 -172 36t-133.5 100.5t-85 154.5t-29.5 197zM217 463 q0 -82 21.5 -150.5t62.5 -119t98.5 -78t128.5 -27.5q72 0 136.5 29.5t113.5 77.5v577q-43 35 -104.5 54.5t-128.5 19.5q-76 0 -136.5 -29t-103.5 -80t-65.5 -120.5t-22.5 -153.5z" />
<glyph unicode="&#xad;" horiz-adv-x="598" d="M70 438v119h462v-119h-462z" />
<glyph unicode="&#xae;" horiz-adv-x="1492" d="M78 637q0 139 52 261t143.5 213t213 144.5t261.5 53.5q139 0 260.5 -53.5t213 -144.5t143.5 -213t52 -261q0 -137 -52 -260t-143.5 -213t-213 -143.5t-260.5 -53.5t-261 53.5t-213.5 143.5t-143.5 213t-52 260zM137 637q0 -125 48 -236.5t131 -195.5t194 -132t238 -48 t237.5 48t193.5 132t131 195.5t48 236.5q0 127 -48 238.5t-131 195.5t-194 133t-237 49q-127 0 -238 -49t-194 -133t-131 -195.5t-48 -238.5zM506 283v725h233q137 0 207 -59.5t70 -164.5q0 -80 -39 -132t-105 -77l183 -292h-119l-166 268l-162 -8v-260h-102zM606 631l129 4 q90 2 134 40t44 103q0 137 -184 137h-123v-284z" />
<glyph unicode="&#xaf;" horiz-adv-x="813" d="M150 1098l6 92h508l8 -92h-522z" />
<glyph unicode="&#xb0;" horiz-adv-x="729" d="M61 1004q0 61 21.5 117.5t60.5 98.5t95.5 66.5t126.5 24.5q72 0 127 -24.5t95 -66.5t60.5 -98.5t20.5 -117.5t-20.5 -115.5t-60.5 -96.5t-95.5 -67t-126.5 -25q-70 0 -126.5 25t-95.5 67t-60.5 96t-21.5 116zM150 1004q0 -88 56 -153t159 -65q102 0 158.5 65t56.5 153 q0 92 -56.5 156.5t-158.5 64.5t-158.5 -64.5t-56.5 -156.5z" />
<glyph unicode="&#xb1;" horiz-adv-x="1492" d="M78 637q0 139 52 261t143.5 213t213 144.5t261.5 53.5q139 0 260.5 -53.5t213 -144.5t143.5 -213t52 -261t-52 -261t-143.5 -213t-213 -143.5t-260.5 -52.5t-261 52.5t-213.5 143.5t-143.5 213t-52 261zM137 637q0 -125 48 -236.5t131 -195.5t194 -132t238 -48t237.5 48 t193.5 132t131 195.5t48 236.5q0 127 -48 238.5t-131 195.5t-194 133t-237 49q-127 0 -238 -49t-194 -133t-131 -195.5t-48 -238.5zM545 262v725h219q147 0 218 -64.5t71 -168.5q0 -125 -79 -187.5t-220 -62.5h-107v-242h-102zM647 596h115q186 4 186 154q0 145 -188 145 h-113v-299z" />
<glyph unicode="&#xb4;" horiz-adv-x="811" d="M268 1061l242 366h164l-312 -366h-94z" />
<glyph unicode="&#xb5;" horiz-adv-x="1054" d="M86 461q0 109 35 201t97.5 157.5t148.5 102t186 36.5q70 0 135.5 -15t112.5 -38l106 60v-981q0 -125 -28.5 -214t-82 -146.5t-129 -84t-171.5 -26.5q-98 0 -172 19t-138 48l33 117q55 -29 124 -48.5t153 -19.5q139 0 211.5 82t72.5 266v113q-47 -43 -115.5 -79 t-156.5 -36q-94 0 -172 36t-133.5 100.5t-86 153.5t-30.5 196zM217 463q0 -82 22.5 -150.5t63.5 -118t98.5 -77t128.5 -27.5q72 0 136.5 30t113.5 77v575q-43 35 -104.5 54.5t-128.5 19.5q-76 0 -136.5 -29t-103.5 -80t-66.5 -120.5t-23.5 -153.5z" />
<glyph unicode="&#xb6;" horiz-adv-x="1026" d="M94 893q0 96 35 169t98.5 121t150.5 72.5t191 24.5h267v-1411h-111v670q-31 -8 -74 -13.5t-80 -5.5q-121 0 -211 29t-149 79t-88 117.5t-29 147.5z" />
<glyph unicode="&#xb7;" horiz-adv-x="382" d="M90 469q0 41 28.5 71.5t74.5 30.5q45 0 73.5 -30.5t28.5 -71.5t-28.5 -74t-73.5 -33t-74 33t-29 74z" />
<glyph unicode="&#xb8;" horiz-adv-x="813" d="M256 -170l236 231h102l-205 -200q111 4 180.5 -39t69.5 -129t-80 -146.5t-248 -78.5l-10 86q119 6 177.5 40.5t58.5 88.5q0 66 -71 87t-198 -1z" />
<glyph unicode="&#xba;" horiz-adv-x="866" d="M68 909q0 90 28.5 163t77.5 125t116.5 81t147.5 29q78 0 144.5 -28t114.5 -79t75 -125t27 -164t-29 -162.5t-78 -125t-116.5 -81t-145.5 -28.5t-144.5 27.5t-114.5 79t-75.5 125t-27.5 163.5zM172 911q0 -135 71.5 -219t190.5 -84q121 0 191.5 84t70.5 215 q0 137 -71.5 221t-190.5 84q-121 0 -191.5 -84t-70.5 -217z" />
<glyph unicode="&#xbb;" horiz-adv-x="1179" d="M76 152l401 325v4l-401 326l16 98l502 -358v-135l-502 -359zM633 170l383 307v4l-383 307l16 95l479 -340v-127l-479 -340z" />
<glyph unicode="&#xbc;" horiz-adv-x="1230" d="M23 829l8 78l141 33l2 127q2 92 23.5 156.5t58.5 104.5t88 58.5t113 18.5q47 0 93 -12.5t79 -28.5l-5 -18q-6 -19 -11 -40.5t-10 -39.5l-5 -17q-33 16 -68.5 27.5t-74.5 11.5q-78 0 -117 -52t-39 -167v-135h494l2 153q2 92 23.5 157t58 105t88 58t112.5 18q49 0 95.5 -12 t78.5 -29l-5 -18q-5 -18 -10 -39.5t-10 -38.5l-5 -18q-33 16 -69 27.5t-77 11.5q-78 0 -115.5 -52.5t-37.5 -166.5v-156h292l-6 -115h-286v-819h-127v819h-496v-819h-125v819z" />
<glyph unicode="&#xbd;" horiz-adv-x="1642" d="M23 829l8 78l141 33l2 127q0 92 21.5 156.5t59.5 104.5t89 58.5t113 18.5q47 0 93 -12.5t79 -28.5l-5 -18q-6 -19 -11 -40.5t-10 -39.5l-5 -17q-33 16 -68.5 27.5t-74.5 11.5q-78 0 -117 -52t-39 -167v-135h494l2 153q2 92 23.5 157t58 105t88 58t112.5 18q49 0 95.5 -12 t78.5 -29l-5 -18q-5 -18 -10 -39.5t-10 -38.5l-5 -18q-33 16 -69 27.5t-77 11.5q-78 0 -115.5 -52.5t-37.5 -166.5v-156h442l131 31v-965h-125v819h-448v-819h-127v819h-496v-819h-125v819z" />
<glyph unicode="&#xbe;" horiz-adv-x="1642" d="M23 829l8 78l141 33l2 127q2 92 23.5 156.5t58.5 104.5t88 58.5t113 18.5q47 0 93 -12.5t79 -28.5l-5 -18q-6 -19 -11 -40.5t-10 -39.5l-5 -17q-33 16 -68.5 27.5t-74.5 11.5q-78 0 -117 -52t-39 -167v-135h494l2 153q2 92 23.5 157t58 105t88 58t112.5 18q49 0 95.5 -12 t78.5 -29l-5 -18q-5 -18 -10 -39.5t-10 -38.5l-5 -18q-33 16 -69 27.5t-77 11.5q-78 0 -115.5 -52.5t-37.5 -166.5v-156h292l-6 -115h-286v-819h-127v819h-496v-819h-125v819zM1370 0v1380l125 27v-1407h-125z" />
<glyph unicode="&#xbf;" horiz-adv-x="714" d="M80 303q0 66 19.5 110t50 74.5t69.5 52t78 38.5q74 33 116 60.5t42 78.5q0 47 -34 90t-87 84l65 22q59 -35 108.5 -90t49.5 -123q0 -45 -15.5 -78.5t-42 -58t-62.5 -44t-77 -36.5q-37 -14 -68.5 -29.5t-55 -36t-37 -48t-13.5 -64.5q0 -43 18.5 -83t54.5 -69.5t87 -48 t119 -18.5q41 0 75.5 6t65.5 12v-116q-29 -8 -63.5 -13.5t-81.5 -5.5q-88 0 -159 29t-120 76t-75.5 107.5t-26.5 121.5zM309 1198q0 41 28 74t75 33q45 0 73.5 -33t28.5 -74t-28.5 -71.5t-73.5 -30.5q-47 0 -75 30.5t-28 71.5z" />
<glyph unicode="&#xc0;" horiz-adv-x="1177" d="M31 0l485 1280h154l477 -1280h-133l-135 367h-580l-135 -367h-133zM225 1769h164l242 -366h-94zM344 485h490l-244 666z" />
<glyph unicode="&#xc1;" horiz-adv-x="1177" d="M31 0l485 1280h154l477 -1280h-133l-135 367h-580l-135 -367h-133zM344 485h490l-244 666zM532 1403l242 366h164l-311 -366h-95z" />
<glyph unicode="&#xc2;" horiz-adv-x="1177" d="M31 0l485 1280h154l477 -1280h-133l-135 367h-580l-135 -367h-133zM289 1403l231 373h144l231 -373h-96l-205 276h-2l-207 -276h-96zM344 485h490l-244 666z" />
<glyph unicode="&#xc3;" horiz-adv-x="1177" d="M31 0l485 1280h154l477 -1280h-133l-135 367h-580l-135 -367h-133zM258 1423q16 121 60 178.5t122 57.5q45 0 88 -22.5t83 -50t76 -51.5t63 -24q29 0 50 28t40 108h84q-16 -121 -60.5 -178.5t-122.5 -57.5q-45 0 -88 22.5t-82 50t-73.5 50t-63.5 22.5q-31 0 -51.5 -27.5 t-40.5 -105.5h-84zM344 485h490l-244 666z" />
<glyph unicode="&#xc4;" horiz-adv-x="1177" d="M31 0l485 1280h154l477 -1280h-133l-135 367h-580l-135 -367h-133zM293 1556q0 41 26.5 71t69.5 30q45 0 71.5 -30t26.5 -71t-26.5 -71.5t-71.5 -30.5q-43 0 -69.5 31t-26.5 71zM344 485h490l-244 666zM686 1556q0 41 27.5 71t72.5 30q43 0 70 -30t27 -71t-27 -71.5 t-70 -30.5q-45 0 -72.5 31t-27.5 71z" />
<glyph unicode="&#xc5;" horiz-adv-x="1177" d="M31 0l458 1214q-66 25 -102.5 76t-36.5 117q0 86 64.5 149.5t177.5 63.5t176 -63.5t66 -149.5q0 -66 -37 -117t-103 -76l453 -1214h-133l-135 367h-578l-137 -367h-133zM344 485h492l-244 666zM440 1409q0 -57 41 -98t111 -41q72 0 112.5 40t40.5 95q0 57 -40.5 99 t-112.5 42q-70 0 -111 -41t-41 -96z" />
<glyph unicode="&#xc6;" horiz-adv-x="1675" d="M2 0l733 1280h846v-121h-643v-457h537v-120h-537v-461h643v-121h-774v356h-463l-203 -356h-139zM414 477h393v688z" />
<glyph unicode="&#xc7;" horiz-adv-x="1200" d="M96 637q0 154 46 276.5t129 210.5t196 135.5t248 47.5q117 0 220 -31t175 -74l-41 -117q-78 49 -166 76t-190 27q-104 0 -192.5 -37t-153 -106.5t-101.5 -171t-37 -232.5q0 -127 35 -228.5t99.5 -173t153.5 -109.5t200 -38q104 0 198.5 33t159.5 82l25 -129 q-66 -41 -155 -69.5t-189 -33.5l-117 -114q111 4 180.5 -39t69.5 -129t-80 -146.5t-248 -78.5l-10 86q119 6 177 40.5t58 88.5q0 66 -70.5 87t-197.5 -1l-12 61l147 145q-125 10 -228 60.5t-176 136.5t-113 204t-40 261z" />
<glyph unicode="&#xc8;" horiz-adv-x="1038" d="M164 0v1280h774v-121h-643v-459h536v-118h-536v-461h643v-121h-774zM213 1769h164l241 -366h-94z" />
<glyph unicode="&#xc9;" horiz-adv-x="1038" d="M164 0v1280h774v-121h-643v-459h536v-118h-536v-461h643v-121h-774zM449 1403l241 366h164l-311 -366h-94z" />
<glyph unicode="&#xca;" horiz-adv-x="1038" d="M164 0v1280h774v-121h-643v-459h536v-118h-536v-461h643v-121h-774zM250 1403l231 373h144l231 -373h-96l-205 276h-2l-207 -276h-96z" />
<glyph unicode="&#xcb;" horiz-adv-x="1038" d="M164 0v1280h774v-121h-643v-459h536v-118h-536v-461h643v-121h-774zM248 1556q0 41 26.5 71t69.5 30q45 0 71.5 -30t26.5 -71t-26.5 -71.5t-71.5 -30.5q-43 0 -69.5 31t-26.5 71zM641 1556q0 41 27.5 71t72.5 30q43 0 70 -30t27 -71t-27 -71.5t-70 -30.5q-45 0 -72.5 31 t-27.5 71z" />
<glyph unicode="&#xcc;" horiz-adv-x="466" d="M-113 1769h164l242 -366h-94zM168 0v1280h129v-1280h-129z" />
<glyph unicode="&#xcd;" horiz-adv-x="466" d="M168 0v1280h129v-1280h-129zM180 1403l242 366h164l-312 -366h-94z" />
<glyph unicode="&#xce;" horiz-adv-x="466" d="M-68 1403l232 373h143l232 -373h-97l-204 276h-2l-207 -276h-97zM168 0v1280h129v-1280h-129z" />
<glyph unicode="&#xcf;" horiz-adv-x="466" d="M-59 1556q0 41 26.5 71t69.5 30q45 0 71.5 -30t26.5 -71t-26.5 -71.5t-71.5 -30.5q-43 0 -69.5 31t-26.5 71zM168 0v1280h129v-1280h-129zM334 1556q0 41 27.5 71t72.5 30q43 0 69.5 -30t26.5 -71t-26.5 -71.5t-69.5 -30.5q-45 0 -72.5 31t-27.5 71z" />
<glyph unicode="&#xd0;" horiz-adv-x="1323" d="M33 588v114h172v578h348q158 0 284 -45t213 -128t134 -199.5t47 -258.5q0 -152 -46 -271.5t-134 -203.5t-216 -129t-292 -45h-338v588h-172zM336 121h213q123 0 224 31.5t174 96t113 162t40 228.5q0 246 -145.5 383t-409.5 137h-209v-457h358v-114h-358v-467z" />
<glyph unicode="&#xd1;" horiz-adv-x="1331" d="M164 0v1280h147l727 -1098v1098h127v-1292h-141l-733 1108v-1096h-127zM334 1423q16 121 60 178.5t122 57.5q45 0 88 -22.5t83 -50t76 -51.5t62 -24q29 0 50.5 28t39.5 108h84q-16 -121 -60 -178.5t-122 -57.5q-45 0 -88 22.5t-82 50t-73.5 50t-63.5 22.5 q-31 0 -51.5 -27.5t-40.5 -105.5h-84z" />
<glyph unicode="&#xd2;" d="M96 637q0 147 47 270t131 212t200 138.5t253 49.5q133 0 249 -48.5t200 -135.5t132 -209t48 -269t-47 -270t-131 -212t-200 -139.5t-253 -50.5q-133 0 -248 48.5t-199.5 135.5t-133 209.5t-48.5 270.5zM229 645q0 -123 38 -225.5t104.5 -176t159 -113.5t200.5 -40 q106 0 196.5 40t156 112.5t102.5 173t37 221.5q0 123 -37 225.5t-103.5 175t-159 112.5t-200.5 40q-106 0 -197.5 -40t-157 -111.5t-102.5 -172t-37 -221.5zM387 1769h164l242 -366h-95z" />
<glyph unicode="&#xd3;" d="M96 637q0 147 47 270t131 212t200 138.5t253 49.5q133 0 249 -48.5t200 -135.5t132 -209t48 -269t-47 -270t-131 -212t-200 -139.5t-253 -50.5q-133 0 -248 48.5t-199.5 135.5t-133 209.5t-48.5 270.5zM229 645q0 -123 38 -225.5t104.5 -176t159 -113.5t200.5 -40 q106 0 196.5 40t156 112.5t102.5 173t37 221.5q0 123 -37 225.5t-103.5 175t-159 112.5t-200.5 40q-106 0 -197.5 -40t-157 -111.5t-102.5 -172t-37 -221.5zM666 1403l241 366h164l-311 -366h-94z" />
<glyph unicode="&#xd4;" d="M96 637q0 147 47 270t131 212t200 138.5t253 49.5q133 0 249 -48.5t200 -135.5t132 -209t48 -269t-47 -270t-131 -212t-200 -139.5t-253 -50.5q-133 0 -248 48.5t-199.5 135.5t-133 209.5t-48.5 270.5zM229 645q0 -123 38 -225.5t104.5 -176t159 -113.5t200.5 -40 q106 0 196.5 40t156 112.5t102.5 173t37 221.5q0 123 -37 225.5t-103.5 175t-159 112.5t-200.5 40q-106 0 -197.5 -40t-157 -111.5t-102.5 -172t-37 -221.5zM426 1403l231 373h144l231 -373h-96l-205 276h-2l-207 -276h-96z" />
<glyph unicode="&#xd5;" d="M96 637q0 147 47 270t131 212t200 138.5t253 49.5q133 0 249 -48.5t200 -135.5t132 -209t48 -269t-47 -270t-131 -212t-200 -139.5t-253 -50.5q-133 0 -248 48.5t-199.5 135.5t-133 209.5t-48.5 270.5zM229 645q0 -123 38 -225.5t104.5 -176t159 -113.5t200.5 -40 q106 0 196.5 40t156 112.5t102.5 173t37 221.5q0 123 -37 225.5t-103.5 175t-159 112.5t-200.5 40q-106 0 -197.5 -40t-157 -111.5t-102.5 -172t-37 -221.5zM395 1423q16 121 60.5 178.5t122.5 57.5q45 0 88 -22.5t82.5 -50t75.5 -51.5t63 -24q29 0 50 28t40 108h84 q-16 -121 -60.5 -178.5t-121.5 -57.5q-45 0 -88 22.5t-82 50t-74 50t-64 22.5q-31 0 -51 -27.5t-41 -105.5h-84z" />
<glyph unicode="&#xd6;" d="M96 637q0 147 47 270t131 212t200 138.5t253 49.5q133 0 249 -48.5t200 -135.5t132 -209t48 -269t-47 -270t-131 -212t-200 -139.5t-253 -50.5q-133 0 -248 48.5t-199.5 135.5t-133 209.5t-48.5 270.5zM229 645q0 -123 38 -225.5t104.5 -176t159 -113.5t200.5 -40 q106 0 196.5 40t156 112.5t102.5 173t37 221.5q0 123 -37 225.5t-103.5 175t-159 112.5t-200.5 40q-106 0 -197.5 -40t-157 -111.5t-102.5 -172t-37 -221.5zM434 1556q0 41 26.5 71t69.5 30q45 0 72 -30t27 -71t-27 -71.5t-72 -30.5q-43 0 -69.5 31t-26.5 71zM827 1556 q0 41 28 71t73 30q43 0 69.5 -30t26.5 -71t-26.5 -71.5t-69.5 -30.5q-45 0 -73 31t-28 71z" />
<glyph unicode="&#xd7;" horiz-adv-x="995" d="M80 133l346 346l-346 344l76 76l346 -346l346 348l76 -76l-349 -346l347 -346l-76 -76l-344 346l-346 -346z" />
<glyph unicode="&#xd8;" d="M100 637q0 147 47.5 270t131 212t199.5 138.5t253 49.5q80 0 152.5 -18.5t138.5 -51.5l104 180h107l-131 -225q117 -86 186.5 -226.5t69.5 -320.5q0 -145 -47 -269t-131 -213t-199 -139.5t-252 -50.5q-80 0 -153.5 18.5t-139.5 51.5l-102 -180h-107q37 61 66 112 q25 43 45 79t20 34q-119 88 -188.5 228.5t-69.5 320.5zM231 645q0 -145 51.5 -259t139.5 -187l541 934q-109 57 -238 57q-106 0 -197.5 -40t-157 -111.5t-102.5 -172t-37 -221.5zM496 147q111 -57 237 -57q109 0 199 40t154.5 112.5t101.5 173t37 221.5q0 143 -50.5 258 t-136.5 186z" />
<glyph unicode="&#xd9;" horiz-adv-x="1261" d="M150 469v811h126v-795q0 -184 89.5 -287.5t269.5 -103.5q172 0 261 100.5t89 292.5v793h129v-791q0 -119 -30.5 -214t-92 -162.5t-151.5 -103.5t-211 -36q-115 0 -204 35t-150.5 99.5t-93 156.5t-31.5 205zM305 1769h164l242 -366h-95z" />
<glyph unicode="&#xda;" horiz-adv-x="1261" d="M150 469v811h126v-795q0 -184 89.5 -287.5t269.5 -103.5q172 0 261 100.5t89 292.5v793h129v-791q0 -119 -30.5 -214t-92 -162.5t-151.5 -103.5t-211 -36q-115 0 -204 35t-150.5 99.5t-93 156.5t-31.5 205zM545 1403l241 366h164l-311 -366h-94z" />
<glyph unicode="&#xdb;" horiz-adv-x="1261" d="M150 469v811h126v-795q0 -184 89.5 -287.5t269.5 -103.5q172 0 261 100.5t89 292.5v793h129v-791q0 -119 -30.5 -214t-92 -162.5t-151.5 -103.5t-211 -36q-115 0 -204 35t-150.5 99.5t-93 156.5t-31.5 205zM330 1403l231 373h144l231 -373h-96l-205 276h-2l-207 -276h-96 z" />
<glyph unicode="&#xdc;" horiz-adv-x="1261" d="M150 469v811h126v-795q0 -184 89.5 -287.5t269.5 -103.5q172 0 261 100.5t89 292.5v793h129v-791q0 -119 -30.5 -214t-92 -162.5t-151.5 -103.5t-211 -36q-115 0 -204 35t-150.5 99.5t-93 156.5t-31.5 205zM338 1556q0 41 26.5 71t69.5 30q45 0 71.5 -30t26.5 -71 t-26.5 -71.5t-71.5 -30.5q-43 0 -69.5 31t-26.5 71zM731 1556q0 41 27.5 71t72.5 30q43 0 70 -30t27 -71t-27 -71.5t-70 -30.5q-45 0 -72.5 31t-27.5 71z" />
<glyph unicode="&#xdd;" horiz-adv-x="1073" d="M25 1280h147l369 -637l362 637h146l-447 -766v-514h-131v514zM467 1403l242 366h163l-311 -366h-94z" />
<glyph unicode="&#xde;" horiz-adv-x="1056" d="M164 0v1280h131v-219h190q127 0 221.5 -30t156 -82t92 -126t30.5 -164q0 -211 -138 -317t-378 -111l-174 -2v-229h-131zM295 352l182 2q182 4 277.5 76.5t95.5 224.5q0 137 -94 211t-275 74h-186v-588z" />
<glyph unicode="&#xdf;" horiz-adv-x="1224" d="M23 827l8 80l141 33l2 147q2 94 23.5 159t58.5 105t88 57t113 17q47 0 93 -12.5t79 -28.5l-5 -18q-6 -18 -11 -39.5t-10 -38.5l-5 -18q-33 16 -68.5 27.5t-74.5 11.5q-78 0 -117 -52.5t-39 -166.5v-1090h-125v817zM502 57l35 117q59 -41 130.5 -63.5t143.5 -22.5 q43 0 81 10.5t67.5 31t47 49t17.5 67.5q0 43 -20.5 71.5t-53 48t-76 34t-86.5 28.5q-49 14 -97 34.5t-87 51.5t-63.5 75t-24.5 105q0 63 24.5 113.5t67.5 85.5t100.5 53.5t122.5 18.5q78 0 152 -19.5t133 -50.5l-35 -115q-59 33 -126.5 51.5t-131.5 18.5q-86 0 -137 -38 t-51 -105q0 -39 19.5 -67t52 -47.5t73.5 -33.5t86 -29q49 -14 99.5 -34.5t89.5 -52t63.5 -76.5t24.5 -111q0 -63 -25.5 -115.5t-71 -89.5t-106.5 -57.5t-133 -20.5q-84 0 -165 22.5t-140 61.5z" />
<glyph unicode="&#xe0;" horiz-adv-x="899" d="M68 233q0 63 27.5 120t93 102t175 74.5t273.5 37.5v56q0 111 -52.5 167t-168.5 56q-39 0 -80 -9.5t-82 -24.5t-78 -35.5t-67 -43.5l-29 119q31 23 72 43t87 35.5t95 25t94 9.5q164 0 251 -79t85 -257v-451q0 -51 16.5 -73.5t77.5 -20.5l-8 -104q-92 -6 -143.5 28.5 t-61.5 104.5h-6q-47 -59 -118.5 -99.5t-155.5 -40.5q-63 0 -119 19.5t-94.5 54.5t-61 83t-22.5 103zM109 1427h163l242 -366h-94zM201 248q0 -76 54 -120t138 -44q76 0 138.5 37t105.5 86v274q-121 -14 -204 -34.5t-135 -49t-74.5 -65.5t-22.5 -84z" />
<glyph unicode="&#xe1;" horiz-adv-x="899" d="M68 233q0 63 27.5 120t93 102t175 74.5t273.5 37.5v56q0 111 -52.5 167t-168.5 56q-39 0 -80 -9.5t-82 -24.5t-78 -35.5t-67 -43.5l-29 119q31 23 72 43t87 35.5t95 25t94 9.5q164 0 251 -79t85 -257v-451q0 -51 16.5 -73.5t77.5 -20.5l-8 -104q-92 -6 -143.5 28.5 t-61.5 104.5h-6q-47 -59 -118.5 -99.5t-155.5 -40.5q-63 0 -119 19.5t-94.5 54.5t-61 83t-22.5 103zM201 248q0 -76 54 -120t138 -44q76 0 138.5 37t105.5 86v274q-121 -14 -204 -34.5t-135 -49t-74.5 -65.5t-22.5 -84zM332 1061l241 366h164l-311 -366h-94z" />
<glyph unicode="&#xe2;" horiz-adv-x="899" d="M68 233q0 63 27.5 120t93 102t175 74.5t273.5 37.5v56q0 111 -52.5 167t-168.5 56q-39 0 -80 -9.5t-82 -24.5t-78 -35.5t-67 -43.5l-29 119q31 23 72 43t87 35.5t95 25t94 9.5q164 0 251 -79t85 -257v-451q0 -51 16.5 -73.5t77.5 -20.5l-8 -104q-92 -6 -143.5 28.5 t-61.5 104.5h-6q-47 -59 -118.5 -99.5t-155.5 -40.5q-63 0 -119 19.5t-94.5 54.5t-61 83t-22.5 103zM127 1061l231 373h144l231 -373h-96l-205 276h-2l-207 -276h-96zM201 248q0 -76 54 -120t138 -44q76 0 138.5 37t105.5 86v274q-121 -14 -204 -34.5t-135 -49t-74.5 -65.5 t-22.5 -84z" />
<glyph unicode="&#xe3;" horiz-adv-x="899" d="M68 233q0 63 27.5 120t93 102t175 74.5t273.5 37.5v56q0 111 -52.5 167t-168.5 56q-39 0 -80 -9.5t-82 -24.5t-78 -35.5t-67 -43.5l-29 119q31 23 72 43t87 35.5t95 25t94 9.5q164 0 251 -79t85 -257v-451q0 -51 16.5 -73.5t77.5 -20.5l-8 -104q-92 -6 -143.5 28.5 t-61.5 104.5h-6q-47 -59 -118.5 -99.5t-155.5 -40.5q-63 0 -119 19.5t-94.5 54.5t-61 83t-22.5 103zM96 1081q16 121 60.5 178.5t122.5 57.5q45 0 88 -22.5t82.5 -50t75.5 -51.5t63 -24q29 0 50 28t40 108h84q-16 -121 -60.5 -178.5t-121.5 -57.5q-45 0 -88 22.5t-82 50 t-74 50t-64 22.5q-31 0 -51 -27.5t-41 -105.5h-84zM201 248q0 -76 54 -120t138 -44q76 0 138.5 37t105.5 86v274q-121 -14 -204 -34.5t-135 -49t-74.5 -65.5t-22.5 -84z" />
<glyph unicode="&#xe4;" horiz-adv-x="899" d="M68 233q0 63 27.5 120t93 102t175 74.5t273.5 37.5v56q0 111 -52.5 167t-168.5 56q-39 0 -80 -9.5t-82 -24.5t-78 -35.5t-67 -43.5l-29 119q31 23 72 43t87 35.5t95 25t94 9.5q164 0 251 -79t85 -257v-451q0 -51 16.5 -73.5t77.5 -20.5l-8 -104q-92 -6 -143.5 28.5 t-61.5 104.5h-6q-47 -59 -118.5 -99.5t-155.5 -40.5q-63 0 -119 19.5t-94.5 54.5t-61 83t-22.5 103zM135 1214q0 41 26.5 71t69.5 30q45 0 72 -30t27 -71t-27 -71.5t-72 -30.5q-43 0 -69.5 31t-26.5 71zM201 248q0 -76 54 -120t138 -44q76 0 138.5 37t105.5 86v274 q-121 -14 -204 -34.5t-135 -49t-74.5 -65.5t-22.5 -84zM528 1214q0 41 28 71t73 30q43 0 69.5 -30t26.5 -71t-26.5 -71.5t-69.5 -30.5q-45 0 -73 31t-28 71z" />
<glyph unicode="&#xe5;" horiz-adv-x="899" d="M68 233q0 63 27.5 120t93 102t175 74.5t273.5 37.5v56q0 111 -52.5 167t-168.5 56q-39 0 -80 -9.5t-82 -24.5t-78 -35.5t-67 -43.5l-29 119q31 23 72 43t87 35.5t95 25t94 9.5q164 0 251 -79t85 -257v-451q0 -51 16.5 -73.5t77.5 -20.5l-8 -104q-92 -6 -143.5 28.5 t-61.5 104.5h-6q-47 -59 -118.5 -99.5t-155.5 -40.5q-63 0 -119 19.5t-94.5 54.5t-61 83t-22.5 103zM188 1266q0 86 64.5 149.5t177.5 63.5q115 0 178.5 -63.5t65.5 -149.5q0 -88 -64.5 -149.5t-179.5 -61.5q-113 0 -177.5 61.5t-64.5 149.5zM201 248q0 -76 54 -120t138 -44 q76 0 138.5 37t105.5 86v274q-121 -14 -204 -34.5t-135 -49t-74.5 -65.5t-22.5 -84zM281 1268q0 -57 40.5 -98.5t108.5 -41.5q72 0 113 40.5t41 95.5q0 57 -41 99t-113 42q-68 0 -108.5 -41t-40.5 -96z" />
<glyph unicode="&#xe6;" horiz-adv-x="1509" d="M68 227q0 68 29.5 125.5t97 101.5t176 70.5t266.5 32.5l2 51q4 123 -52.5 179.5t-174.5 56.5q-78 0 -158 -33t-141 -78l-35 113q61 45 153.5 82t190.5 37q252 0 307 -181q55 82 144.5 131.5t199.5 49.5q156 0 249 -93.5t93 -253.5q0 -37 -5 -77.5t-15 -71.5l-635 -4v-10 q2 -80 25.5 -146.5t66.5 -115t102.5 -75t132.5 -26.5q78 0 149 21.5t124 56.5l24 -117q-59 -37 -136 -58.5t-165 -21.5q-125 0 -221 54.5t-153 146.5q-29 -43 -69 -79t-87 -63.5t-99.5 -43t-105.5 -15.5q-63 0 -115.5 19.5t-89.5 54.5t-56 81t-19 99zM199 242q0 -74 50 -114 t132 -40q70 0 150.5 41t140.5 117q-8 20 -14.5 48t-11.5 58.5t-8 61t-3 55.5q-123 -8 -206 -27.5t-134 -49.5t-73.5 -67.5t-22.5 -82.5zM768 565l520 2q4 20 4 41q0 109 -58 175.5t-169 66.5q-63 0 -114.5 -22.5t-89.5 -61.5t-61.5 -90t-31.5 -111z" />
<glyph unicode="&#xe7;" horiz-adv-x="923" d="M86 467q0 111 35 202t96.5 156.5t145 102.5t184.5 37q86 0 159.5 -20.5t133.5 -59.5l-33 -115q-53 35 -119.5 55.5t-140.5 20.5q-76 0 -137.5 -27.5t-104.5 -77t-65.5 -118t-22.5 -152.5q0 -86 23.5 -155.5t67.5 -120t105.5 -77t135.5 -26.5q72 0 139.5 21.5t120.5 56.5 l27 -117q-51 -31 -112.5 -51t-129.5 -27l-117 -114q111 4 180.5 -39t69.5 -129t-80 -146.5t-248 -78.5l-10 86q119 6 177.5 40.5t58.5 88.5q0 66 -71 87t-198 -1l-12 61l148 145q-94 8 -169 48t-127.5 105t-81 151t-28.5 188z" />
<glyph unicode="&#xe8;" horiz-adv-x="962" d="M86 461q0 111 34 203t92 159.5t140 104.5t176 37q156 0 249 -93.5t93 -253.5q0 -37 -5 -77.5t-15 -71.5l-635 -4v-10q2 -80 25.5 -146.5t66.5 -115t102.5 -75t133.5 -26.5q78 0 148.5 21.5t123.5 56.5l25 -117q-59 -37 -136 -58.5t-165 -21.5q-100 0 -184.5 36 t-143.5 100.5t-92 154.5t-33 197zM176 1427h164l242 -366h-95zM223 565l520 2q2 8 2 20.5v20.5q0 109 -57 175.5t-168 66.5q-63 0 -114.5 -22.5t-89 -61.5t-61.5 -90t-32 -111z" />
<glyph unicode="&#xe9;" horiz-adv-x="962" d="M86 461q0 111 34 203t92 159.5t140 104.5t176 37q156 0 249 -93.5t93 -253.5q0 -37 -5 -77.5t-15 -71.5l-635 -4v-10q2 -80 25.5 -146.5t66.5 -115t102.5 -75t133.5 -26.5q78 0 148.5 21.5t123.5 56.5l25 -117q-59 -37 -136 -58.5t-165 -21.5q-100 0 -184.5 36 t-143.5 100.5t-92 154.5t-33 197zM223 565l520 2q2 8 2 20.5v20.5q0 109 -57 175.5t-168 66.5q-63 0 -114.5 -22.5t-89 -61.5t-61.5 -90t-32 -111zM432 1061l242 366h164l-312 -366h-94z" />
<glyph unicode="&#xea;" horiz-adv-x="962" d="M86 461q0 111 34 203t92 159.5t140 104.5t176 37q156 0 249 -93.5t93 -253.5q0 -37 -5 -77.5t-15 -71.5l-635 -4v-10q2 -80 25.5 -146.5t66.5 -115t102.5 -75t133.5 -26.5q78 0 148.5 21.5t123.5 56.5l25 -117q-59 -37 -136 -58.5t-165 -21.5q-100 0 -184.5 36 t-143.5 100.5t-92 154.5t-33 197zM174 1061l232 373h143l231 -373h-96l-205 276h-2l-207 -276h-96zM223 565l520 2q2 8 2 20.5v20.5q0 109 -57 175.5t-168 66.5q-63 0 -114.5 -22.5t-89 -61.5t-61.5 -90t-32 -111z" />
<glyph unicode="&#xeb;" horiz-adv-x="962" d="M86 461q0 111 34 203t92 159.5t140 104.5t176 37q156 0 249 -93.5t93 -253.5q0 -37 -5 -77.5t-15 -71.5l-635 -4v-10q2 -80 25.5 -146.5t66.5 -115t102.5 -75t133.5 -26.5q78 0 148.5 21.5t123.5 56.5l25 -117q-59 -37 -136 -58.5t-165 -21.5q-100 0 -184.5 36 t-143.5 100.5t-92 154.5t-33 197zM193 1214q0 41 26.5 71t69.5 30q45 0 71.5 -30t26.5 -71t-26.5 -71.5t-71.5 -30.5q-43 0 -69.5 31t-26.5 71zM223 565l520 2q2 8 2 20.5v20.5q0 109 -57 175.5t-168 66.5q-63 0 -114.5 -22.5t-89 -61.5t-61.5 -90t-32 -111zM586 1214 q0 41 27.5 71t72.5 30q43 0 69.5 -30t26.5 -71t-26.5 -71.5t-69.5 -30.5q-45 0 -72.5 31t-27.5 71z" />
<glyph unicode="&#xec;" horiz-adv-x="428" d="M-133 1427h164l241 -366h-94zM154 0v928l127 26v-954h-127z" />
<glyph unicode="&#xed;" horiz-adv-x="428" d="M154 0v928l127 26v-954h-127zM158 1061l241 366h164l-311 -366h-94z" />
<glyph unicode="&#xee;" horiz-adv-x="428" d="M-84 1061l231 373h144l231 -373h-96l-205 276h-2l-207 -276h-96zM154 0v928l127 26v-954h-127z" />
<glyph unicode="&#xef;" horiz-adv-x="428" d="M-76 1214q0 41 26.5 71t69.5 30q45 0 72 -30t27 -71t-26.5 -71.5t-72.5 -30.5q-43 0 -69.5 31t-26.5 71zM154 0v928l127 26v-954h-127zM317 1214q0 41 28 71t73 30q43 0 69.5 -30t26.5 -71t-26.5 -71.5t-69.5 -30.5q-45 0 -73 31t-28 71z" />
<glyph unicode="&#xf0;" horiz-adv-x="1075" d="M86 424q0 111 36 198t95 146t135 90t156 31q98 0 169 -33t122 -78h2q-18 43 -47 91.5t-66 97.5t-78 97t-84 91l-239 -65l-25 94l187 51q-43 41 -88.5 80t-92.5 76q39 10 70 18q29 6 49 12q12 4 23 4q88 -68 174 -153l215 57l24 -94l-82 -21q-31 -8 -55 -15t-27 -7 q72 -80 132.5 -165t103.5 -173t67.5 -177t24.5 -175q0 -113 -28.5 -209t-85 -167t-141.5 -112t-197 -41q-100 0 -182.5 34t-141.5 94.5t-92 142.5t-33 180zM221 438q0 -80 23.5 -144.5t65.5 -110.5t100.5 -70.5t128.5 -24.5q154 0 238.5 104.5t84.5 288.5q0 53 -10 102.5 t-27 90.5q-43 43 -122.5 71.5t-170.5 28.5q-70 0 -127 -23.5t-98 -67.5t-63.5 -105.5t-22.5 -139.5z" />
<glyph unicode="&#xf1;" horiz-adv-x="1034" d="M147 0v938l127 27v-154q74 74 160 114t160 40q141 0 220 -84t79 -238v-643h-127v606q0 123 -50 180.5t-157 57.5q-78 0 -151.5 -37t-133.5 -96v-711h-127zM186 1081q16 121 60.5 178.5t122.5 57.5q45 0 88 -22.5t83 -50t75.5 -51.5t62.5 -24q29 0 50.5 28t39.5 108h84 q-16 -121 -60 -178.5t-122 -57.5q-45 0 -88 22.5t-82 50t-74 50t-64 22.5q-31 0 -51 -27.5t-41 -105.5h-84z" />
<glyph unicode="&#xf2;" horiz-adv-x="1087" d="M86 467q0 113 36 204t97.5 156.5t146.5 101.5t183 36t181 -35t142.5 -99.5t93 -155.5t33.5 -204t-35.5 -204t-97 -156.5t-145.5 -101.5t-182 -36t-181.5 35t-143.5 99.5t-94 155.5t-34 204zM213 471q0 -86 23.5 -156.5t67.5 -121t105.5 -78t135.5 -27.5t135 27.5t104 79 t66.5 121t23.5 151.5q0 86 -23.5 156.5t-67.5 121t-105.5 78t-134.5 27.5q-74 0 -135.5 -27.5t-104.5 -79t-66.5 -120t-23.5 -152.5zM231 1427h164l242 -366h-94z" />
<glyph unicode="&#xf3;" horiz-adv-x="1087" d="M86 467q0 113 36 204t97.5 156.5t146.5 101.5t183 36t181 -35t142.5 -99.5t93 -155.5t33.5 -204t-35.5 -204t-97 -156.5t-145.5 -101.5t-182 -36t-181.5 35t-143.5 99.5t-94 155.5t-34 204zM213 471q0 -86 23.5 -156.5t67.5 -121t105.5 -78t135.5 -27.5t135 27.5t104 79 t66.5 121t23.5 151.5q0 86 -23.5 156.5t-67.5 121t-105.5 78t-134.5 27.5q-74 0 -135.5 -27.5t-104.5 -79t-66.5 -120t-23.5 -152.5zM459 1061l241 366h164l-311 -366h-94z" />
<glyph unicode="&#xf4;" horiz-adv-x="1087" d="M86 467q0 113 36 204t97.5 156.5t146.5 101.5t183 36t181 -35t142.5 -99.5t93 -155.5t33.5 -204t-35.5 -204t-97 -156.5t-145.5 -101.5t-182 -36t-181.5 35t-143.5 99.5t-94 155.5t-34 204zM213 471q0 -86 23.5 -156.5t67.5 -121t105.5 -78t135.5 -27.5t135 27.5t104 79 t66.5 121t23.5 151.5q0 86 -23.5 156.5t-67.5 121t-105.5 78t-134.5 27.5q-74 0 -135.5 -27.5t-104.5 -79t-66.5 -120t-23.5 -152.5zM244 1061l231 373h143l232 -373h-96l-205 276h-2l-207 -276h-96z" />
<glyph unicode="&#xf5;" horiz-adv-x="1087" d="M86 467q0 113 36 204t97.5 156.5t146.5 101.5t183 36t181 -35t142.5 -99.5t93 -155.5t33.5 -204t-35.5 -204t-97 -156.5t-145.5 -101.5t-182 -36t-181.5 35t-143.5 99.5t-94 155.5t-34 204zM213 471q0 -86 23.5 -156.5t67.5 -121t105.5 -78t135.5 -27.5t135 27.5t104 79 t66.5 121t23.5 151.5q0 86 -23.5 156.5t-67.5 121t-105.5 78t-134.5 27.5q-74 0 -135.5 -27.5t-104.5 -79t-66.5 -120t-23.5 -152.5zM213 1081q16 121 60 178.5t122 57.5q45 0 88 -22.5t83 -50t76 -51.5t63 -24q29 0 50 28t40 108h84q-16 -121 -60.5 -178.5t-122.5 -57.5 q-45 0 -88 22.5t-82 50t-73.5 50t-63.5 22.5q-31 0 -51.5 -27.5t-40.5 -105.5h-84z" />
<glyph unicode="&#xf6;" horiz-adv-x="1087" d="M86 467q0 113 36 204t97.5 156.5t146.5 101.5t183 36t181 -35t142.5 -99.5t93 -155.5t33.5 -204t-35.5 -204t-97 -156.5t-145.5 -101.5t-182 -36t-181.5 35t-143.5 99.5t-94 155.5t-34 204zM213 471q0 -86 23.5 -156.5t67.5 -121t105.5 -78t135.5 -27.5t135 27.5t104 79 t66.5 121t23.5 151.5q0 86 -23.5 156.5t-67.5 121t-105.5 78t-134.5 27.5q-74 0 -135.5 -27.5t-104.5 -79t-66.5 -120t-23.5 -152.5zM252 1214q0 41 26.5 71t69.5 30q45 0 71.5 -30t26.5 -71t-26.5 -71.5t-71.5 -30.5q-43 0 -69.5 31t-26.5 71zM645 1214q0 41 27.5 71 t72.5 30q43 0 70 -30t27 -71t-27 -71.5t-70 -30.5q-45 0 -72.5 31t-27.5 71z" />
<glyph unicode="&#xf7;" horiz-adv-x="995" d="M84 426l6 111h817l6 -111h-829zM395 193q0 41 30 72.5t77 31.5t75.5 -31.5t28.5 -72.5t-28.5 -74t-75.5 -33t-77 33t-30 74zM395 766q0 41 29 73.5t76 32.5t76.5 -32.5t29.5 -73.5t-29.5 -74t-76.5 -33t-76 33t-29 74z" />
<glyph unicode="&#xf8;" horiz-adv-x="1087" d="M90 467q0 113 35 204t97.5 156.5t147.5 101.5t183 36q109 0 201 -43q8 12 22.5 37.5t30.5 52.5q18 31 37 65h108l-118 -207q78 -66 124 -167t46 -232q0 -113 -36 -204t-97.5 -156.5t-145.5 -101.5t-182 -36q-106 0 -201 45l-90 -155h-109q35 57 60 102q23 39 41 72t16 33 q-78 63 -124 164.5t-46 232.5zM215 471q0 -98 28.5 -173t80.5 -124l370 643q-63 33 -149 33q-74 0 -135.5 -27.5t-104.5 -79t-66.5 -120t-23.5 -152.5zM399 121q72 -33 150 -33q74 0 135 27.5t104 79t67 121t24 151.5q0 96 -29 171t-80 126z" />
<glyph unicode="&#xf9;" horiz-adv-x="1032" d="M139 295v643h127v-606q0 -123 49.5 -180.5t153.5 -57.5q82 0 156.5 37t132.5 96v711h127v-938l-127 -27v152q-72 -74 -159 -113t-165 -39q-137 0 -216 84t-79 238zM190 1427h164l242 -366h-94z" />
<glyph unicode="&#xfa;" horiz-adv-x="1032" d="M139 295v643h127v-606q0 -123 49.5 -180.5t153.5 -57.5q82 0 156.5 37t132.5 96v711h127v-938l-127 -27v152q-72 -74 -159 -113t-165 -39q-137 0 -216 84t-79 238zM432 1061l242 366h164l-312 -366h-94z" />
<glyph unicode="&#xfb;" horiz-adv-x="1032" d="M139 295v643h127v-606q0 -123 49.5 -180.5t153.5 -57.5q82 0 156.5 37t132.5 96v711h127v-938l-127 -27v152q-72 -74 -159 -113t-165 -39q-137 0 -216 84t-79 238zM215 1061l231 373h144l231 -373h-96l-205 276h-2l-207 -276h-96z" />
<glyph unicode="&#xfc;" horiz-adv-x="1032" d="M139 295v643h127v-606q0 -123 49.5 -180.5t153.5 -57.5q82 0 156.5 37t132.5 96v711h127v-938l-127 -27v152q-72 -74 -159 -113t-165 -39q-137 0 -216 84t-79 238zM215 1214q0 41 26.5 71t69.5 30q45 0 72 -30t27 -71t-27 -71.5t-72 -30.5q-43 0 -69.5 31t-26.5 71z M608 1214q0 41 28 71t73 30q43 0 69.5 -30t26.5 -71t-26.5 -71.5t-69.5 -30.5q-45 0 -73 31t-28 71z" />
<glyph unicode="&#xfd;" horiz-adv-x="868" d="M-66 -444l39 116q35 -18 70 -29.5t74 -11.5q27 0 51.5 9.5t47 33t46 65.5t47.5 109l64 166l-367 924h137l295 -774l289 774h133l-364 -928l-76 -203q-33 -86 -65.5 -143t-69.5 -91t-79 -47t-89 -13q-53 0 -96.5 12t-86.5 31zM352 1061l242 366h164l-312 -366h-94z" />
<glyph unicode="&#xfe;" horiz-adv-x="1048" d="M147 -492v1872l127 27v-557q47 41 116 74.5t153 33.5q96 0 175 -35.5t134 -100t85 -153.5t30 -196q0 -109 -34 -201t-95.5 -158.5t-146.5 -103.5t-187 -37q-55 0 -118.5 13.5t-111.5 36.5v-515h-127zM274 162q43 -35 105.5 -54.5t130.5 -19.5q76 0 136.5 28.5t102.5 80 t64.5 122t22.5 152.5t-21.5 149.5t-61.5 116.5t-97.5 77t-129.5 28t-136 -29t-116 -76v-575z" />
<glyph unicode="&#xff;" horiz-adv-x="868" d="M-66 -444l39 116q35 -18 70 -29.5t74 -11.5q27 0 51.5 9.5t47 33t46 65.5t47.5 109l64 166l-367 924h137l295 -774l289 774h133l-364 -928l-76 -203q-33 -86 -65.5 -143t-69.5 -91t-79 -47t-89 -13q-53 0 -96.5 12t-86.5 31zM141 1214q0 41 27 71t70 30q45 0 71.5 -30 t26.5 -71t-26.5 -71.5t-71.5 -30.5q-43 0 -70 31t-27 71zM535 1214q0 41 27.5 71t72.5 30q43 0 69.5 -30t26.5 -71t-26.5 -71.5t-69.5 -30.5q-45 0 -72.5 31t-27.5 71z" />
<glyph unicode="&#x152;" horiz-adv-x="1863" d="M100 631q0 152 46.5 271.5t134.5 203.5t216 129t291 45h979v-121h-641v-457h535v-120h-535v-461h641v-121h-989q-158 0 -283.5 46t-212.5 129t-134.5 198.5t-47.5 257.5zM231 641q0 -246 146.5 -383t408.5 -137h209v1038h-213q-123 0 -224 -31.5t-174 -96t-113 -162 t-40 -228.5z" />
<glyph unicode="&#x153;" horiz-adv-x="1755" d="M86 467q0 113 36 204t97.5 156.5t146.5 101.5t183 36q135 0 236.5 -63.5t154.5 -180.5q55 113 153.5 178.5t227.5 65.5q156 0 249 -93.5t93 -253.5q0 -37 -5 -77.5t-16 -71.5h-100h-101.5t-115.5 -2q-139 -2 -317 -2v-10q2 -80 25.5 -146.5t66.5 -115t102.5 -75 t132.5 -26.5q78 0 147.5 21.5t123.5 56.5l26 -117q-61 -37 -138 -58.5t-165 -21.5q-137 0 -238.5 65.5t-154.5 178.5q-57 -115 -160.5 -179.5t-236.5 -64.5q-98 0 -181.5 35t-143.5 99.5t-94 155.5t-34 204zM213 471q0 -86 23.5 -156.5t67.5 -121t105.5 -78t135.5 -27.5 t135 27.5t104 79t66.5 121t23.5 151.5q0 86 -23.5 156.5t-67.5 121t-105.5 78t-134.5 27.5q-74 0 -135.5 -27.5t-104.5 -79t-66.5 -120t-23.5 -152.5zM1016 565l520 2q2 8 2 20.5v20.5q0 109 -57.5 175.5t-169.5 66.5q-61 0 -112.5 -22.5t-89.5 -61.5t-61.5 -90t-31.5 -111z " />
<glyph unicode="&#x178;" horiz-adv-x="1073" d="M25 1280h147l369 -637l362 637h146l-447 -766v-514h-131v514zM244 1556q0 41 26.5 71t69.5 30q45 0 71.5 -30t26.5 -71t-26.5 -71.5t-71.5 -30.5q-43 0 -69.5 31t-26.5 71zM637 1556q0 41 27.5 71t72.5 30q43 0 70 -30t27 -71t-27 -71.5t-70 -30.5q-45 0 -72.5 31 t-27.5 71z" />
<glyph unicode="&#x2c6;" horiz-adv-x="813" d="M106 1061l232 373h143l232 -373h-97l-204 276h-2l-207 -276h-97z" />
<glyph unicode="&#x2dc;" horiz-adv-x="813" d="M76 1081q16 121 60 178.5t122 57.5q45 0 88 -22.5t83 -50t76 -51.5t62 -24q29 0 50.5 28t39.5 108h84q-16 -121 -60 -178.5t-122 -57.5q-45 0 -88 22.5t-82 50t-73.5 50t-63.5 22.5q-31 0 -51.5 -27.5t-40.5 -105.5h-84z" />
<glyph unicode="&#x2000;" horiz-adv-x="888" />
<glyph unicode="&#x2001;" horiz-adv-x="1776" />
<glyph unicode="&#x2002;" horiz-adv-x="888" />
<glyph unicode="&#x2003;" horiz-adv-x="1776" />
<glyph unicode="&#x2004;" horiz-adv-x="592" />
<glyph unicode="&#x2005;" horiz-adv-x="444" />
<glyph unicode="&#x2006;" horiz-adv-x="296" />
<glyph unicode="&#x2007;" horiz-adv-x="296" />
<glyph unicode="&#x2008;" horiz-adv-x="222" />
<glyph unicode="&#x2009;" horiz-adv-x="355" />
<glyph unicode="&#x200a;" horiz-adv-x="98" />
<glyph unicode="&#x2010;" horiz-adv-x="598" d="M70 438v119h462v-119h-462z" />
<glyph unicode="&#x2011;" horiz-adv-x="598" d="M70 438v119h462v-119h-462z" />
<glyph unicode="&#x2012;" horiz-adv-x="598" d="M70 438v119h462v-119h-462z" />
<glyph unicode="&#x2013;" horiz-adv-x="911" d="M63 440l7 101h774l6 -101h-787z" />
<glyph unicode="&#x2014;" horiz-adv-x="1873" d="M63 440l7 101h1736l6 -101h-1749z" />
<glyph unicode="&#x2018;" horiz-adv-x="382" d="M51 991q0 51 20.5 100.5t54.5 93.5t81 85t98 73l55 -51q-98 -72 -139 -132t-41 -113q0 -41 29.5 -65.5t97.5 -51.5q-4 -39 -31.5 -70t-78.5 -31q-55 0 -100.5 45.5t-45.5 116.5z" />
<glyph unicode="&#x2019;" horiz-adv-x="382" d="M23 885q98 72 139 131t41 114q0 39 -29.5 63.5t-97.5 51.5q4 41 31.5 72t78.5 31q55 0 100.5 -45.5t45.5 -116.5q0 -51 -20.5 -100.5t-54.5 -93.5t-80 -84t-99 -74z" />
<glyph unicode="&#x201a;" horiz-adv-x="382" d="M23 -258q98 72 139 131t41 115q0 39 -29.5 63t-97.5 51q4 41 31.5 72t78.5 31q55 0 100.5 -45t45.5 -117q0 -51 -20.5 -100t-54.5 -93.5t-80 -85t-99 -73.5z" />
<glyph unicode="&#x201c;" horiz-adv-x="786" d="M51 991q0 51 20.5 100.5t54.5 93.5t81 85t98 73l55 -51q-98 -72 -139 -132t-41 -113q0 -41 29.5 -65.5t97.5 -51.5q-4 -39 -31.5 -70t-78.5 -31q-55 0 -100.5 45.5t-45.5 116.5zM455 991q0 51 20.5 100.5t54 93.5t80.5 85t99 73l55 -51q-98 -72 -139 -132t-41 -113 q0 -41 29.5 -65.5t97.5 -51.5q-4 -39 -32 -70t-79 -31q-55 0 -100 45.5t-45 116.5z" />
<glyph unicode="&#x201d;" horiz-adv-x="786" d="M23 885q98 72 139 131t41 114q0 39 -29.5 63.5t-97.5 51.5q4 41 31.5 72t78.5 31q55 0 100.5 -45.5t45.5 -116.5q0 -51 -20.5 -100.5t-54.5 -93.5t-80 -84t-99 -74zM426 885q98 72 139 131t41 114q0 39 -29.5 63.5t-97.5 51.5q4 41 32 72t79 31q55 0 100 -45.5t45 -116.5 q0 -51 -20.5 -100.5t-54 -93.5t-79.5 -84t-100 -74z" />
<glyph unicode="&#x201e;" horiz-adv-x="772" d="M23 -258q98 72 139 131t41 115q0 39 -29.5 63t-97.5 51q4 41 31.5 72t78.5 31q55 0 100.5 -45t45.5 -117q0 -51 -20.5 -100t-54.5 -93.5t-80 -85t-99 -73.5zM426 -258q98 72 139 131t41 115q0 39 -29.5 63t-97.5 51q4 41 32 72t79 31q55 0 100 -45t45 -117 q0 -51 -20.5 -100t-54 -93.5t-79.5 -85t-100 -73.5z" />
<glyph unicode="&#x2022;" horiz-adv-x="925" d="M68 475q0 23 12 63t30.5 83t39 80.5t34.5 52.5q16 16 53 35.5t80 37t84 29.5t62 12q23 0 62.5 -12t82.5 -29.5t81 -37t52 -35.5q16 -14 36 -52t37 -81t29.5 -83t12.5 -63t-12.5 -62.5t-29.5 -82.5t-36.5 -81t-36.5 -54q-14 -14 -52 -35t-81 -38.5t-84 -29.5t-63 -12 q-20 0 -61.5 12t-84.5 29.5t-79.5 38t-51.5 35.5q-14 16 -34.5 54t-39 81t-30.5 83t-12 62z" />
<glyph unicode="&#x2026;" horiz-adv-x="1159" d="M90 80q0 41 28.5 71.5t74.5 30.5q45 0 73.5 -30.5t28.5 -71.5t-28.5 -74t-73.5 -33t-74 33t-29 74zM477 80q0 41 29 71.5t76 30.5q45 0 72.5 -30.5t27.5 -71.5t-27.5 -74t-72.5 -33q-47 0 -76 33t-29 74zM866 80q0 41 29 71.5t74 30.5t73.5 -30.5t28.5 -71.5t-28.5 -74 t-73.5 -33t-74 33t-29 74z" />
<glyph unicode="&#x202f;" horiz-adv-x="355" />
<glyph unicode="&#x2039;" horiz-adv-x="671" d="M63 412v135l502 358l17 -98l-408 -326v-4l408 -325l-17 -99z" />
<glyph unicode="&#x203a;" horiz-adv-x="671" d="M88 152l410 325v4l-410 326l16 98l504 -358v-135l-504 -359z" />
<glyph unicode="&#x205f;" horiz-adv-x="444" />
<glyph unicode="&#x20ac;" horiz-adv-x="1032" d="M68 430l6 92h141q-2 29 -3 56.5t-1 56.5q0 33 1 64.5t3 62.5h-141l-6 92h161q41 229 162 343t303 114q178 0 295 -70l-28 -113q-117 70 -267 70q-279 0 -340 -344h482l-7 -92h-485q-2 -29 -3 -57.5t-1 -57.5q0 -33 1 -64.5t3 -60.5h424l6 -92h-418q63 -348 332 -348 q82 0 150.5 17.5t126.5 50.5l20 -113q-59 -33 -133 -50.5t-168 -17.5q-186 0 -305 113t-154 348h-157z" />
<glyph unicode="&#x2122;" horiz-adv-x="1859" d="M68 1186v96h686v-96h-299v-670h-99v670h-288zM862 516l31 766h170l203 -645h14l225 645h162l29 -766h-101l-18 649h-14l-240 -639h-115l-215 639h-14l-23 -649h-94z" />
<glyph unicode="&#x25fc;" horiz-adv-x="942" d="M0 0v942h942v-942h-942z" />
<glyph unicode="&#xfb01;" horiz-adv-x="1021" d="M23 829l8 78l141 33l2 147q2 92 23.5 157t58.5 105t88 58t113 18q47 0 93 -12t79 -29l-5 -18q-6 -18 -11 -39.5t-10 -38.5l-5 -18q-33 16 -68.5 27.5t-74.5 11.5q-78 0 -117 -52.5t-39 -166.5v-156h442l133 31v-965h-126v819h-449v-819h-125v819z" />
<glyph unicode="&#xfb02;" horiz-adv-x="1021" d="M23 829l8 78l141 33l2 147q2 92 23.5 157t58.5 105t88 58t113 18q47 0 93 -12.5t79 -28.5l-5 -18q-6 -18 -11 -39.5t-10 -38.5l-5 -18q-33 16 -68.5 27.5t-74.5 11.5q-78 0 -117 -52.5t-39 -166.5v-156h295l-6 -115h-289v-819h-125v819zM748 0v1380l126 27v-1407h-126z " />
<glyph unicode="&#xfb03;" horiz-adv-x="1642" d="M23 829l8 78l141 33l2 127q0 92 21.5 156.5t59.5 104.5t89 58.5t113 18.5q47 0 93 -12.5t79 -28.5l-5 -18q-6 -19 -11 -40.5t-10 -39.5l-5 -17q-33 16 -68.5 27.5t-74.5 11.5q-78 0 -117 -52t-39 -167v-135h494l2 153q2 92 23.5 157t58 105t88 58t112.5 18q49 0 95.5 -12 t78.5 -29l-5 -18q-5 -18 -10 -39.5t-10 -38.5l-5 -18q-33 16 -69 27.5t-77 11.5q-78 0 -115.5 -52.5t-37.5 -166.5v-156h442l131 31v-965h-125v819h-448v-819h-127v819h-496v-819h-125v819z" />
<glyph unicode="&#xfb04;" horiz-adv-x="1642" d="M23 829l8 78l141 33l2 127q2 92 23.5 156.5t58.5 104.5t88 58.5t113 18.5q47 0 93 -12.5t79 -28.5l-5 -18q-6 -19 -11 -40.5t-10 -39.5l-5 -17q-33 16 -68.5 27.5t-74.5 11.5q-78 0 -117 -52t-39 -167v-135h494l2 153q2 92 23.5 157t58 105t88 58t112.5 18q49 0 95.5 -12 t78.5 -29l-5 -18q-5 -18 -10 -39.5t-10 -38.5l-5 -18q-33 16 -69 27.5t-77 11.5q-78 0 -115.5 -52.5t-37.5 -166.5v-156h292l-6 -115h-286v-819h-127v819h-496v-819h-125v819zM1370 0v1380l125 27v-1407h-125z" />
</font>
</defs>
</svg>
