<?xml version="1.0" standalone="no"?>
<!DOCTYPE svg PUBLIC "-//W3C//DTD SVG 1.1//EN" "http://www.w3.org/Graphics/SVG/1.1/DTD/svg11.dtd" >
<svg xmlns="http://www.w3.org/2000/svg">
<metadata></metadata>
<defs>
<font id="freightmicro_bookregular" horiz-adv-x="980" >
<font-face units-per-em="2048" ascent="1638" descent="-410" />
<missing-glyph horiz-adv-x="419" />
<glyph horiz-adv-x="0" />
<glyph unicode="&#xd;" horiz-adv-x="419" />
<glyph unicode=" "  horiz-adv-x="419" />
<glyph unicode="&#x09;" horiz-adv-x="419" />
<glyph unicode="&#xa0;" horiz-adv-x="419" />
<glyph unicode="!" horiz-adv-x="528" d="M137 100q0 70 25.5 98.5t103.5 28.5t101.5 -28.5t23.5 -98.5t-23.5 -100.5t-101.5 -30.5t-103.5 31t-25.5 100zM160 1247q0 33 9 50.5t30.5 22.5t60.5 5h10q41 0 62.5 -5t31 -22.5t9.5 -50.5t-6 -88l-74 -778q0 -4 -8.5 -6t-18.5 -2t-18 2t-8 6l-76 778q-4 55 -4 88z" />
<glyph unicode="&#x22;" horiz-adv-x="911" d="M55 797l207 483h184v-82l-296 -401h-95zM449 797l204 483h185v-82l-297 -401h-92z" />
<glyph unicode="#" horiz-adv-x="1216" d="M10 340v135h252l92 332h-270v135h305l119 401l115 -28l-103 -359h326l110 385l117 -30l-106 -369h245v-135h-251l-93 -332h271v-135h-305l-132 -455l-116 29l119 412h-328l-123 -437l-117 29l119 422h-246zM383 461h354l103 360h-355z" />
<glyph unicode="$" horiz-adv-x="1124" d="M82 385h133l64 -209q41 -14 79 -26l117 434q-80 18 -149.5 40.5t-120.5 61.5t-81 98.5t-30 149.5q0 174 108.5 273.5t342.5 99.5q53 0 108 -7l54 201h118l-59 -221q23 -4 46.5 -11t45.5 -14l129 56v-396h-127l-53 189q-18 10 -41 16t-49 13l-109 -408q92 -18 169 -43 t130.5 -66t83 -104t29.5 -160q0 -88 -26.5 -157.5t-85 -118.5t-148.5 -76t-217 -27q-61 0 -123 7l-78 -295h-117l84 313q-53 14 -103 30.5t-91 34.5zM270 950q0 -47 13.5 -79.5t43 -55t77 -39t114.5 -33.5l107 404q-23 2 -43.5 3t-42.5 1q-147 0 -208 -48t-61 -153zM453 133 q53 -6 112 -6q82 0 136.5 14.5t86 42t45 66.5t13.5 86q0 53 -14.5 89t-48 60.5t-87 43t-131.5 34.5z" />
<glyph unicode="%" horiz-adv-x="1609" d="M51 969q0 109 33 179.5t85 112.5t114.5 59t122.5 17q160 0 231.5 -91t71.5 -251q0 -106 -33 -178t-85 -115t-114.5 -61t-122.5 -18q-160 0 -231.5 93t-71.5 253zM176 -39l1100 1354h160l-1104 -1354h-156zM180 987q0 -66 8.5 -112t31 -75.5t62.5 -44t105 -14.5 q100 0 144 54.5t44 181.5q0 66 -7 111t-29.5 73.5t-62.5 42t-105 13.5q-100 0 -145.5 -51.5t-45.5 -178.5zM901 281q0 109 33 179t85 112t114.5 59.5t119.5 17.5q160 0 233 -91t73 -251q0 -106 -34 -178t-85 -116t-113.5 -61.5t-122.5 -17.5q-160 0 -231.5 93.5t-71.5 253.5 zM1030 299q0 -63 8.5 -110.5t31 -76t62 -43t105.5 -14.5q98 0 143 53.5t45 180.5q0 66 -7 110.5t-29.5 73.5t-63.5 42t-106 13q-98 0 -143.5 -51t-45.5 -178z" />
<glyph unicode="&#x26;" horiz-adv-x="1449" d="M57 324q0 72 21.5 127t60.5 95t90.5 65.5t108.5 35.5v23q-100 37 -147.5 101.5t-47.5 199.5q0 152 98.5 244t293.5 92q367 0 366 -318q0 -59 -22.5 -111.5t-60.5 -92.5t-86 -66.5t-99 -32.5v-22q94 -35 165.5 -108t125.5 -177h22l219 354l-4 10l-153 41v99h422v-144h-93 l-16 -8l-324 -430q55 -78 116 -133t130 -55q41 0 94.5 9t98.5 23l2 -39q-41 -61 -107.5 -97t-138.5 -36q-104 0 -169 61.5t-114 151.5h-22q-68 -96 -172.5 -154.5t-231.5 -58.5q-205 0 -315.5 92.5t-110.5 258.5zM211 340q0 -117 83 -167t224 -50q121 0 196 41t132 102 q-45 72 -90 125t-95.5 93t-109.5 72t-137 62q-115 -63 -159 -135.5t-44 -142.5zM299 991q0 -61 15.5 -100t47 -68.5t81 -53.5t116.5 -54q98 57 144.5 130t46.5 126q0 100 -51.5 148t-194.5 48q-63 0 -104.5 -13t-63 -37.5t-29.5 -56.5t-8 -69z" />
<glyph unicode="'" horiz-adv-x="491" d="M41 797l201 483h184v-82l-291 -401h-94z" />
<glyph unicode="(" horiz-adv-x="763" d="M152 432q0 190 54 350t138 285t183.5 212t189.5 132l67 -98q-84 -47 -172 -129t-159.5 -194.5t-117.5 -253t-46 -304.5q0 -162 46 -302t117.5 -253t159.5 -194.5t172 -128.5l-65 -101q-90 45 -190.5 132t-184.5 212t-138 285t-54 350z" />
<glyph unicode=")" horiz-adv-x="763" d="M-20 -446q84 47 172 128.5t159.5 194.5t117.5 253t46 302q0 164 -46 304.5t-117.5 253t-160 194.5t-171.5 129l67 98q90 -45 189.5 -132t183.5 -212t138 -284.5t54 -350.5q0 -190 -54 -350t-138 -285t-184.5 -212t-190.5 -132z" />
<glyph unicode="*" horiz-adv-x="858" d="M78 1133l33 45l149 -33l135 -189l39 13l6 233l97 109l53 -19l16 -145l-141 -191l24 -32l226 69l131 -61v-53l-131 -62l-226 70l-24 -31l135 -190l-14 -148l-54 -14l-100 110v234l-37 10l-135 -182l-145 -35l-33 45l76 133l215 68v45l-215 74z" />
<glyph unicode="+" horiz-adv-x="1001" d="M86 412l6 137h346v348h133v-348h344l7 -137h-351v-351h-133v351h-352z" />
<glyph unicode="," horiz-adv-x="489" d="M68 -305q84 100 133 176t49 135q0 53 -41 85t-127 50q0 72 34 108t107 36q80 0 140.5 -48t60.5 -157q0 -57 -19.5 -107.5t-59.5 -99.5t-100.5 -101.5t-142.5 -109.5z" />
<glyph unicode="-" horiz-adv-x="647" d="M74 428v137h504v-137h-504z" />
<glyph unicode="." horiz-adv-x="489" d="M109 106q0 74 28.5 106t112.5 32q82 0 107.5 -32t25.5 -106q0 -76 -25.5 -108.5t-107.5 -32.5q-84 0 -112.5 33t-28.5 108z" />
<glyph unicode="/" horiz-adv-x="571" d="M10 -424l449 1845h133l-449 -1845h-133z" />
<glyph unicode="0" horiz-adv-x="1120" d="M90 465q0 154 47 255t121 160.5t163 84t173 24.5q227 0 331.5 -130t104.5 -357q0 -154 -47 -255.5t-121 -161.5t-163 -86t-173 -26q-227 0 -331.5 132.5t-104.5 359.5zM254 492q0 -98 12.5 -168t48 -115t98 -65.5t160.5 -20.5q150 0 220.5 82t70.5 272q0 98 -13 167 t-48 112t-98.5 63.5t-161.5 20.5q-150 0 -219.5 -80t-69.5 -268z" />
<glyph unicode="1" horiz-adv-x="745" d="M68 799v86l411 106v-833q0 -2 6 -8l187 -68v-82h-555v147h213q4 0 4 9v635z" />
<glyph unicode="2" horiz-adv-x="964" d="M59 172q113 86 213.5 154.5t177 130t121.5 121t45 129.5q0 66 -49 100.5t-153 34.5q-84 0 -172 -34t-174 -93l-9 47q47 98 147.5 165.5t246.5 67.5q172 0 253.5 -67.5t81.5 -182.5q0 -86 -32.5 -150.5t-103 -126.5t-180.5 -136t-265 -178v-17h225q104 0 167 2t95.5 7.5 t43 10.5t12.5 11l67 176h88l-37 -344h-788z" />
<glyph unicode="3" horiz-adv-x="897" d="M-4 -236q0 45 20.5 63.5t71.5 18.5q63 0 105.5 -32.5t82.5 -92.5q16 -4 54.5 -4h66.5q61 2 113.5 22.5t91.5 55.5t60.5 81t21.5 99q0 117 -60.5 165t-195.5 48q-33 0 -60.5 -1t-55 -4t-60.5 -7t-74 -10l-16 139q74 41 152.5 83t143 88t106.5 98.5t42 109.5q0 78 -56 118 t-161 40q-92 0 -175 -32t-177 -95l-8 47q47 98 149.5 165.5t251.5 67.5q170 0 262 -78.5t92 -203.5q0 -80 -35.5 -137.5t-95 -103.5t-136.5 -85t-159 -80v-22q39 10 88.5 17t90.5 7q145 0 230 -74.5t85 -226.5q0 -88 -37 -167t-104.5 -138t-162.5 -94t-210 -35 q-166 0 -254 51t-88 139z" />
<glyph unicode="4" horiz-adv-x="1026" d="M47 152l674 843l104 -8l-30 -821h217l-15 -133h-204l-17 -410h-143l16 410h-594zM219 166h430l29 573h-8z" />
<glyph unicode="5" horiz-adv-x="890" d="M16 -236q0 45 20.5 63.5t72.5 18.5q127 0 182 -133l45 2q68 10 124 34t98 60.5t65.5 90t23.5 120.5q0 70 -28.5 125.5t-94 99.5t-171 78.5t-261.5 63.5l101 576h649l-29 -152h-502l-51 -309q283 -59 419 -166t136 -281q0 -109 -41 -197.5t-111.5 -152t-163.5 -97.5 t-200 -34q-82 0 -136 13.5t-87 38t-46.5 60t-13.5 78.5z" />
<glyph unicode="6" horiz-adv-x="1083" d="M90 465q0 160 59.5 303t167 258t259 197t337.5 120l31 -96q-291 -94 -460 -249.5t-222 -344.5l23 -6q41 43 79.5 76t78.5 53.5t85 30.5t99 10q195 0 280.5 -102.5t85.5 -290.5q0 -217 -106.5 -334t-331.5 -117q-119 0 -207 35t-145.5 98.5t-85 154.5t-27.5 204zM254 465 q0 -168 72.5 -255t253.5 -87q80 0 131 18.5t78.5 52t38 85t10.5 114.5q0 139 -55.5 212t-207.5 73q-84 0 -162.5 -28.5t-146.5 -88.5q-6 -18 -9 -43.5t-3 -52.5z" />
<glyph unicode="7" horiz-adv-x="978" d="M68 598l34 365h813l17 -154l-590 -1186h-160l611 1143v37h-310q-104 0 -158.5 -3t-78 -7.5t-27.5 -11.5t-6 -15l-45 -168h-100z" />
<glyph unicode="8" horiz-adv-x="1058" d="M86 322q0 133 69.5 203.5t182.5 103.5v24q-100 23 -160.5 96.5t-60.5 202.5q0 164 104.5 259.5t317.5 95.5q207 0 306 -81t99 -251q0 -119 -59.5 -185.5t-167.5 -99.5v-24q121 -31 188.5 -109t67.5 -225q0 -78 -26.5 -143.5t-81 -113.5t-138.5 -75t-201 -27 q-231 0 -335.5 91.5t-104.5 257.5zM240 340q0 -119 78.5 -173t224.5 -54q92 0 146 18.5t84 48t38 64t8 67.5q0 72 -23.5 119t-72.5 80t-124 58.5t-179 52.5q-55 -29 -90 -66t-54.5 -76t-27.5 -74.5t-8 -64.5zM270 973q0 -61 17.5 -103.5t59.5 -71t111.5 -52t176.5 -48.5 q41 29 70.5 63t48 68.5t28 67t9.5 57.5q0 109 -60.5 160t-212.5 51q-76 0 -125 -14t-75.5 -41t-37 -61.5t-10.5 -75.5z" />
<glyph unicode="9" horiz-adv-x="1083" d="M90 537q0 217 106.5 334.5t331.5 117.5q119 0 207 -34.5t145.5 -99t85 -155.5t27.5 -204q0 -160 -59.5 -303.5t-167 -258t-259 -196.5t-337.5 -121l-33 96q293 96 462 251t222 343l-22 6q-41 -43 -80 -74.5t-79 -52t-85 -31t-98 -10.5q-195 0 -281 102.5t-86 289.5z M246 569q0 -141 55 -213.5t207 -72.5q84 0 163 29.5t146 88.5q6 16 9 42t3 53q0 84 -16 147.5t-55 106.5t-101.5 65.5t-152.5 22.5q-80 0 -131 -18.5t-79 -52.5t-38 -84t-10 -114z" />
<glyph unicode=":" horiz-adv-x="489" d="M109 106q0 74 28.5 106t112.5 32q82 0 107.5 -32t25.5 -106q0 -76 -25.5 -108.5t-107.5 -32.5q-84 0 -112.5 33t-28.5 108zM109 768q0 76 28.5 106.5t112.5 30.5q82 0 107.5 -30.5t25.5 -106.5q0 -74 -25.5 -106.5t-107.5 -32.5q-84 0 -112.5 32.5t-28.5 106.5z" />
<glyph unicode=";" horiz-adv-x="489" d="M72 -305q82 100 132 176t50 135q0 53 -41 85t-127 50q0 72 33 108t106 36q80 0 141.5 -48t61.5 -157q0 -57 -19.5 -107.5t-59.5 -99.5t-101.5 -101.5t-143.5 -109.5zM109 770q0 74 28.5 105.5t112.5 31.5q82 0 107.5 -31.5t25.5 -105.5q0 -76 -25.5 -108.5t-107.5 -32.5 q-84 0 -112.5 32.5t-28.5 108.5z" />
<glyph unicode="&#x3c;" horiz-adv-x="983" d="M41 446v72l850 414l37 -129l-666 -311v-19l666 -309l-35 -127z" />
<glyph unicode="=" horiz-adv-x="962" d="M84 223l10 133h778l11 -133h-799zM84 741h799l-11 -135h-778z" />
<glyph unicode="&#x3e;" horiz-adv-x="983" d="M39 164l661 309v19l-661 311l33 129l850 -414v-72l-852 -409z" />
<glyph unicode="?" horiz-adv-x="737" d="M92 1219q0 53 39 71.5t154 18.5q102 0 178 -24.5t128 -67.5t77.5 -102.5t25.5 -129.5q0 -76 -22.5 -129t-59.5 -89t-82 -59.5t-88 -39.5q-66 -27 -113.5 -51.5t-47.5 -69.5q0 -37 32.5 -79t83.5 -91l-94 -8q-74 49 -116 100t-42 104q0 45 18.5 79t49.5 60.5t70 47 t82 39.5q41 18 76.5 34.5t62 37t42 46t15.5 60.5q0 154 -272 153q-78 0 -174 -22q-10 0 -16.5 35t-6.5 76zM182 100q0 70 25.5 98.5t103.5 28.5q76 0 100.5 -28.5t24.5 -98.5t-24.5 -100.5t-100.5 -30.5q-78 0 -103.5 31t-25.5 100z" />
<glyph unicode="@" horiz-adv-x="1695" d="M82 496q0 164 61.5 311t168 258t251 176.5t311.5 65.5q150 0 285 -48.5t238.5 -136.5t164 -214t60.5 -281q0 -127 -42 -232.5t-109.5 -180.5t-153.5 -116t-176 -41q-43 0 -82 7.5t-67.5 19.5t-44 27.5t-11.5 29.5l123 420h-37q-117 -217 -207 -337t-170 -120 q-43 0 -80 18.5t-65.5 47.5t-45 61.5t-16.5 63.5q0 59 19.5 137t52.5 157t74 149.5t84 113.5q53 53 110.5 79.5t110.5 26.5q66 0 117 -44t73 -119h25l45 118h100l-114 -303l-84 -458l96 -29q84 4 154.5 46t124 110.5t83 159t29.5 188.5q0 135 -55.5 246.5t-147.5 191.5 t-211.5 124t-249.5 44q-150 0 -278.5 -59.5t-224 -161t-150.5 -234.5t-55 -280q0 -141 47 -265t133 -216.5t206 -145.5t263 -53q63 0 128 11t126 32l21 -72q-72 -23 -137.5 -35t-141.5 -12q-160 0 -294 58.5t-230.5 160.5t-150.5 239.5t-54 295.5zM565 324q0 -31 15.5 -53.5 t37 -37t45 -21.5t37.5 -7q18 0 54.5 41t78 102.5t86 134t80.5 138.5q6 10 14.5 25.5t17.5 31.5t15.5 28.5t6.5 14.5q-8 18 -31 42.5t-53.5 46t-65.5 37t-69 15.5q-53 0 -82 -26q-29 -27 -62 -90.5t-60.5 -139.5t-46 -151.5t-18.5 -130.5z" />
<glyph unicode="A" horiz-adv-x="1267" d="M-2 0v147h141l2 9l355 1032v72l229 55l381 -1143l8 -10l164 -51v-111h-494v147h146l4 9l-88 266h-467l-80 -250l4 -8l156 -53v-111h-461zM424 553h379l-170 561h-31z" />
<glyph unicode="B" horiz-adv-x="1222" d="M63 1169v111h592q133 0 216 -21.5t130.5 -60.5t64.5 -95t17 -126q0 -150 -74.5 -218.5t-199.5 -90.5v-25q164 -16 239.5 -83t75.5 -202q0 -82 -20.5 -148.5t-69.5 -112.5t-134 -71.5t-214 -25.5h-600v147h160q2 0 2 5q0 2 2 4v948l-4 12zM414 147h137h117q86 0 140 9.5 t85 33t42 61.5t11 95q0 66 -19.5 111t-63.5 73.5t-118.5 42t-185.5 13.5h-145v-439zM414 700l133 2q102 2 170.5 16.5t110.5 44.5t59.5 74t17.5 107q0 53 -11 89t-41 58.5t-79 32t-125 9.5h-235v-433z" />
<glyph unicode="C" horiz-adv-x="1310" d="M109 612q0 182 35.5 314.5t110.5 216.5t190.5 124t277.5 40q123 0 200.5 -18.5t125.5 -39.5l129 60v-398h-127l-52 183q-57 29 -125.5 43t-181.5 14q-106 0 -183 -22.5t-126 -78t-72.5 -147.5t-23.5 -231q0 -168 18.5 -274.5t65.5 -167t130 -82t212 -21.5 q92 0 168.5 17.5t126.5 45.5l65 203h127l-39 -393l-106 43q-61 -29 -157.5 -49.5t-219.5 -20.5q-158 0 -266.5 34t-176 111t-97 198.5t-29.5 295.5z" />
<glyph unicode="D" horiz-adv-x="1392" d="M63 1169v111q141 2 254 4q49 0 95.5 1t84.5 1h61.5h25.5h19q174 0 299 -35q132 -37 217 -113.5t125 -195.5t40 -283q0 -162 -39 -285.5t-123 -206.5t-219 -125t-325 -42h-492v147h160l4 9v952l-4 8zM416 184l182 -37q127 2 222 29t158.5 83t95.5 147.5t32 224.5 q0 152 -31 249t-97.5 153.5t-172 78t-254.5 21.5h-74q-29 0 -61 -3v-946z" />
<glyph unicode="E" horiz-adv-x="1241" d="M63 1169v111h1051v-381h-117l-51 191q-4 16 -12 24t-36 12t-82 5.5t-152 1.5h-248v-428h112q49 0 78 1t44.5 5t21.5 12t14 22l55 136h101l-45 -447h-101l-24 137q0 6 -4 9.5t-17.5 5.5t-42 3t-80.5 1h-112v-443h241q90 0 144.5 2.5t85.5 9.5t46 21.5t28 38.5l63 156h117 l-41 -375h-1014v147h160l4 9v952l-4 8z" />
<glyph unicode="F" horiz-adv-x="1163" d="M63 1169v111h1016v-381h-114l-50 178q-6 18 -15 29.5t-36.5 16.5t-81 7.5t-149.5 2.5h-217v-457h98q51 0 80 1t44 5t22.5 12t13.5 21l59 135h101l-43 -447h-101l-28 138q-2 6 -6.5 10t-19.5 6t-44 3t-78 1h-98v-389l4 -8l194 -53v-111h-528v147h160l4 9v952l-4 8z" />
<glyph unicode="G" horiz-adv-x="1382" d="M109 606q0 186 35.5 318.5t110.5 217.5t190.5 125t277.5 40q123 0 200.5 -18.5t125.5 -39.5l129 60v-398h-127l-52 183q-57 29 -125.5 43t-181.5 14q-119 0 -196.5 -27.5t-123.5 -86t-65.5 -148.5t-19.5 -217q0 -162 16 -267.5t63.5 -167t130.5 -86t216 -24.5 q92 0 158.5 12.5t115.5 26.5v280l-4 9l-195 55v108h504v-147h-143l-4 -8v-275l117 -20v-109q-117 -33 -265.5 -59.5t-298.5 -26.5q-166 0 -278.5 33t-182 107.5t-99 195.5t-29.5 297z" />
<glyph unicode="H" horiz-adv-x="1507" d="M63 1169v111h515v-147h-158l-4 -9v-407h663v391l-4 8l-180 53v111h512v-147h-160l-2 -9v-952l4 -8l181 -53v-111h-512v147h157l4 9v426h-663v-410l4 -8l180 -53v-111h-514v147h160l4 9v952l-4 8z" />
<glyph unicode="I" horiz-adv-x="727" d="M68 1169v111h565v-147h-184l-5 -9v-952l5 -8l206 -53v-111h-565v147h184l5 9v952l-5 8z" />
<glyph unicode="J" horiz-adv-x="858" d="M23 121q0 51 21.5 72.5t72.5 21.5q57 0 89 -21.5t52 -56.5q4 -4 8 -10t6 -10q8 -4 35 -4q47 0 78 10t49.5 36.5t25.5 74t7 120.5v754l-4 8l-221 53v111h567v-147h-172l-4 -9v-790q0 -186 -81 -275.5t-265 -89.5q-141 0 -202.5 41t-61.5 111z" />
<glyph unicode="K" horiz-adv-x="1386" d="M63 1169v111h515v-147h-158l-4 -9v-553l561 543v6l-74 23l-67 26v111h473v-147h-113l-10 -7l-430 -399l424 -555l10 -10l160 -51v-111h-510v147h141l4 9l-342 469l-227 -213v-240l4 -8l180 -53v-111h-514v147h160l4 9v952l-4 8z" />
<glyph unicode="L" horiz-adv-x="1140" d="M63 1169v111h555v-147h-198l-4 -9v-977h207q92 0 143 3.5t76.5 8.5t34 13t12.5 18l78 213h116l-41 -403h-956v147h160l4 9v952l-4 8z" />
<glyph unicode="M" horiz-adv-x="1796" d="M66 1169v111h471l321 -1016h35l340 1016h455v-147h-160l-4 -7l14 -954l4 -8l178 -53v-111h-516v147h164l4 9l-2 958h-35l-387 -1073h-166l-358 1069h-35l-10 -938l4 -8l154 -53v-111h-465v147h157l4 9l19 952l-4 8z" />
<glyph unicode="N" horiz-adv-x="1515" d="M57 1169v111h459l596 -1098h35v926l-4 8l-176 53v111h499v-147h-166l-4 -9v-1149h-252l-614 1123h-35v-926l4 -8l176 -53v-111h-493v147h160l4 9v952l-4 8z" />
<glyph unicode="O" horiz-adv-x="1396" d="M109 606q0 182 32.5 314.5t106.5 218.5t191.5 127t285.5 41q154 0 261.5 -34t175 -108.5t97 -195.5t29.5 -295q0 -182 -33.5 -314.5t-108.5 -218.5t-192.5 -127t-287.5 -41q-154 0 -260.5 34t-173 110t-95 195.5t-28.5 293.5zM287 668q0 -170 17.5 -275.5t63.5 -165 t128 -80t209 -20.5q109 0 185.5 22.5t125.5 78t71.5 149.5t22.5 235q0 170 -17.5 275.5t-64.5 164t-128 79t-210 20.5q-109 0 -185.5 -22.5t-124.5 -78t-70.5 -148.5t-22.5 -234z" />
<glyph unicode="P" horiz-adv-x="1175" d="M63 1169v111h553q256 0 371 -87t115 -273q0 -217 -123 -324t-340 -107q-127 0 -223 21v-338l4 -8l194 -53v-111h-528v147h160l4 9v952l-4 8zM416 643q39 -10 90 -15t94 -5q176 0 250 63.5t74 208.5q0 68 -16.5 113t-55.5 72.5t-103.5 40t-160.5 12.5h-172v-490z" />
<glyph unicode="Q" horiz-adv-x="1404" d="M109 600q0 184 32.5 318.5t106.5 220.5t191.5 127t285.5 41q154 0 261.5 -34t175 -108.5t97 -193.5t29.5 -291q0 -162 -25.5 -286t-83 -210t-146.5 -136t-218 -66q37 -78 86 -126.5t110.5 -76t135.5 -37.5t158 -10l10 -109q-39 -12 -82 -19t-94 -7q-70 0 -141.5 18 t-139 61t-127 116t-102.5 181q-143 4 -242.5 40t-161 112t-89 192.5t-27.5 282.5zM287 674q0 -172 17.5 -278.5t63.5 -167t128 -81t209 -20.5q109 0 185.5 22.5t125.5 78t71.5 147.5t22.5 231q0 172 -17.5 278.5t-64.5 166t-128 80t-210 20.5q-109 0 -185.5 -22.5 t-124.5 -77t-70.5 -146.5t-22.5 -231z" />
<glyph unicode="R" horiz-adv-x="1245" d="M63 1169v111h564q135 0 226 -23.5t144.5 -68.5t76 -108.5t22.5 -143.5q0 -170 -74 -263t-227 -134l217 -367l10 -8l170 -53v-111h-291l-80 172l-182 352l-223 -14v-338l4 -8l180 -53v-111h-514v147h160l4 9v948l-4 12zM416 653l192 -18q152 18 231 79.5t79 184.5 q0 63 -12.5 107.5t-44.5 72t-89 41t-147 13.5h-209v-480z" />
<glyph unicode="S" horiz-adv-x="1132" d="M88 934q0 174 114.5 273.5t356.5 99.5q80 0 157 -14.5t148 -37.5l129 56v-396h-127l-53 189q-47 23 -111.5 35t-142.5 12q-164 0 -230.5 -48t-66.5 -153q0 -53 19.5 -88t61.5 -59.5t108.5 -42t158.5 -35.5q94 -18 171 -42t132.5 -64.5t85 -104.5t29.5 -162 q0 -88 -28.5 -157.5t-89 -118.5t-157 -76t-231.5 -27q-94 0 -203.5 18.5t-195.5 49.5l-33 344h131l64 -217q53 -16 120.5 -28.5t135.5 -12.5q166 0 238.5 48t72.5 161q0 59 -17.5 96t-56.5 62.5t-103.5 44t-160.5 39.5q-88 18 -166 40.5t-136 61.5t-91 99.5t-33 154.5z" />
<glyph unicode="T" horiz-adv-x="1290" d="M43 866l39 414h1126v-414h-114l-50 224q-4 14 -11 24t-26.5 17.5t-59.5 10.5t-107 3h-115v-973l2 -8l209 -53v-111h-569v147h188l4 9v989h-123q-74 0 -115.5 -4t-64.5 -12.5t-30 -20.5t-11 -31l-51 -211h-121z" />
<glyph unicode="U" horiz-adv-x="1454" d="M23 1169v111h512v-147h-158l-4 -9v-583q0 -127 16.5 -208t57 -127t110.5 -63.5t176 -17.5q102 0 169 18.5t108 65.5t57 128t16 206v565l-4 8l-182 53v111h498v-147h-160l-2 -9v-637q0 -141 -31 -239t-95.5 -159.5t-163.5 -89.5t-234 -28q-133 0 -227.5 27t-155 88 t-89 159.5t-28.5 241.5v621l-4 8z" />
<glyph unicode="V" horiz-adv-x="1271" d="M-2 1169v111h494v-147h-146l-4 -9l299 -979h31l309 963l-4 8l-158 53v111h461v-147h-139l-4 -9l-387 -1134h-207l-373 1118l-8 10z" />
<glyph unicode="W" horiz-adv-x="1943" d="M-8 1169v111h493v-147h-139l-2 -9l217 -950h35l272 926l-2 8l-6 8l-155 53v111h559l-2 -147h-142l-4 -9l273 -954h34l215 938l-4 8l-159 53v111h471v-147h-142l-4 -9l-297 -1134h-211l-286 993h-35l-301 -993h-209l-289 1128l-8 8z" />
<glyph unicode="X" horiz-adv-x="1302" d="M20 1169v111h494v-147h-127l-4 -9l254 -385h35l256 367l-4 10l-138 53v111h467v-147h-135l-10 -9l-373 -462l369 -488l10 -10l168 -53v-111h-491v147h129l2 9l-267 405h-34l-261 -387l5 -10l145 -53v-111h-473v147h135l10 9l369 483l-350 467l-11 10z" />
<glyph unicode="Y" horiz-adv-x="1210" d="M-25 1169v111h471v-147h-122l-5 -9l285 -493h31l270 487l-4 8l-147 43v111h465v-147h-146l-8 -9l-379 -626v-326l4 -8l207 -53v-111h-567v147h188l2 9v344l-385 616l-10 10z" />
<glyph unicode="Z" horiz-adv-x="1179" d="M84 0v127l786 993v17h-305q-96 0 -149.5 -1t-81 -5.5t-35.5 -12.5t-12 -22l-54 -197h-122v381h981v-129l-787 -991v-17h311q100 0 155.5 2t82.5 7.5t35 13.5t12 20l80 217h117l-43 -403h-971z" />
<glyph unicode="[" horiz-adv-x="753" d="M178 -469v1837h551v-123h-416v-1591h416v-123h-551z" />
<glyph unicode="\" horiz-adv-x="571" d="M12 1421h133l449 -1845h-133z" />
<glyph unicode="]" horiz-adv-x="753" d="M27 -346h415v1591h-415v123h551v-1837h-551v123z" />
<glyph unicode="^" horiz-adv-x="819" d="M70 891l178 389h287l178 -389h-115l-197 299h-18l-199 -299h-114z" />
<glyph unicode="_" horiz-adv-x="962" d="M-10 2h983v-137h-983v137z" />
<glyph unicode="`" horiz-adv-x="817" d="M209 1423h225l203 -366h-117z" />
<glyph unicode="a" d="M76 231q0 74 30.5 130.5t100 99.5t182.5 71.5t275 42.5v80q0 74 -51.5 121t-168.5 47q-37 0 -71.5 -5t-62 -12t-45 -15.5t-17.5 -14.5q0 -4 2 -15t5 -23.5t5 -24t2 -17.5q0 -20 -21.5 -29.5t-86.5 -9.5q-45 0 -59.5 8.5t-14.5 24.5q0 63 33.5 113.5t89 86.5t126 54.5 t146.5 18.5q170 0 254 -70t84 -238v-481q0 -33 16.5 -45t57.5 -12q23 0 46 4t40 8q2 -16 2 -29v-34q-23 -39 -66 -66t-98 -27q-68 0 -103.5 36t-35.5 122h-17q-49 -70 -133 -114t-176 -44q-121 0 -195.5 71t-74.5 187zM236 248q0 -66 40.5 -100.5t126.5 -34.5q35 0 73 8 t73 20.5t64.5 28.5t50.5 33v274q-121 -20 -203 -42.5t-132 -49.5t-71.5 -59.5t-21.5 -77.5z" />
<glyph unicode="b" horiz-adv-x="1110" d="M2 1225v51l305 106v-579h10q61 66 139.5 104.5t166.5 38.5q121 0 197.5 -33.5t121.5 -94t61.5 -145t16.5 -184.5q0 -96 -26.5 -188t-81 -165t-136.5 -118t-194 -45q-90 0 -147.5 25t-117.5 72h-10l-80 -97h-67v1170l-4 8zM307 162q45 -14 110.5 -24.5t160.5 -10.5 q145 0 209.5 73t64.5 249q0 102 -13.5 169.5t-45 106.5t-85 54.5t-130.5 15.5q-84 0 -151 -14.5t-120 -35.5v-583z" />
<glyph unicode="c" horiz-adv-x="952" d="M94 467q0 133 31 226t89 153.5t142 88.5t191 28q190 0 267 -53.5t77 -137.5q0 -45 -21.5 -64.5t-70.5 -19.5q-63 0 -99 30t-77 93q-23 4 -54.5 5t-60.5 1q-135 0 -194.5 -74.5t-59.5 -250.5q0 -100 13.5 -170t45 -113t85 -62.5t132.5 -19.5q104 0 190.5 34t158.5 75 l8 -48q-51 -104 -154.5 -159.5t-220.5 -55.5q-219 0 -318.5 120t-99.5 374z" />
<glyph unicode="d" horiz-adv-x="1148" d="M94 442q0 96 25.5 186.5t79 161t134.5 113.5t193 43q90 0 150.5 -24.5t120.5 -71.5h10v293l-4 8l-154 74v51l305 106v-1175l4 -8l154 -60v-53l-285 -127l-20 158h-10q-61 -66 -139 -105t-166 -39q-119 0 -197 36t-122 99.5t-61.5 148.5t-17.5 185zM262 485 q0 -104 13.5 -172.5t45 -110.5t85 -59.5t131.5 -17.5q84 0 150.5 13.5t119.5 35.5v582q-45 16 -113.5 26.5t-163.5 10.5q-72 0 -123 -15.5t-82.5 -51.5t-47 -94.5t-15.5 -146.5z" />
<glyph unicode="e" horiz-adv-x="978" d="M94 467q0 133 32 226t89 153.5t139 88.5t183 28q190 0 278 -93.5t88 -287.5l-37 -142l-612 9v-3q0 -172 64.5 -245.5t226.5 -73.5q104 0 193 34t161 75l8 -48q-25 -51 -65.5 -91t-91 -67.5t-107.5 -42t-117 -14.5q-221 0 -326.5 120t-105.5 374zM260 539l488 14 q-4 82 -16.5 132t-39 79t-73 39t-119.5 10q-61 0 -104.5 -11t-71 -42t-43 -84t-21.5 -137z" />
<glyph unicode="f" horiz-adv-x="643" d="M37 774v57l156 76v125q0 184 92 270.5t239 86.5q131 0 182.5 -40t51.5 -116q0 -45 -21.5 -64.5t-74.5 -19.5q-59 0 -91 25.5t-67 72.5q-4 0 -8 1t-11 1q-70 0 -106.5 -49t-36.5 -164v-143h299l-39 -129h-260v-588l6 -12l199 -53v-111h-492v147h138l4 9v583z" />
<glyph unicode="g" horiz-adv-x="995" d="M55 -283q0 72 54.5 125.5t128.5 96.5v18q-51 10 -83 51t-32 98q0 51 46 99.5t110 77.5v18q-82 23 -134.5 110t-52.5 205q0 74 27.5 137.5t80 110.5t127 75t167.5 28q59 0 120.5 -10.5t114.5 -32.5h318l-50 -164l-213 59l-6 -14q45 -39 64.5 -89t19.5 -98 q0 -78 -30.5 -144t-86 -114.5t-133 -76t-172.5 -27.5q-35 0 -58.5 4t-47.5 8q-25 -20 -44.5 -44.5t-19.5 -47.5q0 -37 12.5 -56.5t41 -29.5t77 -12t121.5 -2h133q174 0 248 -58.5t74 -175.5q0 -176 -139.5 -269t-425.5 -93q-186 0 -271.5 55t-85.5 182zM207 -254 q0 -37 10 -62.5t41 -42t86 -24.5t145 -8q182 0 258 45t76 147q0 33 -9 55.5t-33.5 37t-68.5 21.5t-116 11q-37 2 -79 4t-83 3t-76.5 2.5t-58.5 1.5q-35 -33 -63.5 -84.5t-28.5 -106.5zM252 668q0 -43 5 -87t13.5 -81t20.5 -64.5t24 -40.5q16 -16 41 -23t78 -7q23 0 50.5 4 t56 12t56.5 21.5t46 31.5q33 29 48.5 72t15.5 94q0 66 -10.5 115t-32.5 71q-23 23 -80.5 32t-116.5 9q-125 0 -170 -39.5t-45 -119.5z" />
<glyph unicode="h" horiz-adv-x="1161" d="M37 1225v51l305 106v-583h16q59 82 141.5 123t170.5 41q86 0 143 -17.5t93 -54.5t51.5 -94.5t15.5 -139.5v-485l4 -8l153 -53v-111h-425v147h118l4 9v452q0 119 -42 162t-154 43q-82 0 -159 -26.5t-130 -67.5v-254v-293l4 -8l154 -53v-111h-434v147h122l7 9v987l-5 8z " />
<glyph unicode="i" horiz-adv-x="542" d="M43 807v51l305 107v-793l4 -8l140 -53v-111h-429v147h134l4 9v567l-4 8zM152 1253q0 72 25.5 100.5t96.5 28.5q72 0 95.5 -28.5t23.5 -100.5t-23.5 -102.5t-95.5 -30.5t-97 31t-25 102z" />
<glyph unicode="j" horiz-adv-x="526" d="M-143 -317q0 47 25.5 67.5t70.5 20.5q53 0 83 -30t56 -79h21q39 12 62.5 60.5t23.5 146.5v854l-4 8l-156 76v51l305 107v-1080q0 -360 -289 -360q-63 0 -102 11t-60.5 31.5t-28.5 49.5t-7 66zM147 1253q0 72 27 100.5t98 28.5q72 0 94.5 -28.5t22.5 -100.5t-22.5 -102.5 t-94.5 -30.5t-98.5 31t-26.5 102z" />
<glyph unicode="k" horiz-adv-x="1062" d="M37 1225v51l305 106v-938h16l273 281l65 59l-2 11l-129 43v96h422v-143h-92l-16 -9l-273 -239l236 -369l16 -12l148 -51v-111h-248l-72 154l-178 301q0 2 -25.5 -21.5t-56.5 -52.5q-37 -33 -84 -76v-133l4 -8l139 -53v-111h-419v147h124l5 9v985l-5 10z" />
<glyph unicode="l" horiz-adv-x="540" d="M39 1225v51l305 106v-1210l6 -8l154 -53v-111h-436v147h125l6 9v985l-4 10z" />
<glyph unicode="m" horiz-adv-x="1714" d="M41 807v51l305 107v-166h19q53 74 120.5 119t159.5 45q125 0 189.5 -39t87.5 -125h18q59 76 130 120t165 44q82 0 137 -17.5t89 -54.5t48.5 -94.5t14.5 -139.5v-485l4 -8l160 -53v-111h-431v147h117l4 9v452q0 59 -8 98t-28.5 63t-56.5 34t-89 10q-84 0 -146.5 -27.5 t-113.5 -68.5v-250v-295l4 -8l160 -53v-111h-436v147h120l4 9v452q0 59 -8 98t-28.5 63t-55 34t-88.5 10q-86 0 -148.5 -26.5t-113.5 -67.5v-252v-295l4 -8l160 -53v-111h-440v147h125l6 9v567l-4 8z" />
<glyph unicode="n" horiz-adv-x="1155" d="M41 807v51l305 107v-168h19q59 84 141 125t170 41q84 0 142.5 -17.5t94 -54.5t51 -94.5t15.5 -139.5v-485l4 -8l154 -53v-111h-426v147h118l2 9v452q0 59 -9 98t-31.5 63t-60.5 34t-93 10q-84 0 -161 -26.5t-130 -71.5v-248v-295l4 -8l154 -53v-111h-434v147h125l6 9v567 l-4 8z" />
<glyph unicode="o" horiz-adv-x="1091" d="M90 446q0 139 41 237.5t109.5 160t156.5 90.5t183 29q221 0 321 -120t100 -351q0 -139 -40.5 -237.5t-109.5 -162t-157 -92.5t-182 -29q-221 0 -321.5 123t-100.5 352zM252 473q0 -104 13.5 -176t58.5 -113q61 -61 229 -61q74 0 127 17.5t88 58.5t51.5 106.5t16.5 161.5 q0 98 -12.5 169t-53.5 112q-31 33 -87 48t-146 15q-74 0 -128.5 -16.5t-89 -56.5t-51 -104.5t-16.5 -160.5z" />
<glyph unicode="p" horiz-adv-x="1148" d="M37 807v51l305 107v-162h10q61 66 139 104.5t164 38.5q121 0 199 -33.5t123 -94t61.5 -145t16.5 -184.5q0 -96 -25.5 -188t-78 -165t-134.5 -118t-196 -45q-88 0 -148.5 25t-120.5 72h-10v-334l4 -8l160 -56v-110h-440v149h122l7 8v1004l-5 8zM342 162 q45 -14 113.5 -24.5t160.5 -10.5q147 0 209 73t62 249q0 102 -13.5 169.5t-46 106.5t-85 54.5t-132.5 15.5t-147.5 -14.5t-120.5 -35.5v-583z" />
<glyph unicode="q" horiz-adv-x="1128" d="M94 440q0 96 25.5 186.5t79 161t134.5 113.5t193 43q90 0 150.5 -25.5t120.5 -72.5h6l84 102h67v-1212l4 -8l154 -56v-110h-440v149h129l6 8v396h-10q-61 -68 -139 -107t-166 -39q-119 0 -197 36t-122 99.5t-61.5 149.5t-17.5 186zM262 483q0 -104 13.5 -172.5t45 -110.5 t85 -59.5t131.5 -17.5q84 0 150.5 13.5t119.5 35.5v582q-45 14 -113.5 25.5t-163.5 11.5q-72 0 -123 -15.5t-82.5 -51.5t-47 -94.5t-15.5 -146.5z" />
<glyph unicode="r" horiz-adv-x="804" d="M41 807v51l305 107v-273h21q47 74 82.5 125t68.5 83t68 47.5t78 15.5q74 0 105.5 -32t31.5 -89q0 -53 -21.5 -80t-77.5 -27q-92 0 -155 45q-25 -16 -52.5 -41.5t-55 -55.5t-51 -60.5t-42.5 -57.5v-393l4 -8l174 -53v-111h-454v147h125l6 9v567l-4 6z" />
<glyph unicode="s" horiz-adv-x="919" d="M72 299h118l48 -149q53 -16 105 -25.5t116 -9.5q125 0 176 35.5t51 107.5q0 41 -22.5 65.5t-59.5 41t-85 26.5t-101 21q-61 12 -123 27.5t-109 43t-76.5 72.5t-29.5 117q0 154 100.5 222.5t294.5 68.5q70 0 119 -9.5t94 -23.5l103 37l22 -322h-119l-51 150q-41 10 -84 18 t-102 8q-133 0 -183.5 -32.5t-50.5 -104.5q0 -37 21.5 -59.5t57.5 -38t83 -24.5t98 -19q61 -12 124 -27.5t112 -45.5t79.5 -78t30.5 -122q0 -154 -98 -225.5t-289 -71.5q-102 0 -193 17.5t-153 40.5z" />
<glyph unicode="t" horiz-adv-x="716" d="M39 786v86l92 58l141 174l66 -12v-187h358l-37 -127h-319l-12 -489v-9q0 -167 153 -167q53 0 97.5 8t97.5 31l6 -62q-37 -47 -105.5 -82t-144.5 -35q-254 0 -254 274v13l15 492z" />
<glyph unicode="u" horiz-adv-x="1148" d="M20 825v109h312v-608q0 -57 9 -97.5t31.5 -63t60.5 -32.5t93 -10q84 0 154 25.5t123 70.5v248v295l-4 8l-162 55v109h311v-727l4 -8l154 -60v-53l-285 -127l-18 180h-19q-119 -166 -297 -166q-84 0 -142 17.5t-94 54.5t-51.5 94.5t-15.5 136.5v486l-4 8z" />
<glyph unicode="v" horiz-adv-x="1019" d="M-37 823v111h424v-148h-111l-4 -8l220 -647h32l232 629l-4 12l-142 51v111h410v-148h-117l-10 -8l-307 -778h-180l-281 762l-10 10z" />
<glyph unicode="w" horiz-adv-x="1507" d="M-31 823v111h430v-148h-114l-2 -8l163 -639h33l205 621l-8 12l-66 27l-59 24v111h401v-148h-90l-6 -8l184 -639h31l172 621l-4 12l-129 51v111h410v-148h-134l-10 -8l-239 -778h-181l-182 625h-31l-204 -625h-177l-231 762l-10 10z" />
<glyph unicode="x" horiz-adv-x="1103" d="M33 823v111h434v-148h-96l-2 -8l170 -252h34l187 236l-4 10l-119 53v109h414v-148h-119l-12 -8l-287 -303l274 -303l11 -10l149 -49v-113h-416v147h84l4 9l-184 266h-35l-201 -248l5 -10l131 -53v-111h-414v147h106l13 9l301 317l-273 289l-10 10z" />
<glyph unicode="y" horiz-adv-x="1015" d="M-37 823v111h416v-148h-103l-4 -8l232 -663h26l220 645l-5 12l-141 51v111h412v-148h-115l-10 -8l-287 -778l-57 -164q-53 -158 -130 -232.5t-210 -74.5q-121 0 -176.5 36t-55.5 107q0 53 21.5 75t75.5 22q59 0 90 -22.5t53 -86.5q6 -2 21 -2h12q27 6 49 17.5t43.5 35 t42 62.5t41.5 100l47 127h-59l-287 762l-10 10z" />
<glyph unicode="z" horiz-adv-x="966" d="M80 0v113l608 688l-133 14q-104 0 -164.5 -5t-92.5 -13.5t-41 -18.5t-11 -22l-25 -176h-115v354h779v-113l-604 -688l133 -14q109 0 170 5t94 12t43 18.5t14 23.5l49 170h115l-39 -348h-780z" />
<glyph unicode="{" horiz-adv-x="722" d="M45 352l6 101l-6 100q80 6 140.5 16.5t101.5 28.5t62.5 47t21.5 74q0 47 -26 99t-55.5 109.5t-55 118t-25.5 121.5q0 70 28.5 116t89 73.5t154.5 41t226 19.5v-143q-111 -6 -179.5 -15.5t-107.5 -22.5t-53.5 -33.5t-14.5 -51.5q0 -47 25.5 -95t55.5 -100.5t55.5 -106.5 t25.5 -114q0 -129 -90 -194.5t-283 -77.5v-19q193 -14 283 -78.5t90 -193.5q0 -59 -25.5 -115.5t-55.5 -108.5t-55.5 -100.5t-25.5 -91.5q0 -35 14.5 -55t53.5 -32.5t107.5 -20.5t179.5 -15v-145q-131 6 -225.5 18.5t-155 39t-89 71.5t-28.5 117q0 61 25.5 122.5t55 119 t55.5 110.5t26 100q0 45 -21.5 74t-62.5 47.5t-101.5 28.5t-140.5 16z" />
<glyph unicode="|" horiz-adv-x="598" d="M252 -424v1845h131v-1845h-131z" />
<glyph unicode="}" horiz-adv-x="722" d="M14 -367q111 6 180.5 14.5t108.5 21t53.5 32.5t14.5 55q0 43 -26 91.5t-55.5 100.5t-55 108.5t-25.5 115.5q0 129 89 193.5t282 78.5v19q-193 12 -282 77.5t-89 194.5q0 59 25.5 113.5t55 107t55.5 100.5t26 95q0 31 -14.5 51.5t-53.5 33.5t-108.5 22.5t-180.5 15.5v143 q131 -6 225.5 -19.5t156 -41t90 -73.5t28.5 -116q0 -61 -25.5 -121.5t-55.5 -118t-55.5 -109.5t-25.5 -99q0 -45 21.5 -74t62.5 -47t101.5 -28.5t138.5 -16.5l-6 -100l6 -101q-78 -6 -138.5 -16t-101.5 -28.5t-62.5 -47.5t-21.5 -74q0 -47 25.5 -100t55.5 -110.5t55.5 -119 t25.5 -122.5q0 -72 -28.5 -117t-90 -71.5t-156 -39t-225.5 -18.5v145z" />
<glyph unicode="~" horiz-adv-x="819" d="M53 330q10 68 22.5 121t33 88.5t52.5 54t81 18.5q55 0 103 -22.5t90 -50t78 -51t69 -23.5q12 0 22 4t20.5 18.5t22.5 43t27 75.5h92q-10 -68 -22.5 -121t-33 -90t-52 -55t-80.5 -18q-55 0 -103.5 23.5t-89.5 51t-78 50t-69 22.5q-12 0 -22.5 -4t-22 -18.5t-22.5 -42 t-28 -74.5h-90z" />
<glyph unicode="&#xa1;" horiz-adv-x="528" d="M137 1178q0 72 25.5 101.5t103.5 29.5t101.5 -29.5t23.5 -101.5q0 -70 -23.5 -98.5t-101.5 -28.5t-103.5 28.5t-25.5 98.5zM160 30.5q0 32.5 4 88.5l76 778q2 10 26.5 10t26.5 -10l74 -778q6 -55 6 -88t-9.5 -50.5t-31 -22.5t-62.5 -5h-10q-39 0 -60.5 5t-30.5 22.5 t-9 50z" />
<glyph unicode="&#xa2;" horiz-adv-x="948" d="M94 467q0 133 31 226t89 153.5t142 88.5t191 28h35.5t31.5 -2l6 14q5 14 11 38.5t14 55.5t17 64l45 172h120l-98 -363q80 -20 114 -59t34 -86q0 -45 -20.5 -58.5t-68.5 -13.5q-55 0 -118 35l-168 -631q6 0 13 -1t15 -1q104 0 193.5 34t161.5 75l8 -48q-25 -51 -66 -91 t-91 -67.5t-107.5 -42t-116.5 -14.5h-41l-78 -288h-117l82 305q-139 39 -201.5 155.5t-62.5 321.5zM254 463q0 -141 34 -217t120 -103l182 668q-18 4 -39 5t-43 1q-135 0 -194.5 -79t-59.5 -275z" />
<glyph unicode="&#xa3;" horiz-adv-x="1036" d="M61 670h240q-33 70 -57.5 139.5t-24.5 140.5q0 72 21.5 134.5t70.5 108.5t130 72.5t198 26.5q313 0 313 -164q0 -37 -17 -53t-65 -16q-37 0 -62.5 5t-48 16.5t-47 29.5t-59.5 47q-4 0 -12 1t-16 1q-129 -4 -190.5 -53t-61.5 -154q0 -66 29.5 -137.5t64.5 -144.5h391 l-8 -103h-336q23 -53 35 -106t7 -107.5t-32.5 -106.5t-85.5 -106l15 -16q70 -4 122 -6t95 -2q78 2 118.5 15t63.5 36q29 27 42 64.5t21 93.5l91 -9q0 -102 -15.5 -169.5t-46.5 -108.5t-78 -58.5t-112 -17.5q-53 0 -103.5 12.5t-96.5 31t-89 39t-82 38.5q-49 -57 -94 -87 t-99 -30q-37 0 -59 6.5t-35.5 21.5t-18.5 44t-5 72q0 78 85 91t222 -46q59 49 59 127q0 72 -25.5 142.5t-60.5 141.5h-280z" />
<glyph unicode="&#xa4;" horiz-adv-x="1081" d="M27 428l8 104h137q-2 16 -2 34v34v58.5t2 56.5h-137l-8 104h151q16 131 56 221t107 146.5t162 81t220 24.5q98 0 160.5 -11t98.5 -33.5t48 -54.5t12 -73q0 -37 -17 -52t-64 -15q-37 0 -64 4t-50.5 14t-47 28.5t-54.5 47.5q-2 0 -11 1t-21.5 2t-24.5 1h-18 q-135 0 -216 -75t-106 -257h510l-8 -104h-524q-2 -16 -2 -33.5v-38.5q0 -29 1 -57.5t3 -53.5h522l8 -104h-508q12 -94 41 -153.5t72 -92t101.5 -44t133.5 -11.5q104 0 186.5 34t153.5 75l9 -48q-51 -104 -142.5 -159.5t-232.5 -55.5q-223 0 -346 105.5t-152 349.5h-147z" />
<glyph unicode="&#xa5;" horiz-adv-x="1187" d="M2 1169v111h487v-147h-153l-4 -9l262 -446h33l260 440l-4 8l-164 43v111h465v-147h-129l-6 -9l-322 -460h377l-8 -105h-416v-170h416l8 -104h-424v-113l2 -8l209 -53v-111h-569v147h188l4 9v129h-430l8 104h422v170h-422l-8 105h383l-309 452l-11 10z" />
<glyph unicode="&#xa6;" horiz-adv-x="1038" d="M49 197q0 59 22.5 89.5t80.5 30.5q76 0 104.5 -51t48.5 -141q49 -12 123 -12q127 0 175 61.5t48 214.5v719l-4 8l-221 53v111h567v-147h-172l-4 -9v-759q0 -94 -19.5 -168t-65.5 -124t-123 -77t-191 -27q-104 0 -175 17.5t-114 48.5t-61.5 73t-18.5 89z" />
<glyph unicode="&#xa7;" horiz-adv-x="1067" d="M82 571q0 49 18.5 84t49 60.5t73.5 43t92 32.5v30q-31 16 -55 30.5t-41.5 34t-27 46t-9.5 65.5q0 154 85 232t300 78q158 0 232.5 -42t74.5 -122q0 -37 -18 -53.5t-65 -16.5q-35 0 -60.5 4t-49.5 15.5t-48.5 30t-59.5 46.5q-2 2 -11 3.5t-15 1.5q-119 0 -162 -31 t-43 -117q0 -39 20.5 -63.5t58.5 -42t90 -32t114 -30.5q92 -23 159.5 -44t112.5 -51t66.5 -72.5t21.5 -108.5q0 -49 -18.5 -84t-49 -60.5t-73.5 -43t-92 -32.5v-30q59 -31 96 -67t37 -115q0 -70 -20.5 -126.5t-65.5 -95.5t-119 -59.5t-180 -20.5q-311 0 -312 162 q0 37 18.5 53.5t65.5 16.5q37 0 62.5 -4t48.5 -15.5t48.5 -30t57.5 -46.5q4 -2 14.5 -3t16.5 -1q115 0 160 30.5t45 108.5q0 41 -20.5 67.5t-58.5 45t-90 33t-114 30.5q-92 23 -160.5 44t-112.5 51t-65.5 73t-21.5 108zM236 588q0 -33 20 -56.5t57 -41t86.5 -31t106.5 -29.5 q51 -12 93 -24.5t77 -24.5q78 43 116.5 80.5t38.5 103.5q0 35 -20 57.5t-57 40t-86.5 32t-108.5 28.5q-94 25 -168 49q-80 -43 -117.5 -81t-37.5 -103z" />
<glyph unicode="&#xa8;" horiz-adv-x="819" d="M49 1194q0 68 26.5 95.5t104.5 27.5q76 0 100.5 -27.5t24.5 -95.5t-24.5 -99.5t-100.5 -31.5q-78 0 -104.5 31.5t-26.5 99.5zM512 1194q0 68 26.5 95.5t104.5 27.5t102.5 -27.5t24.5 -95.5t-24.5 -99.5t-102.5 -31.5t-104.5 31.5t-26.5 99.5z" />
<glyph unicode="&#xa9;" horiz-adv-x="1599" d="M61 639q0 213 41 365.5t129 250t226.5 142.5t335.5 45t338 -46t231 -143.5t133 -249t43 -364.5t-42 -365.5t-133 -250t-231.5 -142.5t-336.5 -45q-197 0 -335 45t-227.5 142.5t-130.5 250t-41 365.5zM162 639q0 -184 34.5 -317.5t110.5 -219.5t197 -125.5t291 -39.5 q172 0 293.5 39.5t199.5 124.5t114 218.5t36 319.5q0 184 -37 317.5t-115 219.5t-199.5 125.5t-293.5 39.5q-170 0 -290 -39.5t-196 -124.5t-110.5 -218.5t-34.5 -319.5zM383 614q0 242 108.5 353.5t331.5 111.5q76 0 127 -11t92 -28l99 41v-278h-101l-61 127 q-14 10 -37.5 16t-48.5 10.5t-49.5 6.5t-42.5 2q-70 0 -120 -15.5t-82 -51.5t-47 -95.5t-15 -147.5q0 -102 12 -170.5t44 -110.5t86 -59.5t140 -17.5q45 0 98.5 10t77.5 29l64 139h102l-24 -274l-84 30q-43 -20 -102.5 -34.5t-157.5 -14.5q-215 0 -312.5 104.5t-97.5 327.5z " />
<glyph unicode="&#xaa;" horiz-adv-x="768" d="M55 717q0 59 24.5 105t80 80t143.5 53.5t215 21.5l4 82q10 129 -170 129q-29 0 -56.5 -4t-50 -9.5t-35.5 -11.5t-13 -12q0 -8 5 -29.5t5 -29.5q0 -16 -17.5 -23.5t-68.5 -7.5q-41 0 -51.5 6t-10.5 20q0 51 29 91.5t75 69t104.5 44t115.5 15.5q133 0 198.5 -53.5 t59.5 -170.5l-16 -368q-2 -47 13 -65.5t50 -18.5q16 0 39 3t43 9l2 -31q-16 -35 -51 -65.5t-90 -30.5t-84 25.5t-25 79.5h-24q-41 -41 -94.5 -74t-112.5 -33q-113 0 -174.5 49t-61.5 154zM184 733q0 -47 31 -72.5t104 -25.5q59 0 107.5 18.5t83.5 40.5l6 213 q-184 -20 -258 -65t-74 -109z" />
<glyph unicode="&#xab;" horiz-adv-x="1150" d="M80 397v158l467 285l12 -109l-350 -239v-31l350 -240l-12 -110zM543 393v166l483 301l14 -112l-366 -256v-31l366 -256l-14 -115z" />
<glyph unicode="&#xac;" d="M76 231q0 74 30.5 130.5t100 99.5t182.5 71.5t275 42.5v80q0 74 -51.5 121t-168.5 47q-37 0 -71.5 -5t-62 -12t-45 -15.5t-17.5 -14.5q0 -4 2 -15t5 -23.5t5 -24t2 -17.5q0 -20 -21.5 -29.5t-86.5 -9.5q-45 0 -59.5 8.5t-14.5 24.5q0 63 33.5 113.5t89 86.5t126 54.5 t146.5 18.5q170 0 254 -70t84 -238v-481q0 -33 16.5 -45t57.5 -12q23 0 46 4t40 8q2 -16 2 -29v-34q-23 -39 -66 -66t-98 -27q-68 0 -103.5 36t-35.5 122h-17q-49 -70 -133 -114t-176 -44q-121 0 -195.5 71t-74.5 187zM236 248q0 -66 40.5 -100.5t126.5 -34.5q35 0 73 8 t73 20.5t64.5 28.5t50.5 33v274q-121 -20 -203 -42.5t-132 -49.5t-71.5 -59.5t-21.5 -77.5z" />
<glyph unicode="&#xad;" horiz-adv-x="647" d="M74 428v137h504v-137h-504z" />
<glyph unicode="&#xae;" horiz-adv-x="1599" d="M61 639q0 213 41 365.5t129 250t226.5 142.5t335.5 45t338 -46t231 -143.5t133 -249t43 -364.5t-42 -365.5t-133 -250t-231.5 -142.5t-336.5 -45q-197 0 -335 45t-227.5 142.5t-130.5 250t-41 365.5zM162 639q0 -184 34.5 -317.5t110.5 -219.5t197 -125.5t291 -39.5 q172 0 293.5 39.5t199.5 124.5t114 218.5t36 319.5q0 184 -37 317.5t-115 219.5t-199.5 125.5t-293.5 39.5q-170 0 -290 -39.5t-196 -124.5t-110.5 -218.5t-34.5 -319.5zM401 975v88h420q96 0 159.5 -16.5t100.5 -47t51.5 -72.5t14.5 -93q0 -111 -47 -173.5t-166 -93.5 l151 -235l7 -6l112 -37v-88h-213l-63 118l-125 222l-139 -9v-200l2 -6l114 -37v-88h-362v114h102v4v3v608v4q0 2 -2 4zM664 647l122 -12q109 6 159 48t50 120q0 84 -41 114.5t-149 30.5h-141v-301z" />
<glyph unicode="&#xaf;" horiz-adv-x="819" d="M123 1104l6 135h561l6 -135h-573z" />
<glyph unicode="&#xb0;" horiz-adv-x="747" d="M72 1008q0 152 70.5 225.5t232.5 73.5q90 0 148.5 -16.5t92 -53.5t47 -93t13.5 -136q0 -143 -70.5 -222t-230.5 -79q-88 0 -146.5 17t-93.5 54t-49 94.5t-14 135.5zM168 1008q0 -55 7 -95.5t28.5 -65t62.5 -36.5t109 -12q121 0 163 51.5t42 157.5q0 61 -7.5 101t-30 63.5 t-62.5 32.5t-105 9q-121 0 -164 -49t-43 -157z" />
<glyph unicode="&#xb1;" horiz-adv-x="1599" d="M61 639q0 213 41 365.5t129 250t226.5 142.5t335.5 45t338 -46t231 -143.5t133 -249t43 -364.5t-42 -365.5t-133 -250t-231.5 -142.5t-336.5 -45q-197 0 -335 45t-227.5 142.5t-130.5 250t-41 365.5zM162 639q0 -184 34.5 -317.5t110.5 -219.5t197 -125.5t291 -39.5 q172 0 293.5 39.5t199.5 124.5t114 218.5t36 319.5q0 184 -37 317.5t-115 219.5t-199.5 125.5t-293.5 39.5q-170 0 -290 -39.5t-196 -124.5t-110.5 -218.5t-34.5 -319.5zM461 975v88h399q166 0 248 -58.5t82 -189.5q0 -141 -74 -219t-239 -78q-41 0 -81 3t-73 11v-200l2 -6 l123 -37v-88h-371l2 114h101v4v613v2q0 2 -2 4zM723 629q23 -4 60.5 -6t64.5 -2q117 0 158 41t41 133q0 47 -9.5 74.5t-34 44t-65.5 21.5t-104 5h-111v-311z" />
<glyph unicode="&#xb4;" horiz-adv-x="817" d="M221 1057l201 366h227l-311 -366h-117z" />
<glyph unicode="&#xb5;" horiz-adv-x="995" d="M55 -283q0 72 54.5 125.5t128.5 96.5v18q-51 10 -83 51t-32 98q0 51 46 99.5t110 77.5v18q-82 23 -134.5 110t-52.5 205q0 74 27.5 137.5t80 110.5t127 75t167.5 28q59 0 120.5 -10.5t114.5 -32.5h318l-50 -164l-213 59l-6 -14q45 -39 64.5 -89t19.5 -98 q0 -78 -30.5 -144t-86 -114.5t-133 -76t-172.5 -27.5q-35 0 -58.5 4t-47.5 8q-25 -20 -44.5 -44.5t-19.5 -47.5q0 -37 12.5 -56.5t41 -29.5t77 -12t121.5 -2h133q174 0 248 -58.5t74 -175.5q0 -176 -139.5 -269t-425.5 -93q-186 0 -271.5 55t-85.5 182zM207 -254 q0 -37 10 -62.5t41 -42t86 -24.5t145 -8q182 0 258 45t76 147q0 33 -9 55.5t-33.5 37t-68.5 21.5t-116 11q-37 2 -79 4t-83 3t-76.5 2.5t-58.5 1.5q-35 -33 -63.5 -84.5t-28.5 -106.5zM252 668q0 -43 5 -87t13.5 -81t20.5 -64.5t24 -40.5q16 -16 41 -23t78 -7q23 0 50.5 4 t56 12t56.5 21.5t46 31.5q33 29 48.5 72t15.5 94q0 66 -10.5 115t-32.5 71q-23 23 -80.5 32t-116.5 9q-125 0 -170 -39.5t-45 -119.5z" />
<glyph unicode="&#xb6;" horiz-adv-x="985" d="M80 930q0 92 21.5 158.5t74.5 108.5t144.5 62.5t230.5 20.5h326v-1348h-129v623q-63 -16 -123 -23.5t-125 -7.5q-190 0 -305 101.5t-115 304.5z" />
<glyph unicode="&#xb7;" horiz-adv-x="456" d="M109 467q0 74 28.5 105.5t112.5 31.5q82 0 107.5 -31.5t25.5 -105.5q0 -76 -25.5 -108.5t-107.5 -32.5q-84 0 -112.5 32.5t-28.5 108.5z" />
<glyph unicode="&#xb8;" horiz-adv-x="819" d="M209 -528q98 20 159.5 39.5t95.5 41t46 46t12 55.5q0 53 -64.5 76.5t-211.5 23.5h-21v56l260 256h117l-211 -203v-17q150 8 214.5 -42t64.5 -134q0 -61 -23.5 -106t-77 -79t-140.5 -55.5t-214 -33.5z" />
<glyph unicode="&#xba;" horiz-adv-x="872" d="M72 895q0 111 32.5 188.5t88 128t126 73t146.5 22.5q176 0 257 -95.5t81 -281.5q0 -111 -33 -189.5t-88 -129t-126 -74t-146 -23.5q-176 0 -257 98.5t-81 282.5zM203 913q0 -82 10 -138t45 -91q29 -25 72 -37t112 -12q119 0 173.5 60t54.5 214q0 80 -9.5 136.5 t-44.5 89.5q-27 27 -70.5 39t-115.5 12q-121 0 -174 -58.5t-53 -214.5z" />
<glyph unicode="&#xbb;" horiz-adv-x="1163" d="M119 205l366 256v31l-366 256l16 112l481 -301v-166l-481 -303zM600 221l350 240v31l-350 239l12 109l467 -285v-158l-467 -286z" />
<glyph unicode="&#xbc;" horiz-adv-x="1306" d="M37 774v57l156 76v64q0 199 91 294t251 95q117 0 195.5 -46t78.5 -124l-16 -51q-47 31 -113 51q-35 12 -75 20.5t-81 8.5q-96 0 -139 -54.5t-43 -169.5v-102h485v139q0 184 87 270.5t257 86.5q139 0 194.5 -41t55.5 -113q0 -43 -20.5 -57.5t-67.5 -14.5q-37 0 -78 17.5 t-88 64.5q-4 2 -17 3t-24 1q-80 0 -114.5 -51t-34.5 -162v-143h299l-39 -129h-260v-588l6 -12l199 -53v-111h-492v147h137l4 9v608h-489v-588q0 -4 2 -6q4 -4 4 -6l199 -53v-111h-492v147h138q4 0 4 9v583z" />
<glyph unicode="&#xbd;" horiz-adv-x="1806" d="M37 774v57l156 76v64q0 199 91 294t251 95q117 0 195.5 -46t78.5 -124l-16 -51q-47 31 -113 51q-35 12 -75 20.5t-81 8.5q-96 0 -139 -54.5t-43 -169.5v-102h485v47q0 121 30 206t86 139t136 79t181 25q178 0 255.5 -47.5t77.5 -124.5q0 -47 -19.5 -61.5t-66.5 -14.5 q-39 0 -81 19.5t-93 72.5q-45 10 -108 10q-129 0 -188.5 -67.5t-59.5 -235.5v-47h467l168 72v-793q0 -4 6 -8l139 -53v-111h-430v147h133q6 0 6 9v608h-489v-588q0 -4 2 -6q4 -4 4 -6l199 -53v-111h-492v147h137q4 0 4 9v608h-489v-588q0 -4 2 -6q4 -4 4 -6l199 -53v-111 h-492v147h138q4 0 4 9v583z" />
<glyph unicode="&#xbe;" horiz-adv-x="1796" d="M37 774v57l156 76v64q0 199 91 294t251 95q117 0 195.5 -46t78.5 -124l-16 -51q-41 27 -113 51q-80 29 -156 29q-96 0 -139 -54.5t-43 -169.5v-102h485v47q0 121 30 206t86 139t136 79t181 25q78 0 137 -16.5t100 -45.5l115 55v-1210q0 -4 6 -8l139 -53v-111h-430v147 h133q6 0 6 9v608h-489v-588q0 -4 2 -6q4 -4 4 -6l199 -53v-111h-492v147h137q4 0 4 9v608h-489v-588q0 -4 2 -6q4 -4 4 -6l199 -53v-111h-492v147h138q4 0 4 9v583zM977 893h489v252q-33 6 -64.5 27.5t-68.5 58.5q-18 6 -48 9t-60 3q-129 0 -188.5 -67.5t-59.5 -235.5v-47z " />
<glyph unicode="&#xbf;" horiz-adv-x="737" d="M43 291q0 76 22.5 129t59.5 89t82 59.5t88 39.5q66 27 114 51.5t48 67.5q0 39 -33 81t-84 91l94 6q74 -47 116 -98t42 -107q0 -45 -18.5 -77.5t-49 -59t-70.5 -47t-83 -39.5q-80 -35 -137.5 -72.5t-57.5 -105.5q0 -156 273 -156q82 4 174 25q10 0 16 -35t6 -76 q0 -53 -39 -72.5t-153 -19.5q-100 0 -177 24.5t-129.5 68.5t-78 103.5t-25.5 129.5zM301 1176q0 70 24.5 100.5t100.5 30.5q78 0 103.5 -31t25.5 -100q0 -70 -25.5 -98.5t-103.5 -28.5q-76 0 -100.5 28.5t-24.5 98.5z" />
<glyph unicode="&#xc0;" horiz-adv-x="1267" d="M-2 0v147h141l2 9l355 1032v72l229 55l381 -1143l8 -10l164 -51v-111h-494v147h146l4 9l-88 266h-467l-80 -250l4 -8l156 -53v-111h-461zM276 1769h226l203 -366h-117zM424 553h379l-170 561h-31z" />
<glyph unicode="&#xc1;" horiz-adv-x="1267" d="M-2 0v147h141l2 9l355 1032v72l229 55l381 -1143l8 -10l164 -51v-111h-494v147h146l4 9l-88 266h-467l-80 -250l4 -8l156 -53v-111h-461zM424 553h379l-170 561h-31zM535 1403l200 366h228l-312 -366h-116z" />
<glyph unicode="&#xc2;" horiz-adv-x="1267" d="M-2 0v147h141l2 9l355 1032v72l229 55l381 -1143l8 -10l164 -51v-111h-494v147h146l4 9l-88 266h-467l-80 -250l4 -8l156 -53v-111h-461zM295 1403l178 389h287l178 -389h-115l-196 299h-19l-198 -299h-115zM424 553h379l-170 561h-31z" />
<glyph unicode="&#xc3;" horiz-adv-x="1267" d="M-2 0v147h141l2 9l355 1032v72l229 55l381 -1143l8 -10l164 -51v-111h-494v147h146l4 9l-88 266h-467l-80 -250l4 -8l156 -53v-111h-461zM270 1419q10 68 22.5 121t33 89t52.5 54.5t81 18.5q55 0 103 -22.5t90 -50t78 -51.5t69 -24q12 0 22 4.5t20.5 18.5t23 43t26.5 76 h92q-10 -68 -22.5 -121t-33 -90t-52 -55.5t-80.5 -18.5q-55 0 -103.5 23.5t-89.5 51t-78 50.5t-69 23q-12 0 -22.5 -4.5t-22 -18.5t-22.5 -42t-28 -75h-90zM424 553h379l-170 561h-31z" />
<glyph unicode="&#xc4;" horiz-adv-x="1267" d="M-2 0v147h141l2 9l355 1032v72l229 55l381 -1143l8 -10l164 -51v-111h-494v147h146l4 9l-88 266h-467l-80 -250l4 -8l156 -53v-111h-461zM260 1540q0 68 26.5 95.5t104.5 27.5q76 0 100.5 -27.5t24.5 -95.5t-24.5 -99.5t-100.5 -31.5q-78 0 -104.5 32t-26.5 99zM424 553 h379l-170 561h-31zM723 1540q0 68 26.5 95.5t104.5 27.5t102.5 -27.5t24.5 -95.5t-24.5 -99.5t-102.5 -31.5t-104.5 32t-26.5 99z" />
<glyph unicode="&#xc5;" horiz-adv-x="1267" d="M-2 0v147h141l2 9l363 1063q-66 23 -90.5 72.5t-24.5 142.5q0 121 55.5 178t184.5 57q72 0 118 -13.5t71.5 -41t35.5 -72.5t10 -108q0 -154 -108 -207l350 -1055l8 -10l164 -51v-111h-494v147h146l4 9l-88 266h-467l-82 -250l4 -8l158 -53v-111h-461zM424 553h379 l-170 567h-31zM481 1434q0 -39 5.5 -68t20.5 -47.5t44 -27.5t78 -9q86 0 114.5 38t28.5 114q0 43 -5 71.5t-20.5 46t-43 23.5t-74.5 6q-88 0 -118 -35t-30 -112z" />
<glyph unicode="&#xc6;" horiz-adv-x="1759" d="M-31 0l2 147h140l4 9l514 958l-2 4l-178 51v111h1181v-381h-117l-53 191q-4 16 -12 24t-36 12t-82 5.5t-152 1.5h-207v-428h90q37 0 58.5 1t34.5 5t20.5 12t13.5 22l57 136h98l-45 -447h-98l-26 137q0 6 -4.5 9.5t-15.5 5.5t-33.5 3t-61.5 1h-88v-443h200 q100 0 155.5 3.5t83.5 8.5t36 13t14 18l78 185h117l-41 -375h-971v147h158q4 0 4 9v266h-395l-134 -252v-4l144 -55v-111h-451zM479 553h326v598h-33z" />
<glyph unicode="&#xc7;" horiz-adv-x="1310" d="M109 612q0 182 35.5 314.5t110.5 216.5t190.5 124t277.5 40q123 0 200.5 -18.5t125.5 -39.5l129 60v-398h-127l-52 183q-57 29 -125.5 43t-181.5 14q-106 0 -183 -22.5t-126 -78t-72.5 -147.5t-23.5 -231q0 -168 18.5 -274.5t65.5 -167t130 -82t212 -21.5 q92 0 168.5 17.5t126.5 45.5l65 203h127l-39 -393l-106 43q-47 -23 -118 -40t-159 -26l-119 -114v-17q150 8 214.5 -42t64.5 -134q0 -61 -23.5 -106t-77 -79t-140.5 -55.5t-214 -33.5l-6 76q98 20 159.5 39.5t95.5 41t46.5 46t12.5 55.5q0 53 -64.5 76.5t-212.5 23.5h-20v56 l165 163q-154 2 -258 37t-169.5 112t-94 197.5t-28.5 292.5z" />
<glyph unicode="&#xc8;" horiz-adv-x="1241" d="M63 1169v111h1051v-381h-117l-51 191q-4 16 -12 24t-36 12t-82 5.5t-152 1.5h-248v-428h112q49 0 78 1t44.5 5t21.5 12t14 22l55 136h101l-45 -447h-101l-24 137q0 6 -4 9.5t-17.5 5.5t-42 3t-80.5 1h-112v-443h241q90 0 144.5 2.5t85.5 9.5t46 21.5t28 38.5l63 156h117 l-41 -375h-1014v147h160l4 9v952l-4 8zM283 1769h225l205 -366h-117z" />
<glyph unicode="&#xc9;" horiz-adv-x="1241" d="M63 1169v111h1051v-381h-117l-51 191q-4 16 -12 24t-36 12t-82 5.5t-152 1.5h-248v-428h112q49 0 78 1t44.5 5t21.5 12t14 22l55 136h101l-45 -447h-101l-24 137q0 6 -4 9.5t-17.5 5.5t-42 3t-80.5 1h-112v-443h241q90 0 144.5 2.5t85.5 9.5t46 21.5t28 38.5l63 156h117 l-41 -375h-1014v147h160l4 9v952l-4 8zM541 1403l200 366h228l-312 -366h-116z" />
<glyph unicode="&#xca;" horiz-adv-x="1241" d="M63 1169v111h1051v-381h-117l-51 191q-4 16 -12 24t-36 12t-82 5.5t-152 1.5h-248v-428h112q49 0 78 1t44.5 5t21.5 12t14 22l55 136h101l-45 -447h-101l-24 137q0 6 -4 9.5t-17.5 5.5t-42 3t-80.5 1h-112v-443h241q90 0 144.5 2.5t85.5 9.5t46 21.5t28 38.5l63 156h117 l-41 -375h-1014v147h160l4 9v952l-4 8zM287 1403l178 389h287l178 -389h-115l-197 299h-18l-199 -299h-114z" />
<glyph unicode="&#xcb;" horiz-adv-x="1241" d="M63 1169v111h1051v-381h-117l-51 191q-4 16 -12 24t-36 12t-82 5.5t-152 1.5h-248v-428h112q49 0 78 1t44.5 5t21.5 12t14 22l55 136h101l-45 -447h-101l-24 137q0 6 -4 9.5t-17.5 5.5t-42 3t-80.5 1h-112v-443h241q90 0 144.5 2.5t85.5 9.5t46 21.5t28 38.5l63 156h117 l-41 -375h-1014v147h160l4 9v952l-4 8zM266 1540q0 68 26.5 95.5t104.5 27.5q76 0 100.5 -27.5t24.5 -95.5t-24.5 -99.5t-100.5 -31.5q-78 0 -104.5 32t-26.5 99zM729 1540q0 68 26.5 95.5t104.5 27.5t102.5 -27.5t24.5 -95.5t-24.5 -99.5t-102.5 -31.5t-104.5 32t-26.5 99z " />
<glyph unicode="&#xcc;" horiz-adv-x="727" d="M-2 1769h225l203 -366h-117zM68 1169v111h565v-147h-184l-5 -9v-952l5 -8l206 -53v-111h-565v147h184l5 9v952l-5 8z" />
<glyph unicode="&#xcd;" horiz-adv-x="727" d="M68 1169v111h565v-147h-184l-5 -9v-952l5 -8l206 -53v-111h-565v147h184l5 9v952l-5 8zM276 1403l201 366h228l-312 -366h-117z" />
<glyph unicode="&#xce;" horiz-adv-x="727" d="M37 1403l178 389h287l178 -389h-115l-196 299h-19l-198 -299h-115zM68 1169v111h565v-147h-184l-5 -9v-952l5 -8l206 -53v-111h-565v147h184l5 9v952l-5 8z" />
<glyph unicode="&#xcf;" horiz-adv-x="727" d="M2 1540q0 68 26.5 95.5t104.5 27.5q76 0 100.5 -27.5t24.5 -95.5t-24.5 -99.5t-100.5 -31.5q-78 0 -104.5 32t-26.5 99zM68 1169v111h565v-147h-184l-5 -9v-952l5 -8l206 -53v-111h-565v147h184l5 9v952l-5 8zM465 1540q0 68 26.5 95.5t104.5 27.5t102.5 -27.5 t24.5 -95.5t-24.5 -99.5t-102.5 -31.5t-104.5 32t-26.5 99z" />
<glyph unicode="&#xd0;" horiz-adv-x="1392" d="M63 1171v111q141 0 254 2q47 0 94.5 1t84 1h60.5h26q186 2 319 -35t218 -113.5t125 -195.5t40 -280q0 -162 -39 -286t-124 -207t-219 -125t-327 -42h-489v148h158l4 8v424h-174v135h174v393l-4 8zM414 186l182 -36q127 2 222 28.5t158.5 82.5t95.5 147.5t32 224.5 q0 152 -31 248t-97.5 153.5t-172 79t-254.5 21.5h-74q-29 0 -61 -2v-416h311v-135h-311v-396z" />
<glyph unicode="&#xd1;" horiz-adv-x="1515" d="M57 1169v111h459l596 -1098h35v926l-4 8l-176 53v111h499v-147h-166l-4 -9v-1149h-252l-614 1123h-35v-926l4 -8l176 -53v-111h-493v147h160l4 9v952l-4 8zM379 1419q10 68 22.5 121t33 89t52 54.5t80.5 18.5q55 0 103.5 -22.5t90.5 -50t77.5 -51.5t68.5 -24 q12 0 22.5 4.5t21 18.5t22.5 43t26 76h93q-10 -68 -22.5 -121t-33 -90t-52.5 -55.5t-81 -18.5q-55 0 -103 23.5t-89 51t-78 50.5t-70 23q-12 0 -22.5 -4.5t-21.5 -18.5t-22.5 -42t-27.5 -75h-90z" />
<glyph unicode="&#xd2;" horiz-adv-x="1396" d="M109 606q0 182 32.5 314.5t106.5 218.5t191.5 127t285.5 41q154 0 261.5 -34t175 -108.5t97 -195.5t29.5 -295q0 -182 -33.5 -314.5t-108.5 -218.5t-192.5 -127t-287.5 -41q-154 0 -260.5 34t-173 110t-95 195.5t-28.5 293.5zM287 668q0 -170 17.5 -275.5t63.5 -165 t128 -80t209 -20.5q109 0 185.5 22.5t125.5 78t71.5 149.5t22.5 235q0 170 -17.5 275.5t-64.5 164t-128 79t-210 20.5q-109 0 -185.5 -22.5t-124.5 -78t-70.5 -148.5t-22.5 -234zM360 1769h226l202 -366h-116z" />
<glyph unicode="&#xd3;" horiz-adv-x="1396" d="M109 606q0 182 32.5 314.5t106.5 218.5t191.5 127t285.5 41q154 0 261.5 -34t175 -108.5t97 -195.5t29.5 -295q0 -182 -33.5 -314.5t-108.5 -218.5t-192.5 -127t-287.5 -41q-154 0 -260.5 34t-173 110t-95 195.5t-28.5 293.5zM287 668q0 -170 17.5 -275.5t63.5 -165 t128 -80t209 -20.5q109 0 185.5 22.5t125.5 78t71.5 149.5t22.5 235q0 170 -17.5 275.5t-64.5 164t-128 79t-210 20.5q-109 0 -185.5 -22.5t-124.5 -78t-70.5 -148.5t-22.5 -234zM618 1403l201 366h228l-312 -366h-117z" />
<glyph unicode="&#xd4;" horiz-adv-x="1396" d="M109 606q0 182 32.5 314.5t106.5 218.5t191.5 127t285.5 41q154 0 261.5 -34t175 -108.5t97 -195.5t29.5 -295q0 -182 -33.5 -314.5t-108.5 -218.5t-192.5 -127t-287.5 -41q-154 0 -260.5 34t-173 110t-95 195.5t-28.5 293.5zM287 668q0 -170 17.5 -275.5t63.5 -165 t128 -80t209 -20.5q109 0 185.5 22.5t125.5 78t71.5 149.5t22.5 235q0 170 -17.5 275.5t-64.5 164t-128 79t-210 20.5q-109 0 -185.5 -22.5t-124.5 -78t-70.5 -148.5t-22.5 -234zM373 1403l178 389h287l178 -389h-115l-196 299h-19l-199 -299h-114z" />
<glyph unicode="&#xd5;" horiz-adv-x="1396" d="M109 606q0 182 32.5 314.5t106.5 218.5t191.5 127t285.5 41q154 0 261.5 -34t175 -108.5t97 -195.5t29.5 -295q0 -182 -33.5 -314.5t-108.5 -218.5t-192.5 -127t-287.5 -41q-154 0 -260.5 34t-173 110t-95 195.5t-28.5 293.5zM287 668q0 -170 17.5 -275.5t63.5 -165 t128 -80t209 -20.5q109 0 185.5 22.5t125.5 78t71.5 149.5t22.5 235q0 170 -17.5 275.5t-64.5 164t-128 79t-210 20.5q-109 0 -185.5 -22.5t-124.5 -78t-70.5 -148.5t-22.5 -234zM334 1419q10 68 22.5 121t33 89t52 54.5t80.5 18.5q55 0 103.5 -22.5t90.5 -50t77.5 -51.5 t68.5 -24q12 0 22.5 4.5t20.5 18.5t22.5 43t26.5 76h93q-10 -68 -22.5 -121t-33 -90t-52.5 -55.5t-81 -18.5q-55 0 -103 23.5t-89 51t-78 50.5t-70 23q-12 0 -22.5 -4.5t-21.5 -18.5t-22.5 -42t-27.5 -75h-90z" />
<glyph unicode="&#xd6;" horiz-adv-x="1396" d="M109 606q0 182 32.5 314.5t106.5 218.5t191.5 127t285.5 41q154 0 261.5 -34t175 -108.5t97 -195.5t29.5 -295q0 -182 -33.5 -314.5t-108.5 -218.5t-192.5 -127t-287.5 -41q-154 0 -260.5 34t-173 110t-95 195.5t-28.5 293.5zM287 668q0 -170 17.5 -275.5t63.5 -165 t128 -80t209 -20.5q109 0 185.5 22.5t125.5 78t71.5 149.5t22.5 235q0 170 -17.5 275.5t-64.5 164t-128 79t-210 20.5q-109 0 -185.5 -22.5t-124.5 -78t-70.5 -148.5t-22.5 -234zM338 1540q0 68 26.5 95.5t104.5 27.5q76 0 100.5 -27.5t24.5 -95.5t-24.5 -99.5t-100.5 -31.5 q-78 0 -104.5 32t-26.5 99zM801 1540q0 68 26.5 95.5t104.5 27.5t102.5 -27.5t24.5 -95.5t-24.5 -99.5t-102.5 -31.5t-104.5 32t-26.5 99z" />
<glyph unicode="&#xd7;" horiz-adv-x="995" d="M80 133l346 346l-346 344l76 76l346 -346l346 348l76 -76l-349 -346l347 -346l-76 -76l-344 346l-346 -346z" />
<glyph unicode="&#xd8;" horiz-adv-x="1396" d="M109 606q0 182 32.5 314.5t107.5 218.5t195.5 127t294.5 41q154 0 260 -37l88 151h121l-114 -196q104 -68 149 -201t45 -350q0 -182 -33.5 -314.5t-109.5 -218.5t-198 -127t-296 -41q-160 0 -268 39q-10 -18 -24.5 -43.5t-28.5 -48.5q-16 -27 -31 -53h-115q27 47 49 86 q20 35 39 64.5t23 39.5q-100 70 -143 203t-43 346zM287 668q0 -182 18.5 -291t77.5 -168l532 885v30q-82 27 -225 27q-121 0 -198.5 -26.5t-123.5 -85t-63.5 -150.5t-17.5 -221zM469 150q45 -16 102.5 -19.5t133.5 -3.5q121 0 198.5 27.5t123.5 86t64.5 150.5t18.5 221 q0 186 -19.5 297t-84.5 166l-537 -895v-30z" />
<glyph unicode="&#xd9;" horiz-adv-x="1454" d="M23 1169v111h512v-147h-158l-4 -9v-583q0 -127 16.5 -208t57 -127t110.5 -63.5t176 -17.5q102 0 169 18.5t108 65.5t57 128t16 206v565l-4 8l-182 53v111h498v-147h-160l-2 -9v-637q0 -141 -31 -239t-95.5 -159.5t-163.5 -89.5t-234 -28q-133 0 -227.5 27t-155 88 t-89 159.5t-28.5 241.5v621l-4 8zM383 1769h225l203 -366h-117z" />
<glyph unicode="&#xda;" horiz-adv-x="1454" d="M23 1169v111h512v-147h-158l-4 -9v-583q0 -127 16.5 -208t57 -127t110.5 -63.5t176 -17.5q102 0 169 18.5t108 65.5t57 128t16 206v565l-4 8l-182 53v111h498v-147h-160l-2 -9v-637q0 -141 -31 -239t-95.5 -159.5t-163.5 -89.5t-234 -28q-133 0 -227.5 27t-155 88 t-89 159.5t-28.5 241.5v621l-4 8zM664 1403l200 366h228l-312 -366h-116z" />
<glyph unicode="&#xdb;" horiz-adv-x="1454" d="M23 1169v111h512v-147h-158l-4 -9v-583q0 -127 16.5 -208t57 -127t110.5 -63.5t176 -17.5q102 0 169 18.5t108 65.5t57 128t16 206v565l-4 8l-182 53v111h498v-147h-160l-2 -9v-637q0 -141 -31 -239t-95.5 -159.5t-163.5 -89.5t-234 -28q-133 0 -227.5 27t-155 88 t-89 159.5t-28.5 241.5v621l-4 8zM408 1403l178 389h286l179 -389h-115l-197 299h-18l-199 -299h-114z" />
<glyph unicode="&#xdc;" horiz-adv-x="1454" d="M23 1169v111h512v-147h-158l-4 -9v-583q0 -127 16.5 -208t57 -127t110.5 -63.5t176 -17.5q102 0 169 18.5t108 65.5t57 128t16 206v565l-4 8l-182 53v111h498v-147h-160l-2 -9v-637q0 -141 -31 -239t-95.5 -159.5t-163.5 -89.5t-234 -28q-133 0 -227.5 27t-155 88 t-89 159.5t-28.5 241.5v621l-4 8zM352 1540q0 68 27 95.5t104 27.5q78 0 102.5 -27.5t24.5 -95.5t-24.5 -99.5t-102.5 -31.5t-104.5 32t-26.5 99zM817 1540q0 68 26.5 95.5t104.5 27.5t102.5 -27.5t24.5 -95.5t-24.5 -99.5t-102.5 -31.5t-104.5 32t-26.5 99z" />
<glyph unicode="&#xdd;" horiz-adv-x="1210" d="M-25 1169v111h471v-147h-122l-5 -9l285 -493h31l270 487l-4 8l-147 43v111h465v-147h-146l-8 -9l-379 -626v-326l4 -8l207 -53v-111h-567v147h188l2 9v344l-385 616l-10 10zM524 1403l201 366h227l-311 -366h-117z" />
<glyph unicode="&#xde;" horiz-adv-x="1169" d="M63 1169v111h529v-147h-172l-4 -9v-88h200q256 0 371 -87t115 -273q0 -217 -123 -323.5t-340 -106.5q-61 0 -116.5 5t-106.5 15v-94l4 -8l194 -53v-111h-528v147h160l4 9v952l-4 8zM416 399q39 -8 90 -13t94 -5q176 0 250 62.5t74 207.5q0 68 -16.5 113t-55.5 73.5 t-103.5 41t-160.5 12.5h-172v-492z" />
<glyph unicode="&#xdf;" horiz-adv-x="1155" d="M37 774v57l156 76v119q0 170 93 266.5t310 96.5q203 0 292 -72t89 -236q0 -57 -26.5 -105t-71.5 -90t-105.5 -76t-128.5 -62v-31q104 -31 183 -67t131.5 -85t78 -113.5t25.5 -154.5q0 -170 -79 -247t-255 -77q-88 0 -146.5 11.5t-92 33t-47 52t-13.5 71.5q0 43 26.5 56.5 t71.5 13.5q41 0 77 -20.5t81 -75.5q20 0 25.5 -1t15.5 -1q111 0 148.5 45t37.5 135q0 55 -17 101t-64.5 87t-129 81t-213.5 79v145q68 35 128.5 66t106.5 64.5t72.5 72.5t26.5 88q0 88 -52 133t-175 45q-141 0 -197.5 -56t-56.5 -195v-1004h-287v147h138q4 0 4 9v583z" />
<glyph unicode="&#xe0;" d="M76 231q0 74 30.5 130.5t100 99.5t182.5 71.5t275 42.5v80q0 74 -51.5 121t-168.5 47q-37 0 -71.5 -5t-62 -12t-45 -15.5t-17.5 -14.5q0 -4 2 -15t5 -23.5t5 -24t2 -17.5q0 -20 -21.5 -29.5t-86.5 -9.5q-45 0 -59.5 8.5t-14.5 24.5q0 63 33.5 113.5t89 86.5t126 54.5 t146.5 18.5q170 0 254 -70t84 -238v-481q0 -33 16.5 -45t57.5 -12q23 0 46 4t40 8q2 -16 2 -29v-34q-23 -39 -66 -66t-98 -27q-68 0 -103.5 36t-35.5 122h-17q-49 -70 -133 -114t-176 -44q-121 0 -195.5 71t-74.5 187zM111 1423h225l205 -366h-119zM236 248 q0 -66 40.5 -100.5t126.5 -34.5q35 0 73 8t73 20.5t64.5 28.5t50.5 33v274q-121 -20 -203 -42.5t-132 -49.5t-71.5 -59.5t-21.5 -77.5z" />
<glyph unicode="&#xe1;" d="M76 231q0 74 30.5 130.5t100 99.5t182.5 71.5t275 42.5v80q0 74 -51.5 121t-168.5 47q-37 0 -71.5 -5t-62 -12t-45 -15.5t-17.5 -14.5q0 -4 2 -15t5 -23.5t5 -24t2 -17.5q0 -20 -21.5 -29.5t-86.5 -9.5q-45 0 -59.5 8.5t-14.5 24.5q0 63 33.5 113.5t89 86.5t126 54.5 t146.5 18.5q170 0 254 -70t84 -238v-481q0 -33 16.5 -45t57.5 -12q23 0 46 4t40 8q2 -16 2 -29v-34q-23 -39 -66 -66t-98 -27q-68 0 -103.5 36t-35.5 122h-17q-49 -70 -133 -114t-176 -44q-121 0 -195.5 71t-74.5 187zM236 248q0 -66 40.5 -100.5t126.5 -34.5q35 0 73 8 t73 20.5t64.5 28.5t50.5 33v274q-121 -20 -203 -42.5t-132 -49.5t-71.5 -59.5t-21.5 -77.5zM383 1057l201 366h227l-311 -366h-117z" />
<glyph unicode="&#xe2;" d="M76 231q0 74 30.5 130.5t100 99.5t182.5 71.5t275 42.5v80q0 74 -51.5 121t-168.5 47q-37 0 -71.5 -5t-62 -12t-45 -15.5t-17.5 -14.5q0 -4 2 -15t5 -23.5t5 -24t2 -17.5q0 -20 -21.5 -29.5t-86.5 -9.5q-45 0 -59.5 8.5t-14.5 24.5q0 63 33.5 113.5t89 86.5t126 54.5 t146.5 18.5q170 0 254 -70t84 -238v-481q0 -33 16.5 -45t57.5 -12q23 0 46 4t40 8q2 -16 2 -29v-34q-23 -39 -66 -66t-98 -27q-68 0 -103.5 36t-35.5 122h-17q-49 -70 -133 -114t-176 -44q-121 0 -195.5 71t-74.5 187zM143 1057l179 389h286l178 -389h-114l-197 299h-18 l-199 -299h-115zM236 248q0 -66 40.5 -100.5t126.5 -34.5q35 0 73 8t73 20.5t64.5 28.5t50.5 33v274q-121 -20 -203 -42.5t-132 -49.5t-71.5 -59.5t-21.5 -77.5z" />
<glyph unicode="&#xe3;" d="M76 231q0 74 30.5 130.5t100 99.5t182.5 71.5t275 42.5v80q0 74 -51.5 121t-168.5 47q-37 0 -71.5 -5t-62 -12t-45 -15.5t-17.5 -14.5q0 -4 2 -15t5 -23.5t5 -24t2 -17.5q0 -20 -21.5 -29.5t-86.5 -9.5q-45 0 -59.5 8.5t-14.5 24.5q0 63 33.5 113.5t89 86.5t126 54.5 t146.5 18.5q170 0 254 -70t84 -238v-481q0 -33 16.5 -45t57.5 -12q23 0 46 4t40 8q2 -16 2 -29v-34q-23 -39 -66 -66t-98 -27q-68 0 -103.5 36t-35.5 122h-17q-49 -70 -133 -114t-176 -44q-121 0 -195.5 71t-74.5 187zM92 1073q10 68 22.5 121t33 89t52 54.5t81.5 18.5 q55 0 103 -22.5t90 -50.5t78 -51.5t69 -23.5q12 0 22 4.5t20.5 18.5t22.5 43t27 76h92q-10 -68 -22.5 -121t-33 -90t-52 -55.5t-81.5 -18.5q-55 0 -103 23.5t-89 51t-78 50t-70 22.5q-12 0 -22 -4t-21.5 -18t-22.5 -42t-28 -75h-90zM236 248q0 -66 40.5 -100.5t126.5 -34.5 q35 0 73 8t73 20.5t64.5 28.5t50.5 33v274q-121 -20 -203 -42.5t-132 -49.5t-71.5 -59.5t-21.5 -77.5z" />
<glyph unicode="&#xe4;" d="M76 231q0 74 30.5 130.5t100 99.5t182.5 71.5t275 42.5v80q0 74 -51.5 121t-168.5 47q-37 0 -71.5 -5t-62 -12t-45 -15.5t-17.5 -14.5q0 -4 2 -15t5 -23.5t5 -24t2 -17.5q0 -20 -21.5 -29.5t-86.5 -9.5q-45 0 -59.5 8.5t-14.5 24.5q0 63 33.5 113.5t89 86.5t126 54.5 t146.5 18.5q170 0 254 -70t84 -238v-481q0 -33 16.5 -45t57.5 -12q23 0 46 4t40 8q2 -16 2 -29v-34q-23 -39 -66 -66t-98 -27q-68 0 -103.5 36t-35.5 122h-17q-49 -70 -133 -114t-176 -44q-121 0 -195.5 71t-74.5 187zM109 1194q0 68 26.5 95.5t104.5 27.5q76 0 100.5 -27.5 t24.5 -95.5t-25 -99.5t-100 -31.5q-78 0 -104.5 31.5t-26.5 99.5zM236 248q0 -66 40.5 -100.5t126.5 -34.5q35 0 73 8t73 20.5t64.5 28.5t50.5 33v274q-121 -20 -203 -42.5t-132 -49.5t-71.5 -59.5t-21.5 -77.5zM571 1194q0 68 27 95.5t104 27.5q78 0 102.5 -27.5 t24.5 -95.5t-24.5 -99.5t-102.5 -31.5t-104.5 31.5t-26.5 99.5z" />
<glyph unicode="&#xe5;" d="M76 231q0 74 30.5 130.5t100 99.5t182.5 71.5t275 42.5v80q0 74 -51.5 121t-168.5 47q-37 0 -71.5 -5t-62 -12t-45 -15.5t-17.5 -14.5q0 -4 2 -15t5 -23.5t5 -24t2 -17.5q0 -20 -21.5 -29.5t-86.5 -9.5q-45 0 -59.5 8.5t-14.5 24.5q0 63 33.5 113.5t89 86.5t126 54.5 t146.5 18.5q170 0 254 -70t84 -238v-481q0 -33 16.5 -45t57.5 -12q23 0 46 4t40 8q2 -16 2 -29v-34q-23 -39 -66 -66t-98 -27q-68 0 -103.5 36t-35.5 122h-17q-49 -70 -133 -114t-176 -44q-121 0 -195.5 71t-74.5 187zM236 248q0 -66 40.5 -100.5t126.5 -34.5q35 0 73 8 t73 20.5t64.5 28.5t50.5 33v274q-121 -20 -203 -42.5t-132 -49.5t-71.5 -59.5t-21.5 -77.5zM238 1290q0 121 55 178.5t184 57.5q72 0 118 -13.5t71.5 -41t36 -73t10.5 -108.5q0 -113 -54.5 -175t-181.5 -62q-70 0 -117 13t-73.5 43t-37.5 75t-11 106zM330 1290 q0 -39 5 -67.5t20.5 -47t44 -26.5t77.5 -8q86 0 115 36.5t29 112.5q0 45 -5.5 74t-20.5 45t-43 22.5t-75 6.5q-88 0 -117.5 -35t-29.5 -113z" />
<glyph unicode="&#xe6;" horiz-adv-x="1519" d="M76 231q0 74 30.5 130.5t100 99.5t181.5 71.5t274 42.5l2 70q2 80 -50.5 129t-169.5 49q-37 0 -71.5 -5t-62 -12t-45 -15.5t-17.5 -14.5q0 -4 2 -15t5 -23.5t5 -24t2 -17.5q0 -20 -21.5 -29.5t-86.5 -9.5q-45 0 -59.5 8.5t-14.5 24.5q0 63 35 113.5t91 86.5t129 54.5 t146 18.5q68 0 115 -8.5t80 -24t53.5 -37t38.5 -49.5q53 61 130 90t181 29q188 0 276.5 -89.5t88.5 -291.5l-37 -142l-596 9v-3q0 -86 13.5 -146t44 -98t84 -56.5t132.5 -18.5q104 0 194.5 34t162.5 75l8 -48q-25 -51 -67 -91t-92 -67.5t-107.5 -42t-116.5 -14.5 q-266 0 -342 183h-31q-63 -86 -158.5 -134.5t-189.5 -48.5q-121 0 -195.5 71t-74.5 187zM236 248q0 -66 40.5 -100.5t126.5 -34.5q80 0 154 33.5t123 80.5q-16 47 -23.5 106.5t-7.5 137.5q-115 -16 -193.5 -36.5t-127.5 -47.5t-70.5 -61.5t-21.5 -77.5zM815 539l473 14 q-4 82 -15 132t-39 79t-74 39t-118 10q-61 0 -102 -13.5t-66.5 -45t-39 -85t-19.5 -130.5z" />
<glyph unicode="&#xe7;" horiz-adv-x="952" d="M94 467q0 133 31 226t89 153.5t142 88.5t191 28q190 0 267 -53.5t77 -137.5q0 -45 -21.5 -64.5t-70.5 -19.5q-63 0 -99 30t-77 93q-23 4 -54.5 5t-60.5 1q-135 0 -194.5 -74.5t-59.5 -250.5q0 -100 13.5 -170t45 -113t85 -62.5t132.5 -19.5q104 0 190.5 34t158.5 75 l8 -48q-41 -82 -115 -134t-166 -70l-125 -121v-17q150 8 214.5 -42t64.5 -134q0 -61 -23.5 -106t-77 -79t-140.5 -55.5t-214 -33.5l-6 76q98 20 159.5 39.5t95.5 41t46 46t12 55.5q0 53 -64.5 76.5t-211.5 23.5h-21v56l168 163q-205 8 -297 129t-92 365z" />
<glyph unicode="&#xe8;" horiz-adv-x="978" d="M94 467q0 133 32 226t89 153.5t139 88.5t183 28q190 0 278 -93.5t88 -287.5l-37 -142l-612 9v-3q0 -172 64.5 -245.5t226.5 -73.5q104 0 193 34t161 75l8 -48q-25 -51 -65.5 -91t-91 -67.5t-107.5 -42t-117 -14.5q-221 0 -326.5 120t-105.5 374zM156 1423h225l203 -366 h-117zM260 539l488 14q-4 82 -16.5 132t-39 79t-73 39t-119.5 10q-61 0 -104.5 -11t-71 -42t-43 -84t-21.5 -137z" />
<glyph unicode="&#xe9;" horiz-adv-x="978" d="M94 467q0 133 32 226t89 153.5t139 88.5t183 28q190 0 278 -93.5t88 -287.5l-37 -142l-612 9v-3q0 -172 64.5 -245.5t226.5 -73.5q104 0 193 34t161 75l8 -48q-25 -51 -65.5 -91t-91 -67.5t-107.5 -42t-117 -14.5q-221 0 -326.5 120t-105.5 374zM260 539l488 14 q-4 82 -16.5 132t-39 79t-73 39t-119.5 10q-61 0 -104.5 -11t-71 -42t-43 -84t-21.5 -137zM428 1057l201 366h227l-311 -366h-117z" />
<glyph unicode="&#xea;" horiz-adv-x="978" d="M94 467q0 133 32 226t89 153.5t139 88.5t183 28q190 0 278 -93.5t88 -287.5l-37 -142l-612 9v-3q0 -172 64.5 -245.5t226.5 -73.5q104 0 193 34t161 75l8 -48q-25 -51 -65.5 -91t-91 -67.5t-107.5 -42t-117 -14.5q-221 0 -326.5 120t-105.5 374zM180 1057l178 389h287 l178 -389h-114l-197 299h-18l-199 -299h-115zM260 539l488 14q-4 82 -16.5 132t-39 79t-73 39t-119.5 10q-61 0 -104.5 -11t-71 -42t-43 -84t-21.5 -137z" />
<glyph unicode="&#xeb;" horiz-adv-x="978" d="M94 467q0 133 32 226t89 153.5t139 88.5t183 28q190 0 278 -93.5t88 -287.5l-37 -142l-612 9v-3q0 -172 64.5 -245.5t226.5 -73.5q104 0 193 34t161 75l8 -48q-25 -51 -65.5 -91t-91 -67.5t-107.5 -42t-117 -14.5q-221 0 -326.5 120t-105.5 374zM139 1194q0 68 27 95.5 t104 27.5q76 0 100.5 -27.5t24.5 -95.5t-24.5 -99.5t-100.5 -31.5q-78 0 -104.5 31.5t-26.5 99.5zM260 539l488 14q-4 82 -16.5 132t-39 79t-73 39t-119.5 10q-61 0 -104.5 -11t-71 -42t-43 -84t-21.5 -137zM602 1194q0 68 26.5 95.5t104.5 27.5t102.5 -27.5t24.5 -95.5 t-24.5 -99.5t-102.5 -31.5t-104.5 31.5t-26.5 99.5z" />
<glyph unicode="&#xec;" horiz-adv-x="542" d="M-80 1423h225l203 -366h-117zM43 807v51l305 107v-793q0 -4 4 -8l140 -53v-111h-429v147h134q4 0 4 9v567q0 8 -4 8z" />
<glyph unicode="&#xed;" horiz-adv-x="542" d="M43 807v51l305 107v-793q0 -4 4 -8l140 -53v-111h-429v147h134q4 0 4 9v567q0 8 -4 8zM172 1057l201 366h227l-311 -366h-117z" />
<glyph unicode="&#xee;" horiz-adv-x="542" d="M-70 1057l179 389h286l178 -389h-114l-197 299h-18l-199 -299h-115zM43 807v51l305 107v-793q0 -4 4 -8l140 -53v-111h-429v147h134q4 0 4 9v567q0 8 -4 8z" />
<glyph unicode="&#xef;" horiz-adv-x="542" d="M-104 1194q0 68 26.5 95.5t104.5 27.5q76 0 100.5 -27.5t24.5 -95.5t-25 -99.5t-100 -31.5q-78 0 -104.5 31.5t-26.5 99.5zM43 807v51l305 107v-793q0 -4 4 -8l140 -53v-111h-429v147h134q4 0 4 9v567q0 8 -4 8zM358 1194q0 68 27 95.5t104 27.5q78 0 102.5 -27.5 t24.5 -95.5t-24.5 -99.5t-102.5 -31.5t-104.5 31.5t-26.5 99.5z" />
<glyph unicode="&#xf0;" horiz-adv-x="1091" d="M90 446q0 139 28.5 237.5t82 160t132.5 90.5t179 29q78 0 143.5 -30t102.5 -73h20q-82 143 -215 262l-401 -104v135l272 70q-100 70 -213 114v52h189q49 -23 99 -53.5t97 -67.5l357 92v-135l-236 -60q119 -123 196.5 -286.5t77.5 -370.5q0 -143 -40.5 -245.5t-109.5 -167 t-157 -94.5t-182 -30q-221 0 -321.5 123t-100.5 352zM252 473q0 -104 13.5 -176t58.5 -113q61 -61 229 -61q74 0 127 17.5t88 58.5t51.5 106.5t16.5 161.5q0 98 -10.5 170t-41.5 125q-41 23 -99 36t-148 13q-74 0 -128.5 -16.5t-89 -56.5t-51 -104.5t-16.5 -160.5z" />
<glyph unicode="&#xf1;" horiz-adv-x="1155" d="M41 807v51l305 107v-168h19q59 84 141 125t170 41q84 0 142.5 -17.5t94 -54.5t51 -94.5t15.5 -139.5v-485l4 -8l154 -53v-111h-426v147h118l2 9v452q0 59 -9 98t-31.5 63t-60.5 34t-93 10q-84 0 -161 -26.5t-130 -71.5v-248v-295l4 -8l154 -53v-111h-434v147h125l6 9v567 l-4 8zM201 1073q10 68 22.5 121t32.5 89t52 54.5t81 18.5q55 0 103.5 -22.5t90.5 -50.5t77.5 -51.5t68.5 -23.5q12 0 22.5 4.5t20.5 18.5t22.5 43t26.5 76h92q-10 -68 -22 -121t-32.5 -90t-52.5 -55.5t-81 -18.5q-55 0 -103.5 23.5t-89 51t-77.5 50t-70 22.5q-12 0 -22.5 -4 t-21.5 -18t-22.5 -42t-27.5 -75h-90z" />
<glyph unicode="&#xf2;" horiz-adv-x="1091" d="M90 446q0 139 41 237.5t109.5 160t156.5 90.5t183 29q221 0 321 -120t100 -351q0 -139 -40.5 -237.5t-109.5 -162t-157 -92.5t-182 -29q-221 0 -321.5 123t-100.5 352zM193 1423h225l203 -366h-117zM252 473q0 -104 13.5 -176t58.5 -113q61 -61 229 -61q74 0 127 17.5 t88 58.5t51.5 106.5t16.5 161.5q0 98 -12.5 169t-53.5 112q-31 33 -87 48t-146 15q-74 0 -128.5 -16.5t-89 -56.5t-51 -104.5t-16.5 -160.5z" />
<glyph unicode="&#xf3;" horiz-adv-x="1091" d="M90 446q0 139 41 237.5t109.5 160t156.5 90.5t183 29q221 0 321 -120t100 -351q0 -139 -40.5 -237.5t-109.5 -162t-157 -92.5t-182 -29q-221 0 -321.5 123t-100.5 352zM252 473q0 -104 13.5 -176t58.5 -113q61 -61 229 -61q74 0 127 17.5t88 58.5t51.5 106.5t16.5 161.5 q0 98 -12.5 169t-53.5 112q-31 33 -87 48t-146 15q-74 0 -128.5 -16.5t-89 -56.5t-51 -104.5t-16.5 -160.5zM479 1057l201 366h227l-311 -366h-117z" />
<glyph unicode="&#xf4;" horiz-adv-x="1091" d="M90 446q0 139 41 237.5t109.5 160t156.5 90.5t183 29q221 0 321 -120t100 -351q0 -139 -40.5 -237.5t-109.5 -162t-157 -92.5t-182 -29q-221 0 -321.5 123t-100.5 352zM219 1057l178 389h287l178 -389h-114l-197 299h-19l-198 -299h-115zM252 473q0 -104 13.5 -176 t58.5 -113q61 -61 229 -61q74 0 127 17.5t88 58.5t51.5 106.5t16.5 161.5q0 98 -12.5 169t-53.5 112q-31 33 -87 48t-146 15q-74 0 -128.5 -16.5t-89 -56.5t-51 -104.5t-16.5 -160.5z" />
<glyph unicode="&#xf5;" horiz-adv-x="1091" d="M90 446q0 139 41 237.5t109.5 160t156.5 90.5t183 29q221 0 321 -120t100 -351q0 -139 -40.5 -237.5t-109.5 -162t-157 -92.5t-182 -29q-221 0 -321.5 123t-100.5 352zM203 1073q10 68 22.5 121t33 89t52 54.5t80.5 18.5q55 0 103.5 -22.5t90.5 -50.5t77.5 -51.5 t68.5 -23.5q12 0 22.5 4.5t20.5 18.5t22.5 43t26.5 76h92q-10 -68 -22 -121t-32.5 -90t-52.5 -55.5t-81 -18.5q-55 0 -103.5 23.5t-89 51t-77.5 50t-70 22.5q-12 0 -22.5 -4t-21.5 -18t-22.5 -42t-27.5 -75h-90zM252 473q0 -104 13.5 -176t58.5 -113q61 -61 229 -61 q74 0 127 17.5t88 58.5t51.5 106.5t16.5 161.5q0 98 -12.5 169t-53.5 112q-31 33 -87 48t-146 15q-74 0 -128.5 -16.5t-89 -56.5t-51 -104.5t-16.5 -160.5z" />
<glyph unicode="&#xf6;" horiz-adv-x="1091" d="M90 446q0 139 41 237.5t109.5 160t156.5 90.5t183 29q221 0 321 -120t100 -351q0 -139 -40.5 -237.5t-109.5 -162t-157 -92.5t-182 -29q-221 0 -321.5 123t-100.5 352zM184 1194q0 68 27 95.5t104 27.5q76 0 100.5 -27.5t24.5 -95.5t-24.5 -99.5t-100.5 -31.5 q-78 0 -104.5 31.5t-26.5 99.5zM252 473q0 -104 13.5 -176t58.5 -113q61 -61 229 -61q74 0 127 17.5t88 58.5t51.5 106.5t16.5 161.5q0 98 -12.5 169t-53.5 112q-31 33 -87 48t-146 15q-74 0 -128.5 -16.5t-89 -56.5t-51 -104.5t-16.5 -160.5zM647 1194q0 68 26.5 95.5 t104.5 27.5t102.5 -27.5t24.5 -95.5t-24.5 -99.5t-102.5 -31.5t-104.5 31.5t-26.5 99.5z" />
<glyph unicode="&#xf7;" horiz-adv-x="995" d="M84 426l6 111h817l6 -111h-829zM395 193q0 41 30 72.5t77 31.5t75.5 -31.5t28.5 -72.5t-28.5 -74t-75.5 -33t-77 33t-30 74zM395 766q0 41 29 73.5t76 32.5t76.5 -32.5t29.5 -73.5t-29.5 -74t-76.5 -33t-76 33t-29 74z" />
<glyph unicode="&#xf8;" horiz-adv-x="1091" d="M63 -264l181 309q-78 59 -116 160.5t-38 243.5q0 139 41 236t109.5 158.5t156.5 90.5t183 29q53 0 96 -7.5t82 -19.5l168 289h123l-199 -336q78 -59 114.5 -157.5t36.5 -239.5q0 -139 -40.5 -237.5t-109.5 -161t-157 -91.5t-182 -29q-51 0 -96 6.5t-84 22.5l-154 -266 h-115zM252 473q0 -104 14.5 -174t57.5 -115l354 613q-51 14 -141 14q-74 0 -128.5 -16.5t-89 -55.5t-51 -104.5t-16.5 -161.5zM414 139q51 -14 139 -14q74 0 127 17.5t88 57.5t51.5 105.5t16.5 161.5q0 98 -13.5 168t-52.5 113z" />
<glyph unicode="&#xf9;" horiz-adv-x="1148" d="M20 825v109h312v-608q0 -57 9 -97.5t31.5 -63t60.5 -32.5t93 -10q84 0 154 25.5t123 70.5v248v295l-4 8l-162 55v109h311v-727l4 -8l154 -60v-53l-285 -127l-18 180h-19q-119 -166 -297 -166q-84 0 -142 17.5t-94 54.5t-51.5 94.5t-15.5 136.5v486l-4 8zM190 1423h226 l202 -366h-116z" />
<glyph unicode="&#xfa;" horiz-adv-x="1148" d="M20 825v109h312v-608q0 -57 9 -97.5t31.5 -63t60.5 -32.5t93 -10q84 0 154 25.5t123 70.5v248v295l-4 8l-162 55v109h311v-727l4 -8l154 -60v-53l-285 -127l-18 180h-19q-119 -166 -297 -166q-84 0 -142 17.5t-94 54.5t-51.5 94.5t-15.5 136.5v486l-4 8zM428 1057 l201 366h227l-311 -366h-117z" />
<glyph unicode="&#xfb;" horiz-adv-x="1148" d="M20 825v109h312v-608q0 -57 9 -97.5t31.5 -63t60.5 -32.5t93 -10q84 0 154 25.5t123 70.5v248v295l-4 8l-162 55v109h311v-727l4 -8l154 -60v-53l-285 -127l-18 180h-19q-119 -166 -297 -166q-84 0 -142 17.5t-94 54.5t-51.5 94.5t-15.5 136.5v486l-4 8zM221 1057 l178 389h287l178 -389h-114l-197 299h-18l-199 -299h-115z" />
<glyph unicode="&#xfc;" horiz-adv-x="1148" d="M20 825v109h312v-608q0 -57 9 -97.5t31.5 -63t60.5 -32.5t93 -10q84 0 154 25.5t123 70.5v248v295l-4 8l-162 55v109h311v-727l4 -8l154 -60v-53l-285 -127l-18 180h-19q-119 -166 -297 -166q-84 0 -142 17.5t-94 54.5t-51.5 94.5t-15.5 136.5v486l-4 8zM172 1194 q0 68 26.5 95.5t104.5 27.5q76 0 100.5 -27.5t24.5 -95.5t-24.5 -99.5t-100.5 -31.5q-78 0 -104.5 31.5t-26.5 99.5zM635 1194q0 68 26.5 95.5t104.5 27.5t102.5 -27.5t24.5 -95.5t-24.5 -99.5t-102.5 -31.5t-104.5 31.5t-26.5 99.5z" />
<glyph unicode="&#xfd;" horiz-adv-x="1015" d="M-37 823v111h416v-148h-103l-4 -8l232 -663h26l220 645l-5 12l-141 51v111h412v-148h-115l-10 -8l-287 -778l-57 -164q-53 -158 -130 -232.5t-210 -74.5q-121 0 -176.5 36t-55.5 107q0 53 21.5 75t75.5 22q59 0 90 -22.5t53 -86.5q6 -2 21 -2h12q27 6 49 17.5t43.5 35 t42 62.5t41.5 100l47 127h-59l-287 762l-10 10zM408 1057l200 366h228l-312 -366h-116z" />
<glyph unicode="&#xfe;" horiz-adv-x="1114" d="M2 1225v51l305 106v-579h10q61 66 139.5 104.5t164.5 38.5q121 0 198.5 -33.5t122.5 -94t61.5 -145t16.5 -184.5q0 -96 -25.5 -188t-78 -165t-134.5 -118t-196 -45q-88 0 -148.5 25t-120.5 72h-10v-334l4 -8l160 -56v-110h-440v149h123l6 8v1422l-4 10zM307 162 q45 -14 113.5 -24.5t161.5 -10.5q147 0 208.5 73t61.5 249q0 102 -13.5 169.5t-46 106.5t-85 54.5t-132.5 15.5t-147.5 -14.5t-120.5 -35.5v-583z" />
<glyph unicode="&#xff;" horiz-adv-x="1015" d="M-37 823v111h416v-148h-103l-4 -8l232 -663h26l220 645l-5 12l-141 51v111h412v-148h-115l-10 -8l-287 -778l-57 -164q-53 -158 -130 -232.5t-210 -74.5q-121 0 -176.5 36t-55.5 107q0 53 21.5 75t75.5 22q59 0 90 -22.5t53 -86.5q6 -2 21 -2h12q27 6 49 17.5t43.5 35 t42 62.5t41.5 100l47 127h-59l-287 762l-10 10zM141 1194q0 68 27 95.5t104 27.5q76 0 100.5 -27.5t24.5 -95.5t-24.5 -99.5t-100.5 -31.5q-78 0 -104.5 31.5t-26.5 99.5zM604 1194q0 68 26.5 95.5t104.5 27.5t102.5 -27.5t24.5 -95.5t-24.5 -99.5t-102.5 -31.5t-104.5 31.5 t-26.5 99.5z" />
<glyph unicode="&#x152;" horiz-adv-x="1978" d="M109 614q0 170 35.5 295t121.5 208t227.5 123t350.5 40h1003v-381h-114l-54 191q-4 16 -12 24t-35.5 12t-82 5.5t-152.5 1.5h-248v-428h100q55 0 84 1t42.5 5t18.5 12t13 22l57 136h99l-45 -447h-99l-26 137q0 6 -2 9.5t-15.5 5.5t-42 3t-84.5 1h-100v-443h242 q100 0 155.5 3.5t83 8.5t35.5 13t14 18l78 185h117l-41 -375h-1002q-358 0 -540 146.5t-182 467.5zM279 666q0 -150 33.5 -250.5t106.5 -160.5t188.5 -85t279.5 -23q4 0 19.5 1.5t31.5 1.5h45v976l-205 7q-266 -2 -382.5 -114t-116.5 -353z" />
<glyph unicode="&#x153;" horiz-adv-x="1699" d="M90 449q0 139 41 236t109.5 158.5t156.5 90.5t183 29q123 0 206.5 -38t135.5 -114q53 78 137 115t198 37q190 0 278.5 -89.5t88.5 -291.5l-37 -142l-596 9v-3q0 -86 13.5 -146t44 -98t84 -56.5t133.5 -18.5q104 0 193 34t161 75l8 -48q-25 -51 -65.5 -91t-91 -67.5 t-107.5 -42t-117 -14.5q-141 0 -222 44t-128 133q-70 -94 -171 -135.5t-214 -41.5q-221 0 -321.5 123t-100.5 353zM252 473q0 -104 13.5 -175t58.5 -112q61 -61 229 -61q74 0 127 17.5t88 57.5t51.5 105.5t16.5 161.5q0 98 -12.5 169t-53.5 112q-31 33 -87 48t-146 15 q-74 0 -128.5 -16.5t-89 -55.5t-51 -104.5t-16.5 -161.5zM995 553h473q-4 82 -16 132t-39 79t-73 39t-117 10q-63 0 -104.5 -11t-67 -40t-38 -80t-18.5 -129z" />
<glyph unicode="&#x178;" horiz-adv-x="1210" d="M-25 1169v111h471v-147h-122l-5 -9l285 -493h31l270 487l-4 8l-147 43v111h465v-147h-146l-8 -9l-379 -626v-326l4 -8l207 -53v-111h-567v147h188l2 9v344l-385 616l-10 10zM244 1540q0 68 26.5 95.5t104.5 27.5q76 0 100.5 -27.5t24.5 -95.5t-24.5 -99.5t-100.5 -31.5 q-78 0 -104.5 32t-26.5 99zM707 1540q0 68 26.5 95.5t104.5 27.5t102.5 -27.5t24.5 -95.5t-25 -99.5t-102 -31.5q-78 0 -104.5 32t-26.5 99z" />
<glyph unicode="&#x2c6;" horiz-adv-x="819" d="M70 1057l178 389h287l178 -389h-115l-197 299h-18l-199 -299h-114z" />
<glyph unicode="&#x2dc;" horiz-adv-x="819" d="M53 1073q10 68 22.5 121t33 89t52.5 54.5t81 18.5q55 0 103 -22.5t90 -50.5t78 -51.5t69 -23.5q12 0 22 4.5t20.5 18.5t22.5 43t27 76h92q-10 -68 -22.5 -121t-33 -90t-52 -55.5t-80.5 -18.5q-55 0 -103.5 23.5t-89.5 51t-78 50t-69 22.5q-12 0 -22.5 -4t-22 -18 t-22.5 -42t-28 -75h-90z" />
<glyph unicode="&#x2000;" horiz-adv-x="896" />
<glyph unicode="&#x2001;" horiz-adv-x="1792" />
<glyph unicode="&#x2002;" horiz-adv-x="896" />
<glyph unicode="&#x2003;" horiz-adv-x="1792" />
<glyph unicode="&#x2004;" horiz-adv-x="597" />
<glyph unicode="&#x2005;" horiz-adv-x="448" />
<glyph unicode="&#x2006;" horiz-adv-x="298" />
<glyph unicode="&#x2007;" horiz-adv-x="298" />
<glyph unicode="&#x2008;" horiz-adv-x="224" />
<glyph unicode="&#x2009;" horiz-adv-x="358" />
<glyph unicode="&#x200a;" horiz-adv-x="99" />
<glyph unicode="&#x2010;" horiz-adv-x="647" d="M74 428v137h504v-137h-504z" />
<glyph unicode="&#x2011;" horiz-adv-x="647" d="M74 428v137h504v-137h-504z" />
<glyph unicode="&#x2012;" horiz-adv-x="647" d="M74 428v137h504v-137h-504z" />
<glyph unicode="&#x2013;" horiz-adv-x="962" d="M82 428v137h799v-137h-799z" />
<glyph unicode="&#x2014;" horiz-adv-x="1925" d="M82 428v137h1761v-137h-1761z" />
<glyph unicode="&#x2018;" horiz-adv-x="489" d="M72 946q0 57 19.5 108.5t59 100.5t100 100.5t142.5 110.5l33 -33q-82 -102 -132 -178t-50 -135q0 -53 41 -84t127 -51q0 -72 -33 -108t-107 -36q-80 0 -140 48.5t-60 156.5z" />
<glyph unicode="&#x2019;" horiz-adv-x="489" d="M63 754q82 102 132.5 177t50.5 134q0 53 -41 85t-127 50q0 72 33.5 107.5t107.5 35.5q39 0 75 -11t63.5 -35.5t44 -63.5t16.5 -92q0 -115 -79 -209t-243 -211z" />
<glyph unicode="&#x201a;" horiz-adv-x="489" d="M63 -350q82 102 132.5 177t50.5 134q0 53 -41 85t-127 50q0 72 33.5 108t107.5 36q39 0 75 -11.5t63.5 -36t44 -63.5t16.5 -92q0 -115 -79 -209t-243 -211z" />
<glyph unicode="&#x201c;" horiz-adv-x="956" d="M72 946q0 57 19.5 108.5t59 100.5t100 100.5t142.5 110.5l33 -33q-82 -102 -132 -178t-50 -135q0 -53 41 -84t127 -51q0 -72 -33 -108t-107 -36q-80 0 -140 48.5t-60 156.5zM537 946q0 57 19 108.5t59 100.5t101.5 100.5t143.5 110.5l33 -33q-82 -102 -132 -178t-50 -135 q0 -53 41 -84t127 -51q0 -72 -33 -108t-107 -36q-80 0 -141 48.5t-61 156.5z" />
<glyph unicode="&#x201d;" horiz-adv-x="956" d="M63 756q82 102 132.5 177t50.5 134q0 53 -41 85t-127 50q0 72 33.5 108t107.5 36q39 0 75 -11.5t63.5 -36t44 -63.5t16.5 -94q0 -57 -19.5 -108.5t-59.5 -100.5t-100.5 -99.5t-142.5 -109.5zM530 756q82 102 132.5 177t50.5 134q0 53 -41 85t-127 50q0 72 32.5 108 t106.5 36q80 0 140.5 -48t60.5 -157q0 -57 -19.5 -108.5t-59.5 -100.5t-100.5 -99.5t-142.5 -109.5z" />
<glyph unicode="&#x201e;" horiz-adv-x="956" d="M63 -350q82 102 132.5 177t50.5 134q0 53 -41 85t-127 50q0 72 33.5 108t107.5 36q39 0 75 -11.5t63.5 -36t44 -63.5t16.5 -94q0 -57 -19.5 -108.5t-59.5 -100.5t-100.5 -100.5t-142.5 -108.5zM530 -350q82 102 132.5 177t50.5 134q0 53 -41 85t-127 50q0 72 32.5 108 t106.5 36q80 0 140.5 -48t60.5 -157q0 -57 -19.5 -108.5t-59.5 -100.5t-100.5 -100.5t-142.5 -108.5z" />
<glyph unicode="&#x2022;" horiz-adv-x="931" d="M72 475q0 23 12 63t30.5 83t39 80.5t34.5 52.5q16 16 53.5 35.5t80.5 37t83.5 29.5t61.5 12q23 0 62.5 -12t82.5 -29.5t81 -37t52 -35.5q16 -14 36 -52t37.5 -81t29.5 -83t12 -63t-12 -62.5t-29.5 -82.5t-37 -81t-36.5 -54q-14 -14 -52 -35t-81 -38.5t-84 -29.5t-63 -12 q-20 0 -61.5 12t-84.5 29.5t-79.5 38t-51.5 35.5q-14 16 -34.5 54t-39 81t-30.5 83t-12 62z" />
<glyph unicode="&#x2026;" horiz-adv-x="1466" d="M109 106q0 74 28.5 106t112.5 32q82 0 107.5 -32t25.5 -106q0 -76 -25.5 -108.5t-107.5 -32.5q-84 0 -112.5 33t-28.5 108zM598 106q0 74 27.5 106t111.5 32q82 0 107.5 -32t25.5 -106q0 -76 -25.5 -108.5t-107.5 -32.5q-84 0 -111.5 33t-27.5 108zM1087 106q0 74 28 106 t112 32q82 0 107.5 -32t25.5 -106q0 -76 -25.5 -108.5t-107.5 -32.5q-84 0 -112 33t-28 108z" />
<glyph unicode="&#x202f;" horiz-adv-x="358" />
<glyph unicode="&#x2039;" horiz-adv-x="708" d="M96 393v166l486 301l12 -112l-373 -256v-31l373 -256l-12 -115z" />
<glyph unicode="&#x203a;" horiz-adv-x="708" d="M115 205l372 256v31l-372 256l12 112l483 -301v-166l-483 -303z" />
<glyph unicode="&#x205f;" horiz-adv-x="448" />
<glyph unicode="&#x20ac;" horiz-adv-x="1081" d="M27 428l8 104h137q-2 16 -2 34v34v58.5t2 56.5h-137l-8 104h151q16 131 56 221t107 146.5t162 81t220 24.5q98 0 160.5 -11t98.5 -33.5t48 -54.5t12 -73q0 -37 -17 -52t-64 -15q-37 0 -64 4t-50.5 14t-47 28.5t-54.5 47.5q-2 0 -11 1t-21.5 2t-24.5 1h-18 q-135 0 -216 -75t-106 -257h510l-8 -104h-524q-2 -16 -2 -33.5v-38.5q0 -29 1 -57.5t3 -53.5h522l8 -104h-508q12 -94 41 -153.5t72 -92t101.5 -44t133.5 -11.5q104 0 186.5 34t153.5 75l9 -48q-51 -104 -142.5 -159.5t-232.5 -55.5q-223 0 -346 105.5t-152 349.5h-147z" />
<glyph unicode="&#x2122;" horiz-adv-x="2060" d="M74 1016l26 266h719v-266h-94l-29 125q-6 29 -46 33t-95 4h-45v-527l2 -6l150 -43v-86h-400v117h125l6 6v539h-49q-39 0 -83 -5.5t-54 -31.5l-37 -125h-96zM920 1196v86h352l168 -604h24l195 604h323v-117h-112l-4 -6l8 -508l4 -6l131 -43v-86h-362v117h106l4 6v520h-26 l-220 -616h-135l-198 614h-27l-8 -506l2 -6l131 -43v-86h-342v117h108l2 6l11 508l-2 6z" />
<glyph unicode="&#x25fc;" horiz-adv-x="931" d="M0 0v932h932v-932h-932z" />
<glyph unicode="&#xfb01;" horiz-adv-x="1173" d="M37 774v57l156 76v33q0 121 29.5 206t86 139t136 79t180.5 25q178 0 255.5 -47.5t77.5 -124.5q0 -47 -19 -61.5t-67 -14.5q-39 0 -80.5 19.5t-91.5 72.5q-45 10 -110 10q-129 0 -188.5 -67.5t-59.5 -235.5v-47h467q2 0 27.5 11t56.5 26q37 16 84 35v-793q0 -4 6 -8 l139 -53v-111h-430v147h133q6 0 6 9v608h-489v-588q0 -4 2 -6q4 -4 4 -6l199 -53v-111h-492v147h138q4 0 4 9v583z" />
<glyph unicode="&#xfb02;" horiz-adv-x="1161" d="M37 774v57l156 76v33q0 121 29.5 206t86 139t136 79t180.5 25q78 0 137 -16.5t100 -45.5l115 55v-1210q0 -4 6 -8l139 -53v-111h-430v147h133q6 0 6 9v608h-489v-588q0 -4 2 -6q4 -4 4 -6l199 -53v-111h-492v147h138q4 0 4 9v583zM342 893h489v252q-59 12 -131 86 q-20 6 -49.5 9t-58.5 3q-129 0 -189.5 -67.5t-60.5 -235.5v-47z" />
<glyph unicode="&#xfb03;" horiz-adv-x="1806" d="M37 774v57l156 76v64q0 199 91 294t251 95q117 0 195.5 -46t78.5 -124l-16 -51q-47 31 -113 51q-35 12 -75 20.5t-81 8.5q-96 0 -139 -54.5t-43 -169.5v-102h485v47q0 121 30 206t86 139t136 79t181 25q178 0 255.5 -47.5t77.5 -124.5q0 -47 -19.5 -61.5t-66.5 -14.5 q-39 0 -81 19.5t-93 72.5q-45 10 -108 10q-129 0 -188.5 -67.5t-59.5 -235.5v-47h467l168 72v-793q0 -4 6 -8l139 -53v-111h-430v147h133q6 0 6 9v608h-489v-588q0 -4 2 -6q4 -4 4 -6l199 -53v-111h-492v147h137q4 0 4 9v608h-489v-588q0 -4 2 -6q4 -4 4 -6l199 -53v-111 h-492v147h138q4 0 4 9v583z" />
<glyph unicode="&#xfb04;" horiz-adv-x="1796" d="M37 774v57l156 76v64q0 199 91 294t251 95q117 0 195.5 -46t78.5 -124l-16 -51q-41 27 -113 51q-80 29 -156 29q-96 0 -139 -54.5t-43 -169.5v-102h485v47q0 121 30 206t86 139t136 79t181 25q78 0 137 -16.5t100 -45.5l115 55v-1210q0 -4 6 -8l139 -53v-111h-430v147 h133q6 0 6 9v608h-489v-588q0 -4 2 -6q4 -4 4 -6l199 -53v-111h-492v147h137q4 0 4 9v608h-489v-588q0 -4 2 -6q4 -4 4 -6l199 -53v-111h-492v147h138q4 0 4 9v583zM977 893h489v252q-33 6 -64.5 27.5t-68.5 58.5q-18 6 -48 9t-60 3q-129 0 -188.5 -67.5t-59.5 -235.5v-47z " />
</font>
</defs>
</svg>
