<?xml version="1.0" standalone="no"?>
<!DOCTYPE svg PUBLIC "-//W3C//DTD SVG 1.1//EN" "http://www.w3.org/Graphics/SVG/1.1/DTD/svg11.dtd" >
<svg xmlns="http://www.w3.org/2000/svg">
<metadata></metadata>
<defs>
<font id="freightmicro_mediumregular" horiz-adv-x="1404" >
<font-face units-per-em="2048" ascent="1638" descent="-410" />
<missing-glyph horiz-adv-x="425" />
<glyph horiz-adv-x="0" />
<glyph unicode="&#xd;" horiz-adv-x="425" />
<glyph unicode=" "  horiz-adv-x="425" />
<glyph unicode="&#x09;" horiz-adv-x="425" />
<glyph unicode="&#xa0;" horiz-adv-x="425" />
<glyph unicode="!" horiz-adv-x="561" d="M143 106q0 74 28 104t112 30t109.5 -30t25.5 -104t-25.5 -105.5t-109.5 -31.5t-112 32t-28 105zM159 1252q-1 36 10 54.5t36.5 23.5t75.5 5h4q49 0 74.5 -5t37 -23.5t10.5 -54t-8 -95.5l-84 -776q0 -4 -10 -6t-22.5 -2t-22.5 2t-10 6l-84 776q-6 59 -7 95z" />
<glyph unicode="&#x22;" horiz-adv-x="942" d="M49 797l203 483h205v-86l-299 -397h-109zM459 797l203 483h204v-86l-299 -397h-108z" />
<glyph unicode="#" horiz-adv-x="1239" d="M14 324v157h244l90 324h-262v158h307l119 401l131 -33l-102 -348h309l111 377l131 -33l-107 -364h240v-158h-244l-90 -324h262v-157h-307l-139 -480l-132 33l123 426h-309l-131 -455l-131 33l127 443h-240zM393 461h350l103 364h-350z" />
<glyph unicode="$" horiz-adv-x="1118" d="M66 391h155l60 -194q23 -8 41 -14.5t36 -10.5l107 399q-80 16 -149.5 40t-121 63t-81 98t-29.5 152q0 178 109.5 281.5t343.5 103.5q51 0 106 -6l53 198h131l-59 -221q20 -4 41.5 -10t40.5 -10l141 53v-408h-147l-56 180q-31 14 -77 25l-101 -375q92 -18 168 -40.5 t130.5 -63.5t84 -105.5t29.5 -167.5q0 -88 -26.5 -159.5t-84 -122.5t-149.5 -79t-225 -28q-59 0 -113 6l-84 -311h-131l90 334q-121 33 -203 76zM287 942q0 -82 50 -121t177 -67l98 370q-18 2 -35.5 3t-33.5 1q-137 0 -196.5 -43t-59.5 -143zM457 154q47 -6 100 -7 q80 0 131 14.5t80 40t40 61.5t11 77q0 49 -12 83t-42 56.5t-80 40t-124 31.5z" />
<glyph unicode="%" horiz-adv-x="1609" d="M51 969q0 109 34 180.5t86 114.5t115.5 60t121.5 17q160 0 230.5 -92t70.5 -252q0 -106 -34 -179t-86 -117t-114.5 -62t-122.5 -18q-160 0 -230.5 94t-70.5 254zM182 -39l1071 1354h177l-1076 -1354h-172zM195 987q0 -61 6 -106t26.5 -74t57.5 -42t100 -13q96 0 136 52 t40 175q0 61 -6 105t-25.5 72t-56.5 40t-100 12q-98 0 -138 -49t-40 -172zM901 281q0 109 34 180t86 114t115.5 60.5t120.5 17.5q160 0 231 -92t71 -252q0 -106 -34 -179t-86.5 -117t-114.5 -62.5t-122 -18.5q-160 0 -230.5 94.5t-70.5 254.5zM1044 299q0 -61 6.5 -106.5 t27 -74t57 -42t100.5 -13.5q96 0 136 52.5t40 175.5q0 61 -6 105t-25.5 72t-56.5 40t-100 12q-98 0 -138.5 -49t-40.5 -172z" />
<glyph unicode="&#x26;" horiz-adv-x="1456" d="M49 330q0 68 23.5 124t63.5 96t91.5 63.5t108.5 27.5v31q-43 14 -79 36.5t-60.5 58.5t-38 87t-13.5 125q0 145 98.5 237.5t288.5 92.5q193 0 284 -80t91 -234q0 -57 -21.5 -109t-57 -91t-82 -62.5t-97.5 -27.5v-31q90 -29 155.5 -97.5t119.5 -185.5h30l199 326l-4 10 l-162 45v111h447v-164h-91l-18 -8l-311 -406q59 -78 121.5 -128t115.5 -50q47 0 104.5 9t98.5 20v-39q-35 -66 -107.5 -107t-152.5 -41q-102 0 -170 58.5t-111 142.5h-30q-29 -47 -72 -84t-94 -63.5t-108.5 -40t-112.5 -13.5q-223 0 -335 95.5t-112 265.5zM225 344 q0 -111 85 -157t214 -46q123 0 194 34t122 87q-47 72 -89 125t-90.5 93t-106.5 72t-138 60q-102 -59 -146.5 -136t-44.5 -132zM322 995q0 -61 17 -98t49 -63.5t79 -47t106 -49.5q82 57 121 123t39 119q0 82 -46 127t-177 45q-61 0 -98 -12.5t-57.5 -34t-26.5 -49t-6 -60.5z " />
<glyph unicode="'" horiz-adv-x="512" d="M29 797l202 483h205v-86l-299 -397h-108z" />
<glyph unicode="(" horiz-adv-x="763" d="M143 446q0 193 55.5 352.5t140.5 283.5t186.5 211t193.5 132l76 -108q-84 -45 -172 -127t-161 -193.5t-119 -250t-46 -300.5t46 -300t119 -249.5t161 -192.5t172 -126l-74 -110q-92 45 -193.5 132t-187.5 210.5t-141.5 283.5t-55.5 352z" />
<glyph unicode=")" horiz-adv-x="763" d="M-31 -422q84 45 172 126t161 192.5t119 250t46 299.5q0 162 -46 300.5t-119 250t-161 193.5t-172 127l76 108q92 -45 193.5 -132t186.5 -211t140.5 -283.5t55.5 -352.5t-55.5 -352.5t-141.5 -283t-187.5 -210.5t-193.5 -132z" />
<glyph unicode="*" horiz-adv-x="858" d="M78 1133l33 45l157 -23l127 -199l39 13l-4 237l107 105l53 -19l26 -149l-151 -187l24 -32l226 82l131 -74v-53l-131 -74l-226 82l-24 -31l147 -186l-26 -152l-54 -14l-110 106l10 238l-37 10l-127 -192l-153 -25l-33 45l68 143l223 58v45l-223 63z" />
<glyph unicode="+" horiz-adv-x="1003" d="M88 408l6 145h340v346h144v-346h335l7 -145h-342v-349h-144v349h-346z" />
<glyph unicode="," horiz-adv-x="522" d="M76 -319q92 111 143 189.5t51 139.5q0 51 -40 83t-138 54q0 72 34 114t118 42q43 0 83 -11t69.5 -37t48 -68t18.5 -103q0 -63 -20.5 -116.5t-63.5 -104.5t-108.5 -103.5t-157.5 -115.5z" />
<glyph unicode="-" horiz-adv-x="647" d="M74 418v157h504v-157h-504z" />
<glyph unicode="." horiz-adv-x="522" d="M113 117q0 82 30.5 114.5t122.5 32.5q90 0 119 -32.5t29 -114.5t-29 -117t-119 -35q-92 0 -122.5 35t-30.5 117z" />
<glyph unicode="/" horiz-adv-x="571" d="M4 -408l453 1846h147l-452 -1846h-148z" />
<glyph unicode="0" horiz-adv-x="1116" d="M88 467q0 154 48 256t123 163.5t165 87t174 25.5q227 0 328.5 -131t101.5 -358q0 -154 -48 -257t-123 -166.5t-165 -90.5t-174 -27q-113 0 -194.5 35t-134 100.5t-77 157.5t-24.5 205zM279 494q0 -92 9 -159t39.5 -110t87 -62.5t150.5 -19.5q143 0 206 78t63 262 q0 92 -9.5 158t-40 106.5t-87 59t-150.5 18.5q-143 0 -205.5 -73.5t-62.5 -257.5z" />
<glyph unicode="1" horiz-adv-x="768" d="M78 780v97l428 122v-825q0 -4 6 -8l176 -78v-88h-557v170h205q4 0 4 8v592z" />
<glyph unicode="2" horiz-adv-x="978" d="M49 743q23 55 58.5 103.5t87 84.5t118 56.5t148.5 20.5q178 0 260 -70t82 -188q0 -88 -34 -151.5t-104.5 -124t-182 -129.5t-267.5 -171v-20h125q141 0 223 3t125 8t56.5 10t15.5 9l71 166h97l-37 -350h-811l-21 209q94 70 190.5 129t174.5 116.5t127 119t49 135.5 q0 55 -41 87.5t-143 32.5q-78 0 -175.5 -34.5t-183.5 -100.5z" />
<glyph unicode="3" horiz-adv-x="907" d="M-10 -213q0 49 22.5 70.5t75.5 21.5q68 0 108 -31.5t87 -103.5q25 -4 59.5 -6t75.5 -2q53 0 99 17.5t81 48t55.5 71.5t20.5 88q0 119 -61.5 165t-206.5 46q-29 0 -51.5 -1t-47 -2t-53.5 -3t-68 -6l-18 164q72 39 148.5 80.5t141 87t106.5 94.5t42 102q0 68 -53 104.5 t-156 36.5q-88 0 -177 -31.5t-187 -103.5l-8 49q23 53 59.5 101.5t89.5 84.5t120.5 57.5t149.5 21.5q176 0 270.5 -81t94.5 -208q0 -78 -35 -135.5t-94 -103.5t-139 -86l-170 -85v-24q39 10 89 16t91 6q143 0 230 -75.5t87 -233.5q0 -92 -37.5 -171t-106.5 -135.5t-163 -89 t-205 -32.5q-80 0 -147.5 13.5t-116.5 41t-75.5 68.5t-26.5 94z" />
<glyph unicode="4" horiz-adv-x="1042" d="M57 145l691 854l118 -8l-32 -817h194l-14 -154h-180l-17 -397h-166l17 397h-600zM262 174h406l30 537h-10z" />
<glyph unicode="5" horiz-adv-x="901" d="M18 -213q0 49 22.5 70.5t76.5 21.5q68 0 112.5 -31.5t73.5 -113.5h25q135 23 219 93.5t84 195.5q0 72 -29 126t-93.5 98t-168.5 79.5t-256 66.5l98 576h664l-29 -172h-498l-45 -279q129 -29 231.5 -68.5t173.5 -95t108.5 -128t37.5 -167.5q0 -115 -44 -205t-117.5 -152 t-168 -96t-194.5 -34q-162 0 -222.5 53t-60.5 162z" />
<glyph unicode="6" horiz-adv-x="1095" d="M88 475q0 152 55.5 291t161 255t259 202t349.5 131l41 -111q-150 -53 -263 -118.5t-194 -139.5t-133.5 -153.5t-80.5 -163.5l26 -11q39 49 75 83t74 55.5t81 31t96 9.5q201 0 287 -105.5t86 -298.5q0 -213 -107.5 -338t-335.5 -125q-121 0 -211 36t-149.5 101.5 t-88 158.5t-28.5 210zM276 465q0 -74 15.5 -133.5t51.5 -101.5t93.5 -64.5t143.5 -22.5q76 0 124 15.5t75.5 46.5t38.5 78.5t11 113.5t-11 118t-39.5 89t-78 56.5t-125.5 19.5q-80 0 -154.5 -27.5t-127.5 -85.5q-8 -16 -12.5 -44.5t-4.5 -57.5z" />
<glyph unicode="7" horiz-adv-x="1007" d="M63 588l39 381h830l10 -181l-586 -1165h-182l612 1114v47h-202q-141 0 -215 -3t-106 -9t-35 -13t-5 -16l-43 -155h-117z" />
<glyph unicode="8" horiz-adv-x="1071" d="M80 330q0 137 71.5 201.5t190.5 86.5v31q-98 20 -162.5 96t-64.5 211q0 162 107.5 258.5t324.5 96.5q213 0 312 -83t99 -253q0 -123 -59 -185.5t-176 -87.5v-30q123 -27 195.5 -107.5t72.5 -234.5q0 -80 -26.5 -145.5t-84 -113.5t-145.5 -75t-209 -27t-205.5 24.5 t-138 71t-78 114t-24.5 151.5zM256 344q0 -111 81 -163t210 -52q88 0 140 16.5t81 43t38 58t9 62.5q0 70 -26.5 115t-75.5 76.5t-120 56.5t-157 55q-55 -27 -90 -61.5t-54.5 -71.5t-27.5 -71.5t-8 -63.5zM291 975q0 -59 19.5 -98t60.5 -68t104.5 -51.5t153.5 -48.5 q39 25 67.5 58.5t48 67t28.5 65t9 56.5q0 92 -60 142.5t-200 50.5q-72 0 -117 -13.5t-70.5 -37t-34.5 -55t-9 -68.5z" />
<glyph unicode="9" horiz-adv-x="1095" d="M88 535q0 213 107.5 337.5t334.5 124.5q121 0 211 -35.5t149.5 -101t88.5 -158.5t29 -210q0 -152 -55.5 -291.5t-161 -255t-259 -201.5t-350.5 -131l-41 111q150 53 263.5 118.5t194.5 139t134 154.5t80 163l-27 10q-39 -49 -74.5 -82.5t-73.5 -55t-81 -31t-96 -9.5 q-201 0 -287 105.5t-86 298.5zM266 569q0 -66 11.5 -118t40 -88.5t77.5 -56t125 -19.5q80 0 155 27.5t128 84.5q8 16 12 45t4 58q0 74 -15.5 133t-51 101t-93 64.5t-143.5 22.5q-76 0 -124 -15t-75.5 -46t-39 -79t-11.5 -114z" />
<glyph unicode=":" horiz-adv-x="522" d="M113 117q0 82 30.5 114.5t122.5 32.5q90 0 119 -32.5t29 -114.5t-29 -117t-119 -35q-92 0 -122.5 35t-30.5 117zM113 778q0 82 30.5 115t122.5 33q90 0 119 -33t29 -115q0 -80 -29 -114.5t-119 -34.5q-92 0 -122.5 34.5t-30.5 114.5z" />
<glyph unicode=";" horiz-adv-x="522" d="M76 -319q92 111 143 189.5t51 139.5q0 51 -40 83t-138 54q0 72 34 114t118 42q43 0 83 -11t69.5 -37t48 -68t18.5 -103q0 -63 -20.5 -116.5t-63.5 -104.5t-108.5 -103.5t-157.5 -115.5zM113 780q0 82 30.5 115t122.5 33q90 0 119 -33t29 -115t-29 -116.5t-119 -34.5 q-92 0 -122.5 34.5t-30.5 116.5z" />
<glyph unicode="&#x3c;" horiz-adv-x="983" d="M33 440v82l864 408l41 -146l-651 -292v-21l651 -291l-41 -145z" />
<glyph unicode="=" horiz-adv-x="962" d="M76 221l10 146h795l10 -146h-815zM76 739h815l-10 -145h-795z" />
<glyph unicode="&#x3e;" horiz-adv-x="983" d="M31 180l645 291v21l-645 292l37 146l862 -408v-82l-864 -405z" />
<glyph unicode="?" horiz-adv-x="743" d="M104 1206q0 33 6.5 52.5t25 30.5t52 15.5t91.5 4.5q102 0 180 -24.5t132 -69t81.5 -103.5t27.5 -131q0 -78 -22.5 -131t-59 -90t-80.5 -60.5t-87 -42.5q-63 -27 -109.5 -50t-46.5 -64q0 -33 31.5 -77t87.5 -95l-101 -6q-78 47 -120.5 99t-42.5 105q0 49 19 84t50 62.5 t71 49t79 40.5q35 16 68.5 32.5t59 36t41 44t15.5 55.5q0 63 -69.5 96t-198.5 33q-35 0 -74 -4t-80 -13q-10 0 -18.5 37t-8.5 84zM178 106q0 74 27.5 104t111.5 30t110 -30t26 -104t-26 -105.5t-110 -31.5t-111.5 32t-27.5 105z" />
<glyph unicode="@" horiz-adv-x="1708" d="M82 496q0 166 61.5 313t169 258t254 175.5t314.5 64.5q152 0 288 -47.5t239 -136.5t164.5 -214t61.5 -282q0 -135 -43 -240.5t-112.5 -179.5t-156.5 -112t-175 -38q-41 0 -80 8.5t-68.5 20.5t-46 27.5t-12.5 29.5l121 412h-39q-51 -98 -101.5 -181t-97.5 -142.5 t-90 -93.5t-84 -34q-43 0 -81 18.5t-66.5 46.5t-46 61.5t-17.5 64.5q0 59 19.5 137t51.5 156t75 148.5t88 115.5q53 53 110.5 79.5t110.5 26.5q66 0 117 -37.5t73 -111.5h23l45 111h109l-119 -324l-74 -442q23 -6 43 -13l45 -12q80 0 150.5 38t124 104.5t84 158t30.5 197.5 q0 135 -56 245.5t-149.5 189.5t-212 122t-245.5 43q-147 0 -277.5 -59.5t-225.5 -159t-150.5 -231.5t-55.5 -279q0 -139 48 -262t134 -214.5t205 -144.5t262 -53q66 0 128.5 11t123.5 30l23 -76q-72 -23 -137.5 -35t-141.5 -12q-160 0 -295 58.5t-233.5 159.5t-152.5 239.5 t-54 296.5zM580 326q0 -29 14 -50.5t33.5 -35t41 -20.5t36.5 -7q20 0 56 40t78 100.5t85 133t80 136.5q16 29 34.5 61.5t18.5 38.5q-8 18 -32 40.5t-54.5 44t-66.5 36t-70 14.5q-49 0 -74 -24q-27 -27 -58.5 -89.5t-59.5 -137.5t-45 -150.5t-17 -130.5z" />
<glyph unicode="A" horiz-adv-x="1269" d="M-2 0v170h135l4 8l340 1002v80l262 61l375 -1126l10 -11l158 -55v-129h-516v170h141l4 8l-77 242h-449l-72 -225l4 -9l150 -57v-129h-469zM434 565h350l-149 527h-41z" />
<glyph unicode="B" horiz-adv-x="1239" d="M68 1151v129h591q137 0 224.5 -21.5t136.5 -61.5t66.5 -95t17.5 -125q0 -76 -21.5 -129t-59.5 -88t-90 -55.5t-114 -32.5v-31q174 -16 252 -81t78 -206q0 -80 -20.5 -145.5t-71.5 -111.5t-137 -71.5t-220 -25.5h-612v170h154l4 8v903l-4 13zM436 170h131h107q86 0 138 8 t82 27.5t40 54.5t10 90q0 63 -18.5 106.5t-61.5 71t-114.5 40t-178.5 12.5h-135v-410zM436 705l127 2q96 2 160.5 16t103.5 43t54.5 72t15.5 102q0 51 -10 84t-38 52.5t-73 26.5t-117 7h-223v-405z" />
<glyph unicode="C" horiz-adv-x="1304" d="M104 604q0 184 35 317.5t110 219.5t192.5 127t283.5 41q129 0 202.5 -17.5t114.5 -34.5l142 52v-408h-148l-53 178q-25 12 -51.5 21.5t-60 15.5t-76.5 9t-101 3q-100 0 -171.5 -19t-119 -70.5t-70 -137.5t-22.5 -221q0 -172 16.5 -275.5t61.5 -161t125 -75.5t205 -18 q80 0 153.5 17t118.5 46l66 190h147l-39 -403l-116 43q-59 -31 -154.5 -52.5t-212.5 -21.5q-164 0 -274.5 35t-178 112t-96.5 196.5t-29 291.5z" />
<glyph unicode="D" d="M68 1151v129q145 2 262 4q49 0 97 1t86 1h62.5h26.5h19q179 0 305 -36q134 -38 216.5 -115.5t120 -196.5t37.5 -279q0 -166 -39.5 -289.5t-124.5 -205.5t-219.5 -123t-322.5 -41h-506v170h154l4 8v907l-4 9zM436 215l178 -45q117 2 206 25.5t150.5 77t92.5 139.5t31 215 q0 150 -30 244t-93.5 147t-163.5 72.5t-242 19.5h-69q-27 0 -60 -2v-893z" />
<glyph unicode="E" horiz-adv-x="1259" d="M68 1151v129h1071v-381h-138l-49 156q-6 20 -17 31.5t-49 16.5t-115 6t-214 1h-121v-399h35q70 0 107.5 1t58 6t30 15t19.5 29l57 119h113l-45 -447h-113l-28 129q-2 6 -6.5 10.5t-23.5 7.5t-58 4t-111 1h-35v-416h111q127 0 201.5 2t118.5 12.5t65.5 29.5t38.5 54 l51 103h137l-39 -371h-1032v170h154l4 8v907l-4 9z" />
<glyph unicode="F" horiz-adv-x="1167" d="M68 1151v129h1030v-381h-135l-50 156q-6 20 -17 31.5t-46 16.5t-105.5 6t-195.5 1h-113v-430h15q70 0 108.5 1t60 6t30.5 15.5t20 28.5l59 119h115l-41 -447h-115l-35 129q-2 6 -8 11.5t-25.5 7.5t-59.5 3t-109 1h-15v-360l4 -9l195 -57v-129h-547v170h154l4 8v907l-4 9z " />
<glyph unicode="G" horiz-adv-x="1372" d="M104 604q0 184 35 317.5t110 219.5t192.5 127t283.5 41q129 0 202.5 -17.5t114.5 -34.5l142 52v-408h-148l-53 178q-25 12 -51.5 21.5t-60 15.5t-76.5 9t-101 3q-117 0 -191.5 -26.5t-117.5 -81.5t-58.5 -139t-15.5 -201q0 -162 13.5 -265.5t56.5 -161.5t121 -80.5 t207 -22.5q88 0 150.5 11t107.5 27v252l-4 9l-195 57v129h516v-170h-133l-4 -8v-248l119 -25v-127q-117 -33 -266.5 -60.5t-297.5 -27.5q-172 0 -287.5 33t-184 107.5t-97.5 195.5t-29 299z" />
<glyph unicode="H" horiz-adv-x="1515" d="M68 1151v129h526v-170h-154l-4 -8v-375h633v358l-4 9l-174 57v129h526v-170h-153l-4 -8v-907l4 -9l174 -57v-129h-527v170h154l4 8v393h-633v-376l4 -9l174 -57v-129h-526v170h154l4 8v907l-4 9z" />
<glyph unicode="I" horiz-adv-x="722" d="M68 1151v129h567v-170h-174l-4 -8v-907l4 -9l194 -57v-129h-567v170h174l4 8v907l-4 9z" />
<glyph unicode="J" horiz-adv-x="866" d="M35 131q0 59 24.5 84t81.5 25q63 0 95 -22.5t53 -63.5l6 -13q4 -2 35 -2q43 0 68.5 7.5t40 30t18.5 65.5t4 116v727l-4 9l-215 57v129h587v-170h-174l-4 -8v-774q0 -190 -79.5 -274.5t-268.5 -84.5q-141 0 -204.5 41t-63.5 121z" />
<glyph unicode="K" horiz-adv-x="1390" d="M68 1151v129h526v-170h-154l-4 -8v-514l527 504v6l-70 26l-62 27v129h488v-170h-109l-10 -6l-412 -375l402 -534l12 -11l164 -55v-129h-535v170h130l4 8l-308 432l-221 -204v-211l4 -9l174 -57v-129h-526v170h154l4 8v907l-4 9z" />
<glyph unicode="L" horiz-adv-x="1136" d="M68 1151v129h567v-170h-193l-6 -8v-932h60q129 0 200.5 3t107.5 10t47 18.5t17 25.5l72 185h137l-39 -412h-950v170h154l4 8v907l-4 9z" />
<glyph unicode="M" horiz-adv-x="1830" d="M70 1151v129h516l288 -969h41l308 969h506v-170h-158l-6 -4l14 -911l4 -9l170 -57v-129h-532v170h163l5 8l-3 916h-40l-373 -1053h-185l-337 1051h-41l-13 -897l4 -9l136 -57v-129h-461v170h149l4 8l19 907l-4 9z" />
<glyph unicode="N" horiz-adv-x="1519" d="M68 1151v129h489l553 -1092h41v897l-4 9l-174 57v129h510v-170h-158l-4 -8v-1133h-303l-561 1102h-41v-876l4 -9l174 -57v-129h-506v170h154l4 8v907l-4 9z" />
<glyph unicode="O" d="M104 604q0 184 35 317.5t110 219.5t192.5 127t283.5 41q160 0 270.5 -35t178 -111t97 -195.5t29.5 -291.5q0 -184 -35.5 -317.5t-111.5 -220.5t-195.5 -128t-285.5 -41q-160 0 -269.5 35t-175 112t-94.5 196.5t-29 291.5zM311 680q0 -172 17.5 -275.5t62.5 -161 t122 -75.5t196 -18q100 0 172.5 20t120 70.5t70 137.5t22.5 222q0 172 -18.5 275.5t-63.5 160t-122 74.5t-196 18q-100 0 -171.5 -19t-119 -70.5t-70 -137.5t-22.5 -221z" />
<glyph unicode="P" horiz-adv-x="1189" d="M68 1151v129h540q262 0 384 -80.5t122 -273.5q0 -219 -122 -330t-330 -111q-61 0 -115.5 5.5t-110.5 17.5v-313l4 -9l195 -57v-129h-547v170h154l4 8v907l-4 9zM436 655q39 -8 86 -12t82 -4q86 0 143.5 14.5t93.5 47t51 82.5t15 122q0 59 -16.5 98t-55 63t-103 34 t-161.5 10h-135v-455z" />
<glyph unicode="Q" d="M104 604q0 184 35 317.5t110 219.5t192.5 127t283.5 41q160 0 270.5 -35t178 -111t97 -195.5t29.5 -291.5q0 -322 -110.5 -491t-358.5 -205q35 -68 80 -112t102.5 -70.5t127 -38t149.5 -13.5l13 -123q-39 -12 -82 -19t-95 -7q-70 0 -141.5 18t-138 61t-125.5 115 t-105 180q-143 6 -241.5 44t-158.5 115t-86 193.5t-26 280.5zM311 680q0 -172 17.5 -275.5t62.5 -161t122 -75.5t196 -18q100 0 172.5 20t120 70.5t70 137.5t22.5 222q0 172 -18.5 275.5t-63.5 160t-122 74.5t-196 18q-100 0 -171.5 -19t-119 -70.5t-70 -137.5t-22.5 -221z " />
<glyph unicode="R" horiz-adv-x="1255" d="M68 1151v129h561q145 0 239.5 -24.5t148.5 -69.5t75.5 -108.5t21.5 -141.5q0 -172 -69.5 -265t-208.5 -143l180 -333l10 -9l170 -57v-129h-311l-86 199l-135 313l-228 -20v-297l4 -9l174 -57v-129h-526v170h154l4 8v903l-4 13zM436 655l189 -22q141 29 211.5 90t70.5 176 q0 53 -9 93t-39 66.5t-85 39t-145 12.5h-193v-455z" />
<glyph unicode="S" horiz-adv-x="1128" d="M74 924q0 178 114.5 281.5t358.5 103.5q74 0 156.5 -13.5t156.5 -35.5l141 53v-408h-147l-55 178q-43 23 -113 34t-133 11q-158 0 -217.5 -44t-59.5 -142q0 -49 18.5 -81t58.5 -54.5t105.5 -38.5t157.5 -33q92 -16 169 -38.5t131.5 -63.5t85 -107t30.5 -168 q0 -88 -26.5 -159.5t-86 -122.5t-156.5 -79t-237 -28q-49 0 -105 5.5t-112.5 15.5t-109 23.5t-93.5 27.5l-30 350h155l60 -205q55 -14 124.5 -26.5t131.5 -12.5q156 0 219 42t63 151q0 55 -15 90t-52 58.5t-99.5 41t-156.5 35.5q-90 18 -169 40t-137.5 61t-92 100t-33.5 158 z" />
<glyph unicode="T" horiz-adv-x="1341" d="M53 854l37 426h1159v-426h-135l-45 201q-4 18 -13 32.5t-37 22.5t-82 12t-151 4h-24v-931l2 -9l197 -57v-129h-572v170h178l4 8v948h-34q-102 0 -161 -5t-89.5 -16t-40.5 -27.5t-15 -41.5l-32 -182h-146z" />
<glyph unicode="U" horiz-adv-x="1454" d="M27 1151v129h526v-170h-154l-4 -8v-545q0 -125 15.5 -206t54.5 -126t102.5 -62.5t161.5 -17.5q100 0 168 18.5t107.5 64.5t57 126t17.5 203v528l-4 9l-174 57v129h506v-170h-154l-4 -8v-610q0 -143 -32.5 -244t-99 -162t-167 -89t-237.5 -28q-135 0 -231.5 28t-158 90.5 t-90 161.5t-28.5 243v593l-4 9z" />
<glyph unicode="V" horiz-adv-x="1269" d="M-2 1151v129h516v-170h-141l-4 -8l272 -936h41l285 919l-4 9l-150 57v129h469v-170h-135l-4 -8l-377 -1112h-236l-364 1095l-10 11z" />
<glyph unicode="W" horiz-adv-x="1933" d="M-12 1151v129h518v-170h-133l-4 -8l196 -897h41l240 870l-4 10l-6 9l-148 57v129h590l-2 -170h-135l-4 -8l243 -903h41l189 886l-4 9l-154 57v129h483v-170h-135l-4 -8l-287 -1112h-237l-266 960h-41l-279 -960h-233l-283 1110l-10 10z" />
<glyph unicode="X" horiz-adv-x="1284" d="M14 1151v129h510v-170h-116l-5 -8l226 -350h41l225 333l-4 9l-123 57v129h471v-170h-135l-10 -8l-353 -434l359 -471l10 -11l168 -57v-129h-510v170h121l4 8l-244 377h-41l-231 -360l4 -9l135 -57v-129h-481v170h135l10 8l348 461l-335 444l-11 11z" />
<glyph unicode="Y" horiz-adv-x="1210" d="M-20 1151v129h481v-170h-113l-4 -8l260 -461h41l248 461l-4 8l-137 41v129h467v-170h-146l-6 -8l-367 -613v-294l2 -9l197 -57v-129h-571v170h178l4 8v318l-379 604l-10 10z" />
<glyph unicode="Z" horiz-adv-x="1185" d="M88 0v150l760 946v20h-154q-135 0 -210.5 -1t-112.5 -7t-48.5 -17.5t-17.5 -29.5l-49 -162h-147v381h993v-152l-760 -944v-20h156q139 0 217 3t115.5 10t48 18.5t16.5 25.5l74 191h137l-41 -412h-977z" />
<glyph unicode="[" horiz-adv-x="753" d="M170 -455v1837h567v-137h-415v-1562h415v-138h-567z" />
<glyph unicode="\" horiz-adv-x="571" d="M6 1438h148l452 -1846h-147z" />
<glyph unicode="]" horiz-adv-x="753" d="M18 -317h416v1562h-416v137h568v-1837h-568v138z" />
<glyph unicode="^" horiz-adv-x="819" d="M70 897l163 383h312l164 -383h-125l-185 272h-20l-184 -272h-125z" />
<glyph unicode="_" horiz-adv-x="962" d="M-18 0h999v-158h-999v158z" />
<glyph unicode="`" horiz-adv-x="819" d="M207 1427h250l194 -362h-135z" />
<glyph unicode="a" horiz-adv-x="1001" d="M68 240q0 72 30.5 128t101 99t185.5 70.5t281 42.5v67q0 63 -49.5 111.5t-163.5 48.5q-33 0 -69 -4t-63.5 -10.5t-46 -14.5t-18.5 -16q0 -4 2 -15.5t4 -25.5t4 -26.5t2 -16.5q0 -20 -22.5 -29.5t-89.5 -9.5q-51 0 -65.5 8t-14.5 27q0 72 33.5 127t91 92t131.5 56.5 t153 19.5q179 0 267 -74q86 -72 86 -248v-8v-444q0 -35 16 -47.5t61 -12.5q23 0 47.5 3t38.5 7q2 -18 3 -32v-41q-25 -45 -73 -74t-104 -29q-72 0 -112.5 35t-40.5 129h-21q-47 -74 -133 -119t-178 -45q-59 0 -109.5 20.5t-87 57.5t-57 86t-20.5 107zM256 258q0 -55 37 -91 t123 -36q68 0 138.5 25.5t111.5 54.5v260q-117 -20 -196 -40.5t-126 -45.5t-67.5 -55.5t-20.5 -71.5z" />
<glyph unicode="b" horiz-adv-x="1128" d="M-6 1214v50l328 118v-589h10q55 74 136 113.5t163 39.5q127 0 205.5 -32.5t125 -93t62.5 -143.5t16 -183q0 -96 -26.5 -190.5t-80.5 -168.5t-138 -120t-199 -46q-84 0 -144.5 23.5t-119.5 77.5h-10l-99 -101h-69v1143l-4 8zM322 166q37 -8 106.5 -13.5t157.5 -5.5 q72 0 121 14.5t79.5 48.5t44 91t13.5 143q0 100 -11.5 164t-41 99.5t-81 49t-132.5 13.5q-76 0 -143.5 -9t-112.5 -20v-575z" />
<glyph unicode="c" horiz-adv-x="980" d="M94 477q0 133 32 226.5t92.5 151.5t144 86t188.5 28q100 0 168.5 -15.5t111.5 -42.5t62.5 -67.5t19.5 -91.5q0 -49 -22.5 -71t-75.5 -22q-68 0 -107.5 32t-86.5 104q-25 4 -55.5 6t-59.5 2q-117 0 -170 -65.5t-53 -233.5q0 -98 12 -166t41 -110t77 -60t122 -18 q111 0 205 35.5t161 76.5l8 -49q-23 -57 -63.5 -102t-94 -77t-112.5 -48.5t-119 -16.5q-229 0 -327.5 126t-98.5 382z" />
<glyph unicode="d" horiz-adv-x="1175" d="M94 442q0 96 26.5 186.5t81 161t138.5 113.5t199 43q84 0 144 -23.5t120 -76.5h10v266l-4 8l-156 94v50l328 118v-1142l4 -9l154 -73v-49l-305 -160l-21 174h-10q-55 -74 -136 -114t-163 -40q-125 0 -205 36t-126 99.5t-62.5 150.5t-16.5 187zM291 492q0 -100 11 -167 t41 -107t81 -56.5t133 -16.5q76 0 143.5 9.5t112.5 19.5v576q-37 8 -106.5 13t-157.5 5q-72 0 -121 -10t-80 -41t-44 -85t-13 -140z" />
<glyph unicode="e" horiz-adv-x="1003" d="M94 477q0 133 34 226.5t95.5 151.5t147.5 86t192 28q373 0 373 -373l-41 -160l-612 6v-2q0 -160 63.5 -225t208.5 -65q111 0 210 35.5t167 76.5l8 -49q-23 -57 -66 -102t-97 -77t-115.5 -48.5t-120.5 -16.5q-229 0 -338 126t-109 382zM289 537l467 20q-6 76 -17.5 123 t-37 72.5t-68.5 35t-111 9.5q-61 0 -103 -8.5t-68.5 -35t-41 -77.5t-20.5 -139z" />
<glyph unicode="f" horiz-adv-x="659" d="M33 756v59l157 88v125q0 88 25 155.5t69 112.5t104.5 69t133.5 24q145 0 202.5 -44.5t57.5 -134.5q0 -49 -23.5 -70.5t-80.5 -21.5q-31 0 -53.5 7.5t-41 20.5t-36 34.5t-37.5 50.5h-12q-66 0 -101 -45t-35 -160v-137h302l-41 -144h-261v-546l7 -13l194 -57v-129h-508v170 h135l5 8v537z" />
<glyph unicode="g" horiz-adv-x="1009" d="M55 -291q0 72 50.5 121t127.5 96v21q-51 8 -84.5 50t-33.5 101q0 53 49 104.5t115 80.5v24q-86 20 -138.5 106.5t-52.5 200.5q0 72 28.5 136.5t82 113.5t131.5 78t176 29q121 0 237 -45h324l-49 -174l-209 53l-8 -19q43 -35 62.5 -84t19.5 -92q0 -80 -32 -145.5 t-89 -112.5t-137 -72.5t-174 -25.5q-39 0 -61.5 4t-49.5 10q-23 -16 -41 -40.5t-18 -49.5q0 -33 11 -52.5t38.5 -27.5t76 -10t121.5 -2h148q174 0 247.5 -60.5t73.5 -172.5q0 -377 -591 -377q-180 0 -265.5 55t-85.5 178zM225 -262q0 -31 11.5 -52.5t41 -36t84 -20.5 t140.5 -6q174 0 247.5 40t73.5 140q0 29 -8 48.5t-31.5 32t-66.5 19.5t-113 11q-37 2 -80 4t-85 4t-79.5 3t-64.5 1q-31 -33 -50.5 -84t-19.5 -104zM268 680q0 -92 20.5 -170t45.5 -102q16 -16 35.5 -24.5t74.5 -8.5q18 0 45 4t55.5 11t56.5 20.5t46 31.5q60 54 60 150 q0 66 -12.5 116t-28.5 66q-18 18 -78 28.5t-119 10.5q-111 0 -156 -31.5t-45 -101.5z" />
<glyph unicode="h" horiz-adv-x="1183" d="M35 1214v50l327 118v-589h21q53 92 134 134t169 42q90 0 149.5 -17.5t95.5 -56.5t51 -98.5t15 -145.5v-456l4 -9l154 -57v-129h-446v170h116l4 8v418q0 61 -9 100t-30.5 61.5t-57.5 31t-91 8.5q-86 0 -160.5 -26t-118.5 -62v-242v-272l5 -9l153 -57v-129h-452v170h120 l7 8v934l-5 8z" />
<glyph unicode="i" horiz-adv-x="557" d="M35 803v49l327 119v-776l7 -9l133 -57v-129h-447v170h135l5 8v522l-5 9zM143 1251q0 78 28 109t105 31q78 0 104 -31t26 -109t-26 -110.5t-104 -32.5t-105.5 33t-27.5 110z" />
<glyph unicode="j" horiz-adv-x="536" d="M-150 -295q0 49 29 70.5t76 21.5q53 0 87 -28.5t64 -79.5h23q23 14 44.5 59t21.5 139v813l-5 9l-155 94v49l327 119v-1063q0 -102 -21.5 -174t-61 -118t-96 -66.5t-124.5 -20.5q-63 0 -103 11t-63.5 32.5t-33 54.5t-9.5 78zM143 1251q0 78 28 109t105 31q78 0 104 -31 t26 -109t-26 -110.5t-104 -32.5t-105.5 33t-27.5 110z" />
<glyph unicode="k" horiz-adv-x="1087" d="M35 1214v50l327 118v-917h21l233 240l76 67l-4 10l-129 45v111h447v-164h-91l-18 -8l-266 -223l223 -346l16 -13l158 -55v-129h-268l-84 168l-158 276l-156 -135v-114l7 -9l133 -57v-129h-434v170h122l5 8v932l-5 10z" />
<glyph unicode="l" horiz-adv-x="557" d="M35 1214v50l327 118v-1187l7 -9l153 -57v-129h-454v170h122l5 8v932l-5 10z" />
<glyph unicode="m" horiz-adv-x="1736" d="M35 803v49l327 119v-178h21q47 80 111.5 128t160.5 48q131 0 199 -42t90 -136h21q53 84 119.5 131t164.5 47q86 0 143.5 -17.5t93.5 -56.5t50 -98.5t14 -145.5v-456l4 -9l154 -57v-129h-446v170h116l4 8v418q0 61 -9 100t-29.5 61.5t-54.5 31t-85 8.5q-86 0 -145.5 -28 t-100.5 -62v-238v-274l5 -9l153 -57v-129h-448v170h116l4 8v418q0 61 -9 100t-29.5 61.5t-54 31t-85.5 8.5q-88 0 -147.5 -27t-100.5 -61v-240v-274l5 -9l153 -57v-129h-452v170h120l7 8v522l-5 9z" />
<glyph unicode="n" horiz-adv-x="1173" d="M35 803v49l327 119v-178h21q53 92 134 134t169 42q90 0 149.5 -17.5t95.5 -56.5t51 -98.5t15 -145.5v-456l4 -9l154 -57v-129h-446v170h116l4 8v418q0 61 -9 100t-30.5 61.5t-57.5 31t-91 8.5q-86 0 -160.5 -26t-118.5 -62v-240v-274l5 -9l153 -57v-129h-452v170h120l7 8 v522l-5 9z" />
<glyph unicode="o" horiz-adv-x="1116" d="M88 451q0 137 43 235t114.5 160.5t164 92.5t188.5 30q227 0 328.5 -124t101.5 -351q0 -137 -43 -236.5t-114.5 -164t-164 -95.5t-188.5 -31q-227 0 -328.5 128t-101.5 356zM279 477q0 -106 12 -173.5t55 -106.5q61 -55 219 -56q72 0 123 16.5t83 54.5t47.5 100.5 t15.5 154.5q0 100 -11.5 165.5t-48.5 102.5q-31 33 -85 46.5t-142 13.5q-72 0 -123 -15.5t-83 -51.5t-47 -97.5t-15 -153.5z" />
<glyph unicode="p" horiz-adv-x="1175" d="M35 803v49l327 119v-178h11q55 74 136 113.5t163 39.5q127 0 205.5 -32.5t125 -93t62.5 -143.5t16 -183q0 -96 -26.5 -190.5t-80.5 -168.5t-138 -120t-199 -46q-84 0 -144.5 23.5t-119.5 77.5h-11v-318l5 -8l153 -57v-129h-452v170h120l7 8v964l-5 9zM362 166 q37 -8 107 -13.5t158 -5.5q72 0 121 14.5t79.5 48.5t44 91t13.5 143q0 100 -11.5 164t-41 99.5t-81 49t-133.5 13.5q-76 0 -143 -9t-113 -20v-575z" />
<glyph unicode="q" horiz-adv-x="1155" d="M94 438q0 96 26.5 186.5t81 161t138.5 113.5t199 43q84 0 144 -23.5t120 -76.5h4l104 106h70v-1196l4 -8l154 -57v-129h-453v170h121l6 8v383h-10q-55 -74 -136 -114t-163 -40q-125 0 -205 36t-126 99.5t-62.5 150.5t-16.5 187zM291 487q0 -100 11 -166.5t41 -106.5 t81 -56.5t133 -16.5q76 0 143.5 9.5t112.5 19.5v575q-37 8 -106.5 13.5t-157.5 5.5q-72 0 -121 -10.5t-80 -41t-44 -85t-13 -140.5z" />
<glyph unicode="r" horiz-adv-x="819" d="M35 803v49l327 119v-266h25q41 70 75 119.5t65.5 81.5t65.5 47.5t77 15.5q82 0 115.5 -34.5t33.5 -100.5q0 -61 -21.5 -91t-80.5 -30q-49 0 -92 11t-82 38q-43 -35 -94.5 -89.5t-86.5 -103.5v-374l5 -9l174 -57v-129h-473v170h120l7 8v522l-5 9z" />
<glyph unicode="s" horiz-adv-x="933" d="M63 303h138l43 -137q55 -16 110.5 -25.5t116.5 -9.5q123 0 167 34t44 99q0 35 -21.5 57.5t-58.5 38t-85 25.5t-101 21q-63 12 -125 29.5t-111 46t-79.5 72.5t-30.5 114q0 164 106.5 232.5t304.5 68.5q70 0 121 -8.5t94 -22.5l111 31l22 -334h-137l-51 151 q-41 10 -85 15.5t-91 5.5q-135 0 -183.5 -28.5t-48.5 -98.5q0 -31 21.5 -50.5t56.5 -32.5t82 -22.5t96 -19.5q63 -12 127 -29.5t115 -48.5t83 -79t32 -122q0 -164 -98.5 -235.5t-292.5 -71.5q-115 0 -212.5 19.5t-158.5 42.5z" />
<glyph unicode="t" horiz-adv-x="741" d="M43 776v101l78 63l176 172l65 -12v-191h363l-41 -143h-317l-13 -465v-8q0 -74 36 -119q38 -47 114 -47q53 0 97 7t97 30l9 -68q-35 -51 -108 -89t-153 -38q-132 0 -200 78q-64 74 -64 209v16l13 463z" />
<glyph unicode="u" horiz-adv-x="1163" d="M20 809v129h336v-596q0 -61 8.5 -100t30 -61.5t57 -31t91.5 -8.5q86 0 150.5 26t107.5 62v240v274l-4 9l-164 57v129h336v-698l4 -9l153 -73v-49l-305 -160l-20 196h-21q-53 -92 -123.5 -134t-158.5 -42q-90 0 -149.5 17.5t-95.5 56.5t-51.5 98.5t-15.5 145.5v456l-4 9z " />
<glyph unicode="v" horiz-adv-x="1028" d="M-37 807v131h447v-170h-111l-4 -8l197 -619h40l220 602l-4 11l-140 53v131h426v-170h-123l-10 -8l-299 -760h-207l-270 743l-10 11z" />
<glyph unicode="w" horiz-adv-x="1527" d="M-23 807v131h451v-170h-111l-4 -8l146 -610h41l188 593l-12 11l-62 28l-55 25v131h416v-170h-76l-4 -8l149 -610h41l162 593l-4 11l-127 53v131h432v-170h-147l-10 -8l-232 -760h-207l-157 606h-41l-189 -606h-198l-228 743l-10 11z" />
<glyph unicode="x" horiz-adv-x="1132" d="M41 807v131h459v-170h-88l-4 -8l143 -232h41l170 211l-4 13l-111 57v129h422v-170h-117l-12 -8l-283 -283l263 -282l10 -11l153 -53v-131h-438v170h76l4 8l-158 246h-41l-184 -225l4 -13l127 -57v-129h-422v170h101l12 8l297 297l-264 268l-11 11z" />
<glyph unicode="y" horiz-adv-x="1024" d="M-37 807v131h436v-170h-100l-4 -8l213 -633h31l206 616l-4 11l-137 53v131h430v-170h-123l-10 -8l-280 -760l-50 -143q-55 -164 -134 -246t-226 -82q-133 0 -186.5 41t-53.5 115q0 66 23.5 89t81.5 23q66 0 102.5 -23.5t65.5 -95.5h20q23 8 43.5 20.5t41 35t41 61.5 t42.5 103l37 102h-68l-276 743l-10 11z" />
<glyph unicode="z" horiz-adv-x="987" d="M86 0v129l582 655v21q-137 0 -217 -6t-121 -15.5t-52.5 -20.5t-11.5 -20l-22 -165h-135v360h790v-129l-582 -655v-21q141 0 223.5 5t124.5 14.5t54 20.5t14 22l45 155h135l-36 -350h-791z" />
<glyph unicode="{" horiz-adv-x="729" d="M41 346l8 111l-8 108q158 16 234.5 50t76.5 122q0 43 -23.5 94.5t-52 107.5t-52 115.5t-23.5 119.5q0 74 32.5 119.5t97 72.5t161 38t223.5 15v-168q-102 -6 -169 -12t-107 -17.5t-56 -28.5t-16 -46q0 -43 23.5 -88t52 -94.5t52 -102.5t23.5 -110q0 -260 -366 -287v-16 q367 -27 366 -289q0 -57 -23.5 -109.5t-52 -101.5t-52 -92t-23.5 -82q0 -33 16 -52.5t56 -32t106.5 -18.5t169.5 -12v-168q-127 4 -223.5 15.5t-161 38t-97 72.5t-32.5 120q0 59 23.5 118.5t52 116t52 107.5t23.5 94q0 88 -76.5 123t-234.5 49z" />
<glyph unicode="|" horiz-adv-x="602" d="M250 -408v1846h145v-1846h-145z" />
<glyph unicode="}" horiz-adv-x="729" d="M14 -340q102 6 169 12t107 18.5t56 32t16 52.5q0 39 -23.5 82t-52 92t-52 101t-23.5 110q0 262 367 289v16q-367 27 -367 287q0 57 23.5 110t52 102.5t52 94.5t23.5 88q0 29 -16 46t-56 28.5t-106.5 17.5t-169.5 12v168q127 -4 223.5 -15t161 -38t97 -73t32.5 -119 q0 -59 -23.5 -119t-52 -116t-52 -107.5t-23.5 -94.5q0 -88 76.5 -121.5t234.5 -50.5l-8 -108l8 -111q-158 -14 -234.5 -49t-76.5 -123q0 -43 23.5 -94t52 -107.5t52 -116t23.5 -118.5q0 -74 -32.5 -120t-97 -72.5t-161 -38t-223.5 -15.5v168z" />
<glyph unicode="~" horiz-adv-x="819" d="M41 324q10 72 22.5 127t34 93t55 57.5t85.5 19.5q55 0 104 -23t92 -50.5t81 -50t71 -22.5q12 0 22 4t19.5 18.5t22 42t28.5 72.5h100q-10 -72 -22.5 -127t-34 -93t-54 -57.5t-85.5 -19.5q-55 0 -104.5 22.5t-92.5 50.5t-81 50.5t-71 22.5q-12 0 -22 -4t-19.5 -18.5 t-21.5 -41t-29 -73.5h-100z" />
<glyph unicode="&#xa1;" horiz-adv-x="561" d="M143 1171q0 74 28 106t112 32t109.5 -32t25.5 -106t-25.5 -103.5t-109.5 -29.5t-112 30t-28 103zM159 25.5q1 35.5 7 95.5l84 776q0 4 10 6t22.5 2t22.5 -2t10 -6l84 -776q6 -59 7.5 -95t-10 -54.5t-37 -23.5t-74.5 -5h-4q-49 0 -75 5t-37 23.5t-10 54z" />
<glyph unicode="&#xa2;" horiz-adv-x="980" d="M94 477q0 133 32 226.5t92.5 151.5t144 86t188.5 28h42t36 -2l90 338h135l-98 -361q74 -23 105.5 -63.5t31.5 -94.5q0 -49 -22.5 -62t-69.5 -13q-23 0 -51.5 5t-63.5 23l-158 -589h7q111 0 210 35.5t166 76.5l9 -49q-23 -57 -66 -102t-97.5 -77t-115.5 -48.5t-121 -16.5 h-24l-82 -305h-131l86 322q-147 39 -211 159.5t-64 331.5zM283 463q0 -133 31.5 -206t115.5 -95l174 633q-41 8 -98 8t-100.5 -16.5t-70 -55.5t-39.5 -104.5t-13 -163.5z" />
<glyph unicode="&#xa3;" horiz-adv-x="1087" d="M68 680h247q-29 66 -48 130t-19 130q0 80 23.5 145.5t75.5 111.5t136 70.5t205 24.5q172 0 245 -45t73 -129q0 -41 -19.5 -58.5t-73.5 -17.5q-39 0 -65.5 3.5t-51 14.5t-52 30.5t-66.5 50.5h-4q-129 -4 -189.5 -48t-60.5 -151q0 -61 24.5 -126.5t55.5 -135.5h401 l-10 -115h-344q18 -51 28.5 -103t6.5 -104.5t-29 -104.5t-74 -106l21 -20q70 2 118 3t89 5q84 6 125 24.5t63 41.5q55 55 64 164l100 -13q0 -111 -15.5 -185.5t-49 -119.5t-85 -64.5t-125.5 -19.5q-53 0 -100 10.5t-91 27.5t-88 38.5t-91 42.5q-49 -53 -96.5 -84t-104.5 -31 q-43 0 -69.5 6.5t-41 22.5t-19.5 48t-5 81q0 82 93 95t249 -58q16 20 22.5 43.5t6.5 52.5q0 78 -26 153.5t-60 153.5h-289z" />
<glyph unicode="&#xa4;" horiz-adv-x="1097" d="M27 424l10 115h137q-2 16 -2 32.5v32.5v51.5t2 49.5h-137l-10 114h151q16 133 56 223.5t108 145.5t163 79.5t220 24.5q104 0 167.5 -11t97.5 -33.5t45.5 -55.5t11.5 -74t-19.5 -58.5t-73.5 -17.5q-39 0 -66.5 2.5t-54 10.5t-55 25.5t-67.5 47.5h-56q-111 0 -183.5 -69.5 t-96.5 -239.5h489l-10 -114h-508q-2 -16 -2 -33v-35v-51.5t2 -46.5h508l10 -115h-489q12 -86 38.5 -139.5t65.5 -83t91.5 -40.5t117.5 -11q111 0 200 35.5t156 76.5l9 -49q-45 -115 -141.5 -179.5t-247.5 -64.5q-211 0 -334 105.5t-154 349.5h-149z" />
<glyph unicode="&#xa5;" horiz-adv-x="1177" d="M10 1151v129h502v-170h-147l-5 -8l230 -400h43l239 400l-4 8l-157 41v129h469v-170h-125l-6 -8l-314 -426h357l-11 -115h-391v-145h391l11 -115h-402v-106l2 -9l197 -57v-129h-572v170h179l4 8v123h-410l10 115h400v145h-400l-10 115h365l-301 424l-11 10z" />
<glyph unicode="&#xa6;" horiz-adv-x="1046" d="M51 211q0 66 24.5 97.5t90.5 31.5q41 0 67.5 -12.5t47 -38t36 -62.5t31.5 -86q18 -2 40 -3t50 -1q59 0 99.5 12.5t64 41t33.5 77.5t10 123v694l-4 9l-215 57v129h588v-170h-174l-4 -8v-752q0 -88 -19.5 -158.5t-65.5 -119.5t-125 -76t-200 -27q-109 0 -180.5 17.5 t-114.5 50.5t-61.5 77t-18.5 97z" />
<glyph unicode="&#xa7;" horiz-adv-x="1087" d="M88 565q0 51 19.5 86t53.5 58.5t77 38t92 24.5v41q-33 14 -60.5 28.5t-49 34t-34 47t-12.5 70.5q0 164 89 244t308 80q172 0 245 -45t73 -129q0 -41 -19.5 -58.5t-72.5 -17.5q-39 0 -65.5 3t-51.5 14.5t-52.5 31t-66.5 49.5h-4q-61 0 -99 -6t-60.5 -21.5t-31 -41 t-8.5 -64.5t24 -62.5t62.5 -39t87 -26.5t97.5 -23q88 -20 156.5 -41t116.5 -50.5t72.5 -75.5t24.5 -118q0 -51 -19 -86t-53 -58.5t-77 -38t-92 -24.5v-41q33 -14 60.5 -29.5t49 -36t33.5 -50t12 -74.5q0 -72 -21.5 -129.5t-68.5 -98.5t-122.5 -63.5t-184.5 -22.5 q-172 0 -244.5 45t-72.5 129q0 41 19.5 58.5t72.5 17.5q39 0 65.5 -3t51 -14t52 -30.5t66.5 -50.5h4q115 0 157 25.5t42 97.5q0 43 -23.5 68.5t-62.5 42t-87 27.5t-97 24q-88 23 -157 42t-117 48.5t-72.5 76t-24.5 117.5zM260 582q0 -33 24.5 -54.5t62.5 -38t87 -27.5 t98 -24q39 -10 75 -18t67 -19q84 43 118.5 79.5t34.5 99.5q0 33 -24.5 54t-62.5 37.5t-87 28t-98 23.5q-39 10 -75 18.5t-66 18.5q-84 -43 -119 -79t-35 -99z" />
<glyph unicode="&#xa8;" horiz-adv-x="819" d="M37 1200q0 74 27.5 103.5t111.5 29.5t109.5 -29.5t25.5 -103.5t-25.5 -105.5t-109.5 -31.5t-111.5 31.5t-27.5 105.5zM508 1200q0 74 27.5 103.5t111.5 29.5t109.5 -29.5t25.5 -103.5t-25.5 -105.5t-109.5 -31.5t-111.5 31.5t-27.5 105.5z" />
<glyph unicode="&#xa9;" horiz-adv-x="1599" d="M61 639q0 213 41 365.5t129 250t226.5 142.5t335.5 45t338 -46t231 -143.5t133 -249t43 -364.5t-42 -365.5t-133 -250t-231.5 -142.5t-336.5 -45q-197 0 -335 45t-227.5 142.5t-130.5 250t-41 365.5zM176 639q0 -180 34 -311t108.5 -214t192.5 -123t284 -40 q168 0 286.5 39t194.5 123t111.5 214t35.5 312t-35.5 312t-112.5 213t-195.5 123t-286.5 40q-166 0 -284 -39t-191.5 -123t-107.5 -214t-34 -312zM373 610q0 244 110.5 358.5t343.5 114.5q72 0 122 -10t91 -26l109 36v-288h-117l-74 125q-10 10 -32.5 15t-47 8t-46 4 t-31.5 1q-66 0 -112 -13t-75.5 -46t-44 -88.5t-14.5 -136.5q0 -98 11.5 -165t41 -108t81.5 -58.5t136 -17.5q16 0 38 2t45.5 7.5t43 12.5t27.5 15l72 133h120l-24 -282l-94 30q-43 -20 -98.5 -35.5t-157.5 -15.5q-225 0 -324.5 106.5t-99.5 321.5z" />
<glyph unicode="&#xaa;" horiz-adv-x="784" d="M53 719q0 57 23.5 104t78 82t143.5 54.5t222 21.5l4 80q4 51 -32.5 80.5t-129.5 29.5q-27 0 -54 -3t-51 -8t-38 -11t-14 -12t5 -29t5 -31q0 -16 -18.5 -23t-71.5 -7q-41 0 -52.5 6t-11.5 20q0 57 29 101.5t75 74t107.5 45t124.5 15.5q139 0 204 -52.5t61 -169.5l-17 -368 q-2 -41 15.5 -58.5t48.5 -17.5q14 0 40.5 2t45.5 8l2 -24q-16 -43 -54 -81t-100 -38q-59 0 -90 25.5t-25 85.5h-32q-39 -43 -90.5 -77t-106.5 -34q-115 0 -180.5 51t-65.5 158zM205 733q0 -39 26.5 -62.5t100.5 -23.5q55 0 101 16.5t79 38.5l8 201q-92 -10 -153.5 -27.5 t-97.5 -40t-50 -48t-14 -54.5z" />
<glyph unicode="&#xab;" horiz-adv-x="1181" d="M98 391v176l469 281l15 -119l-344 -229v-41l344 -230l-15 -118zM575 387v184l494 297l14 -125l-362 -243v-41l362 -244l-14 -125z" />
<glyph unicode="&#xac;" horiz-adv-x="1001" d="M68 240q0 72 30.5 128t101 99t185.5 70.5t281 42.5v67q0 63 -49.5 111.5t-163.5 48.5q-33 0 -69 -4t-63.5 -10.5t-46 -14.5t-18.5 -16q0 -4 2 -15.5t4 -25.5t4 -26.5t2 -16.5q0 -20 -22.5 -29.5t-89.5 -9.5q-51 0 -65.5 8t-14.5 27q0 72 33.5 127t91 92t131.5 56.5 t153 19.5q180 0 267.5 -74t85.5 -256v-444q0 -35 16 -47.5t61 -12.5q23 0 47.5 3t38.5 7q2 -18 3 -32v-41q-25 -45 -73 -74t-104 -29q-72 0 -112.5 35t-40.5 129h-21q-47 -74 -133 -119t-178 -45q-59 0 -109.5 20.5t-87 57.5t-57 86t-20.5 107zM256 258q0 -55 37 -91 t123 -36q68 0 138.5 25.5t111.5 54.5v260q-117 -20 -196 -40.5t-126 -45.5t-67.5 -55.5t-20.5 -71.5z" />
<glyph unicode="&#xad;" horiz-adv-x="647" d="M74 418v157h504v-157h-504z" />
<glyph unicode="&#xae;" horiz-adv-x="1599" d="M61 639q0 213 41 365.5t129 250t226.5 142.5t335.5 45t338 -46t231 -143.5t133 -249t43 -364.5t-42 -365.5t-133 -250t-231.5 -142.5t-336.5 -45q-197 0 -335 45t-227.5 142.5t-130.5 250t-41 365.5zM176 639q0 -180 34 -311t108.5 -214t192.5 -123t284 -40 q168 0 286.5 39t194.5 123t111.5 214t35.5 312t-35.5 312t-112.5 213t-195.5 123t-286.5 40q-166 0 -284 -39t-191.5 -123t-107.5 -214t-34 -312zM391 1063h438q104 0 170 -18.5t104 -49t52 -71.5t14 -88q0 -111 -44 -173.5t-162 -99.5l133 -213l8 -6l110 -39v-104h-233 l-70 135l-100 192l-135 -8v-170l2 -6l106 -39v-104h-376v133h96v4q0 2 2 2v569q-2 2 -2 4v7l-111 38zM676 651l117 -14q102 8 149 50t47 114t-38 99.5t-142 27.5h-133v-277z" />
<glyph unicode="&#xaf;" horiz-adv-x="819" d="M111 1108l6 145h585l7 -145h-598z" />
<glyph unicode="&#xb0;" horiz-adv-x="737" d="M74 1018q0 154 67.5 222.5t229.5 68.5q90 0 147 -15.5t90 -49.5t44.5 -90t11.5 -136q0 -141 -67 -218t-226 -77q-88 0 -146.5 16.5t-91.5 52t-46 92t-13 134.5zM172 1018q0 -55 5 -93t25.5 -62.5t60.5 -35t108 -10.5q59 0 97 12.5t59.5 37t29.5 62.5t8 89q0 61 -6 100 t-25.5 60.5t-58.5 28.5t-104 7q-59 0 -98.5 -10t-62 -33.5t-30.5 -61.5t-8 -91z" />
<glyph unicode="&#xb1;" horiz-adv-x="1599" d="M61 639q0 213 41 365.5t129 250t226.5 142.5t335.5 45t338 -46t231 -143.5t133 -249t43 -364.5t-42 -365.5t-133 -250t-231.5 -142.5t-336.5 -45q-197 0 -335 45t-227.5 142.5t-130.5 250t-41 365.5zM176 639q0 -180 34 -311t108.5 -214t192.5 -123t284 -40 q168 0 286.5 39t194.5 123t111.5 214t35.5 312t-35.5 312t-112.5 213t-195.5 123t-286.5 40q-166 0 -284 -39t-191.5 -123t-107.5 -214t-34 -312zM457 958v105h401q164 0 254 -55.5t90 -190.5q0 -141 -68.5 -224t-240.5 -83q-41 0 -80 3t-74 11v-174l2 -6l119 -39v-104h-389 l2 133h94q0 2 2 4v575v2q0 2 -2 5zM739 635q20 -4 57.5 -5t59.5 -1q59 0 94 9t53.5 29.5t23.5 53.5t5 78q0 41 -9 64.5t-32.5 35.5t-63.5 15.5t-104 3.5h-84v-283z" />
<glyph unicode="&#xb4;" horiz-adv-x="819" d="M211 1065l195 362h249l-309 -362h-135z" />
<glyph unicode="&#xb5;" horiz-adv-x="1009" d="M55 -291q0 72 50.5 121t127.5 96v21q-51 8 -84.5 50t-33.5 101q0 53 49 104.5t115 80.5v24q-86 20 -138.5 106.5t-52.5 200.5q0 72 28.5 136.5t82 113.5t131.5 78t176 29q121 0 237 -45h324l-49 -174l-209 53l-8 -19q43 -35 62.5 -84t19.5 -92q0 -80 -32 -145.5 t-89 -112.5t-137 -72.5t-174 -25.5q-39 0 -61.5 4t-49.5 10q-23 -16 -41 -40.5t-18 -49.5q0 -33 11 -52.5t38.5 -27.5t76 -10t121.5 -2h148q174 0 247.5 -60.5t73.5 -172.5q0 -377 -591 -377q-180 0 -265.5 55t-85.5 178zM225 -262q0 -31 11.5 -52.5t41 -36t84 -20.5 t140.5 -6q174 0 247.5 40t73.5 140q0 29 -8 48.5t-31.5 32t-66.5 19.5t-113 11q-37 2 -80 4t-85 4t-79.5 3t-64.5 1q-31 -33 -50.5 -84t-19.5 -104zM268 680q0 -92 20.5 -170t45.5 -102q16 -16 35.5 -24.5t74.5 -8.5q18 0 45 4t55.5 11t56.5 20.5t46 31.5q60 54 60 150 q0 66 -12.5 116t-28.5 66q-18 18 -78 28.5t-119 10.5q-111 0 -156 -31.5t-45 -101.5z" />
<glyph unicode="&#xb6;" horiz-adv-x="1001" d="M80 924q0 98 22.5 166.5t78 110.5t146.5 60.5t228 18.5h338v-1348h-145v603q-61 -16 -120 -22.5t-126 -6.5q-94 0 -172 25.5t-133.5 76.5t-86 130t-30.5 186z" />
<glyph unicode="&#xb7;" horiz-adv-x="475" d="M113 467q0 82 30.5 114.5t122.5 32.5q90 0 119 -32.5t29 -114.5t-29 -117t-119 -35q-92 0 -122.5 35t-30.5 117z" />
<glyph unicode="&#xb8;" horiz-adv-x="819" d="M201 -530q98 20 160.5 39.5t96.5 40t46 45t12 57.5q0 49 -66.5 71.5t-220.5 22.5h-18v57l283 277h122l-221 -213v-21q154 8 217.5 -43t63.5 -135q0 -63 -25.5 -110t-81 -81t-143.5 -54.5t-215 -32.5z" />
<glyph unicode="&#xba;" horiz-adv-x="892" d="M70 895q0 109 34.5 187.5t92 129t131 74t151.5 23.5q182 0 263 -98.5t81 -280.5q0 -111 -34.5 -189.5t-92 -131t-131 -77t-151.5 -24.5q-182 0 -263 102.5t-81 284.5zM223 915q0 -86 9.5 -139t43.5 -84q27 -23 69 -34t108 -11q115 0 165 56.5t50 203.5q0 80 -9.5 133.5 t-40.5 81.5q-25 27 -67.5 37t-112.5 10q-115 0 -165 -53t-50 -201z" />
<glyph unicode="&#xbb;" horiz-adv-x="1196" d="M113 215l362 244v41l-362 243l14 125l494 -297v-184l-494 -297zM614 229l344 230v41l-344 229l15 119l469 -281v-176l-469 -280z" />
<glyph unicode="&#xbc;" horiz-adv-x="1341" d="M33 756v59l157 88v39q0 203 90.5 304.5t256.5 101.5q121 0 198.5 -47.5t77.5 -131.5l-18 -53q-18 10 -46 21.5t-63 21.5q-37 12 -78 20.5t-82 8.5q-88 0 -126 -56.5t-38 -164.5v-78h467v139q0 178 86 269.5t267 91.5q154 0 218 -45.5t64 -129.5q0 -49 -22.5 -62 t-69.5 -13q-35 0 -80 16t-102 74q-4 2 -20.5 2h-22.5q-82 0 -114 -47t-32 -158v-137h302l-41 -144h-261v-546l7 -13l194 -57v-129h-508v170h135l5 8v567h-472v-546q0 -8 7 -13l194 -57v-129h-508v170h135q4 0 5 8v537z" />
<glyph unicode="&#xbd;" horiz-adv-x="1835" d="M33 756v59l157 88v39q0 203 90.5 304.5t256.5 101.5q121 0 198.5 -47.5t77.5 -131.5l-18 -53q-18 10 -46 21.5t-63 21.5q-37 12 -78 20.5t-82 8.5q-88 0 -126 -56.5t-38 -164.5v-78h467v35q0 242 115 353.5t326 111.5q188 0 265 -49.5t77 -133.5q0 -49 -22.5 -62.5 t-69.5 -13.5q-35 0 -81 14.5t-110 69.5q-25 4 -50.5 6.5t-53.5 2.5q-117 0 -170.5 -70t-53.5 -240v-24h469q2 0 28 12t58 29q37 18 84 41v-776v-5l7 -4l133 -57v-129h-447v170h135q4 0 5 8v567h-472v-546q0 -8 7 -13l194 -57v-129h-508v170h135q4 0 5 8v567h-472v-546 q0 -8 7 -13l194 -57v-129h-508v170h135q4 0 5 8v537z" />
<glyph unicode="&#xbe;" horiz-adv-x="1814" d="M33 756v59l157 88v39q0 203 90.5 304.5t256.5 101.5q121 0 198.5 -47.5t77.5 -131.5l-18 -53q-18 10 -46 21.5t-63 21.5q-37 12 -78 20.5t-82 8.5q-88 0 -126 -56.5t-38 -164.5v-78h467v35q0 242 115 353.5t326 111.5q78 0 137 -19.5t102 -50.5l131 63v-1187v-5l7 -4 l133 -57v-129h-447v170h135q4 0 5 8v567h-472v-546q0 -8 7 -13l194 -57v-129h-508v170h135q4 0 5 8v567h-472v-546q0 -8 7 -13l194 -57v-129h-508v170h135q4 0 5 8v537zM1001 889h472v244q-29 6 -65 23.5t-79 55.5q-23 6 -49.5 8.5t-52.5 2.5q-119 0 -172.5 -70t-53.5 -240 v-24z" />
<glyph unicode="&#xbf;" horiz-adv-x="743" d="M43 297q0 78 22.5 131t59.5 90t81 60.5t87 42.5q61 27 108.5 50t47.5 64q0 33 -32 77t-87 95l100 6q78 -47 121 -99t43 -105q0 -49 -19.5 -84t-50 -62.5t-69.5 -49t-80 -40.5q-35 -16 -69 -32.5t-59.5 -36t-41 -44t-15.5 -55.5q0 -63 70 -96t199 -33q35 0 73.5 4t79.5 13 q10 0 18.5 -37t8.5 -84q0 -33 -6 -52.5t-24.5 -31t-52.5 -15.5t-91 -4q-100 0 -179 24.5t-133.5 68.5t-82 104.5t-27.5 130.5zM291 1171q0 74 25.5 106t109.5 32t111.5 -32t27.5 -106t-27.5 -103.5t-111.5 -29.5t-109.5 29.5t-25.5 103.5z" />
<glyph unicode="&#xc0;" horiz-adv-x="1269" d="M-2 0v170h135l4 8l340 1002v80l262 61l375 -1126l10 -11l158 -55v-129h-516v170h141l4 8l-77 242h-449l-72 -225l4 -9l150 -57v-129h-469zM268 1769h250l195 -362h-135zM434 565h350l-149 527h-41z" />
<glyph unicode="&#xc1;" horiz-adv-x="1269" d="M-2 0v170h135l4 8l340 1002v80l262 61l375 -1126l10 -11l158 -55v-129h-516v170h141l4 8l-77 242h-449l-72 -225l4 -9l150 -57v-129h-469zM434 565h350l-149 527h-41zM518 1407l195 362h250l-310 -362h-135z" />
<glyph unicode="&#xc2;" horiz-adv-x="1269" d="M-2 0v170h135l4 8l340 1002v80l262 61l375 -1126l10 -11l158 -55v-129h-516v170h141l4 8l-77 242h-449l-72 -225l4 -9l150 -57v-129h-469zM295 1407l164 383h311l164 -383h-125l-184 272h-21l-184 -272h-125zM434 565h350l-149 527h-41z" />
<glyph unicode="&#xc3;" horiz-adv-x="1269" d="M-2 0v170h135l4 8l340 1002v80l262 61l375 -1126l10 -11l158 -55v-129h-516v170h141l4 8l-77 242h-449l-72 -225l4 -9l150 -57v-129h-469zM256 1421q10 72 22.5 127.5t34 93t55 57t85.5 19.5q55 0 104 -22.5t92 -50t81 -50t71 -22.5q12 0 22.5 4t19.5 18.5t21.5 42 t28.5 72.5h100q-10 -72 -22.5 -127t-34 -93t-54 -57.5t-85.5 -19.5q-55 0 -104.5 22.5t-92.5 50t-81 50.5t-70 23q-12 0 -22.5 -4.5t-20 -18.5t-21.5 -41t-29 -74h-100zM434 565h350l-149 527h-41z" />
<glyph unicode="&#xc4;" horiz-adv-x="1269" d="M-2 0v170h135l4 8l340 1002v80l262 61l375 -1126l10 -11l158 -55v-129h-516v170h141l4 8l-77 242h-449l-72 -225l4 -9l150 -57v-129h-469zM242 1542q0 74 27.5 103.5t111.5 29.5t109.5 -29.5t25.5 -103.5t-25.5 -105.5t-109.5 -31.5t-111.5 31.5t-27.5 105.5zM434 565 h350l-149 527h-41zM713 1542q0 74 27.5 103.5t111.5 29.5t109.5 -29.5t25.5 -103.5t-25.5 -105.5t-109.5 -31.5t-111.5 31.5t-27.5 105.5z" />
<glyph unicode="&#xc5;" horiz-adv-x="1269" d="M-2 0v170h135l4 8l350 1041q-63 25 -85.5 74.5t-22.5 142.5q0 127 56.5 184t191.5 57q76 0 123 -12t73.5 -41t36.5 -75t10 -113q0 -78 -22.5 -127t-75.5 -78l342 -1036l10 -11l158 -55v-129h-516v170h141l4 8l-77 242h-449l-72 -225l4 -9l150 -57v-129h-469zM434 565h350 l-149 527h-41zM477 1436q0 -41 4 -70t19.5 -47.5t45 -26.5t81.5 -8q90 0 117.5 37t27.5 115q0 47 -4 75.5t-19.5 44t-44 21.5t-77.5 6q-90 0 -120 -33.5t-30 -113.5z" />
<glyph unicode="&#xc6;" horiz-adv-x="1810" d="M-12 0v170h135l4 8l489 912v2l-176 59v129h1231v-381h-137l-49 156q-6 20 -17.5 31.5t-49.5 16.5t-114.5 6t-213.5 1h-80v-399h34q51 0 81 1t47.5 6t26.5 15t20 29l57 119h113l-46 -447h-112l-29 129q-2 6 -6 10.5t-19.5 7.5t-46 4t-86.5 1h-34v-416h69q139 0 217 4 t117 11.5t51.5 17.5t18.5 24l71 144h138l-39 -371h-991v170h153q4 0 4 8v242h-391l-123 -227v-5l135 -59v-129h-452zM506 565h313v574h-41z" />
<glyph unicode="&#xc7;" horiz-adv-x="1304" d="M104 604q0 184 35 317.5t110 219.5t192.5 127t283.5 41q129 0 202.5 -17.5t114.5 -34.5l142 52v-408h-148l-53 178q-25 12 -51.5 21.5t-60 15.5t-76.5 9t-101 3q-100 0 -171.5 -19t-119 -70.5t-70 -137.5t-22.5 -221q0 -172 16.5 -275.5t61.5 -161t125 -75.5t205 -18 q80 0 153.5 17t118.5 46l66 190h147l-39 -403l-116 43q-47 -23 -113 -41t-145 -27l-113 -108v-21q154 8 217 -43t63 -135q0 -63 -25.5 -110t-80.5 -81t-143 -54.5t-215 -32.5l-11 80q98 20 161 39.5t96.5 40t46 45t12.5 57.5q0 49 -66.5 71.5t-220.5 22.5h-18v57l170 166 q-160 2 -266.5 38t-172 113t-93.5 196.5t-28 287.5z" />
<glyph unicode="&#xc8;" horiz-adv-x="1259" d="M68 1151v129h1071v-381h-138l-49 156q-6 20 -17 31.5t-49 16.5t-115 6t-214 1h-121v-399h35q70 0 107.5 1t58 6t30 15t19.5 29l57 119h113l-45 -447h-113l-28 129q-2 6 -6.5 10.5t-23.5 7.5t-58 4t-111 1h-35v-416h111q127 0 201.5 2t118.5 12.5t65.5 29.5t38.5 54 l51 103h137l-39 -371h-1032v170h154l4 8v907l-4 9zM285 1769h250l194 -362h-135z" />
<glyph unicode="&#xc9;" horiz-adv-x="1259" d="M68 1151v129h1071v-381h-138l-49 156q-6 20 -17 31.5t-49 16.5t-115 6t-214 1h-121v-399h35q70 0 107.5 1t58 6t30 15t19.5 29l57 119h113l-45 -447h-113l-28 129q-2 6 -6.5 10.5t-23.5 7.5t-58 4t-111 1h-35v-416h111q127 0 201.5 2t118.5 12.5t65.5 29.5t38.5 54 l51 103h137l-39 -371h-1032v170h154l4 8v907l-4 9zM543 1407l194 362h250l-309 -362h-135z" />
<glyph unicode="&#xca;" horiz-adv-x="1259" d="M68 1151v129h1071v-381h-138l-49 156q-6 20 -17 31.5t-49 16.5t-115 6t-214 1h-121v-399h35q70 0 107.5 1t58 6t30 15t19.5 29l57 119h113l-45 -447h-113l-28 129q-2 6 -6.5 10.5t-23.5 7.5t-58 4t-111 1h-35v-416h111q127 0 201.5 2t118.5 12.5t65.5 29.5t38.5 54 l51 103h137l-39 -371h-1032v170h154l4 8v907l-4 9zM299 1407l164 383h311l164 -383h-125l-184 272h-21l-184 -272h-125z" />
<glyph unicode="&#xcb;" horiz-adv-x="1259" d="M68 1151v129h1071v-381h-138l-49 156q-6 20 -17 31.5t-49 16.5t-115 6t-214 1h-121v-399h35q70 0 107.5 1t58 6t30 15t19.5 29l57 119h113l-45 -447h-113l-28 129q-2 6 -6.5 10.5t-23.5 7.5t-58 4t-111 1h-35v-416h111q127 0 201.5 2t118.5 12.5t65.5 29.5t38.5 54 l51 103h137l-39 -371h-1032v170h154l4 8v907l-4 9zM266 1542q0 74 28 103.5t112 29.5t109.5 -29.5t25.5 -103.5t-26 -105.5t-109 -31.5q-84 0 -112 31.5t-28 105.5zM737 1542q0 74 28 103.5t112 29.5t109.5 -29.5t25.5 -103.5t-25.5 -105.5t-109.5 -31.5t-112 31.5 t-28 105.5z" />
<glyph unicode="&#xcc;" horiz-adv-x="722" d="M-6 1769h250l194 -362h-135zM68 1151v129h567v-170h-174l-4 -8v-907l4 -9l194 -57v-129h-567v170h174l4 8v907l-4 9z" />
<glyph unicode="&#xcd;" horiz-adv-x="722" d="M68 1151v129h567v-170h-174l-4 -8v-907l4 -9l194 -57v-129h-567v170h174l4 8v907l-4 9zM264 1407l195 362h250l-310 -362h-135z" />
<glyph unicode="&#xce;" horiz-adv-x="722" d="M41 1407l164 383h311l164 -383h-125l-184 272h-21l-184 -272h-125zM68 1151v129h567v-170h-174l-4 -8v-907l4 -9l194 -57v-129h-567v170h174l4 8v907l-4 9z" />
<glyph unicode="&#xcf;" horiz-adv-x="722" d="M-12 1542q0 74 27.5 103.5t111.5 29.5t109.5 -29.5t25.5 -103.5t-25.5 -105.5t-109.5 -31.5t-111.5 31.5t-27.5 105.5zM68 1151v129h567v-170h-174l-4 -8v-907l4 -9l194 -57v-129h-567v170h174l4 8v907l-4 9zM459 1542q0 74 27.5 103.5t111.5 29.5t109.5 -29.5 t25.5 -103.5t-25.5 -105.5t-109.5 -31.5t-111.5 31.5t-27.5 105.5z" />
<glyph unicode="&#xd0;" d="M66 1153v129q145 2 262 4q49 0 97 1t86 1h62.5h26.5q190 2 323.5 -36t216.5 -115.5t120.5 -196.5t37.5 -278q0 -166 -39.5 -290t-124.5 -206t-219.5 -123t-322.5 -41h-506v170h154l4 8v391h-170v156h170v360l-4 9zM434 217l178 -45q117 2 206 25.5t150.5 77t92.5 139.5 t31 215q0 150 -30 244t-93.5 147t-163.5 72.5t-242 19.5h-69q-27 0 -60 -2v-383h311v-156h-311v-354z" />
<glyph unicode="&#xd1;" horiz-adv-x="1519" d="M68 1151v129h489l553 -1092h41v897l-4 9l-174 57v129h510v-170h-158l-4 -8v-1133h-303l-561 1102h-41v-876l4 -9l174 -57v-129h-506v170h154l4 8v907l-4 9zM358 1421q10 72 22.5 127.5t34 93t55.5 57t85 19.5q55 0 104.5 -22.5t92.5 -50t80.5 -50t70.5 -22.5q12 0 22.5 4 t19.5 18.5t21.5 42t28.5 72.5h101q-10 -72 -22.5 -127t-34 -93t-54.5 -57.5t-86 -19.5q-55 0 -104.5 22.5t-92.5 50t-80.5 50.5t-70.5 23q-12 0 -22.5 -4.5t-19.5 -18.5t-21.5 -41t-28.5 -74h-101z" />
<glyph unicode="&#xd2;" d="M104 604q0 184 35 317.5t110 219.5t192.5 127t283.5 41q160 0 270.5 -35t178 -111t97 -195.5t29.5 -291.5q0 -184 -35.5 -317.5t-111.5 -220.5t-195.5 -128t-285.5 -41q-160 0 -269.5 35t-175 112t-94.5 196.5t-29 291.5zM311 680q0 -172 17.5 -275.5t62.5 -161 t122 -75.5t196 -18q100 0 172.5 20t120 70.5t70 137.5t22.5 222q0 172 -18.5 275.5t-63.5 160t-122 74.5t-196 18q-100 0 -171.5 -19t-119 -70.5t-70 -137.5t-22.5 -221zM356 1769h250l195 -362h-135z" />
<glyph unicode="&#xd3;" d="M104 604q0 184 35 317.5t110 219.5t192.5 127t283.5 41q160 0 270.5 -35t178 -111t97 -195.5t29.5 -291.5q0 -184 -35.5 -317.5t-111.5 -220.5t-195.5 -128t-285.5 -41q-160 0 -269.5 35t-175 112t-94.5 196.5t-29 291.5zM311 680q0 -172 17.5 -275.5t62.5 -161 t122 -75.5t196 -18q100 0 172.5 20t120 70.5t70 137.5t22.5 222q0 172 -18.5 275.5t-63.5 160t-122 74.5t-196 18q-100 0 -171.5 -19t-119 -70.5t-70 -137.5t-22.5 -221zM606 1407l195 362h250l-310 -362h-135z" />
<glyph unicode="&#xd4;" d="M104 604q0 184 35 317.5t110 219.5t192.5 127t283.5 41q160 0 270.5 -35t178 -111t97 -195.5t29.5 -291.5q0 -184 -35.5 -317.5t-111.5 -220.5t-195.5 -128t-285.5 -41q-160 0 -269.5 35t-175 112t-94.5 196.5t-29 291.5zM311 680q0 -172 17.5 -275.5t62.5 -161 t122 -75.5t196 -18q100 0 172.5 20t120 70.5t70 137.5t22.5 222q0 172 -18.5 275.5t-63.5 160t-122 74.5t-196 18q-100 0 -171.5 -19t-119 -70.5t-70 -137.5t-22.5 -221zM383 1407l164 383h311l164 -383h-125l-184 272h-21l-184 -272h-125z" />
<glyph unicode="&#xd5;" d="M104 604q0 184 35 317.5t110 219.5t192.5 127t283.5 41q160 0 270.5 -35t178 -111t97 -195.5t29.5 -291.5q0 -184 -35.5 -317.5t-111.5 -220.5t-195.5 -128t-285.5 -41q-160 0 -269.5 35t-175 112t-94.5 196.5t-29 291.5zM311 680q0 -172 17.5 -275.5t62.5 -161 t122 -75.5t196 -18q100 0 172.5 20t120 70.5t70 137.5t22.5 222q0 172 -18.5 275.5t-63.5 160t-122 74.5t-196 18q-100 0 -171.5 -19t-119 -70.5t-70 -137.5t-22.5 -221zM324 1421q10 72 22 127.5t33.5 93t55.5 57t85 19.5q55 0 104.5 -22.5t92.5 -50t81 -50t70 -22.5 q12 0 22.5 4t20 18.5t21.5 42t29 72.5h100q-10 -72 -22.5 -127t-34 -93t-54 -57.5t-86.5 -19.5q-55 0 -104 22.5t-92 50t-81 50.5t-71 23q-12 0 -22.5 -4.5t-19.5 -18.5t-21.5 -41t-28.5 -74h-100z" />
<glyph unicode="&#xd6;" d="M104 604q0 184 35 317.5t110 219.5t192.5 127t283.5 41q160 0 270.5 -35t178 -111t97 -195.5t29.5 -291.5q0 -184 -35.5 -317.5t-111.5 -220.5t-195.5 -128t-285.5 -41q-160 0 -269.5 35t-175 112t-94.5 196.5t-29 291.5zM311 680q0 -172 17.5 -275.5t62.5 -161 t122 -75.5t196 -18q100 0 172.5 20t120 70.5t70 137.5t22.5 222q0 172 -18.5 275.5t-63.5 160t-122 74.5t-196 18q-100 0 -171.5 -19t-119 -70.5t-70 -137.5t-22.5 -221zM330 1542q0 74 27.5 103.5t111.5 29.5t109.5 -29.5t25.5 -103.5t-25.5 -105.5t-109.5 -31.5 t-111.5 31.5t-27.5 105.5zM801 1542q0 74 27.5 103.5t111.5 29.5t109.5 -29.5t25.5 -103.5t-25.5 -105.5t-109.5 -31.5t-111.5 31.5t-27.5 105.5z" />
<glyph unicode="&#xd7;" horiz-adv-x="995" d="M80 133l346 346l-346 344l76 76l346 -346l346 348l76 -76l-349 -346l347 -346l-76 -76l-344 346l-346 -346z" />
<glyph unicode="&#xd8;" d="M104 604q0 184 35 317.5t112 219.5t198.5 127t295.5 41q150 0 250 -33l84 145h135q-31 -53 -55 -96q-23 -37 -40 -66.5t-17 -31.5q106 -68 152 -202t46 -349q0 -184 -35.5 -317.5t-114.5 -220.5t-202 -128t-297 -41q-152 0 -260 37q-16 -29 -30.5 -52.5t-24.5 -43.5 q-12 -23 -25 -43h-127l109 188q-102 70 -145.5 204t-43.5 345zM311 680q0 -176 16.5 -282.5t67.5 -164.5l504 834v41q-41 10 -92 15t-113 5q-117 0 -191.5 -26.5t-117.5 -81.5t-58.5 -139t-15.5 -201zM489 164q41 -14 95.5 -14h124.5q117 0 191.5 26.5t117.5 81.5t59.5 140 t16.5 202q0 182 -17.5 289.5t-77.5 163.5l-510 -848v-41z" />
<glyph unicode="&#xd9;" horiz-adv-x="1454" d="M27 1151v129h526v-170h-154l-4 -8v-545q0 -125 15.5 -206t54.5 -126t102.5 -62.5t161.5 -17.5q100 0 168 18.5t107.5 64.5t57 126t17.5 203v528l-4 9l-174 57v129h506v-170h-154l-4 -8v-610q0 -143 -32.5 -244t-99 -162t-167 -89t-237.5 -28q-135 0 -231.5 28t-158 90.5 t-90 161.5t-28.5 243v593l-4 9zM371 1769h250l194 -362h-135z" />
<glyph unicode="&#xda;" horiz-adv-x="1454" d="M27 1151v129h526v-170h-154l-4 -8v-545q0 -125 15.5 -206t54.5 -126t102.5 -62.5t161.5 -17.5q100 0 168 18.5t107.5 64.5t57 126t17.5 203v528l-4 9l-174 57v129h506v-170h-154l-4 -8v-610q0 -143 -32.5 -244t-99 -162t-167 -89t-237.5 -28q-135 0 -231.5 28t-158 90.5 t-90 161.5t-28.5 243v593l-4 9zM662 1407l194 362h250l-309 -362h-135z" />
<glyph unicode="&#xdb;" horiz-adv-x="1454" d="M27 1151v129h526v-170h-154l-4 -8v-545q0 -125 15.5 -206t54.5 -126t102.5 -62.5t161.5 -17.5q100 0 168 18.5t107.5 64.5t57 126t17.5 203v528l-4 9l-174 57v129h506v-170h-154l-4 -8v-610q0 -143 -32.5 -244t-99 -162t-167 -89t-237.5 -28q-135 0 -231.5 28t-158 90.5 t-90 161.5t-28.5 243v593l-4 9zM418 1407l164 383h311l164 -383h-125l-184 272h-21l-184 -272h-125z" />
<glyph unicode="&#xdc;" horiz-adv-x="1454" d="M27 1151v129h526v-170h-154l-4 -8v-545q0 -125 15.5 -206t54.5 -126t102.5 -62.5t161.5 -17.5q100 0 168 18.5t107.5 64.5t57 126t17.5 203v528l-4 9l-174 57v129h506v-170h-154l-4 -8v-610q0 -143 -32.5 -244t-99 -162t-167 -89t-237.5 -28q-135 0 -231.5 28t-158 90.5 t-90 161.5t-28.5 243v593l-4 9zM344 1542q0 74 27.5 103.5t111.5 29.5t109.5 -29.5t25.5 -103.5t-25.5 -105.5t-109.5 -31.5t-111.5 31.5t-27.5 105.5zM815 1542q0 74 27.5 103.5t111.5 29.5t110 -29.5t26 -103.5t-26 -105.5t-110 -31.5t-111.5 31.5t-27.5 105.5z" />
<glyph unicode="&#xdd;" horiz-adv-x="1210" d="M-20 1151v129h481v-170h-113l-4 -8l260 -461h41l248 461l-4 8l-137 41v129h467v-170h-146l-6 -8l-367 -613v-294l2 -9l197 -57v-129h-571v170h178l4 8v318l-379 604l-10 10zM508 1407l194 362h250l-309 -362h-135z" />
<glyph unicode="&#xde;" horiz-adv-x="1159" d="M68 1151v129h546v-170h-174l-4 -8v-64h172q262 0 384 -80.5t122 -273.5q0 -219 -122 -329.5t-330 -110.5q-61 0 -115.5 5t-110.5 17v-71l4 -9l195 -57v-129h-547v170h154l4 8v907l-4 9zM436 414q39 -8 86 -12.5t82 -4.5q86 0 143.5 14.5t93.5 47.5t51 83t15 122 q0 59 -16.5 98t-55 62.5t-103 33.5t-161.5 10h-135v-454z" />
<glyph unicode="&#xdf;" horiz-adv-x="1167" d="M33 756v59l157 88v117q0 170 96.5 269.5t315.5 99.5q203 0 297 -71t94 -245q0 -51 -27.5 -96t-70.5 -84t-95 -70.5t-100 -54.5v-41q88 -33 159 -68.5t120 -83t74.5 -113t25.5 -159.5q0 -178 -82 -256t-256 -78q-94 0 -151.5 13.5t-89 37t-41.5 57.5t-10 75q0 49 32.5 62 t79.5 13q35 0 72 -18.5t86 -77.5h18q104 0 137 45t33 119q0 53 -13 97t-55 85t-119 81t-204 85v166q47 29 100.5 58.5t97.5 61.5t73.5 68.5t29.5 75.5q0 166 -215 166q-131 0 -185.5 -56.5t-54.5 -203.5v-979h-307v170h135q4 0 5 8v537z" />
<glyph unicode="&#xe0;" horiz-adv-x="1001" d="M68 240q0 72 30.5 128t101 99t185.5 70.5t281 42.5v67q0 63 -49.5 111.5t-163.5 48.5q-33 0 -69 -4t-63.5 -10.5t-46 -14.5t-18.5 -16q0 -4 2 -15.5t4 -25.5t4 -26.5t2 -16.5q0 -20 -22.5 -29.5t-89.5 -9.5q-51 0 -65.5 8t-14.5 27q0 72 33.5 127t91 92t131.5 56.5 t153 19.5q180 0 267.5 -74t85.5 -256v-444q0 -35 16 -47.5t61 -12.5q23 0 47.5 3t38.5 7q2 -18 3 -32v-41q-25 -45 -73 -74t-104 -29q-72 0 -112.5 35t-40.5 129h-21q-47 -74 -133 -119t-178 -45q-59 0 -109.5 20.5t-87 57.5t-57 86t-20.5 107zM113 1427h249l195 -362h-135z M256 258q0 -55 37 -91t123 -36q68 0 138.5 25.5t111.5 54.5v260q-117 -20 -196 -40.5t-126 -45.5t-67.5 -55.5t-20.5 -71.5z" />
<glyph unicode="&#xe1;" horiz-adv-x="1001" d="M68 240q0 72 30.5 128t101 99t185.5 70.5t281 42.5v67q0 63 -49.5 111.5t-163.5 48.5q-33 0 -69 -4t-63.5 -10.5t-46 -14.5t-18.5 -16q0 -4 2 -15.5t4 -25.5t4 -26.5t2 -16.5q0 -20 -22.5 -29.5t-89.5 -9.5q-51 0 -65.5 8t-14.5 27q0 72 33.5 127t91 92t131.5 56.5 t153 19.5q180 0 267.5 -74t85.5 -256v-444q0 -35 16 -47.5t61 -12.5q23 0 47.5 3t38.5 7q2 -18 3 -32v-41q-25 -45 -73 -74t-104 -29q-72 0 -112.5 35t-40.5 129h-21q-47 -74 -133 -119t-178 -45q-59 0 -109.5 20.5t-87 57.5t-57 86t-20.5 107zM256 258q0 -55 37 -91 t123 -36q68 0 138.5 25.5t111.5 54.5v260q-117 -20 -196 -40.5t-126 -45.5t-67.5 -55.5t-20.5 -71.5zM383 1065l195 362h249l-309 -362h-135z" />
<glyph unicode="&#xe2;" horiz-adv-x="1001" d="M68 240q0 72 30.5 128t101 99t185.5 70.5t281 42.5v67q0 63 -49.5 111.5t-163.5 48.5q-33 0 -69 -4t-63.5 -10.5t-46 -14.5t-18.5 -16q0 -4 2 -15.5t4 -25.5t4 -26.5t2 -16.5q0 -20 -22.5 -29.5t-89.5 -9.5q-51 0 -65.5 8t-14.5 27q0 72 33.5 127t91 92t131.5 56.5 t153 19.5q180 0 267.5 -74t85.5 -256v-444q0 -35 16 -47.5t61 -12.5q23 0 47.5 3t38.5 7q2 -18 3 -32v-41q-25 -45 -73 -74t-104 -29q-72 0 -112.5 35t-40.5 129h-21q-47 -74 -133 -119t-178 -45q-59 0 -109.5 20.5t-87 57.5t-57 86t-20.5 107zM150 1065l163 383h312 l163 -383h-124l-185 272h-20l-185 -272h-124zM256 258q0 -55 37 -91t123 -36q68 0 138.5 25.5t111.5 54.5v260q-117 -20 -196 -40.5t-126 -45.5t-67.5 -55.5t-20.5 -71.5z" />
<glyph unicode="&#xe3;" horiz-adv-x="1001" d="M68 240q0 72 30.5 128t101 99t185.5 70.5t281 42.5v67q0 63 -49.5 111.5t-163.5 48.5q-33 0 -69 -4t-63.5 -10.5t-46 -14.5t-18.5 -16q0 -4 2 -15.5t4 -25.5t4 -26.5t2 -16.5q0 -20 -22.5 -29.5t-89.5 -9.5q-51 0 -65.5 8t-14.5 27q0 72 33.5 127t91 92t131.5 56.5 t153 19.5q180 0 267.5 -74t85.5 -256v-444q0 -35 16 -47.5t61 -12.5q23 0 47.5 3t38.5 7q2 -18 3 -32v-41q-25 -45 -73 -74t-104 -29q-72 0 -112.5 35t-40.5 129h-21q-47 -74 -133 -119t-178 -45q-59 0 -109.5 20.5t-87 57.5t-57 86t-20.5 107zM80 1079q10 72 22.5 127.5 t34 93t55 57t84.5 19.5q55 0 104.5 -22.5t92.5 -50t81 -50t71 -22.5q12 0 22 4t19.5 18.5t21.5 42t29 72.5h100q-10 -72 -22.5 -127t-34 -93t-54 -57.5t-85.5 -19.5q-55 0 -104.5 22.5t-92.5 50t-81 50.5t-71 23q-12 0 -22 -4.5t-19.5 -18.5t-21.5 -41t-29 -74h-100z M256 258q0 -55 37 -91t123 -36q68 0 138.5 25.5t111.5 54.5v260q-117 -20 -196 -40.5t-126 -45.5t-67.5 -55.5t-20.5 -71.5z" />
<glyph unicode="&#xe4;" horiz-adv-x="1001" d="M68 240q0 72 30.5 128t101 99t185.5 70.5t281 42.5v67q0 63 -49.5 111.5t-163.5 48.5q-33 0 -69 -4t-63.5 -10.5t-46 -14.5t-18.5 -16q0 -4 2 -15.5t4 -25.5t4 -26.5t2 -16.5q0 -20 -22.5 -29.5t-89.5 -9.5q-51 0 -65.5 8t-14.5 27q0 72 33.5 127t91 92t131.5 56.5 t153 19.5q180 0 267.5 -74t85.5 -256v-444q0 -35 16 -47.5t61 -12.5q23 0 47.5 3t38.5 7q2 -18 3 -32v-41q-25 -45 -73 -74t-104 -29q-72 0 -112.5 35t-40.5 129h-21q-47 -74 -133 -119t-178 -45q-59 0 -109.5 20.5t-87 57.5t-57 86t-20.5 107zM106 1200q0 74 28 103.5 t112 29.5t109.5 -29.5t25.5 -103.5t-25.5 -105.5t-109.5 -31.5t-112 31.5t-28 105.5zM256 258q0 -55 37 -91t123 -36q68 0 138.5 25.5t111.5 54.5v260q-117 -20 -196 -40.5t-126 -45.5t-67.5 -55.5t-20.5 -71.5zM578 1200q0 74 27.5 103.5t111.5 29.5t109.5 -29.5 t25.5 -103.5t-25.5 -105.5t-109.5 -31.5t-111.5 31.5t-27.5 105.5z" />
<glyph unicode="&#xe5;" horiz-adv-x="1001" d="M68 240q0 72 30.5 128t101 99t185.5 70.5t281 42.5v67q0 63 -49.5 111.5t-163.5 48.5q-33 0 -69 -4t-63.5 -10.5t-46 -14.5t-18.5 -16q0 -4 2 -15.5t4 -25.5t4 -26.5t2 -16.5q0 -20 -22.5 -29.5t-89.5 -9.5q-51 0 -65.5 8t-14.5 27q0 72 33.5 127t91 92t131.5 56.5 t153 19.5q180 0 267.5 -74t85.5 -256v-444q0 -35 16 -47.5t61 -12.5q23 0 47.5 3t38.5 7q2 -18 3 -32v-41q-25 -45 -73 -74t-104 -29q-72 0 -112.5 35t-40.5 129h-21q-47 -74 -133 -119t-178 -45q-59 0 -109.5 20.5t-87 57.5t-57 86t-20.5 107zM233 1303q0 127 56.5 184 t191.5 57q76 0 123 -12t74 -41t37 -74.5t10 -113.5q0 -119 -55.5 -182.5t-188.5 -63.5q-74 0 -122 14t-75.5 44t-39 76t-11.5 112zM256 258q0 -55 37 -91t123 -36q68 0 138.5 25.5t111.5 54.5v260q-117 -20 -196 -40.5t-126 -45.5t-67.5 -55.5t-20.5 -71.5zM332 1303 q0 -41 4 -70t19.5 -47.5t45 -26.5t80.5 -8q90 0 118 37t28 115q0 47 -4.5 75.5t-19.5 44t-44 21.5t-78 6q-90 0 -119.5 -34t-29.5 -113z" />
<glyph unicode="&#xe6;" horiz-adv-x="1538" d="M68 240q0 72 30.5 128t101 99t185.5 70.5t281 42.5v67q0 63 -49.5 111.5t-163.5 48.5q-33 0 -69 -4t-63.5 -10.5t-46 -14.5t-18.5 -16q0 -4 2 -15.5t4 -25.5t4 -26.5t2 -16.5q0 -20 -22.5 -29.5t-89.5 -9.5q-51 0 -65.5 8t-14.5 27q0 72 35.5 127t94 92t134.5 56.5 t156 19.5q66 0 111.5 -7.5t78.5 -21.5t56.5 -33.5t41.5 -44.5q104 106 314 107q186 0 279 -86t93 -287l-40 -160l-592 6v-2q0 -80 12 -135t41 -90t77 -50t122 -15q111 0 210 35.5t166 76.5l9 -49q-23 -57 -66 -102t-97.5 -77t-115.5 -48.5t-121 -16.5q-139 0 -226 46 t-120 141h-41q-29 -43 -68.5 -78t-86 -58.5t-95.5 -37t-96 -13.5q-59 0 -109.5 20.5t-87 57.5t-57 86t-20.5 107zM256 258q0 -55 37 -91t123 -36q68 0 138.5 29.5t121.5 81.5q-14 47 -20.5 102.5t-6.5 118.5q-109 -12 -183.5 -30.5t-121.5 -43t-67.5 -57.5t-20.5 -74z M844 537l446 20q-6 76 -17 123t-37 72.5t-69 35t-110 9.5q-61 0 -100 -10.5t-62 -40t-34 -80t-17 -129.5z" />
<glyph unicode="&#xe7;" horiz-adv-x="980" d="M94 477q0 133 32 226.5t92.5 151.5t144 86t188.5 28q100 0 168.5 -15.5t111.5 -43t62.5 -67.5t19.5 -91q0 -49 -22.5 -71t-75.5 -22q-68 0 -107.5 32t-86.5 104q-25 4 -55.5 6t-59.5 2q-117 0 -170 -65.5t-53 -233.5q0 -98 12 -166t41 -110t77 -60t122 -18 q111 0 205 35.5t161 76.5l8 -49q-35 -90 -114.5 -149.5t-173.5 -81.5l-119 -115v-21q154 8 217 -43t63 -135q0 -63 -25.5 -110t-80.5 -81t-143.5 -54.5t-215.5 -32.5l-10 80q98 20 160.5 39.5t96.5 40t46.5 45t12.5 57.5q0 49 -67 71.5t-220 22.5h-19v57l170 166 q-211 10 -302 135t-91 373z" />
<glyph unicode="&#xe8;" horiz-adv-x="1003" d="M94 477q0 133 34 226.5t95.5 151.5t147.5 86t192 28q373 0 373 -373l-41 -160l-612 6v-2q0 -160 63.5 -225t208.5 -65q111 0 210 35.5t167 76.5l8 -49q-23 -57 -66 -102t-97 -77t-115.5 -48.5t-120.5 -16.5q-229 0 -338 126t-109 382zM166 1427h250l194 -362h-135z M289 537l467 20q-6 76 -17.5 123t-37 72.5t-68.5 35t-111 9.5q-61 0 -103 -8.5t-68.5 -35t-41 -77.5t-20.5 -139z" />
<glyph unicode="&#xe9;" horiz-adv-x="1003" d="M94 477q0 133 34 226.5t95.5 151.5t147.5 86t192 28q373 0 373 -373l-41 -160l-612 6v-2q0 -160 63.5 -225t208.5 -65q111 0 210 35.5t167 76.5l8 -49q-23 -57 -66 -102t-97 -77t-115.5 -48.5t-120.5 -16.5q-229 0 -338 126t-109 382zM289 537l467 20q-6 76 -17.5 123 t-37 72.5t-68.5 35t-111 9.5q-61 0 -103 -8.5t-68.5 -35t-41 -77.5t-20.5 -139zM436 1065l195 362h250l-310 -362h-135z" />
<glyph unicode="&#xea;" horiz-adv-x="1003" d="M94 477q0 133 34 226.5t95.5 151.5t147.5 86t192 28q373 0 373 -373l-41 -160l-612 6v-2q0 -160 63.5 -225t208.5 -65q111 0 210 35.5t167 76.5l8 -49q-23 -57 -66 -102t-97 -77t-115.5 -48.5t-120.5 -16.5q-229 0 -338 126t-109 382zM193 1065l163 383h312l163 -383 h-124l-185 272h-20l-185 -272h-124zM289 537l467 20q-6 76 -17.5 123t-37 72.5t-68.5 35t-111 9.5q-61 0 -103 -8.5t-68.5 -35t-41 -77.5t-20.5 -139z" />
<glyph unicode="&#xeb;" horiz-adv-x="1003" d="M94 477q0 133 34 226.5t95.5 151.5t147.5 86t192 28q373 0 373 -373l-41 -160l-612 6v-2q0 -160 63.5 -225t208.5 -65q111 0 210 35.5t167 76.5l8 -49q-23 -57 -66 -102t-97 -77t-115.5 -48.5t-120.5 -16.5q-229 0 -338 126t-109 382zM139 1200q0 74 28 103.5t112 29.5 t109.5 -29.5t25.5 -103.5t-26 -105.5t-109 -31.5q-84 0 -112 31.5t-28 105.5zM289 537l467 20q-6 76 -17.5 123t-37 72.5t-68.5 35t-111 9.5q-61 0 -103 -8.5t-68.5 -35t-41 -77.5t-20.5 -139zM610 1200q0 74 28 103.5t112 29.5t109.5 -29.5t25.5 -103.5t-25.5 -105.5 t-109.5 -31.5t-112 31.5t-28 105.5z" />
<glyph unicode="&#xec;" horiz-adv-x="557" d="M-88 1427h250l194 -362h-135zM35 803v49l327 119v-776q0 -4 7 -9l133 -57v-129h-447v170h135q4 0 5 8v522q0 6 -5 9z" />
<glyph unicode="&#xed;" horiz-adv-x="557" d="M35 803v49l327 119v-776q0 -4 7 -9l133 -57v-129h-447v170h135q4 0 5 8v522q0 6 -5 9zM172 1065l195 362h249l-309 -362h-135z" />
<glyph unicode="&#xee;" horiz-adv-x="557" d="M-61 1065l163 383h312l164 -383h-125l-185 272h-20l-185 -272h-124zM35 803v49l327 119v-776q0 -4 7 -9l133 -57v-129h-447v170h135q4 0 5 8v522q0 6 -5 9z" />
<glyph unicode="&#xef;" horiz-adv-x="557" d="M-115 1200q0 74 28 103.5t112 29.5t109.5 -29.5t25.5 -103.5t-25.5 -105.5t-109.5 -31.5t-112 31.5t-28 105.5zM35 803v49l327 119v-776q0 -4 7 -9l133 -57v-129h-447v170h135q4 0 5 8v522q0 6 -5 9zM356 1200q0 74 28 103.5t112 29.5t109.5 -29.5t25.5 -103.5 t-25.5 -105.5t-109.5 -31.5t-112 31.5t-28 105.5z" />
<glyph unicode="&#xf0;" horiz-adv-x="1116" d="M88 451q0 274 101.5 396t324.5 122q86 0 149.5 -32t104.5 -79h20q-78 141 -200 254l-414 -108v157l262 68q-92 61 -209 110v50h228q45 -23 90 -48.5t88 -60.5l356 94v-157l-215 -56q111 -117 182.5 -278.5t71.5 -378.5q0 -141 -43 -242.5t-114.5 -167t-164 -96.5 t-188.5 -31q-227 0 -328.5 128t-101.5 356zM279 477q0 -106 12 -173.5t55 -106.5q61 -55 219 -56q72 0 123 16.5t83 54.5t47.5 100.5t15.5 154.5q0 100 -8.5 167.5t-30.5 121.5q-47 16 -103.5 27.5t-144.5 11.5q-72 0 -123 -15.5t-83 -51.5t-47 -97.5t-15 -153.5z" />
<glyph unicode="&#xf1;" horiz-adv-x="1173" d="M35 803v49l327 119v-178h21q53 92 134 134t169 42q90 0 149.5 -17.5t95.5 -56.5t51 -98.5t15 -145.5v-456l4 -9l154 -57v-129h-446v170h116l4 8v418q0 61 -9 100t-30.5 61.5t-57.5 31t-91 8.5q-86 0 -160.5 -26t-118.5 -62v-240v-274l5 -9l153 -57v-129h-452v170h120l7 8 v522l-5 9zM188 1079q10 72 22.5 127.5t34 93t55.5 57t85 19.5q55 0 104.5 -22.5t92.5 -50t80.5 -50t70.5 -22.5q12 0 22.5 4t19.5 18.5t21.5 42t28.5 72.5h101q-10 -72 -22.5 -127t-34 -93t-54.5 -57.5t-86 -19.5q-55 0 -104.5 22.5t-92.5 50t-80.5 50.5t-70.5 23 q-12 0 -22.5 -4.5t-19.5 -18.5t-21.5 -41t-28.5 -74h-101z" />
<glyph unicode="&#xf2;" horiz-adv-x="1116" d="M88 451q0 137 43 235t114.5 160.5t164 92.5t188.5 30q227 0 328.5 -124t101.5 -351q0 -137 -43 -236.5t-114.5 -164t-164 -95.5t-188.5 -31q-227 0 -328.5 128t-101.5 356zM190 1427h250l195 -362h-135zM279 477q0 -106 12 -173.5t55 -106.5q61 -55 219 -56 q72 0 123 16.5t83 54.5t47.5 100.5t15.5 154.5q0 100 -11.5 165.5t-48.5 102.5q-31 33 -85 46.5t-142 13.5q-72 0 -123 -15.5t-83 -51.5t-47 -97.5t-15 -153.5z" />
<glyph unicode="&#xf3;" horiz-adv-x="1116" d="M88 451q0 137 43 235t114.5 160.5t164 92.5t188.5 30q227 0 328.5 -124t101.5 -351q0 -137 -43 -236.5t-114.5 -164t-164 -95.5t-188.5 -31q-227 0 -328.5 128t-101.5 356zM279 477q0 -106 12 -173.5t55 -106.5q61 -55 219 -56q72 0 123 16.5t83 54.5t47.5 100.5 t15.5 154.5q0 100 -11.5 165.5t-48.5 102.5q-31 33 -85 46.5t-142 13.5q-72 0 -123 -15.5t-83 -51.5t-47 -97.5t-15 -153.5zM481 1065l195 362h250l-310 -362h-135z" />
<glyph unicode="&#xf4;" horiz-adv-x="1116" d="M88 451q0 137 43 235t114.5 160.5t164 92.5t188.5 30q227 0 328.5 -124t101.5 -351q0 -137 -43 -236.5t-114.5 -164t-164 -95.5t-188.5 -31q-227 0 -328.5 128t-101.5 356zM238 1065l163 383h312l164 -383h-125l-185 272h-20l-185 -272h-124zM279 477q0 -106 12 -173.5 t55 -106.5q61 -55 219 -56q72 0 123 16.5t83 54.5t47.5 100.5t15.5 154.5q0 100 -11.5 165.5t-48.5 102.5q-31 33 -85 46.5t-142 13.5q-72 0 -123 -15.5t-83 -51.5t-47 -97.5t-15 -153.5z" />
<glyph unicode="&#xf5;" horiz-adv-x="1116" d="M88 451q0 137 43 235t114.5 160.5t164 92.5t188.5 30q227 0 328.5 -124t101.5 -351q0 -137 -43 -236.5t-114.5 -164t-164 -95.5t-188.5 -31q-227 0 -328.5 128t-101.5 356zM209 1079q10 72 22.5 127.5t34 93t55 57t85.5 19.5q55 0 104 -22.5t92 -50t81 -50t71 -22.5 q12 0 22 4t19.5 18.5t21.5 42t29 72.5h100q-10 -72 -22.5 -127t-34 -93t-54 -57.5t-85.5 -19.5q-55 0 -104.5 22.5t-92.5 50t-81 50.5t-71 23q-12 0 -22 -4.5t-19.5 -18.5t-21.5 -41t-29 -74h-100zM279 477q0 -106 12 -173.5t55 -106.5q61 -55 219 -56q72 0 123 16.5 t83 54.5t47.5 100.5t15.5 154.5q0 100 -11.5 165.5t-48.5 102.5q-31 33 -85 46.5t-142 13.5q-72 0 -123 -15.5t-83 -51.5t-47 -97.5t-15 -153.5z" />
<glyph unicode="&#xf6;" horiz-adv-x="1116" d="M88 451q0 137 43 235t114.5 160.5t164 92.5t188.5 30q227 0 328.5 -124t101.5 -351q0 -137 -43 -236.5t-114.5 -164t-164 -95.5t-188.5 -31q-227 0 -328.5 128t-101.5 356zM184 1200q0 74 28 103.5t112 29.5t109.5 -29.5t25.5 -103.5t-25.5 -105.5t-109.5 -31.5 t-112 31.5t-28 105.5zM279 477q0 -106 12 -173.5t55 -106.5q61 -55 219 -56q72 0 123 16.5t83 54.5t47.5 100.5t15.5 154.5q0 100 -11.5 165.5t-48.5 102.5q-31 33 -85 46.5t-142 13.5q-72 0 -123 -15.5t-83 -51.5t-47 -97.5t-15 -153.5zM655 1200q0 74 28 103.5t112 29.5 t109.5 -29.5t25.5 -103.5t-25.5 -105.5t-109.5 -31.5t-112 31.5t-28 105.5z" />
<glyph unicode="&#xf7;" horiz-adv-x="995" d="M84 426l6 111h817l6 -111h-829zM395 193q0 41 30 72.5t77 31.5t75.5 -31.5t28.5 -72.5t-28.5 -74t-75.5 -33t-77 33t-30 74zM395 766q0 41 29 73.5t76 32.5t76.5 -32.5t29.5 -73.5t-29.5 -74t-76.5 -33t-76 33t-29 74z" />
<glyph unicode="&#xf8;" horiz-adv-x="1116" d="M74 -264l176 303q-84 59 -123 163.5t-39 248.5q0 137 43 235t114.5 160.5t164 92.5t188.5 30q49 0 91 -6.5t79 -16.5l162 279h135l-193 -330q82 -59 119 -159.5t37 -241.5q0 -137 -43 -236.5t-114.5 -164t-164 -95.5t-188.5 -31t-170 25l-147 -256h-127zM279 477 q0 -104 11 -169.5t52 -106.5l334 583q-57 10 -129 11q-72 0 -123 -15.5t-83 -51.5t-47 -97.5t-15 -153.5zM442 152q25 -4 55.5 -7.5t67.5 -3.5q72 0 123 16.5t83 54.5t47.5 100.5t15.5 154.5q0 98 -10.5 161.5t-45.5 102.5z" />
<glyph unicode="&#xf9;" horiz-adv-x="1163" d="M20 809v129h336v-596q0 -61 8.5 -100t30 -61.5t57 -31t91.5 -8.5q86 0 150.5 26t107.5 62v240v274l-4 9l-164 57v129h336v-698l4 -9l153 -73v-49l-305 -160l-20 196h-21q-53 -92 -123.5 -134t-158.5 -42q-90 0 -149.5 17.5t-95.5 56.5t-51.5 98.5t-15.5 145.5v456l-4 9z M195 1427h249l195 -362h-135z" />
<glyph unicode="&#xfa;" horiz-adv-x="1163" d="M20 809v129h336v-596q0 -61 8.5 -100t30 -61.5t57 -31t91.5 -8.5q86 0 150.5 26t107.5 62v240v274l-4 9l-164 57v129h336v-698l4 -9l153 -73v-49l-305 -160l-20 196h-21q-53 -92 -123.5 -134t-158.5 -42q-90 0 -149.5 17.5t-95.5 56.5t-51.5 98.5t-15.5 145.5v456l-4 9z M424 1065l194 362h250l-309 -362h-135z" />
<glyph unicode="&#xfb;" horiz-adv-x="1163" d="M20 809v129h336v-596q0 -61 8.5 -100t30 -61.5t57 -31t91.5 -8.5q86 0 150.5 26t107.5 62v240v274l-4 9l-164 57v129h336v-698l4 -9l153 -73v-49l-305 -160l-20 196h-21q-53 -92 -123.5 -134t-158.5 -42q-90 0 -149.5 17.5t-95.5 56.5t-51.5 98.5t-15.5 145.5v456l-4 9z M242 1065l164 383h311l164 -383h-125l-185 272h-20l-184 -272h-125z" />
<glyph unicode="&#xfc;" horiz-adv-x="1163" d="M20 809v129h336v-596q0 -61 8.5 -100t30 -61.5t57 -31t91.5 -8.5q86 0 150.5 26t107.5 62v240v274l-4 9l-164 57v129h336v-698l4 -9l153 -73v-49l-305 -160l-20 196h-21q-53 -92 -123.5 -134t-158.5 -42q-90 0 -149.5 17.5t-95.5 56.5t-51.5 98.5t-15.5 145.5v456l-4 9z M168 1200q0 74 27.5 103.5t111.5 29.5t109.5 -29.5t25.5 -103.5t-25.5 -105.5t-109.5 -31.5t-111.5 31.5t-27.5 105.5zM639 1200q0 74 27.5 103.5t111.5 29.5t109.5 -29.5t25.5 -103.5t-25.5 -105.5t-109.5 -31.5t-111.5 31.5t-27.5 105.5z" />
<glyph unicode="&#xfd;" horiz-adv-x="1024" d="M-37 807v131h436v-170h-100l-4 -8l213 -633h31l206 616l-4 11l-137 53v131h430v-170h-123l-10 -8l-280 -760l-50 -143q-55 -164 -134 -246t-226 -82q-133 0 -186.5 41t-53.5 115q0 66 23.5 89t81.5 23q66 0 102.5 -23.5t65.5 -95.5h20q23 8 43.5 20.5t41 35t41 61.5 t42.5 103l37 102h-68l-276 743l-10 11zM395 1065l195 362h250l-310 -362h-135z" />
<glyph unicode="&#xfe;" horiz-adv-x="1134" d="M-6 1214v50l328 118v-589h10q55 74 136 113.5t163 39.5q127 0 205.5 -32.5t125 -93t62.5 -143.5t16 -183q0 -96 -26.5 -190.5t-80.5 -168.5t-138 -120t-199 -46q-84 0 -144.5 23.5t-119.5 77.5h-10v-318l4 -8l153 -57v-129h-452v170h120l7 8v1374l-4 10zM322 166 q37 -8 106.5 -13.5t157.5 -5.5q72 0 121 14.5t79.5 48.5t44 91t13.5 143q0 100 -11.5 164t-41 99.5t-81 49t-132.5 13.5q-76 0 -143.5 -9t-112.5 -20v-575z" />
<glyph unicode="&#xff;" horiz-adv-x="1024" d="M-37 807v131h436v-170h-100l-4 -8l213 -633h31l206 616l-4 11l-137 53v131h430v-170h-123l-10 -8l-280 -760l-50 -143q-55 -164 -134 -246t-226 -82q-133 0 -186.5 41t-53.5 115q0 66 23.5 89t81.5 23q66 0 102.5 -23.5t65.5 -95.5h20q23 8 43.5 20.5t41 35t41 61.5 t42.5 103l37 102h-68l-276 743l-10 11zM139 1200q0 74 28 103.5t112 29.5t109.5 -29.5t25.5 -103.5t-26 -105.5t-109 -31.5q-84 0 -112 31.5t-28 105.5zM610 1200q0 74 28 103.5t112 29.5t109.5 -29.5t25.5 -103.5t-25.5 -105.5t-109.5 -31.5t-112 31.5t-28 105.5z" />
<glyph unicode="&#x152;" horiz-adv-x="2009" d="M104 612q0 176 37 302t123 208t230.5 120t359.5 38h1016v-381h-137l-50 156q-6 20 -17 31.5t-49 16.5t-115 6t-214 1h-121v-399h35q76 0 116 1t58.5 6t24.5 15t16 29l58 119h112l-45 -447h-112l-29 129q-2 6 -4 10.5t-20.5 7.5t-58.5 4t-116 1h-35v-416h111q139 0 217 4 t117 11.5t51 17.5t18 24l72 144h137l-39 -371h-1015q-362 0 -547 147.5t-185 464.5zM299 678q0 -147 34 -246.5t105.5 -159t187 -83t277.5 -19.5l74 2v938h-209q-252 0 -360.5 -105.5t-108.5 -326.5z" />
<glyph unicode="&#x153;" horiz-adv-x="1714" d="M88 451q0 137 43 235t114.5 160.5t164 92.5t188.5 30q119 0 201 -34t133 -99q109 133 342 133q186 0 279.5 -86t93.5 -287l-41 -160l-592 6v-2q0 -80 12 -135t41 -90t77 -50t122 -15q111 0 210 35.5t166 76.5l9 -49q-23 -57 -66 -102t-97 -77t-115.5 -48.5t-121.5 -16.5 q-143 0 -220 42t-128 120q-72 -86 -173 -125t-212 -39q-227 0 -328.5 128t-101.5 356zM279 477q0 -106 12 -173.5t55 -106.5q61 -55 219 -56q72 0 123 16.5t83 54.5t47.5 100.5t15.5 154.5q0 100 -11.5 165.5t-48.5 102.5q-31 33 -85 46.5t-142 13.5q-72 0 -123 -15.5 t-83 -51.5t-47 -97.5t-15 -153.5zM1020 557h446q-6 76 -17 123t-37 72.5t-69 35t-110 9.5q-61 0 -100 -7.5t-61.5 -33t-34 -72.5t-17.5 -127z" />
<glyph unicode="&#x178;" horiz-adv-x="1210" d="M-20 1151v129h481v-170h-113l-4 -8l260 -461h41l248 461l-4 8l-137 41v129h467v-170h-146l-6 -8l-367 -613v-294l2 -9l197 -57v-129h-571v170h178l4 8v318l-379 604l-10 10zM231 1542q0 74 28 103.5t112 29.5t109.5 -29.5t25.5 -103.5t-25.5 -105.5t-109.5 -31.5 t-112 31.5t-28 105.5zM702 1542q0 74 28 103.5t112 29.5t109.5 -29.5t25.5 -103.5t-25.5 -105.5t-109.5 -31.5t-112 31.5t-28 105.5z" />
<glyph unicode="&#x2c6;" horiz-adv-x="819" d="M70 1065l163 383h312l164 -383h-125l-185 272h-20l-184 -272h-125z" />
<glyph unicode="&#x2dc;" horiz-adv-x="819" d="M41 1079q10 72 22.5 127.5t34 93t55 57t85.5 19.5q55 0 104 -22.5t92 -50t81 -50t71 -22.5q12 0 22 4t19.5 18.5t22 42t28.5 72.5h100q-10 -72 -22.5 -127t-34 -93t-54 -57.5t-85.5 -19.5q-55 0 -104.5 22.5t-92.5 50t-81 50.5t-71 23q-12 0 -22 -4.5t-19.5 -18.5 t-21.5 -41t-29 -74h-100z" />
<glyph unicode="&#x2000;" horiz-adv-x="895" />
<glyph unicode="&#x2001;" horiz-adv-x="1790" />
<glyph unicode="&#x2002;" horiz-adv-x="895" />
<glyph unicode="&#x2003;" horiz-adv-x="1790" />
<glyph unicode="&#x2004;" horiz-adv-x="596" />
<glyph unicode="&#x2005;" horiz-adv-x="447" />
<glyph unicode="&#x2006;" horiz-adv-x="298" />
<glyph unicode="&#x2007;" horiz-adv-x="298" />
<glyph unicode="&#x2008;" horiz-adv-x="223" />
<glyph unicode="&#x2009;" horiz-adv-x="358" />
<glyph unicode="&#x200a;" horiz-adv-x="99" />
<glyph unicode="&#x2010;" horiz-adv-x="647" d="M74 418v157h504v-157h-504z" />
<glyph unicode="&#x2011;" horiz-adv-x="647" d="M74 418v157h504v-157h-504z" />
<glyph unicode="&#x2012;" horiz-adv-x="647" d="M74 418v157h504v-157h-504z" />
<glyph unicode="&#x2013;" horiz-adv-x="962" d="M74 418v157h815v-157h-815z" />
<glyph unicode="&#x2014;" horiz-adv-x="1925" d="M74 418v157h1777v-157h-1777z" />
<glyph unicode="&#x2018;" horiz-adv-x="522" d="M68 926q0 66 20.5 118t63.5 103t108.5 103.5t157.5 115.5l35 -37q-90 -111 -141.5 -189.5t-51.5 -140.5q0 -51 40 -82.5t136 -54.5q0 -72 -32.5 -113.5t-116.5 -41.5q-43 0 -83 11t-70 36.5t-48 67.5t-18 104z" />
<glyph unicode="&#x2019;" horiz-adv-x="522" d="M70 721q90 111 142 189.5t52 140.5q0 51 -40 82.5t-138 54.5q0 72 34 113.5t118 41.5q43 0 81.5 -11t69.5 -36.5t48.5 -68t17.5 -103.5q0 -63 -20.5 -116.5t-62.5 -104.5t-107.5 -103t-158.5 -116z" />
<glyph unicode="&#x201a;" horiz-adv-x="522" d="M70 -385q90 111 142 189.5t52 140.5q0 51 -40 82.5t-138 54.5q0 72 34 114t118 42q43 0 81.5 -11.5t69.5 -37t48.5 -68t17.5 -103.5q0 -66 -20.5 -118t-62.5 -103t-107.5 -103t-158.5 -116z" />
<glyph unicode="&#x201c;" horiz-adv-x="1021" d="M68 926q0 66 20.5 118t63.5 103t108.5 103.5t157.5 115.5l35 -37q-90 -111 -141.5 -189.5t-51.5 -140.5q0 -51 40 -82.5t136 -54.5q0 -72 -32.5 -113.5t-116.5 -41.5q-43 0 -83 11t-70 36.5t-48 67.5t-18 104zM567 926q0 66 20.5 118t63.5 103t108.5 103.5t158.5 115.5 l34 -37q-90 -111 -141 -189.5t-51 -140.5q0 -51 40 -82.5t138 -54.5q0 -72 -34 -113.5t-118 -41.5q-43 0 -82.5 11t-69.5 36.5t-48.5 67.5t-18.5 104z" />
<glyph unicode="&#x201d;" horiz-adv-x="1021" d="M70 721q90 111 142 189.5t52 140.5q0 51 -40 82.5t-138 54.5q0 72 34 113.5t118 41.5q43 0 81.5 -11t69.5 -36.5t48.5 -68t17.5 -103.5q0 -63 -20.5 -116.5t-62.5 -104.5t-107.5 -103t-158.5 -116zM569 721q92 111 143.5 189.5t51.5 140.5q0 51 -40 82.5t-138 54.5 q0 72 33.5 113.5t117.5 41.5q43 0 82 -11t70 -36.5t48 -68t17 -103.5q0 -63 -20.5 -116.5t-62.5 -104.5t-107.5 -103t-157.5 -116z" />
<glyph unicode="&#x201e;" horiz-adv-x="1021" d="M70 -385q90 111 142 189.5t52 140.5q0 51 -40 82.5t-138 54.5q0 72 34 114t118 42q43 0 81.5 -11.5t69.5 -37t48.5 -68t17.5 -103.5q0 -66 -20.5 -118t-62.5 -103t-107.5 -103t-158.5 -116zM569 -385q92 111 143.5 189.5t51.5 140.5q0 51 -40 82.5t-138 54.5 q0 72 33.5 114t117.5 42q43 0 82 -11.5t70 -37t48 -68t17 -103.5q0 -66 -20.5 -118t-62.5 -103t-107.5 -103t-157.5 -116z" />
<glyph unicode="&#x2022;" horiz-adv-x="931" d="M72 475q0 23 12 63t30.5 83t39 80.5t34.5 52.5q16 16 53.5 35.5t80.5 37t83.5 29.5t61.5 12q23 0 62.5 -12t82.5 -29.5t81 -37t52 -35.5q16 -14 36 -52t37.5 -81t29.5 -83t12 -63t-12 -62.5t-29.5 -82.5t-37 -81t-36.5 -54q-14 -14 -52 -35t-81 -38.5t-84 -29.5t-63 -12 q-20 0 -61.5 12t-84.5 29.5t-79.5 38t-51.5 35.5q-14 16 -34.5 54t-39 81t-30.5 83t-12 62z" />
<glyph unicode="&#x2026;" horiz-adv-x="1566" d="M113 117q0 82 30.5 114.5t122.5 32.5q90 0 119 -32.5t29 -114.5t-29 -117t-119 -35q-92 0 -122.5 35t-30.5 117zM635 117q0 82 30.5 114.5t122.5 32.5q90 0 119 -32.5t29 -114.5t-28.5 -117t-119.5 -35q-92 0 -122.5 35t-30.5 117zM1157 117q0 82 31 114.5t123 32.5 q90 0 118.5 -32.5t28.5 -114.5t-28.5 -117t-118.5 -35q-92 0 -123 35t-31 117z" />
<glyph unicode="&#x202f;" horiz-adv-x="358" />
<glyph unicode="&#x2039;" horiz-adv-x="718" d="M98 387v184l494 297l14 -125l-362 -243v-41l362 -244l-14 -125z" />
<glyph unicode="&#x203a;" horiz-adv-x="718" d="M113 215l362 244v41l-362 243l14 125l494 -297v-184l-494 -297z" />
<glyph unicode="&#x205f;" horiz-adv-x="447" />
<glyph unicode="&#x20ac;" horiz-adv-x="1097" d="M27 424l10 115h137q-2 16 -2 32.5v32.5v51.5t2 49.5h-137l-10 114h151q16 133 56 223.5t108 145.5t163 79.5t220 24.5q104 0 167.5 -11t97.5 -33.5t45.5 -55.5t11.5 -74t-19.5 -58.5t-73.5 -17.5q-39 0 -66.5 2.5t-54 10.5t-55 25.5t-67.5 47.5h-56q-111 0 -183.5 -69.5 t-96.5 -239.5h489l-10 -114h-508q-2 -16 -2 -33v-35v-51.5t2 -46.5h508l10 -115h-489q12 -86 38.5 -139.5t65.5 -83t91.5 -40.5t117.5 -11q111 0 200 35.5t156 76.5l9 -49q-45 -115 -141.5 -179.5t-247.5 -64.5q-211 0 -334 105.5t-154 349.5h-149z" />
<glyph unicode="&#x2122;" horiz-adv-x="2072" d="M74 1006l24 276h727v-276h-114l-25 104q-4 20 -10 30.5t-19.5 15.5t-37 6t-62.5 1h-41v-491l4 -6l139 -48v-102h-395v135h113l6 8v504h-41q-55 0 -82 -8t-39 -45l-33 -104h-114zM926 1180v102h370l148 -582h24l183 582h334v-135h-99l-4 -6l4 -469l4 -6l123 -48v-102h-362 v135h96l6 8l4 478h-24l-213 -596h-148l-186 594h-25l-6 -463l2 -6l123 -48v-102h-338v135h96l4 8l9 467l-2 9z" />
<glyph unicode="&#x25fc;" horiz-adv-x="942" d="M0 0v942h942v-942h-942z" />
<glyph unicode="&#xfb01;" horiz-adv-x="1196" d="M33 756v59l157 88v21q0 242 115 353.5t326 111.5q188 0 265 -49.5t77 -133.5q0 -49 -22.5 -62.5t-69.5 -13.5q-35 0 -81 14.5t-110 69.5q-25 4 -50.5 6.5t-53.5 2.5q-117 0 -170.5 -70t-53.5 -240v-24h469q2 0 28 12t59 29q37 18 83 41v-776v-5l7 -4l133 -57v-129h-447 v170h135q4 0 5 8v567h-472v-546q0 -8 7 -13l194 -57v-129h-508v170h135q4 0 5 8v537z" />
<glyph unicode="&#xfb02;" horiz-adv-x="1175" d="M33 756v59l157 88v21q0 242 115 353.5t326 111.5q78 0 137 -19.5t102 -50.5l131 63v-1187v-5l7 -4l133 -57v-129h-447v170h135q4 0 5 8v567h-472v-546q0 -8 7 -13l194 -57v-129h-508v170h135q4 0 5 8v537zM362 889h472v244q-29 6 -65 23.5t-79 55.5q-23 6 -49.5 8.5 t-52.5 2.5q-119 0 -172.5 -70t-53.5 -240v-24z" />
<glyph unicode="&#xfb03;" horiz-adv-x="1835" d="M33 756v59l157 88v39q0 203 90.5 304.5t256.5 101.5q121 0 198.5 -47.5t77.5 -131.5l-18 -53q-18 10 -46 21.5t-63 21.5q-37 12 -78 20.5t-82 8.5q-88 0 -126 -56.5t-38 -164.5v-78h467v35q0 242 115 353.5t326 111.5q188 0 265 -49.5t77 -133.5q0 -49 -22.5 -62.5 t-69.5 -13.5q-35 0 -81 14.5t-110 69.5q-25 4 -50.5 6.5t-53.5 2.5q-117 0 -170.5 -70t-53.5 -240v-24h469q2 0 28 12t58 29q37 18 84 41v-776v-5l7 -4l133 -57v-129h-447v170h135q4 0 5 8v567h-472v-546q0 -8 7 -13l194 -57v-129h-508v170h135q4 0 5 8v567h-472v-546 q0 -8 7 -13l194 -57v-129h-508v170h135q4 0 5 8v537z" />
<glyph unicode="&#xfb04;" horiz-adv-x="1814" d="M33 756v59l157 88v39q0 203 90.5 304.5t256.5 101.5q121 0 198.5 -47.5t77.5 -131.5l-18 -53q-18 10 -46 21.5t-63 21.5q-37 12 -78 20.5t-82 8.5q-88 0 -126 -56.5t-38 -164.5v-78h467v35q0 242 115 353.5t326 111.5q78 0 137 -19.5t102 -50.5l131 63v-1187v-5l7 -4 l133 -57v-129h-447v170h135q4 0 5 8v567h-472v-546q0 -8 7 -13l194 -57v-129h-508v170h135q4 0 5 8v567h-472v-546q0 -8 7 -13l194 -57v-129h-508v170h135q4 0 5 8v537zM1001 889h472v244q-29 6 -65 23.5t-79 55.5q-23 6 -49.5 8.5t-52.5 2.5q-119 0 -172.5 -70t-53.5 -240 v-24z" />
</font>
</defs>
</svg>
