<svg xmlns="http://www.w3.org/2000/svg" width="60" height="88.2" viewBox="0 0 60 88.2"><path stroke="#B4B4B4" stroke-linecap="round" stroke-linejoin="round" stroke-miterlimit="10" fill="none" d="M44.3 13.7v.1zM59.2 74.1l.1-4.2.1-5.3.1-9.6v-1.3l-.1-.3-.1-.8v-.3l-.1-.1v-.8h-.1l-.1-.1-.1-.1h-.2l-.1-.1v-.2l.1-.1v-.1l-.1-.1-.2.2-.1.2-.2-.3-.1-.1-.3-.4v-.1l-.1-.1v-.2l-.2-.4h-.1v-.1l-.2.1H57l-.2-.1h-.1v-.1l.2.1.2.2h.1l.1-.2-.1-.2-.1-.1-.2-.1-.2-.1v-.2h.1V48.3l.1-.2h.1V48l-.1-.1-.1-.2-.1-.2-.1-.2-.1-.2-.3-.4-.3-.6-.2-.4-.2-.4-.1-.5-.2-.6h-.1l-.2-.1V44l.7-.4v-.2H55v-.7l.1-.3v-.2l.1-.2v-.1h.1v.1h.5l-.2-.3v-.1h.1l-.5-.1-.1-.1-.1-.2-.1-.1V41l-.1-.1h-.1l-.1-.1V40.5l.2-.1.1-.1-.1-.1h-.2l-.2-.3-.2-.4v-.2l.1-.2v-.4l-.2-.1-.2-.1v-.3l.1-.1V38l-.1-.4-.1-.3.1-.1h.1l.3-.1v-.2l-.2-.1h-.2l-.1-.1-.3-.2-.2-.2v-.4h.1l-.1-.2-.1-.1-.1-.3.1-.6v-.2l-.1-.2-.1-.2-.2-.3v-.2l-.2-.6-.1-.6-.1-.2V32l-.1-.2.1-.2-.4-.2-.4-.9V30h.2l.1-.2-.1-.3-.1-.2-.2-.1-.1-.2-.1-.2-.2-.2-.2-.3-.6-.5-.6-.7-.3-.4v-.3l-.1-.1-.1-.1-.2-.2-.2-.3-.1-.1-.2-.4-.4-.9-.2-.3-.8-1.4-.3-.3-.6-.6-.5-1h.3l-.2-.4-.1-.7-.2-.2-.1-.1h-.3v-.4l-.3-1-.2-.8-.1-.9-.1-.4-.2-.5v-.7l-.1-.5h.2l-.1-.3v-.7l.1-.3v-.5l.1-.3.2-.3v-.5l.1-.6.1-.6v-.2l.1-.1v.4l.1.3h.1l-.4-.5v-.2l.2-.2.1-.3.2-.2.2-.3-.1-.2h.1V7.6l.1-1.2V5l.2-1.4v-.5l.1-1.1-.1-.9-4.1-.1-5.4-.1-3.5.1-2.5.1-3-.1h-1L21 .9 15.6.7 10.9.6 4.7.5H.9L.8 5.9v5.9l-.2 5.9-.1 5.7 5.8.2v6h-.7l-.1 5.7-.1 5.8-.2 5.8-.1 5.8v2.8l.1 3.1v11.8H11l5.8-.1 5.8-.1.1 5.8.1 5.8.1 5.9 5.7-.1 6-.1-.1-5.8 5.9.1 5.8.1H58.1l1.1-.2z"/><path stroke="#2D3943" stroke-linecap="round" stroke-linejoin="round" stroke-miterlimit="10" fill="none" d="M44.3 13.7v.1zM5.2 46.9l-.1 5.8v2.8l.1 3.1v11.8H11l5.8-.1 5.8-.1.1 5.8.1 5.8.1 5.9 5.7-.1 6-.1-.1-5.8 5.9.1 5.8.1H58.1l1.1-.2v-7.6l.1-4.1.1-5.4.1-9.6v-1.3l-.1-.3-.1-.8v-.3l-.1-.1v-.8h-.1l-.1-.1h-.1l-.1-.1h-.1l-.1-.1v-.2l.1-.1v-.1l-.1-.1-.2.2-.1.2-.2-.3-.1-.1-.3-.4v-.1l-.1-.1v-.2l-.2-.4h-.1v-.1l-.2.1H57l-.2-.1h-.1v-.1l.2.1.2.2h.1l.1-.2-.1-.2-.1-.1-.2-.1-.2-.1v-.2h.1V48.3l.1-.2h.1V48l-.1-.1-.1-.2-.1-.2-.1-.2-.1-.2-.3-.4-.3-.6-.2-.4-.2-.4-.1-.5-.2-.6h-.1l-.2-.1V44l.7-.4v-.2H55v-.7l.1-.3v-.2l.1-.2v-.1h.1v.1h.5l-.2-.3v-.1h.1l-.5-.1-.1-.1-.1-.2-.1-.1V41l-.1-.1h-.1l-.1-.1V40.5l.2-.1.1-.1-.1-.1h-.2l-.2-.3-.2-.4v-.2l.1-.2v-.4l-.2-.1-.2-.1v-.3l.1-.1V38l-.1-.4-.1-.3.1-.1h.1l.3-.1v-.2l-.2-.1h-.2l-.1-.1-.3-.2-.2-.2v-.4h.1l-.1-.2-.1-.1-.1-.3.1-.6v-.2l-.1-.2-.1-.2-.2-.3v-.2l-.2-.6-.1-.6-.1-.2V32l-.1-.2.1-.2-.4-.2-.4-.9V30h.2l.1-.2-.1-.3-.1-.2-.2-.1-.1-.2-.1-.2-.2-.2-.2-.3-.6-.5-.6-.7-.3-.4v-.3l-.1-.1-.1-.1-.2-.2-.2-.3-.1-.1-.2-.4-.4-.9-.2-.3-.8-1.4-.3-.3-.6-.6-.5-1h.3l-.2-.4-.1-.7-.2-.2-.1-.1h-.3v-.4l-.3-1-.2-.8-.1-.9-.1-.4-.2-.5v-.7l-.1-.5h.2l-.1-.3v-.7l.1-.3v-.5l.1-.3.2-.3v-.5l.1-.6.1-.6v-.2l.1-.1v.1l.1.3v.3h.1l-.4-.5v-.2l.2-.2.1-.3.2-.2.2-.3-.1-.2h.1V7.6l.1-1.2V5l.2-1.4v-.5l.1-1.1-.1-.9-4.1-.1-5.4-.1-3.5.1-2.5.1-3-.1h-1L21 .9 15.6.7 10.9.6 4.7.5H.9"/></svg>