<svg xmlns="http://www.w3.org/2000/svg" width="10" height="16" viewBox="0 0 10 16"><path fill="#5888aa" d="M1.7 1.83C2.53.94 3.67.5 5.12.5c1.34 0 2.41.38 3.22 1.13.81.76 1.21 1.72 1.21 2.9 0 .71-.15 1.29-.44 1.73-.29.44-.89 1.1-1.8 1.96-.66.63-1.09 1.16-1.29 1.59-.2.43-.3 1.07-.3 1.92H3.93c0-.96.11-1.74.34-2.32s.74-1.27 1.53-2.03l.82-.8c.25-.23.45-.47.6-.72.28-.42.42-.88.42-1.35 0-.66-.2-1.23-.6-1.71-.4-.48-1.07-.73-1.99-.73-1.15 0-1.94.42-2.38 1.25-.25.47-.39 1.14-.42 2.01H.45c0-1.45.42-2.62 1.25-3.5zM3.89 13.4H5.9v2.1H3.89v-2.1z"/></svg>