<?xml version="1.0" encoding="utf-8"?>
<!-- Generator: Adobe Illustrator 22.0.1, SVG Export Plug-In . SVG Version: 6.00 Build 0)  -->
<svg version="1.1" xmlns="http://www.w3.org/2000/svg" xmlns:xlink="http://www.w3.org/1999/xlink" x="0px" y="0px"
	 viewBox="0 0 50 50" style="enable-background:new 0 0 50 50;" xml:space="preserve">
<g id="Originals" style="display:none;">
</g>
<g id="Layer_1">
	<rect x="15.53" y="15.53" style="opacity:0.75;fill:#00508B;" width="18.93" height="18.93"/>
	<path style="fill:#FFFFFF;" d="M35,35H15V15h20V35z M16.07,33.93h17.86V16.07H16.07V33.93z"/>
	<path style="fill:#FFFFFF;" d="M29.58,24.47h-4.05v-4.05c0-0.3-0.24-0.53-0.53-0.53s-0.53,0.24-0.53,0.53v4.05h-4.05
		c-0.3,0-0.53,0.24-0.53,0.53c0,0.3,0.24,0.53,0.53,0.53h4.05v4.05c0,0.3,0.24,0.53,0.53,0.53s0.53-0.24,0.53-0.53v-4.05h4.05
		c0.3,0,0.53-0.24,0.53-0.53C30.11,24.7,29.88,24.47,29.58,24.47z"/>
</g>
</svg>
