<?xml version="1.0" encoding="utf-8"?>
<!-- Generator: Adobe Illustrator 22.0.1, SVG Export Plug-In . SVG Version: 6.00 Build 0)  -->
<svg version="1.1" xmlns="http://www.w3.org/2000/svg" xmlns:xlink="http://www.w3.org/1999/xlink" x="0px" y="0px"
	 viewBox="0 0 50 50" style="enable-background:new 0 0 50 50;" xml:space="preserve">
<g id="Originals" style="display:none;">
</g>
<g id="Layer_1">
	<g>
		<path d="M32.09,22.3c-0.57,0-1.03,0.46-1.03,1.03v9.6h-12.1v-9.6c0-0.57-0.46-1.03-1.03-1.03s-1.03,0.46-1.03,1.03V35h16.24V23.34
			C33.12,22.77,32.66,22.3,32.09,22.3z"/>
		<path d="M21.98,20.36l1.99-1.73v8.73c0,0.57,0.46,1.03,1.03,1.03s1.03-0.46,1.03-1.03v-8.73l1.99,1.73
			c0.2,0.17,0.44,0.25,0.68,0.25c0.29,0,0.58-0.12,0.78-0.36c0.37-0.43,0.33-1.08-0.1-1.46L25,15l-4.38,3.8
			c-0.43,0.37-0.48,1.03-0.1,1.46C20.89,20.69,21.55,20.73,21.98,20.36z"/>
	</g>
</g>
</svg>
