<svg xmlns="http://www.w3.org/2000/svg" width="22px" height="22px" viewBox="0 0 22 22">
  <g fill="#C9D5DC">
    <path
      d="M8.55804349,12.456043 C8.20006289,12.0980624 8.20006289,11.5176612 8.55804349,11.1596806 C8.91602409,10.8017 9.49642532,10.8017 9.85440592,11.1596806 L10.5804059,11.8856806 C10.6521931,11.9574678 10.8125408,12.0907702 11.029914,12.2258973 C11.5938074,12.5764339 12.1112146,12.6646353 12.5596528,12.4156143 C12.6817559,12.3478096 12.8051632,12.253672 12.9298625,12.1289726 L18.6010435,6.45656944 C18.6346714,6.42294153 18.7151611,6.3229381 18.8003748,6.17574714 C19.1724626,5.53303469 19.1404169,4.88963865 18.3578213,4.10704298 L17.0622657,2.81148743 C16.9904785,2.73970023 16.8301308,2.60639774 16.6127576,2.47127064 C16.0488643,2.12073408 15.531457,2.03253268 15.0830188,2.28155368 C14.9609157,2.34935842 14.8375084,2.44349602 14.7126075,2.56839696 L11.7059408,5.57384141 C11.3478874,5.93174923 10.7674862,5.93163124 10.4095784,5.57357787 C10.0516706,5.2155245 10.0517886,4.63512328 10.4098419,4.27721546 L13.4163768,1.27190277 C13.6593791,1.02890046 13.9187663,0.831034587 14.1929775,0.678763094 C15.3300507,0.0473381113 16.5095144,0.248398974 17.5806533,0.914257798 C17.9309858,1.13203719 18.1951443,1.3516412 18.3586281,1.515125 L19.6541837,2.81068055 C21.0712927,4.22778955 21.1485471,5.77886464 20.3869993,7.09429708 C20.2138663,7.39335218 20.0360092,7.61432861 19.8974758,7.75286203 L14.2262948,13.4252652 C13.9832925,13.6682675 13.7239053,13.8661334 13.4496941,14.0184049 C12.3126209,14.6498299 11.1331572,14.448769 10.0620183,13.7829102 C9.71168585,13.5651308 9.44752729,13.3455268 9.28404349,13.182043 L8.55804349,12.456043 Z"/>
    <path
      d="M12.6023281,8.72256944 C12.9603087,9.08055004 12.9603087,9.66095127 12.6023281,10.0189319 C12.2443475,10.3769125 11.6639463,10.3769125 11.3059657,10.0189319 L10.5799657,9.29293187 C10.5081785,9.22114467 10.3478308,9.08784219 10.1304576,8.95271508 C9.56656427,8.60217852 9.04915702,8.51397713 8.6007188,8.76299813 C8.4786157,8.83080286 8.35520844,8.92494047 8.23050909,9.04963981 L2.55932814,14.722043 C2.52570023,14.7556709 2.44521056,14.8556743 2.35999679,15.0028653 C1.98790906,15.6455777 2.0199547,16.2889738 2.80255036,17.0715694 L4.09810592,18.367125 C4.16989312,18.4389122 4.3302408,18.5722147 4.54761405,18.7073418 C5.11150736,19.0578783 5.62891461,19.1460797 6.07735283,18.8970587 C6.19945593,18.829254 6.32286319,18.7351164 6.44776416,18.6102155 L9.45443083,15.604771 C9.8124842,15.2468632 10.3928854,15.2469812 10.7507932,15.6050346 C11.1087011,15.9630879 11.1085831,16.5434891 10.7505297,16.901397 L7.74399481,19.9067097 C7.5009925,20.149712 7.24160533,20.3475778 6.96739409,20.4998493 C5.83032093,21.1312743 4.6508572,20.9302135 3.57971833,20.2643546 C3.22938585,20.0465752 2.96522729,19.8269712 2.80174349,19.6634874 L1.50618793,18.3679319 C0.0890789387,16.9508229 0.0118245253,15.3997478 0.773372354,14.0843153 C0.946505348,13.7852603 1.12436244,13.5642838 1.26289587,13.4257504 L6.93407682,7.75334722 C7.17707913,7.51034491 7.4364663,7.31247903 7.71067754,7.16020754 C8.8477507,6.52878256 10.0272144,6.72984342 11.0983533,7.39570224 C11.4486858,7.61348163 11.7128443,7.83308564 11.8763281,7.99656944 L12.6023281,8.72256944 Z"/>
  </g>
</svg>