<?xml version="1.0" encoding="utf-8"?>
<!-- Generator: Adobe Illustrator 22.0.1, SVG Export Plug-In . SVG Version: 6.00 Build 0)  -->
<svg version="1.1" xmlns="http://www.w3.org/2000/svg" xmlns:xlink="http://www.w3.org/1999/xlink" x="0px" y="0px"
	 viewBox="0 0 50 50" style="enable-background:new 0 0 50 50;" xml:space="preserve">
<g id="Originals" style="display:none;">
</g>
<g id="Layer_1">
	<g>
		<path d="M33.83,17.43l-1.26-1.26c-1.01-1.01-3.13-1.91-4.81-0.24l-2.92,2.92c-0.35,0.35-0.35,0.91,0,1.26
			c0.35,0.35,0.91,0.35,1.26,0l2.92-2.92c0.96-0.96,2.08,0.03,2.29,0.24l1.26,1.26c1.15,1.15,0.46,2.04,0.24,2.29l-5.52,5.52
			c-0.96,0.96-2.08-0.03-2.29-0.24l-0.71-0.71c-0.35-0.35-0.91-0.35-1.26,0c-0.35,0.35-0.35,0.91,0,1.26l0.71,0.71
			c0.61,0.6,1.6,1.17,2.67,1.17c0.72,0,1.47-0.26,2.14-0.93l5.52-5.52C34.7,21.6,35.9,19.5,33.83,17.43z"/>
		<path d="M23.9,29.87l-2.93,2.92c-0.96,0.96-2.07-0.03-2.28-0.24l-1.26-1.26c-1.15-1.15-0.47-2.05-0.24-2.29l5.52-5.52
			c0.96-0.96,2.08,0.03,2.29,0.24l0.71,0.71c0.35,0.35,0.91,0.35,1.26,0c0.35-0.35,0.35-0.91,0-1.26l-0.71-0.71
			c-1.01-1.01-3.13-1.91-4.81-0.24l-5.52,5.52c-0.64,0.64-1.83,2.74,0.24,4.81l1.26,1.26c0.06,0.06,0.63,0.61,1.46,0.94
			C19.3,34.92,19.7,35,20.1,35c0.79,0,1.52-0.32,2.15-0.94l2.92-2.92c0.35-0.35,0.35-0.91,0-1.26
			C24.82,29.53,24.25,29.53,23.9,29.87z"/>
	</g>
</g>
</svg>
