<svg xmlns="http://www.w3.org/2000/svg" xmlns:xlink="http://www.w3.org/1999/xlink" width="46" height="46" viewBox="0 0 46 46"><g opacity=".25"><defs><path id="a" opacity=".25" d="M17 16.876h12v12H17z"/></defs><clipPath id="b"><use xlink:href="#a" overflow="visible"/></clipPath><g clip-path="url(#b)"><defs><path id="c" d="M16.996 16.876h12v12h-12z"/></defs><clipPath id="d"><use xlink:href="#c" overflow="visible"/></clipPath><image overflow="visible" enable-background="new" width="13" height="13" xlink:href="4DA857B422511543.png" transform="matrix(.923 0 0 .923 17.495 16.875)" clip-path="url(#d)"/></g></g><path fill="#5888AA" d="M23 13.458L20.786 23h4.426z"/><path fill="#ACB9BF" d="M23 32.542L25.212 23h-4.426zM18.23 23L23 25.212v-4.424zM27.77 22.958L23 20.746v4.425z"/><path fill="#fff" d="M25.213 22.958c0-1.22-.992-2.212-2.214-2.212s-2.213.99-2.213 2.212c0 1.222.99 2.213 2.212 2.213 1.22 0 2.213-.99 2.213-2.212"/><circle stroke="#5888AA" stroke-miterlimit="10" cx="22.999" cy="22.958" r="2.212" fill="none"/></svg>