<?xml version="1.0" encoding="utf-8"?>
<!-- Generator: Adobe Illustrator 16.0.4, SVG Export Plug-In . SVG Version: 6.00 Build 0)  -->
<!DOCTYPE svg PUBLIC "-//W3C//DTD SVG 1.1//EN" "http://www.w3.org/Graphics/SVG/1.1/DTD/svg11.dtd">
<svg version="1.1" id="Layer_1" xmlns="http://www.w3.org/2000/svg" xmlns:xlink="http://www.w3.org/1999/xlink" x="0px" y="0px"
	 width="60px" height="88.2px" viewBox="0 0 60 88.2" enable-background="new 0 0 60 88.2" xml:space="preserve">
<polygon fill="none" stroke="#B4B4B4" stroke-linecap="round" stroke-linejoin="round" stroke-miterlimit="10" points="44.3,13.7 
	44.3,13.7 44.3,13.8 "/>
<polygon fill="none" stroke="#B4B4B4" stroke-linecap="round" stroke-linejoin="round" stroke-miterlimit="10" points="59.2,74.1 
	59.3,69.9 59.4,64.6 59.5,55 59.5,53.7 59.4,53.4 59.3,52.6 59.3,52.3 59.2,52.2 59.2,51.4 59.1,51.4 59,51.3 58.9,51.2 58.8,51.2 
	58.7,51.2 58.6,51.1 58.6,50.9 58.7,50.8 58.7,50.7 58.6,50.6 58.4,50.8 58.3,51 58.3,51 58.1,50.7 58,50.6 57.7,50.2 57.7,50.1 
	57.6,50 57.6,49.9 57.6,49.9 57.6,49.8 57.4,49.4 57.3,49.4 57.3,49.3 57.1,49.4 57,49.4 56.8,49.3 56.7,49.3 56.7,49.2 56.9,49.3 
	57.1,49.5 57.2,49.5 57.3,49.3 57.2,49.1 57.1,49 56.9,48.9 56.7,48.8 56.7,48.6 56.8,48.6 56.8,48.4 56.8,48.3 56.9,48.1 57,48.1 
	57,48 57,48 56.9,47.9 56.8,47.7 56.7,47.5 56.6,47.3 56.5,47.1 56.2,46.7 55.9,46.1 55.7,45.7 55.5,45.3 55.4,44.8 55.2,44.2 
	55.1,44.2 54.9,44.1 54.9,44 55.6,43.6 55.6,43.4 55.2,43.4 55.1,43.4 55,43.4 55,42.7 55.1,42.4 55.1,42.2 55.2,42 55.2,41.9 
	55.3,41.9 55.3,42 55.8,42 55.6,41.7 55.6,41.6 55.7,41.6 55.2,41.5 55.1,41.4 55,41.2 54.9,41.1 54.9,41 54.8,40.9 54.7,40.9 
	54.6,40.8 54.6,40.6 54.6,40.5 54.8,40.4 54.9,40.3 54.8,40.2 54.7,40.2 54.6,40.2 54.4,39.9 54.2,39.5 54.2,39.3 54.3,39.1 
	54.3,39 54.3,38.7 54.1,38.6 53.9,38.5 53.9,38.2 54,38.1 54,38 53.9,37.6 53.8,37.3 53.9,37.2 54,37.2 54.3,37.1 54.3,37 
	54.3,36.9 54.1,36.8 53.9,36.8 53.8,36.7 53.5,36.5 53.3,36.3 53.3,36 53.3,35.9 53.4,35.9 53.3,35.7 53.2,35.6 53.1,35.3 
	53.2,34.7 53.2,34.5 53.1,34.3 53,34.1 52.8,33.8 52.8,33.6 52.6,33 52.5,32.4 52.4,32.2 52.4,32 52.3,31.8 52.4,31.6 52,31.4 
	51.6,30.5 51.6,30 51.8,30 51.9,29.8 51.8,29.5 51.7,29.3 51.5,29.2 51.4,29 51.3,28.8 51.1,28.6 50.9,28.3 50.3,27.8 49.7,27.1 
	49.4,26.7 49.4,26.4 49.3,26.3 49.2,26.2 49,26 48.8,25.7 48.7,25.6 48.5,25.2 48.1,24.3 47.9,24 47.1,22.6 46.8,22.3 46.2,21.7 
	45.7,20.7 46,20.7 45.8,20.3 45.7,19.6 45.5,19.4 45.4,19.3 45.1,19.3 45.1,18.9 44.8,17.9 44.6,17.1 44.5,16.2 44.4,15.8 
	44.2,15.3 44.2,15.2 44.2,14.6 44.1,14.1 44.3,14.1 44.2,13.8 44.2,13.4 44.2,13.1 44.3,12.8 44.3,12.5 44.3,12.3 44.4,12 
	44.6,11.7 44.6,11.2 44.7,10.6 44.8,10 44.8,9.8 44.9,9.7 44.9,9.8 44.9,10.1 45,10.4 45.1,10.4 44.7,9.9 44.7,9.7 44.9,9.5 45,9.2 
	45.2,9 45.4,8.7 45.3,8.5 45.4,8.5 45.4,8.3 45.4,7.6 45.5,6.4 45.5,5 45.7,3.6 45.7,3.1 45.8,2 45.7,1.1 41.6,1 36.2,0.9 32.7,1 
	30.2,1.1 27.2,1 26.3,1 26.2,1 21,0.9 15.6,0.7 10.9,0.6 4.7,0.5 2.5,0.5 0.9,0.5 0.8,5.9 0.8,11.8 0.6,17.7 0.5,23.4 6.3,23.6 
	6.3,29.6 5.6,29.6 5.5,35.3 5.4,41.1 5.2,46.9 5.1,52.7 5.1,53.5 5.1,55.5 5.2,58.6 5.2,64.5 5.2,70.4 11,70.4 16.8,70.3 22.6,70.2 
	22.7,76 22.8,81.8 22.9,87.7 28.6,87.6 34.6,87.5 34.5,81.7 40.4,81.8 46.2,81.9 46.4,81.9 52.3,81.9 57.8,81.9 58.1,81.9 
	59.2,81.7 "/>
<polygon fill="none" stroke="#2D3943" stroke-linecap="round" stroke-linejoin="round" stroke-miterlimit="10" points="44.3,13.7 
	44.3,13.7 44.3,13.8 "/>
<polyline fill="none" stroke="#2D3943" stroke-linecap="round" stroke-linejoin="round" stroke-miterlimit="10" points="5.2,46.9 
	5.1,52.7 5.1,53.5 5.1,55.5 5.2,58.6 5.2,64.5 5.2,70.4 11,70.4 16.8,70.3 22.6,70.2 22.7,76 22.8,81.8 22.9,87.7 28.6,87.6 
	34.6,87.5 34.5,81.7 40.4,81.8 46.2,81.9 46.4,81.9 52.3,81.9 57.8,81.9 58.1,81.9 59.2,81.7 59.2,74.1 59.3,70 59.4,64.6 59.5,55 
	59.5,53.7 59.4,53.4 59.3,52.6 59.3,52.3 59.2,52.2 59.2,51.4 59.1,51.4 59,51.3 58.9,51.3 58.8,51.2 58.7,51.2 58.6,51.1 
	58.6,50.9 58.7,50.8 58.7,50.7 58.6,50.6 58.4,50.8 58.3,51 58.3,51 58.1,50.7 58,50.6 57.7,50.2 57.7,50.1 57.6,50 57.6,49.9 
	57.6,49.9 57.6,49.8 57.4,49.4 57.3,49.4 57.3,49.3 57.1,49.4 57,49.4 56.8,49.3 56.7,49.3 56.7,49.2 56.9,49.3 57.1,49.5 
	57.2,49.5 57.3,49.3 57.2,49.1 57.1,49 56.9,48.9 56.7,48.8 56.7,48.6 56.8,48.6 56.8,48.4 56.8,48.3 56.9,48.1 57,48.1 57,48 
	57,48 56.9,47.9 56.8,47.7 56.7,47.5 56.6,47.3 56.5,47.1 56.2,46.7 55.9,46.1 55.7,45.7 55.5,45.3 55.4,44.8 55.2,44.2 55.1,44.2 
	54.9,44.1 54.9,44 55.6,43.6 55.6,43.4 55.2,43.4 55.1,43.4 55,43.4 55,42.7 55.1,42.4 55.1,42.2 55.2,42 55.2,41.9 55.3,41.9 
	55.3,42 55.8,42 55.6,41.7 55.6,41.6 55.7,41.6 55.2,41.5 55.1,41.4 55,41.2 54.9,41.1 54.9,41 54.8,40.9 54.7,40.9 54.6,40.8 
	54.6,40.6 54.6,40.5 54.8,40.4 54.9,40.3 54.8,40.2 54.7,40.2 54.6,40.2 54.4,39.9 54.2,39.5 54.2,39.3 54.3,39.1 54.3,39 
	54.3,38.7 54.1,38.6 53.9,38.5 53.9,38.2 54,38.1 54,38 53.9,37.6 53.8,37.3 53.9,37.2 54,37.2 54.3,37.1 54.3,37 54.3,36.9 
	54.1,36.8 53.9,36.8 53.8,36.7 53.5,36.5 53.3,36.3 53.3,36 53.3,35.9 53.4,35.9 53.3,35.7 53.2,35.6 53.1,35.3 53.2,34.7 
	53.2,34.5 53.1,34.3 53,34.1 52.8,33.8 52.8,33.6 52.6,33 52.5,32.4 52.4,32.2 52.4,32 52.3,31.8 52.4,31.6 52,31.4 51.6,30.5 
	51.6,30 51.8,30 51.9,29.8 51.8,29.5 51.7,29.3 51.5,29.2 51.4,29 51.3,28.8 51.1,28.6 50.9,28.3 50.3,27.8 49.7,27.1 49.4,26.7 
	49.4,26.4 49.3,26.3 49.2,26.2 49,26 48.8,25.7 48.7,25.6 48.5,25.2 48.1,24.3 47.9,24 47.1,22.6 46.8,22.3 46.2,21.7 45.7,20.7 
	46,20.7 45.8,20.3 45.7,19.6 45.5,19.4 45.4,19.3 45.1,19.3 45.1,18.9 44.8,17.9 44.6,17.1 44.5,16.2 44.4,15.8 44.2,15.3 
	44.2,15.2 44.2,14.6 44.1,14.1 44.3,14.1 44.2,13.8 44.2,13.4 44.2,13.1 44.3,12.8 44.3,12.5 44.3,12.3 44.4,12 44.6,11.7 
	44.6,11.2 44.7,10.6 44.8,10 44.8,9.8 44.9,9.7 44.9,9.8 45,10.1 45,10.4 45.1,10.4 44.7,9.9 44.7,9.7 44.9,9.5 45,9.2 45.2,9 
	45.4,8.7 45.3,8.5 45.4,8.5 45.4,8.3 45.4,7.6 45.5,6.4 45.5,5 45.7,3.6 45.7,3.1 45.8,2 45.7,1.1 41.6,1 36.2,0.9 32.7,1 30.2,1.1 
	27.2,1 26.3,1 26.2,1 21,0.9 15.6,0.7 10.9,0.6 4.7,0.5 2.5,0.5 0.9,0.5 "/>
<g>
</g>
<g>
</g>
<g>
</g>
<g>
</g>
<g>
</g>
<g>
</g>
</svg>
